<svg width="38" height="38" viewBox="0 0 38 38" fill="none" xmlns="http://www.w3.org/2000/svg">
<g filter="url(#filter0_i_316_683)">
<path d="M7.7778 14V26.4444M14.7778 14V26.4444M22.5556 14V26.4444M29.5556 14V26.4444M4.66669 28.9333L4.66669 30.1778C4.66669 31.049 4.66669 31.4846 4.83623 31.8173C4.98537 32.11 5.22334 32.348 5.51604 32.4971C5.84879 32.6667 6.28438 32.6667 7.15558 32.6667H30.1778C31.049 32.6667 31.4846 32.6667 31.8174 32.4971C32.11 32.348 32.348 32.11 32.4972 31.8173C32.6667 31.4846 32.6667 31.049 32.6667 30.1778V28.9333C32.6667 28.0621 32.6667 27.6265 32.4972 27.2938C32.348 27.0011 32.11 26.7631 31.8174 26.614C31.4846 26.4444 31.049 26.4444 30.1778 26.4444H7.15558C6.28438 26.4444 5.84879 26.4444 5.51604 26.614C5.22334 26.7631 4.98537 27.0011 4.83623 27.2938C4.66669 27.6265 4.66669 28.0621 4.66669 28.9333ZM18.1268 4.78664L6.61566 7.34467C5.92023 7.49921 5.57252 7.57648 5.31297 7.76347C5.08403 7.9284 4.90426 8.1525 4.79292 8.41176C4.66669 8.7057 4.66669 9.0619 4.66669 9.77429L4.66669 11.5111C4.66669 12.3823 4.66669 12.8179 4.83623 13.1506C4.98537 13.4433 5.22334 13.6813 5.51604 13.8305C5.84879 14 6.28438 14 7.15558 14H30.1778C31.049 14 31.4846 14 31.8174 13.8305C32.11 13.6813 32.348 13.4433 32.4972 13.1506C32.6667 12.8179 32.6667 12.3823 32.6667 11.5111V9.77429C32.6667 9.0619 32.6667 8.7057 32.5405 8.41177C32.4291 8.1525 32.2494 7.9284 32.0204 7.76347C31.7609 7.57648 31.4132 7.49921 30.7177 7.34467L19.2066 4.78664C19.0051 4.74187 18.9044 4.71948 18.8026 4.71055C18.7122 4.70262 18.6212 4.70262 18.5308 4.71055C18.429 4.71948 18.3283 4.74187 18.1268 4.78664Z" stroke="white" stroke-width="2.37946" stroke-linecap="round" stroke-linejoin="round"/>
</g>
<defs>
<filter id="filter0_i_316_683" x="0" y="0" width="37.3334" height="37.3334" filterUnits="userSpaceOnUse" color-interpolation-filters="sRGB">
<feFlood flood-opacity="0" result="BackgroundImageFix"/>
<feBlend mode="normal" in="SourceGraphic" in2="BackgroundImageFix" result="shape"/>
<feColorMatrix in="SourceAlpha" type="matrix" values="0 0 0 0 0 0 0 0 0 0 0 0 0 0 0 0 0 0 127 0" result="hardAlpha"/>
<feOffset/>
<feGaussianBlur stdDeviation="0.0807576"/>
<feComposite in2="hardAlpha" operator="arithmetic" k2="-1" k3="1"/>
<feColorMatrix type="matrix" values="0 0 0 0 0 0 0 0 0 0 0 0 0 0 0 0 0 0 0.25 0"/>
<feBlend mode="normal" in2="shape" result="effect1_innerShadow_316_683"/>
</filter>
</defs>
</svg>
