<svg width="38" height="38" viewBox="0 0 38 38" fill="none" xmlns="http://www.w3.org/2000/svg">
<g filter="url(#filter0_i_316_700)">
<path d="M18.6667 26.4445C18.6667 30.74 22.1489 34.2223 26.4445 34.2223C30.74 34.2223 34.2222 30.74 34.2222 26.4445C34.2222 22.1489 30.74 18.6667 26.4445 18.6667C22.1489 18.6667 18.6667 22.1489 18.6667 26.4445ZM18.6667 26.4445C18.6667 24.6932 19.2455 23.0771 20.2222 21.777V7.7778M18.6667 26.4445C18.6667 27.7284 18.9778 28.9396 19.5287 30.0069C18.2182 31.1139 15.1913 31.8889 11.6667 31.8889C6.94157 31.8889 3.11111 30.496 3.11111 28.7778V7.7778M20.2222 7.7778C20.2222 9.49602 16.3918 10.8889 11.6667 10.8889C6.94157 10.8889 3.11111 9.49602 3.11111 7.7778M20.2222 7.7778C20.2222 6.05958 16.3918 4.66669 11.6667 4.66669C6.94157 4.66669 3.11111 6.05958 3.11111 7.7778M3.11111 21.7778C3.11111 23.496 6.94157 24.8889 11.6667 24.8889C15.0718 24.8889 18.0123 24.1656 19.3895 23.1184M20.2222 14.7778C20.2222 16.496 16.3918 17.8889 11.6667 17.8889C6.94157 17.8889 3.11111 16.496 3.11111 14.7778" stroke="white" stroke-width="2.37946" stroke-linecap="round" stroke-linejoin="round"/>
</g>
<defs>
<filter id="filter0_i_316_700" x="0" y="0" width="37.3334" height="37.3334" filterUnits="userSpaceOnUse" color-interpolation-filters="sRGB">
<feFlood flood-opacity="0" result="BackgroundImageFix"/>
<feBlend mode="normal" in="SourceGraphic" in2="BackgroundImageFix" result="shape"/>
<feColorMatrix in="SourceAlpha" type="matrix" values="0 0 0 0 0 0 0 0 0 0 0 0 0 0 0 0 0 0 127 0" result="hardAlpha"/>
<feOffset/>
<feGaussianBlur stdDeviation="0.0807576"/>
<feComposite in2="hardAlpha" operator="arithmetic" k2="-1" k3="1"/>
<feColorMatrix type="matrix" values="0 0 0 0 0 0 0 0 0 0 0 0 0 0 0 0 0 0 0.25 0"/>
<feBlend mode="normal" in2="shape" result="effect1_innerShadow_316_700"/>
</filter>
</defs>
</svg>
