<svg width="50" height="50" viewBox="0 0 50 50" fill="none" xmlns="http://www.w3.org/2000/svg">
<path d="M8.81773 38.1527H7.83251C6.69951 38.1527 5.81281 39.0887 5.81281 40.1724V41.6995C5.81281 42.8325 6.74877 43.7192 7.83251 43.7192H8.81773C9.95074 43.7192 10.8374 42.7832 10.8374 41.6995V40.1724C10.8374 39.0394 9.90148 38.1527 8.81773 38.1527ZM8.66995 40.3694V41.5517H8.07882V40.3694H8.66995Z" fill="#ECEDE5"/>
<path d="M8.81773 24.7537H7.83251C6.69951 24.7537 5.81281 25.6896 5.81281 26.7734V28.3005C5.81281 29.4335 6.74877 30.3202 7.83251 30.3202H8.81773C9.95074 30.3202 10.8374 29.3842 10.8374 28.3005V26.7734C10.8374 25.6404 9.90148 24.7537 8.81773 24.7537ZM8.66995 26.9704V28.1527H8.07882V26.9704H8.66995Z" fill="#ECEDE5"/>
<path d="M8.81773 31.4532H7.83251C6.69951 31.4532 5.81281 32.3892 5.81281 33.4729V35C5.81281 36.133 6.74877 37.0197 7.83251 37.0197H8.81773C9.95074 37.0197 10.8374 36.0837 10.8374 35V33.4729C10.8374 32.3399 9.90148 31.4532 8.81773 31.4532ZM8.66995 33.6699V34.8522H8.07882V33.6699H8.66995Z" fill="#ECEDE5"/>
<path d="M8.81773 18.0542H7.83251C6.69951 18.0542 5.81281 18.9901 5.81281 20.0739V21.601C5.81281 22.734 6.74877 23.6207 7.83251 23.6207H8.81773C9.95074 23.6207 10.8374 22.6847 10.8374 21.601V20.0739C10.8374 18.9409 9.90148 18.0542 8.81773 18.0542ZM8.66995 20.2709V21.4532H8.07882V20.2709H8.66995Z" fill="#ECEDE5"/>
<path d="M29.3103 7.36452H16.798V4.45812H39.9507V17.5123H38.1773C37.734 17.5123 37.3892 17.7586 37.1921 18.1527C36.9951 18.5468 37.0443 18.9901 37.3399 19.335L40.2463 22.931C40.4433 23.1773 40.7882 23.3251 41.0837 23.3251C41.3793 23.3251 41.7241 23.1773 41.9704 22.931L44.8276 19.335C45.0739 18.9901 45.1724 18.5468 44.9754 18.1527C44.7783 17.7586 44.3842 17.5123 43.9902 17.5123H42.2167V3.32511C42.2167 2.73398 41.7241 2.19211 41.0837 2.19211H15.665C15.0739 2.19211 14.532 2.68472 14.532 3.32511V7.36452H2.0197C0.886699 7.36452 0 8.25122 0 9.38423V45.7882C0 46.9212 0.886699 47.8079 2.0197 47.8079H21.5271C21.6749 47.8079 21.8227 47.8079 21.9212 47.7093C22.069 47.6601 22.2167 47.5616 22.3153 47.463L31.0345 38.7438C31.133 38.6453 31.1823 38.5468 31.2315 38.4483V38.3497C31.3301 38.2512 31.33 38.1527 31.33 38.1034V9.33496C31.33 8.20196 30.4433 7.31526 29.3103 7.31526V7.36452ZM13.2512 42.0443H20.3941V45.4926H2.21675V9.53201H29.1133V36.8227H22.4138C21.2808 36.8227 20.3941 37.7094 20.3941 38.8424V39.8276H13.2512C12.6601 39.8276 12.1182 40.3202 12.1182 40.9606C12.1182 41.601 12.6108 42.0936 13.2512 42.0936V42.0443ZM27.5369 39.0394L22.6108 43.9655V39.0394H27.5369ZM41.5764 19.6798L40.9852 20.4187L40.3941 19.6798H41.5764Z" fill="#ECEDE5"/>
<path d="M13.2512 35.3448H24.3842C25.0246 35.3448 25.5172 34.8522 25.5172 34.2118C25.5172 33.5714 25.0246 33.0788 24.3842 33.0788H13.2512C12.6601 33.0788 12.1182 33.5714 12.1182 34.2118C12.1182 34.8522 12.6108 35.3448 13.2512 35.3448Z" fill="#ECEDE5"/>
<path d="M43.1035 31.0098L40 34.1133L38.9163 33.0295C38.7192 32.8325 38.4236 32.6847 38.1281 32.6847C37.8325 32.6847 37.5369 32.7832 37.3399 33.0295C37.1429 33.2266 36.9951 33.5222 36.9951 33.8177C36.9951 34.1133 37.0936 34.4089 37.3399 34.6059L39.2118 36.4778C39.4089 36.6749 39.7044 36.7734 40 36.7734C40.2956 36.7734 40.5911 36.6749 40.7882 36.4286L44.6798 32.5369C44.8768 32.3399 45.0246 32.0443 45.0246 31.7488C45.0246 31.4532 44.9261 31.1576 44.6798 30.9606C44.2365 30.5172 43.5468 30.5172 43.1035 30.9606V31.0098Z" fill="#ECEDE5"/>
<path d="M40.9852 24.7537C36.0098 24.7537 31.9704 28.7931 31.9704 33.7685C31.9704 38.7438 36.0098 42.7832 40.9852 42.7832C45.9606 42.7832 50 38.7438 50 33.7685C50 28.7931 45.9606 24.7537 40.9852 24.7537ZM47.7832 33.7685C47.7832 37.5123 44.7291 40.5172 41.0345 40.5172C37.3399 40.5172 34.2857 37.463 34.2857 33.7685C34.2857 30.0739 37.3399 27.0197 41.0345 27.0197C44.7291 27.0197 47.7832 30.0739 47.7832 33.7685Z" fill="#ECEDE5"/>
<path d="M8.81773 11.3054H7.83251C6.69951 11.3054 5.81281 12.2414 5.81281 13.3251V14.8522C5.81281 15.9852 6.74877 16.8719 7.83251 16.8719H8.81773C9.95074 16.8719 10.8374 15.936 10.8374 14.8522V13.3251C10.8374 12.1921 9.90148 11.3054 8.81773 11.3054ZM8.66995 13.5714V14.7537H8.07882V13.5714H8.66995Z" fill="#ECEDE5"/>
<path d="M13.2512 15.2463H24.3842C25.0246 15.2463 25.5172 14.7537 25.5172 14.1133C25.5172 13.4729 25.0246 12.9803 24.3842 12.9803H13.2512C12.6601 12.9803 12.1182 13.4729 12.1182 14.1133C12.1182 14.7537 12.6108 15.2463 13.2512 15.2463Z" fill="#ECEDE5"/>
<path d="M13.2512 28.6453H24.3842C25.0246 28.6453 25.5172 28.1527 25.5172 27.5123C25.5172 26.8719 25.0246 26.3793 24.3842 26.3793H13.2512C12.6601 26.3793 12.1182 26.8719 12.1182 27.5123C12.1182 28.1527 12.6108 28.6453 13.2512 28.6453Z" fill="#ECEDE5"/>
<path d="M13.2512 21.9458H24.3842C25.0246 21.9458 25.5172 21.4532 25.5172 20.8128C25.5172 20.1724 25.0246 19.6798 24.3842 19.6798H13.2512C12.6601 19.6798 12.1182 20.1724 12.1182 20.8128C12.1182 21.4532 12.6108 21.9458 13.2512 21.9458Z" fill="#ECEDE5"/>
</svg>
