<svg width="25" height="24" viewBox="0 0 25 24" fill="none" xmlns="http://www.w3.org/2000/svg">
<path d="M18.7369 21.02C18.7369 21.5735 18.2882 22.0222 17.7347 22.0222C17.1812 22.0222 16.7325 21.5735 16.7325 21.02C16.7325 20.4665 17.1812 20.0178 17.7347 20.0178C18.2882 20.0178 18.7369 20.4665 18.7369 21.02Z" fill="white"/>
<path d="M10.7191 21.02C10.7191 21.5735 10.2704 22.0222 9.71691 22.0222C9.16339 22.0222 8.71469 21.5735 8.71469 21.02C8.71469 20.4665 9.16339 20.0178 9.71691 20.0178C10.2704 20.0178 10.7191 20.4665 10.7191 21.02Z" fill="white"/>
<path d="M2.70135 1.97777H4.01042C4.25699 1.97777 4.38027 1.97777 4.47948 2.02311C4.56691 2.06306 4.641 2.12732 4.69292 2.20822C4.75184 2.30003 4.76927 2.42207 4.80414 2.66616L5.2785 5.98666M9.06861 16.51C8.07624 16.51 8.02201 16.51 7.62362 16.327C7.27257 16.1657 6.97561 15.9064 6.76847 15.5803C6.5334 15.2102 6.46651 14.7185 6.33272 13.7352L5.2785 5.98666M18.0875 16.51C19.0321 16.51 19.5044 16.51 19.8904 16.34C20.2308 16.1902 20.5227 15.9486 20.7336 15.6423C20.9728 15.2949 21.0612 14.8309 21.2379 13.903L22.5645 6.93846C22.6267 6.61185 22.6578 6.44855 22.6127 6.3209C22.5732 6.20892 22.4952 6.11463 22.3926 6.05483C22.2756 5.98666 22.1094 5.98666 21.7769 5.98666H19.0276M5.2785 5.98666H9.51056M18.5206 16.5101L12.2049 16.5101M12.2049 16.5101L14.2094 14.2317M12.2049 16.5101L14.2094 18.7885M7.94912 5.98193L15.7664 5.98194M15.7664 5.98194L13.762 3.70355M15.7664 5.98194L13.762 8.26031M10.7191 21.02C10.7191 21.5735 10.2704 22.0222 9.71691 22.0222C9.16339 22.0222 8.71469 21.5735 8.71469 21.02C8.71469 20.4665 9.16339 20.0178 9.71691 20.0178C10.2704 20.0178 10.7191 20.4665 10.7191 21.02ZM18.7369 21.02C18.7369 21.5735 18.2882 22.0222 17.7347 22.0222C17.1812 22.0222 16.7325 21.5735 16.7325 21.02C16.7325 20.4665 17.1812 20.0178 17.7347 20.0178C18.2882 20.0178 18.7369 20.4665 18.7369 21.02Z" stroke="white" stroke-width="1.8" stroke-linecap="round" stroke-linejoin="round"/>
</svg>
