<svg width="25" height="24" viewBox="0 0 25 24" fill="none" xmlns="http://www.w3.org/2000/svg">
<path d="M5.66772 9V17M10.1677 9V17M15.1677 9V17M19.6677 9V17M3.66772 18.6L3.66772 19.4C3.66772 19.9601 3.66772 20.2401 3.77672 20.454C3.87259 20.6422 4.02557 20.7951 4.21373 20.891C4.42765 21 4.70767 21 5.26772 21H20.0677C20.6278 21 20.9078 21 21.1217 20.891C21.3099 20.7951 21.4629 20.6422 21.5587 20.454C21.6677 20.2401 21.6677 19.9601 21.6677 19.4V18.6C21.6677 18.04 21.6677 17.7599 21.5587 17.546C21.4629 17.3579 21.3099 17.2049 21.1217 17.109C20.9078 17 20.6278 17 20.0677 17H5.26772C4.70767 17 4.42765 17 4.21373 17.109C4.02557 17.2049 3.87259 17.3579 3.77672 17.546C3.66772 17.7599 3.66772 18.04 3.66772 18.6ZM12.3206 3.07714L4.92064 4.72158C4.47358 4.82093 4.25004 4.8706 4.08319 4.99081C3.93602 5.09684 3.82045 5.2409 3.74887 5.40757C3.66772 5.59653 3.66772 5.82551 3.66772 6.28348L3.66772 7.4C3.66772 7.96006 3.66772 8.24008 3.77672 8.45399C3.87259 8.64216 4.02557 8.79514 4.21373 8.89101C4.42765 9 4.70767 9 5.26772 9H20.0677C20.6278 9 20.9078 9 21.1217 8.89101C21.3099 8.79514 21.4629 8.64216 21.5587 8.454C21.6677 8.24008 21.6677 7.96006 21.6677 7.4V6.28348C21.6677 5.82551 21.6677 5.59653 21.5866 5.40757C21.515 5.2409 21.3994 5.09684 21.2523 4.99081C21.0854 4.8706 20.8619 4.82093 20.4148 4.72158L13.0148 3.07714C12.8853 3.04835 12.8205 3.03396 12.7551 3.02822C12.697 3.02312 12.6385 3.02312 12.5804 3.02822C12.5149 3.03396 12.4502 3.04835 12.3206 3.07714Z" stroke="white" stroke-width="1.8" stroke-linecap="round" stroke-linejoin="round"/>
</svg>
