<svg width="51" height="50" viewBox="0 0 51 50" fill="none" xmlns="http://www.w3.org/2000/svg">
<path d="M45.2385 37.9464V29.6627C45.2385 27.629 43.6016 25.9921 41.5678 25.9921H26.3396V16.8155H29.7623C31.796 16.8155 33.4329 15.1786 33.4329 13.1448V3.67063C33.4329 1.6369 31.796 0 29.7623 0H20.3377C18.3039 0 16.667 1.6369 16.667 3.67063V13.0952C16.667 15.129 18.3039 16.7659 20.3377 16.7659H23.7603V25.9425H8.53211C6.49838 25.9425 4.86147 27.5794 4.86147 29.6131V37.8968C2.1333 38.4921 0.14917 40.9722 0.14917 43.7996C0.14917 47.123 2.87734 49.8512 6.20076 49.8512C9.52417 49.8512 12.2523 47.123 12.2523 43.7996C12.2523 40.9722 10.2682 38.5417 7.54004 37.8968V29.6131C7.54004 29.0179 8.03608 28.5714 8.58171 28.5714H23.8099V37.8968C21.0817 38.4921 19.0976 40.9722 19.0976 43.7996C19.0976 47.123 21.8258 49.8512 25.1492 49.8512C28.4726 49.8512 31.2008 47.123 31.2008 43.7996C31.2008 40.4762 29.2166 38.5417 26.4885 37.8968V28.5714H41.7166C42.3119 28.5714 42.7583 29.0675 42.7583 29.6131V37.8968C40.0301 38.4921 38.046 40.9722 38.046 43.7996C38.046 46.627 40.7742 49.8512 44.0976 49.8512C47.421 49.8512 50.1492 47.123 50.1492 43.7996C50.1492 40.4762 48.165 38.5417 45.4369 37.8968L45.2385 37.9464ZM43.8992 47.2222C42.0143 47.2222 40.4766 45.6845 40.4766 43.7996C40.4766 41.9147 42.0143 40.377 43.8992 40.377C45.7841 40.377 47.3218 41.9147 47.3218 43.7996C47.3218 45.6845 45.7841 47.2222 43.8992 47.2222ZM25.0004 47.2222C23.1154 47.2222 21.5777 45.6845 21.5777 43.7996C21.5777 41.9147 23.1154 40.377 25.0004 40.377C26.8853 40.377 28.423 41.9147 28.423 43.7996C28.423 45.6845 26.8853 47.2222 25.0004 47.2222ZM19.2464 3.67063C19.2464 3.0754 19.7424 2.62897 20.2881 2.62897H29.7127C30.3079 2.62897 30.7543 3.125 30.7543 3.67063V13.0952C30.7543 13.6905 30.2583 14.1369 29.7127 14.1369H20.2881C19.6928 14.1369 19.2464 13.6409 19.2464 13.0952V3.67063ZM6.15115 47.2222C4.26623 47.2222 2.72854 45.6845 2.72854 43.7996C2.72854 41.9147 4.26623 40.377 6.15115 40.377C8.03607 40.377 9.57377 41.9147 9.57377 43.7996C9.57377 45.6845 8.03607 47.2222 6.15115 47.2222Z" fill="#ECEDE5"/>
</svg>
