<svg width="50" height="50" viewBox="0 0 50 50" fill="none" xmlns="http://www.w3.org/2000/svg">
<path d="M7.29064 21.0345H20.6108C20.9064 21.0345 21.1921 20.9163 21.4187 20.6946C21.6305 20.4729 21.7488 20.1921 21.7488 19.8916C21.7488 19.266 21.2414 18.7586 20.6158 18.7586L7.29557 18.7488C6.99015 18.7488 6.70443 18.867 6.49261 19.0837C6.28079 19.2956 6.16256 19.5763 6.15271 19.8916C6.15271 20.1872 6.27094 20.4828 6.48769 20.7044C6.70443 20.9212 6.99015 21.0394 7.29557 21.0394L7.29064 21.0345Z" fill="#ECEDE5"/>
<path d="M21.4236 30.8867C21.6355 30.665 21.7537 30.3842 21.7537 30.0887C21.7537 29.468 21.2463 28.9557 20.6207 28.9507H6.92611V29.0148C6.75862 29.069 6.61084 29.1626 6.49261 29.2857C6.28079 29.4975 6.16256 29.7783 6.15271 30.0936C6.15271 30.3941 6.27586 30.6896 6.48769 30.9015C6.70443 31.1182 6.99015 31.2364 7.29557 31.2364H20.6158C20.9163 31.2364 21.202 31.1182 21.4286 30.8916L21.4236 30.8867Z" fill="#ECEDE5"/>
<path d="M22.1478 15.9162C22.7734 15.9162 23.2808 15.4089 23.2808 14.7832C23.2808 14.4778 23.1626 14.1921 22.9458 13.9754C22.7291 13.7586 22.4532 13.6453 22.1379 13.6355H13.4335C13.1429 13.6453 12.8621 13.7586 12.6355 13.9803C12.4236 14.202 12.3054 14.4828 12.3054 14.7832C12.3054 15.4089 12.8128 15.9162 13.4384 15.9162H22.1478Z" fill="#ECEDE5"/>
<path d="M20.2168 24.9852C20.2168 24.6798 20.0936 24.3842 19.8818 24.1773C19.665 23.9606 19.3793 23.8424 19.0739 23.8424H1.13793C0.837438 23.8424 0.541872 23.9655 0.330049 24.1823C0.118227 24.4039 0 24.6847 0 24.9852C0 25.6059 0.507389 26.1182 1.13793 26.1231H19.0739C19.6995 26.1231 20.2118 25.6108 20.2118 24.9852H20.2168Z" fill="#ECEDE5"/>
<path d="M23.2857 35.1872C23.2857 34.8818 23.1675 34.5961 22.9507 34.3842C22.734 34.1675 22.4483 34.0493 22.1429 34.0493H13.4384C13.1478 34.0493 12.867 34.1675 12.6404 34.3892C12.4286 34.6108 12.3103 34.8916 12.3103 35.1872C12.3103 35.8079 12.8177 36.3202 13.4434 36.3251H22.1478C22.7734 36.3251 23.2808 35.8128 23.2808 35.1872H23.2857Z" fill="#ECEDE5"/>
<path d="M39.3005 16.1626C39.0936 15.9458 38.798 15.8227 38.4926 15.8227H38.4877C38.1823 15.8227 37.8867 15.9458 37.6798 16.1576L31.9852 21.8522C30.6552 21.2118 29.0542 21.468 28.0049 22.5222C26.6453 23.8818 26.6453 26.0936 28.0049 27.4532C28.6601 28.1084 29.532 28.468 30.468 28.468C31.4039 28.468 32.2759 28.1084 32.931 27.4532C33.9852 26.399 34.2414 24.798 33.601 23.463L39.2956 17.7635C39.7389 17.3202 39.7389 16.601 39.2956 16.1626H39.3005ZM31.6749 24.9951C31.6749 25.3103 31.5468 25.6108 31.3153 25.8424C30.8325 26.3202 30.0837 26.3202 29.6108 25.8424C29.133 25.3596 29.133 24.6108 29.6108 24.1379C29.8424 23.9064 30.1429 23.7783 30.4631 23.7783C30.7833 23.7783 31.0788 23.9064 31.3104 24.1379C31.5419 24.3695 31.67 24.6749 31.67 24.9951H31.6749Z" fill="#ECEDE5"/>
<path d="M44.3744 11.2709L44.2168 11.1084C40.5271 7.44827 35.6502 5.43842 30.4729 5.43842C25.2956 5.43842 20.601 7.37438 16.9409 10.8867C16.4877 11.3202 16.4778 12.0443 16.9064 12.4877C17.1133 12.7094 17.399 12.8374 17.7192 12.8473C18.0246 12.8473 18.3153 12.734 18.5271 12.5271C21.4581 9.71428 25.2808 8.02462 29.335 7.75861V9.32019C29.335 9.61576 29.4532 9.90147 29.67 10.1281C29.8867 10.3448 30.1724 10.463 30.4778 10.463C31.0985 10.463 31.6108 9.95566 31.6158 9.33004V7.76847C35.399 8.01477 39.0099 9.50738 41.8522 12.0049L40.7389 13.1182C40.5271 13.33 40.4089 13.6158 40.4089 13.9212C40.4089 14.2266 40.5271 14.5123 40.7389 14.7241C41.1675 15.1527 41.9261 15.1527 42.3498 14.7241L43.4532 13.6207C45.9458 16.4729 47.4384 20.0788 47.6847 23.8571H46.1281C45.8276 23.8571 45.5419 23.9754 45.3202 24.202C45.1084 24.4236 44.9902 24.7044 44.9902 25.0049C44.9902 25.6256 45.4975 26.1379 46.1232 26.1429H47.6798C47.4335 29.931 45.9409 33.5419 43.4483 36.3842L42.3448 35.2857C41.936 34.8621 41.1527 34.8522 40.7291 35.2857C40.5172 35.4975 40.399 35.7833 40.399 36.0887C40.399 36.3941 40.5172 36.6798 40.734 36.8916L41.8424 38C39 40.4926 35.3941 41.9901 31.6059 42.2414V40.6798C31.6059 40.3744 31.4828 40.0788 31.2759 39.8768C30.867 39.4581 30.1084 39.4384 29.6552 39.8768C29.4384 40.0936 29.3202 40.3793 29.3202 40.6847V42.2463C25.2709 41.9803 21.4434 40.2956 18.5123 37.4828C18.0591 37.0542 17.3399 37.069 16.9064 37.5172C16.6995 37.7389 16.5862 38.0246 16.5911 38.33C16.5961 38.6355 16.7192 38.9163 16.9409 39.1231C20.5862 42.6256 25.3793 44.5566 30.4335 44.5616H30.4926C35.665 44.5566 40.5419 42.5419 44.2217 38.8916L44.2906 38.8325C44.2906 38.8325 44.335 38.7882 44.3547 38.7635C47.9951 35.0837 50 30.202 50 24.9852C49.9902 19.8177 47.9803 14.9458 44.3744 11.3005V11.2709Z" fill="#ECEDE5"/>
</svg>
