<svg width="50" height="50" viewBox="0 0 50 50" fill="none" xmlns="http://www.w3.org/2000/svg">
<path d="M47.4957 19.8932C47.4957 19.8932 47.4735 19.8178 47.4691 19.8089C47.4469 19.7423 47.4114 19.6802 47.3981 19.658C47.3892 19.6402 47.367 19.5958 47.327 19.5514C47.2782 19.4848 47.2205 19.4271 47.1539 19.3827C47.1495 19.3827 47.1406 19.3738 47.1361 19.3694C47.0607 19.3117 46.9808 19.2762 46.8875 19.2362L36.8416 15.8713C36.6418 15.8047 36.4288 15.8047 36.2423 15.8713L26.3295 19.2362C26.2452 19.2629 26.1653 19.3073 26.0943 19.3605C26.0809 19.3694 26.0676 19.3783 26.0543 19.3872C25.9833 19.4404 25.9344 19.4981 25.9078 19.5292C25.8812 19.5559 25.8634 19.5869 25.8501 19.6047C25.8501 19.6091 25.8412 19.6136 25.8368 19.6224C25.7968 19.6846 25.7658 19.7467 25.7391 19.8222C25.7391 19.8267 25.7258 19.8577 25.7214 19.8666C25.6947 19.9509 25.6814 20.0397 25.6814 20.1418V29.9259C25.6814 30.3432 25.9478 30.7072 26.3384 30.827L36.3266 34.0499C36.4287 34.081 36.5175 34.0943 36.6063 34.0943C36.6951 34.0943 36.7839 34.081 36.8904 34.0455L46.8698 30.827C47.2649 30.7027 47.5312 30.3387 47.5312 29.9214V20.1285C47.5312 20.0309 47.5135 19.951 47.5002 19.8844L47.4957 19.8932ZM45.6401 21.4336V29.2378L37.543 31.848V24.0483L45.6401 21.4336ZM43.5493 20.1241L36.6019 22.3659L29.6368 20.1196L36.5353 17.7802L43.5448 20.1285L43.5493 20.1241ZM35.6608 31.848L27.5636 29.2378V21.4336L35.6608 24.0483V31.848Z" fill="#ECEDE5"/>
<path d="M24.3141 29.9303V20.1374C24.3141 20.0397 24.2964 19.9554 24.2742 19.8622L24.2564 19.8133C24.2342 19.7467 24.1987 19.6846 24.181 19.6535C24.1721 19.6358 24.1499 19.5958 24.1144 19.5514C24.0655 19.4848 24.0078 19.4271 23.9412 19.3783C23.9368 19.3738 23.9279 19.3694 23.9235 19.365C23.848 19.3073 23.7681 19.2717 23.6749 19.2318L13.6289 15.8669C13.4292 15.8003 13.2205 15.8003 13.0296 15.8669L3.11244 19.2362C3.03253 19.2629 2.94375 19.3073 2.90379 19.3383C2.8816 19.3517 2.85052 19.3694 2.82833 19.3916C2.76174 19.4404 2.72179 19.4937 2.69515 19.5248C2.66408 19.5559 2.64632 19.5825 2.633 19.6047C2.633 19.6091 2.62412 19.618 2.61968 19.6224C2.57973 19.6846 2.54866 19.7467 2.52202 19.8178C2.52202 19.8222 2.5087 19.8533 2.5087 19.8577C2.48207 19.9421 2.46875 20.0309 2.46875 20.1374V29.9303C2.46875 30.3432 2.7351 30.7072 3.12575 30.8315L13.114 34.0543C13.2161 34.0854 13.3049 34.0987 13.3937 34.0987C13.4824 34.0987 13.5712 34.0854 13.6778 34.0499L23.6571 30.8315C24.0522 30.7072 24.3186 30.3432 24.3186 29.9259L24.3141 29.9303ZM22.4363 21.4336V29.2378L14.3392 31.848V24.0483L22.4363 21.4336ZM20.3455 20.1196L13.3981 22.3614L6.43297 20.1152L13.3315 17.7757L20.3455 20.1241V20.1196ZM12.457 24.0528V31.848L4.35986 29.2333V21.4381L12.457 24.0528Z" fill="#ECEDE5"/>
<path d="M35.865 35.7146C35.8472 35.6658 35.8295 35.6169 35.7984 35.5681C35.7939 35.5548 35.7851 35.5415 35.7806 35.5326C35.7629 35.5015 35.7451 35.4749 35.7274 35.4527C35.6785 35.3861 35.6208 35.3284 35.5498 35.2796C35.5453 35.2796 35.5365 35.2707 35.532 35.2662C35.4566 35.2085 35.3767 35.173 35.2834 35.1331L25.2375 31.7681C25.0377 31.7016 24.8291 31.7016 24.6382 31.7681L14.7254 35.1331C14.65 35.1597 14.5745 35.1997 14.5035 35.244C14.4813 35.2574 14.4635 35.2707 14.4413 35.2884C14.3747 35.3373 14.3303 35.3905 14.3126 35.4172C14.2815 35.4482 14.2637 35.4749 14.2504 35.4971C14.2504 35.5015 14.2416 35.5104 14.2371 35.5148C14.1972 35.577 14.1661 35.6391 14.1394 35.7146C14.1394 35.719 14.1261 35.7501 14.1217 35.759C14.0951 35.8433 14.0817 35.9321 14.0817 36.0342V45.8271C14.0817 46.2444 14.3481 46.6084 14.7387 46.7283L24.687 49.9334C24.7847 49.9778 24.8912 50 25.0022 50C25.091 50 25.1842 49.9867 25.2863 49.9512L35.2657 46.7327C35.6608 46.6084 35.9271 46.2489 35.9271 45.8316V36.0387C35.9271 35.941 35.9094 35.8611 35.896 35.7945C35.896 35.7812 35.8738 35.7235 35.8694 35.7102L35.865 35.7146ZM34.0449 45.1302L25.9433 47.7404V39.9407L34.0449 37.326V45.1302ZM31.9496 36.0076L25.0022 38.2538L18.0371 36.0076L24.9356 33.6592L31.9496 36.0076ZM24.0567 39.9452V47.7449L15.9595 45.1346V37.3349L24.0567 39.9452Z" fill="#ECEDE5"/>
<path d="M14.6544 14.9835C14.6766 14.9968 14.7032 15.0101 14.7299 15.019L24.7181 18.2374C24.8202 18.2685 24.909 18.2818 24.9978 18.2818C25.0866 18.2818 25.1753 18.2685 25.2819 18.233L35.2612 15.0145C35.6563 14.8902 35.9227 14.5262 35.9227 14.1089V4.32047C35.9227 4.2228 35.9049 4.1429 35.8827 4.04524L35.865 3.9964C35.8428 3.93426 35.8117 3.87211 35.7939 3.84103C35.7762 3.80552 35.7496 3.76556 35.7229 3.73449C35.6741 3.6679 35.6164 3.61019 35.5498 3.56136C35.532 3.54804 35.5098 3.53473 35.4921 3.52585C35.4299 3.48589 35.3633 3.45482 35.2834 3.41931L25.2242 0.0499412C25.0244 -0.0166471 24.8158 -0.0166471 24.6249 0.0499412L14.7121 3.41487C14.61 3.45038 14.5257 3.50365 14.5035 3.52141C14.4813 3.53473 14.4546 3.55248 14.4324 3.57024C14.3658 3.61907 14.3215 3.67234 14.2948 3.70342C14.2682 3.73005 14.2504 3.76113 14.2371 3.77888C14.2371 3.78332 14.2282 3.7922 14.2238 3.79664C14.1838 3.85879 14.1528 3.92094 14.1261 3.99197C14.1261 3.9964 14.1128 4.03192 14.1084 4.03636C14.0817 4.1207 14.0684 4.20949 14.0684 4.31159V14.1045C14.0684 14.4863 14.2993 14.8281 14.65 14.979L14.6544 14.9835ZM15.964 13.4209V5.61672L24.0611 8.23142V16.0311L15.964 13.4209ZM18.0371 4.29383L24.9356 1.94549L31.9496 4.29383L25.0022 6.54007L18.0371 4.29383ZM25.9433 8.23142L34.0405 5.61672V13.4164L25.9433 16.0311V8.23142Z" fill="#ECEDE5"/>
</svg>
