<?xml version="1.0" encoding="utf-8"?>
<!-- Generator: Adobe Illustrator 19.2.1, SVG Export Plug-In . SVG Version: 6.00 Build 0)  -->
<svg version="1.1" id="layer" xmlns="http://www.w3.org/2000/svg" xmlns:xlink="http://www.w3.org/1999/xlink" x="0px" y="0px"
	 viewBox="0 0 652 652" style="enable-background:new 0 0 652 652;" xml:space="preserve">
<style type="text/css">
	.st0{fill:#63666A;}
	.st1{fill:#43B02A;}
</style>
<g>
	<path class="st0" d="M268.3,347.7c-9.2,11.9-23.4,18.9-38.4,19c-25.6,0-46-18.3-46-42.5c0.1-11.7,5-22.8,13.5-30.8
		c8.5-8,19.9-12.2,31.6-11.7c15,0.1,29.2,7.1,38.4,19l-17,12.1c-4.5-7.5-12.6-12.2-21.3-12.3c-13.1,0-23.8,10.6-23.9,23.7
		c0.4,13.4,11.5,23.9,24.9,23.7c8.7-0.1,16.7-4.4,21.7-11.5L268.3,347.7z"/>
	<rect x="277.8" y="248.4" class="st0" width="21.3" height="116.5"/>
	<path class="st0" d="M355.5,348.6c13.8,0.1,25.1-10.7,25.6-24.5c-0.7-13.6-12-24.3-25.6-24.3c-13.6,0-24.9,10.7-25.6,24.3
		C330.4,337.9,341.8,348.8,355.5,348.6 M355.6,281.6c11.8-0.6,23.3,3.6,31.9,11.6c8.7,8,13.7,19.1,14.1,30.9
		c-0.4,11.8-5.5,22.9-14.1,30.9c-8.7,8-20.2,12.2-31.9,11.6c-25.6,0-46.2-18.5-46.2-42.5C309.3,300.2,329.8,281.6,355.6,281.6"/>
	<polygon class="st0" points="398.1,283.3 423.1,283.3 443.4,326.9 465.3,283.3 488.5,283.3 443.4,369.9 	"/>
	<path class="st0" d="M549.1,312.8c-3.3-8-11.2-13.3-19.8-13.2c-9-0.1-17.3,5-21.1,13.2H549.1L549.1,312.8z M562.8,355.7
		c-8.9,7.2-20,11.1-31.4,11c-25.6,0-46.2-18.5-46.2-42.5c0-11.6,4.7-22.7,13.1-30.7c8.4-8,19.7-12.3,31.2-11.8
		c11.4-0.4,22.4,4,30.4,12s12.3,19.1,11.9,30.4v6.1h-65.5c3.3,11,13.4,18.4,24.9,18.3c7.1,0.2,13.9-2.7,18.7-8L562.8,355.7z
		 M582.1,319.1c0-19.5,14.9-35.8,38.9-35.8v19.1c-5.1-0.3-10,1.7-13.4,5.5c-3.4,3.7-5,8.8-4.4,13.8v43.2h-21.1V319.1z"/>
	<path class="st1" d="M87.1,286.5c0.1-13.4-7.9-25.5-20.3-30.7c-12.3-5.2-26.6-2.4-36.1,7s-12.4,23.7-7.3,36.1
		c5.1,12.4,17.2,20.5,30.6,20.5h33.1L87.1,286.5z M96.7,286.5c-0.1-13.4,7.9-25.5,20.3-30.7c12.3-5.2,26.6-2.4,36.1,7
		c9.5,9.4,12.4,23.7,7.3,36.1c-5.1,12.4-17.2,20.5-30.6,20.5H96.7L96.7,286.5z M96.7,361.8c-0.1,13.4,7.9,25.5,20.3,30.7
		s26.6,2.4,36.1-7c9.5-9.4,12.4-23.7,7.3-36.1c-5.1-12.4-17.2-20.5-30.6-20.5H96.7L96.7,361.8z M54.1,385.4
		c13.1,0,23.7-10.5,23.8-23.6v-23.6H54.1c-13,0-23.6,10.6-23.6,23.6C30.5,374.8,41,385.4,54.1,385.4z M87.1,361.8
		c0.1,13.4-7.9,25.5-20.3,30.7s-26.6,2.4-36.1-7s-12.4-23.7-7.3-36.1c5.1-12.4,17.2-20.5,30.6-20.5h33.1L87.1,361.8z"/>
</g>
</svg>
