<svg version="1.2" baseProfile="tiny-ps" xmlns="http://www.w3.org/2000/svg" viewBox="0 0 1000 368" width="1000" height="368">
	<title>Phorest-LogoType-Inline-svg</title>
	<defs>
		<clipPath clipPathUnits="userSpaceOnUse" id="cp1">
			<path d="M0 0L1000 0L1000 367.67L0 367.67L0 0Z" />
		</clipPath>
	</defs>
	<style>
		tspan { white-space:pre }
		.shp0 { fill: #ff8080 } 
		.shp1 { fill: #fc968b } 
		.shp2 { fill: #0bad7f } 
		.shp3 { fill: #00a06e } 
		.shp4 { fill: #0f615d } 
		.shp5 { fill: #ffae33 } 
		.shp6 { fill: #ffa300 } 
		.shp7 { fill: #ff4856 } 
		.shp8 { fill: #007c32 } 
		.shp9 { fill: #007335 } 
	</style>
	<g id="g10">
		<g id="g12">
			<g id="Clip-Path: g14" clip-path="url(#cp1)">
				<g id="g14">
					<g id="g20">
						<path id="path22" class="shp0" d="M231.47 176.07C231.57 175.82 231.67 175.56 231.78 175.31C231.65 175.61 231.53 175.91 231.41 176.21C231.43 176.17 231.45 176.12 231.47 176.07Z" />
					</g>
					<g id="g24">
						<path id="path26" class="shp0" d="M146.43 236.37C146.29 236.38 146.14 236.39 146 236.4C146.14 236.39 146.29 236.38 146.43 236.37Z" />
					</g>
					<g id="g28">
						<path id="path30" class="shp0" d="M169.94 232.12C169.72 232.19 169.51 232.26 169.3 232.32C169.51 232.26 169.72 232.19 169.94 232.12Z" />
					</g>
					<g id="g32">
						<path id="path34" class="shp0" d="M165.11 233.49C165.03 233.51 164.96 233.53 164.88 233.55C164.96 233.53 165.03 233.51 165.11 233.49Z" />
					</g>
					<g id="g36">
						<path id="path38" class="shp0" d="M233.62 170.39C233.47 170.83 233.31 171.28 233.15 171.73C233.31 171.28 233.47 170.83 233.62 170.39Z" />
					</g>
					<g id="g40">
						<path id="path42" class="shp0" d="M232.73 172.85C232.59 173.22 232.46 173.59 232.31 173.96C232.46 173.59 232.59 173.22 232.73 172.85Z" />
					</g>
					<g id="g44">
						<path id="path46" class="shp0" d="M162.72 234.07C162.7 234.07 162.69 234.08 162.67 234.08C162.69 234.08 162.7 234.07 162.72 234.07Z" />
					</g>
					<g id="g48">
						<path id="path50" class="shp0" d="M148.73 236.22C148.68 236.22 148.62 236.23 148.57 236.23C148.62 236.23 148.68 236.22 148.73 236.22Z" />
					</g>
					<g id="g52">
						<path id="path54" class="shp0" d="M144.14 236.48C143.88 236.48 143.63 236.49 143.37 236.49C143.63 236.49 143.88 236.48 144.14 236.48Z" />
					</g>
					<g id="g56">
						<path id="path58" class="shp0" d="M234.43 167.94C234.26 168.47 234.1 168.99 233.92 169.51C234.1 168.99 234.26 168.46 234.43 167.94Z" />
					</g>
					<g id="g60">
						<path id="path62" class="shp0" d="M141.85 236.52C141.47 236.53 141.09 236.52 140.71 236.52C141.09 236.52 141.47 236.53 141.85 236.52Z" />
					</g>
					<g id="g64">
						<path id="path66" class="shp0" d="M139.56 236.52C139.06 236.51 138.55 236.49 138.05 236.48C138.55 236.49 139.06 236.51 139.56 236.52Z" />
					</g>
					<g id="g68">
						<path id="path70" class="shp0" d="M167.51 232.84C167.37 232.88 167.23 232.92 167.09 232.96C167.23 232.92 167.37 232.88 167.51 232.84Z" />
					</g>
					<g id="g72">
						<path id="path74" class="shp0" d="M134.98 236.34C134.27 236.3 133.56 236.25 132.85 236.19C133.56 236.25 134.27 236.3 134.98 236.34Z" />
					</g>
					<g id="g76">
						<path id="path78" class="shp0" d="M137.27 236.46C136.65 236.43 136.04 236.4 135.42 236.37C136.04 236.4 136.65 236.43 137.27 236.46Z" />
					</g>
					<g id="g80">
						<path id="path82" class="shp0" d="M230.79 177.64C230.67 177.92 230.55 178.2 230.43 178.48C230.55 178.2 230.67 177.92 230.79 177.64Z" />
					</g>
					<g id="g84">
						<path id="path86" class="shp0" d="M206.42 211.46C206.29 211.58 206.16 211.69 206.03 211.81C206.16 211.69 206.29 211.58 206.42 211.46Z" />
					</g>
					<g id="g88">
						<path id="path90" class="shp0" d="M202.63 214.69C202.62 214.69 202.62 214.7 202.61 214.7C202.62 214.7 202.62 214.69 202.63 214.69Z" />
					</g>
					<g id="g92">
						<path id="path94" class="shp0" d="M236.53 116.68C236.54 116.7 236.54 116.72 236.55 116.74C236.54 116.72 236.54 116.7 236.53 116.68Z" />
					</g>
					<g id="g96">
						<path id="path98" class="shp0" d="M210.09 207.99C209.83 208.25 209.56 208.51 209.3 208.77C209.56 208.51 209.83 208.25 210.09 207.99Z" />
					</g>
					<g id="g100">
						<path id="path102" class="shp0" d="M204.53 213.11C204.47 213.16 204.4 213.22 204.34 213.27C204.4 213.22 204.47 213.16 204.53 213.11Z" />
					</g>
					<g id="g104">
						<path id="path106" class="shp0" d="M211.86 206.18C211.54 206.52 211.21 206.86 210.87 207.2C211.21 206.86 211.54 206.52 211.86 206.18Z" />
					</g>
					<g id="g108">
						<path id="path110" class="shp0" d="M238.84 132.98C238.85 133.13 238.85 133.27 238.86 133.42C238.85 133.27 238.85 133.13 238.84 132.98Z" />
					</g>
					<g id="g112">
						<path id="path114" class="shp0" d="M238.68 130.68C238.69 130.74 238.69 130.79 238.7 130.85C238.69 130.79 238.69 130.74 238.68 130.68Z" />
					</g>
					<g id="g116">
						<path id="path118" class="shp0" d="M208.27 209.75C208.08 209.94 207.88 210.12 207.68 210.3C207.88 210.12 208.08 209.94 208.27 209.75Z" />
					</g>
					<g id="g120">
						<path id="path122" class="shp0" d="M216.84 200.54C221.99 194.24 226.42 187.21 229.96 179.5C226.74 186.5 222.7 193.12 217.9 199.21C217.55 199.66 217.2 200.1 216.84 200.54Z" />
					</g>
					<g id="g124">
						<path id="path126" class="shp0" d="M213.58 204.33C213.2 204.75 212.81 205.17 212.42 205.59C212.81 205.17 213.2 204.75 213.58 204.33Z" />
					</g>
					<g id="g128">
						<path id="path130" class="shp0" d="M216.83 200.56C216.36 201.13 215.88 201.7 215.4 202.26C215.88 201.7 216.36 201.13 216.83 200.56Z" />
					</g>
					<g id="g132">
						<path id="path134" class="shp0" d="M215.24 202.45C214.81 202.96 214.37 203.45 213.93 203.95C214.37 203.45 214.81 202.96 215.24 202.45Z" />
					</g>
					<g id="g136">
						<path id="path138" class="shp1" d="M207.62 180.01C200.44 168.22 192.22 157.45 183.14 147.76C161.01 156.66 137.13 161.6 112.57 161.88C116.33 185.3 118.99 209.81 118.99 232.3C118.99 232.88 118.97 233.44 118.97 234C123.47 235.05 128.05 235.78 132.68 236.17C132.74 236.18 132.8 236.18 132.85 236.19C133.56 236.25 134.27 236.3 134.98 236.34C135.13 236.35 135.27 236.36 135.42 236.37C136.04 236.4 136.65 236.43 137.27 236.46C137.53 236.47 137.79 236.47 138.05 236.48C138.55 236.5 139.06 236.51 139.56 236.52C139.94 236.52 140.33 236.52 140.71 236.52C141.09 236.52 141.47 236.53 141.85 236.52C142.36 236.52 142.86 236.51 143.37 236.49C143.63 236.49 143.88 236.48 144.14 236.48C144.76 236.46 145.38 236.43 146 236.4C146.14 236.39 146.29 236.38 146.43 236.37C147.15 236.33 147.86 236.29 148.57 236.23C148.62 236.23 148.68 236.22 148.73 236.22C153.44 235.84 158.1 235.12 162.67 234.08C162.69 234.08 162.7 234.07 162.72 234.07C163.44 233.9 164.16 233.73 164.88 233.55C164.96 233.53 165.03 233.51 165.11 233.49C165.77 233.32 166.43 233.14 167.09 232.96C167.23 232.92 167.37 232.88 167.51 232.84C168.11 232.67 168.7 232.5 169.3 232.32C169.51 232.26 169.72 232.19 169.94 232.12C170.46 231.96 170.99 231.79 171.51 231.62C171.8 231.53 172.09 231.43 172.38 231.33C172.83 231.17 173.28 231.02 173.73 230.86C174.1 230.73 174.48 230.59 174.85 230.45C175.22 230.32 175.59 230.18 175.97 230.04C176.41 229.87 176.86 229.69 177.31 229.51C177.61 229.39 177.92 229.27 178.22 229.14C178.7 228.95 179.18 228.74 179.65 228.54C179.93 228.42 180.21 228.3 180.49 228.18C180.84 228.03 181.17 227.87 181.51 227.71C189.03 224.3 196.13 219.94 202.61 214.7C202.62 214.7 202.62 214.69 202.63 214.69C203.21 214.22 203.78 213.75 204.34 213.27C204.4 213.22 204.47 213.16 204.53 213.11C205.04 212.68 205.53 212.24 206.03 211.81C206.16 211.69 206.29 211.58 206.42 211.46C206.84 211.08 207.26 210.69 207.68 210.3C207.88 210.12 208.08 209.94 208.27 209.75C208.62 209.43 208.96 209.1 209.3 208.77C209.56 208.51 209.83 208.25 210.09 207.99C210.35 207.73 210.61 207.46 210.87 207.2C211.21 206.86 211.54 206.52 211.86 206.18C212.05 205.98 212.23 205.79 212.42 205.59C212.81 205.17 213.2 204.75 213.58 204.33C213.7 204.2 213.81 204.08 213.93 203.95C214.37 203.45 214.81 202.96 215.24 202.45C215.29 202.39 215.35 202.33 215.4 202.26C215.88 201.7 216.36 201.13 216.83 200.56C216.83 200.55 216.84 200.55 216.84 200.54C217.2 200.1 217.55 199.66 217.9 199.21C214.86 192.7 211.44 186.29 207.62 180.01Z" />
					</g>
					<g id="g140">
						<path id="path142" class="shp0" d="M118.97 234.01C123.53 235.06 128.11 235.78 132.68 236.17C128.05 235.78 123.47 235.05 118.97 234L118.97 234.01Z" />
					</g>
					<g id="g144">
						<path id="path146" class="shp0" d="M238.98 139.86C238.97 140.36 238.96 140.87 238.95 141.38C238.96 140.87 238.98 140.36 238.98 139.86Z" />
					</g>
					<g id="g148">
						<path id="path150" class="shp0" d="M236.41 160.73C236.24 161.45 236.07 162.17 235.88 162.89C236.07 162.17 236.24 161.45 236.41 160.73Z" />
					</g>
					<g id="g152">
						<path id="path154" class="shp0" d="M238.94 135.28C238.95 135.53 238.95 135.79 238.96 136.05C238.95 135.79 238.95 135.53 238.94 135.28Z" />
					</g>
					<g id="g156">
						<path id="path158" class="shp0" d="M238.64 146.74C238.24 151.45 237.49 156.11 236.43 160.68C237.51 156.04 238.24 151.39 238.64 146.74Z" />
					</g>
					<g id="g160">
						<path id="path162" class="shp0" d="M174.85 230.45C174.48 230.59 174.1 230.73 173.73 230.86C174.1 230.73 174.48 230.59 174.85 230.45Z" />
					</g>
					<g id="g164">
						<path id="path166" class="shp0" d="M235.82 163.12C235.65 163.78 235.47 164.44 235.28 165.09C235.47 164.44 235.65 163.78 235.82 163.12Z" />
					</g>
					<g id="g168">
						<path id="path170" class="shp0" d="M235.16 165.52C234.99 166.11 234.81 166.71 234.63 167.3C234.82 166.71 234.99 166.11 235.16 165.52Z" />
					</g>
					<g id="g172">
						<path id="path174" class="shp0" d="M177.31 229.51C176.86 229.69 176.41 229.87 175.97 230.04C176.41 229.87 176.86 229.69 177.31 229.51Z" />
					</g>
					<g id="g176">
						<path id="path178" class="shp0" d="M181.51 227.71C181.17 227.87 180.83 228.03 180.49 228.18C180.83 228.03 181.17 227.87 181.51 227.71Z" />
					</g>
					<g id="g180">
						<path id="path182" class="shp0" d="M238.81 144.44C238.76 145.15 238.71 145.87 238.65 146.58C238.71 145.87 238.76 145.15 238.81 144.44Z" />
					</g>
					<g id="g184">
						<path id="path186" class="shp0" d="M238.99 137.57C238.99 137.95 238.99 138.33 238.99 138.72C238.99 138.33 238.99 137.95 238.99 137.57Z" />
					</g>
					<g id="g188">
						<path id="path190" class="shp0" d="M172.38 231.33C172.09 231.43 171.8 231.53 171.51 231.62C171.8 231.53 172.09 231.43 172.38 231.33Z" />
					</g>
					<g id="g192">
						<path id="path194" class="shp0" d="M179.65 228.54C179.18 228.74 178.7 228.95 178.22 229.14C178.7 228.95 179.18 228.74 179.65 228.54Z" />
					</g>
					<g id="g196">
						<path id="path198" class="shp0" d="M238.92 142.15C238.9 142.77 238.87 143.39 238.83 144.01C238.87 143.39 238.9 142.77 238.92 142.15Z" />
					</g>
					<g id="g200">
						<path id="path202" class="shp2" d="M114.35 232.82C114.2 232.78 114.06 232.73 113.91 232.69C114.06 232.73 114.2 232.78 114.35 232.82Z" />
					</g>
					<g id="g204">
						<path id="path206" class="shp2" d="M49.44 173.44C49.32 173.12 49.2 172.8 49.09 172.48C49.2 172.8 49.32 173.12 49.44 173.44Z" />
					</g>
					<g id="g208">
						<path id="path210" class="shp2" d="M48.59 171.13C48.48 170.82 48.37 170.5 48.27 170.18C48.37 170.5 48.48 170.82 48.59 171.13Z" />
					</g>
					<g id="g212">
						<path id="path214" class="shp2" d="M118.76 233.96C118.74 233.95 118.72 233.95 118.7 233.95C118.72 233.95 118.74 233.95 118.76 233.96Z" />
					</g>
					<g id="g216">
						<path id="path218" class="shp2" d="M64.77 200.12C59.54 193.63 55.18 186.52 51.76 178.99C55.26 186.72 59.66 193.79 64.77 200.12Z" />
					</g>
					<g id="g220">
						<path id="path222" class="shp2" d="M47.06 166.42C46.98 166.16 46.91 165.91 46.84 165.65C46.91 165.91 46.98 166.16 47.06 166.42Z" />
					</g>
					<g id="g224">
						<path id="path226" class="shp2" d="M50.28 175.57C50.3 175.62 50.32 175.67 50.34 175.71C50.22 175.42 50.11 175.12 49.99 174.83C50.09 175.08 50.18 175.32 50.28 175.57Z" />
					</g>
					<g id="g228">
						<path id="path230" class="shp2" d="M51.31 177.98C51.18 177.7 51.06 177.42 50.94 177.14C51.06 177.42 51.18 177.7 51.31 177.98Z" />
					</g>
					<g id="g232">
						<path id="path234" class="shp3" d="M118.97 234.01C118.9 233.99 118.83 233.97 118.76 233.96C118.74 233.95 118.72 233.95 118.7 233.95C117.98 233.78 117.27 233.6 116.55 233.41C116.47 233.39 116.4 233.37 116.32 233.35C115.66 233.18 115 233 114.35 232.82C114.2 232.78 114.06 232.73 113.91 232.69C113.32 232.52 112.73 232.35 112.15 232.16C111.93 232.1 111.71 232.03 111.49 231.96C110.97 231.79 110.45 231.63 109.94 231.45C109.64 231.35 109.34 231.25 109.05 231.15C108.6 230.99 108.16 230.84 107.72 230.68C107.34 230.54 106.97 230.4 106.59 230.26C106.22 230.12 105.85 229.99 105.48 229.84C105.03 229.67 104.59 229.49 104.14 229.3C103.88 229.2 103.63 229.1 103.37 229C103.33 228.98 103.28 228.96 103.23 228.94C102.75 228.73 102.27 228.52 101.79 228.32C101.52 228.2 101.24 228.08 100.97 227.96C100.62 227.8 100.26 227.63 99.91 227.47C92.23 223.93 85.21 219.5 78.92 214.36C78.92 214.36 78.91 214.35 78.9 214.35C78.33 213.88 77.76 213.4 77.2 212.92C77.14 212.86 77.07 212.81 77.01 212.75C76.51 212.32 76.01 211.88 75.52 211.44C75.39 211.33 75.26 211.21 75.13 211.1C74.71 210.71 74.29 210.32 73.88 209.93C73.68 209.75 73.48 209.56 73.29 209.38C72.95 209.05 72.61 208.72 72.27 208.39C72.01 208.13 71.74 207.87 71.48 207.6C71.22 207.34 70.96 207.08 70.7 206.81C70.37 206.47 70.04 206.13 69.71 205.78C69.53 205.59 69.35 205.39 69.17 205.2C68.78 204.78 68.39 204.35 68.01 203.93C67.89 203.8 67.78 203.67 67.67 203.54C67.23 203.05 66.79 202.55 66.36 202.04C66.31 201.98 66.26 201.91 66.2 201.85C65.72 201.29 65.25 200.72 64.79 200.14C64.78 200.13 64.77 200.12 64.77 200.12C59.66 193.79 55.26 186.72 51.76 178.99C51.61 178.65 51.45 178.32 51.31 177.98C51.18 177.7 51.06 177.42 50.94 177.14C50.74 176.66 50.54 176.19 50.34 175.71C50.32 175.67 50.3 175.62 50.28 175.57C50.18 175.32 50.09 175.08 49.99 174.83C49.8 174.36 49.62 173.9 49.44 173.44C49.32 173.12 49.2 172.8 49.09 172.48C48.92 172.03 48.75 171.59 48.59 171.13C48.48 170.82 48.37 170.5 48.27 170.18C48.11 169.72 47.95 169.26 47.8 168.8C47.71 168.5 47.61 168.2 47.52 167.91C47.36 167.41 47.21 166.92 47.06 166.42C46.98 166.16 46.91 165.91 46.84 165.65C46.67 165.09 46.52 164.53 46.36 163.97C46.32 163.78 46.27 163.6 46.22 163.42C46.04 162.76 45.88 162.09 45.71 161.42C45.7 161.35 45.68 161.28 45.66 161.2C44.8 157.59 44.13 153.92 43.68 150.22C43.67 150.11 43.66 150.01 43.65 149.91C43.5 190.97 42.91 327.31 42.91 327.31C42.91 327.31 117.9 313.47 118.97 234.01" />
					</g>
					<g id="g236">
						<path id="path238" class="shp2" d="M57.73 86.69C57.72 86.69 57.7 86.69 57.69 86.69C57.62 86.8 57.55 86.91 57.48 87.03C57.02 87.79 56.57 88.57 56.13 89.37C56.65 88.46 57.19 87.57 57.73 86.69Z" />
					</g>
					<g id="g240">
						<path id="path242" class="shp2" d="M43.71 150.22C43.69 150.06 43.67 149.9 43.65 149.73C43.65 149.79 43.65 149.85 43.65 149.91C43.66 150.02 43.67 150.12 43.68 150.22C43.69 150.22 43.7 150.22 43.71 150.22Z" />
					</g>
					<g id="g244">
						<path id="path246" class="shp2" d="M66.2 201.85C65.72 201.28 65.25 200.71 64.79 200.14C65.25 200.71 65.72 201.29 66.2 201.85Z" />
					</g>
					<g id="g248">
						<path id="path250" class="shp2" d="M46.36 163.97C46.32 163.79 46.27 163.6 46.22 163.42C46.27 163.6 46.32 163.79 46.36 163.97Z" />
					</g>
					<g id="g252">
						<path id="path254" class="shp2" d="M45.71 161.42C45.7 161.35 45.68 161.28 45.66 161.2C45.68 161.28 45.7 161.35 45.71 161.42Z" />
					</g>
					<g id="g256">
						<path id="path258" class="shp3" d="M112.57 161.88C108.59 137.06 103.38 113.48 98.79 94.87C85.45 90.7 71.68 87.95 57.73 86.69C57.18 87.57 56.65 88.46 56.13 89.37C49.08 101.92 43.68 118.29 43.68 138.99C43.68 140.42 43.67 144.19 43.65 149.73C43.67 149.9 43.69 150.06 43.71 150.23C50.46 152.65 57.4 154.74 64.54 156.45C80.64 160.31 96.74 162.06 112.57 161.88Z" />
					</g>
					<g id="g260">
						<path id="path262" class="shp2" d="M47.8 168.8C47.71 168.5 47.61 168.2 47.52 167.91C47.61 168.2 47.71 168.5 47.8 168.8Z" />
					</g>
					<g id="g264">
						<path id="path266" class="shp2" d="M107.72 230.68C107.34 230.54 106.97 230.4 106.59 230.26C106.97 230.4 107.34 230.54 107.72 230.68Z" />
					</g>
					<g id="g268">
						<path id="path270" class="shp2" d="M67.67 203.54C67.23 203.05 66.79 202.55 66.36 202.04C66.79 202.55 67.23 203.05 67.67 203.54Z" />
					</g>
					<g id="g272">
						<path id="path274" class="shp2" d="M103.23 228.94C102.75 228.73 102.27 228.52 101.79 228.32C102.27 228.52 102.75 228.73 103.23 228.94Z" />
					</g>
					<g id="g276">
						<path id="path278" class="shp2" d="M116.55 233.41C116.47 233.39 116.4 233.37 116.32 233.35C116.4 233.37 116.47 233.39 116.55 233.41Z" />
					</g>
					<g id="g280">
						<path id="path282" class="shp2" d="M100.97 227.96C100.61 227.8 100.27 227.63 99.91 227.47C100.27 227.63 100.62 227.8 100.97 227.96Z" />
					</g>
					<g id="g284">
						<path id="path286" class="shp2" d="M109.94 231.45C109.64 231.35 109.34 231.25 109.05 231.15C109.34 231.25 109.64 231.35 109.94 231.45Z" />
					</g>
					<g id="g288">
						<path id="path290" class="shp2" d="M112.15 232.16C111.93 232.1 111.71 232.03 111.49 231.96C111.71 232.03 111.93 232.1 112.15 232.16Z" />
					</g>
					<g id="g292">
						<path id="path294" class="shp2" d="M105.49 229.84C105.03 229.67 104.59 229.49 104.14 229.3C104.59 229.49 105.03 229.67 105.49 229.84Z" />
					</g>
					<g id="g296">
						<path id="path298" class="shp2" d="M70.7 206.81C70.37 206.47 70.04 206.13 69.71 205.78C70.04 206.13 70.37 206.47 70.7 206.81Z" />
					</g>
					<g id="g300">
						<path id="path302" class="shp2" d="M69.17 205.2C68.78 204.78 68.39 204.35 68.01 203.93C68.39 204.35 68.78 204.78 69.17 205.2Z" />
					</g>
					<g id="g304">
						<path id="path306" class="shp2" d="M78.92 214.36C78.92 214.36 78.91 214.35 78.91 214.35C78.91 214.35 78.92 214.36 78.92 214.36Z" />
					</g>
					<g id="g308">
						<path id="path310" class="shp2" d="M72.27 208.39C72.01 208.13 71.74 207.87 71.48 207.6C71.74 207.87 72.01 208.13 72.27 208.39Z" />
					</g>
					<g id="g312">
						<path id="path314" class="shp2" d="M77.2 212.92C77.14 212.86 77.07 212.81 77.01 212.76C77.07 212.81 77.14 212.86 77.2 212.92Z" />
					</g>
					<g id="g316">
						<path id="path318" class="shp2" d="M75.52 211.44C75.39 211.33 75.26 211.21 75.13 211.1C75.26 211.21 75.39 211.33 75.52 211.44Z" />
					</g>
					<g id="g320">
						<path id="path322" class="shp2" d="M73.88 209.93C73.68 209.75 73.48 209.56 73.29 209.38C73.48 209.56 73.68 209.75 73.88 209.93Z" />
					</g>
					<g id="g324">
						<path id="path326" class="shp2" d="M99.91 227.47C92.43 224.01 85.36 219.62 78.92 214.36C85.21 219.5 92.23 223.93 99.91 227.47Z" />
					</g>
					<g id="g328">
						<path id="path330" class="shp2" d="M64.79 200.14C64.78 200.13 64.77 200.12 64.77 200.12C64.77 200.12 64.78 200.13 64.79 200.14Z" />
					</g>
					<g id="g332">
						<path id="path334" class="shp2" d="M66.36 202.04C66.31 201.98 66.26 201.91 66.2 201.85C66.26 201.91 66.31 201.98 66.36 202.04Z" />
					</g>
					<g id="g336">
						<path id="path338" class="shp2" d="M51.76 178.99C51.61 178.65 51.45 178.32 51.3 177.98C51.45 178.32 51.61 178.65 51.76 178.99Z" />
					</g>
					<g id="g340">
						<path id="path342" class="shp2" d="M77.01 212.75C76.51 212.32 76.01 211.89 75.52 211.44C76.01 211.89 76.51 212.32 77.01 212.75Z" />
					</g>
					<g id="g344">
						<path id="path346" class="shp2" d="M75.13 211.1C74.71 210.71 74.29 210.33 73.88 209.93C74.29 210.33 74.71 210.71 75.13 211.1Z" />
					</g>
					<g id="g348">
						<path id="path350" class="shp2" d="M73.29 209.38C72.95 209.05 72.61 208.72 72.27 208.39C72.61 208.72 72.95 209.05 73.29 209.38Z" />
					</g>
					<g id="g352">
						<path id="path354" class="shp2" d="M50.94 177.14C50.74 176.66 50.54 176.19 50.34 175.71C50.54 176.19 50.74 176.66 50.94 177.14Z" />
					</g>
					<g id="g356">
						<path id="path358" class="shp2" d="M69.71 205.78C69.53 205.59 69.35 205.39 69.17 205.2C69.35 205.39 69.53 205.59 69.71 205.78Z" />
					</g>
					<g id="g360">
						<path id="path362" class="shp2" d="M71.48 207.6C71.22 207.34 70.96 207.08 70.7 206.81C70.96 207.08 71.22 207.34 71.48 207.6Z" />
					</g>
					<g id="g364">
						<path id="path366" class="shp2" d="M68.01 203.93C67.9 203.8 67.78 203.67 67.67 203.54C67.78 203.67 67.9 203.8 68.01 203.93Z" />
					</g>
					<g id="g368">
						<path id="path370" class="shp2" d="M43.68 150.22C44.13 153.92 44.8 157.59 45.66 161.2C44.79 157.56 44.15 153.89 43.71 150.22C43.7 150.22 43.69 150.22 43.68 150.22Z" />
					</g>
					<g id="g372">
						<path id="path374" class="shp2" d="M49.99 174.83C49.8 174.36 49.62 173.9 49.44 173.44C49.62 173.9 49.8 174.37 49.99 174.83Z" />
					</g>
					<g id="g376">
						<path id="path378" class="shp2" d="M118.76 233.96C118.83 233.97 118.9 233.99 118.97 234.01L118.97 234C118.9 233.99 118.83 233.97 118.76 233.96Z" />
					</g>
					<g id="g380">
						<path id="path382" class="shp2" d="M46.22 163.42C46.04 162.76 45.87 162.09 45.71 161.42C45.88 162.09 46.04 162.76 46.22 163.42Z" />
					</g>
					<g id="g384">
						<path id="path386" class="shp4" d="M118.99 232.3C118.99 209.81 116.33 185.3 112.57 161.88C96.74 162.06 80.64 160.31 64.54 156.45C57.4 154.74 50.46 152.65 43.71 150.22C44.15 153.89 44.79 157.56 45.66 161.2C45.68 161.28 45.7 161.35 45.71 161.42C45.87 162.09 46.04 162.76 46.22 163.42C46.27 163.6 46.32 163.78 46.36 163.97C46.52 164.53 46.67 165.09 46.84 165.65C46.91 165.91 46.98 166.16 47.06 166.42C47.21 166.91 47.36 167.41 47.52 167.91C47.61 168.2 47.71 168.5 47.8 168.8C47.95 169.26 48.11 169.72 48.27 170.18C48.37 170.5 48.48 170.82 48.59 171.13C48.75 171.58 48.92 172.03 49.09 172.48C49.2 172.8 49.32 173.12 49.44 173.44C49.62 173.9 49.8 174.36 49.99 174.83C50.11 175.12 50.22 175.42 50.34 175.71C50.54 176.19 50.74 176.66 50.94 177.14C51.06 177.42 51.18 177.7 51.31 177.98C51.45 178.32 51.61 178.65 51.76 178.99C55.18 186.52 59.54 193.63 64.77 200.12C64.77 200.12 64.78 200.13 64.79 200.14C65.25 200.71 65.72 201.28 66.2 201.85C66.26 201.91 66.31 201.98 66.36 202.04C66.79 202.55 67.23 203.05 67.67 203.54C67.78 203.67 67.9 203.8 68.01 203.93C68.39 204.35 68.78 204.78 69.17 205.2C69.35 205.39 69.53 205.59 69.71 205.78C70.04 206.13 70.37 206.47 70.7 206.81C70.96 207.08 71.22 207.34 71.48 207.6C71.74 207.87 72.01 208.13 72.27 208.39C72.61 208.72 72.95 209.05 73.29 209.38C73.48 209.56 73.68 209.75 73.88 209.93C74.29 210.33 74.71 210.71 75.13 211.1C75.26 211.21 75.39 211.33 75.52 211.44C76.01 211.89 76.51 212.32 77.01 212.75C77.07 212.81 77.14 212.86 77.2 212.92C77.76 213.4 78.33 213.88 78.91 214.35C78.91 214.35 78.92 214.36 78.92 214.36C85.36 219.62 92.42 224.01 99.91 227.47C100.27 227.63 100.61 227.8 100.97 227.96C101.24 228.08 101.52 228.2 101.79 228.32C102.27 228.52 102.75 228.73 103.23 228.94C103.53 229.06 103.84 229.18 104.14 229.3C104.59 229.49 105.03 229.67 105.48 229.84C105.85 229.99 106.22 230.12 106.59 230.26C106.97 230.4 107.34 230.55 107.72 230.68C108.16 230.84 108.6 230.99 109.05 231.15C109.34 231.25 109.64 231.35 109.94 231.45C110.45 231.63 110.97 231.79 111.49 231.96C111.71 232.03 111.93 232.1 112.14 232.16C112.73 232.35 113.32 232.52 113.91 232.69C114.06 232.73 114.2 232.78 114.35 232.82C115 233 115.66 233.18 116.32 233.35C116.4 233.37 116.47 233.39 116.55 233.41C117.26 233.6 117.98 233.78 118.7 233.95C118.72 233.95 118.74 233.95 118.76 233.96C118.83 233.98 118.9 233.99 118.97 234C118.97 233.44 118.99 232.88 118.99 232.3Z" />
					</g>
					<g id="g388">
						<path id="path390" class="shp2" d="M48.27 170.18C48.11 169.72 47.95 169.26 47.8 168.8C47.95 169.26 48.11 169.72 48.27 170.18Z" />
					</g>
					<g id="g392">
						<path id="path394" class="shp2" d="M49.09 172.48C48.92 172.03 48.75 171.58 48.59 171.13C48.75 171.58 48.92 172.03 49.09 172.48Z" />
					</g>
					<g id="g396">
						<path id="path398" class="shp2" d="M47.52 167.91C47.36 167.41 47.21 166.91 47.06 166.42C47.21 166.92 47.36 167.41 47.52 167.91Z" />
					</g>
					<g id="g400">
						<path id="path402" class="shp2" d="M46.84 165.65C46.67 165.09 46.52 164.53 46.36 163.97C46.52 164.53 46.67 165.09 46.84 165.65Z" />
					</g>
					<g id="g404">
						<path id="path406" class="shp2" d="M109.05 231.15C108.6 230.99 108.16 230.84 107.72 230.68C108.16 230.84 108.6 230.99 109.05 231.15Z" />
					</g>
					<g id="g408">
						<path id="path410" class="shp2" d="M113.91 232.69C113.32 232.52 112.73 232.35 112.15 232.16C112.73 232.35 113.32 232.52 113.91 232.69Z" />
					</g>
					<g id="g412">
						<path id="path414" class="shp2" d="M116.32 233.35C115.66 233.18 115 233 114.35 232.82C115 233 115.66 233.18 116.32 233.35Z" />
					</g>
					<g id="g416">
						<path id="path418" class="shp2" d="M106.59 230.26C106.22 230.12 105.85 229.99 105.48 229.84C105.85 229.99 106.22 230.12 106.59 230.26Z" />
					</g>
					<g id="g420">
						<path id="path422" class="shp2" d="M101.79 228.32C101.52 228.2 101.24 228.08 100.97 227.96C101.24 228.08 101.52 228.2 101.79 228.32Z" />
					</g>
					<g id="g424">
						<path id="path426" class="shp2" d="M111.49 231.96C110.97 231.79 110.45 231.63 109.94 231.45C110.45 231.63 110.97 231.79 111.49 231.96Z" />
					</g>
					<g id="g428">
						<path id="path430" class="shp2" d="M78.9 214.35C78.33 213.88 77.76 213.4 77.2 212.92C77.76 213.4 78.33 213.88 78.9 214.35Z" />
					</g>
					<g id="g432">
						<path id="path434" class="shp2" d="M118.7 233.95C117.98 233.78 117.26 233.6 116.55 233.41C117.27 233.6 117.98 233.78 118.7 233.95Z" />
					</g>
					<g id="g436">
						<path id="path438" class="shp2" d="M103.37 229C103.63 229.1 103.88 229.2 104.14 229.3C103.84 229.18 103.53 229.06 103.23 228.94C103.28 228.96 103.33 228.98 103.37 229Z" />
					</g>
					<g id="g440">
						<path id="path442" class="shp5" d="M222.91 84.63C223.28 85.2 223.65 85.77 224 86.34C223.65 85.77 223.28 85.2 222.91 84.63Z" />
					</g>
					<g id="g444">
						<path id="path446" class="shp5" d="M224.1 86.49C224.49 87.12 224.87 87.75 225.25 88.39C224.87 87.75 224.49 87.12 224.1 86.49Z" />
					</g>
					<g id="g448">
						<path id="path450" class="shp5" d="M230.65 98.9C230.77 99.18 230.89 99.46 231.01 99.73C230.89 99.46 230.77 99.18 230.65 98.9Z" />
					</g>
					<g id="g452">
						<path id="path454" class="shp5" d="M231.67 101.31C231.66 101.26 231.63 101.22 231.61 101.17C231.74 101.47 231.86 101.77 231.98 102.08C231.87 101.82 231.78 101.57 231.67 101.31Z" />
					</g>
					<g id="g456">
						<path id="path458" class="shp5" d="M238.83 144.01C238.82 144.15 238.82 144.3 238.81 144.44C238.82 144.3 238.82 144.15 238.83 144.01Z" />
					</g>
					<g id="g460">
						<path id="path462" class="shp5" d="M232.31 173.96C232.14 174.41 231.96 174.86 231.78 175.31C231.96 174.86 232.14 174.41 232.31 173.96Z" />
					</g>
					<g id="g464">
						<path id="path466" class="shp5" d="M221.7 82.83C222.03 83.31 222.36 83.8 222.68 84.29C222.36 83.8 222.03 83.31 221.7 82.83Z" />
					</g>
					<g id="g468">
						<path id="path470" class="shp5" d="M217.95 77.74C218.03 77.84 218.12 77.95 218.2 78.06C218.12 77.95 218.03 77.84 217.95 77.74Z" />
					</g>
					<g id="g472">
						<path id="path474" class="shp6" d="M236.02 114.52C236 114.44 235.98 114.37 235.96 114.29C235.79 113.63 235.61 112.97 235.43 112.31C235.39 112.17 235.35 112.03 235.31 111.88C235.14 111.29 234.97 110.7 234.79 110.1C234.73 109.89 234.66 109.67 234.59 109.46C234.43 108.93 234.26 108.41 234.09 107.89C234 107.6 233.89 107.3 233.79 107C233.64 106.56 233.49 106.11 233.33 105.67C233.2 105.29 233.06 104.91 232.92 104.54C232.78 104.17 232.65 103.8 232.51 103.43C232.34 102.98 232.16 102.53 231.98 102.08C231.86 101.77 231.74 101.47 231.61 101.17C231.42 100.69 231.21 100.21 231.01 99.73C230.89 99.46 230.77 99.18 230.65 98.9C230.49 98.54 230.32 98.18 230.16 97.81C228.7 94.6 227.07 91.46 225.27 88.41C225.26 88.4 225.26 88.4 225.25 88.39C224.87 87.75 224.49 87.12 224.1 86.49C224.07 86.44 224.04 86.39 224 86.34C223.65 85.77 223.28 85.2 222.91 84.63C222.83 84.52 222.76 84.4 222.68 84.29C222.36 83.8 222.03 83.31 221.7 82.83C221.56 82.63 221.42 82.43 221.28 82.23C221.01 81.84 220.74 81.46 220.46 81.07C220.24 80.77 220.02 80.46 219.8 80.16C219.6 79.9 219.41 79.64 219.21 79.38C218.88 78.93 218.54 78.49 218.2 78.06C218.12 77.95 218.03 77.84 217.95 77.74C191.66 44.41 145.62 31.22 104.09 47.6C104.02 47.63 103.94 47.65 103.87 47.68C103.78 47.72 103.69 47.76 103.6 47.79C103.59 47.8 103.58 47.8 103.57 47.81C98.12 49.99 92.98 52.63 88.18 55.67C88.18 55.67 88.19 55.73 88.22 55.8C88.67 57.29 93.28 72.48 98.79 94.87C130.41 104.76 159.64 122.66 183.14 147.76C202.44 139.99 220.41 129.2 236.33 115.82C236.23 115.39 236.12 114.95 236.02 114.52Z" />
					</g>
					<g id="g476">
						<path id="path478" class="shp5" d="M236.53 116.68C236.37 115.96 236.2 115.24 236.02 114.52C236.12 114.95 236.23 115.39 236.33 115.83C236.4 116.11 236.47 116.39 236.53 116.68Z" />
					</g>
					<g id="g480">
						<path id="path482" class="shp5" d="M233.15 171.72C233.02 172.1 232.87 172.48 232.73 172.85C232.87 172.48 233.02 172.1 233.15 171.72Z" />
					</g>
					<g id="g484">
						<path id="path486" class="shp5" d="M220.46 81.07C220.74 81.46 221.01 81.84 221.28 82.23C221.01 81.84 220.74 81.46 220.46 81.07Z" />
					</g>
					<g id="g488">
						<path id="path490" class="shp5" d="M219.21 79.38C219.41 79.64 219.6 79.9 219.8 80.16C219.6 79.9 219.41 79.64 219.21 79.38Z" />
					</g>
					<g id="g492">
						<path id="path494" class="shp5" d="M231.41 176.21C231.21 176.69 231 177.17 230.79 177.64C231 177.17 231.21 176.69 231.41 176.21Z" />
					</g>
					<g id="g496">
						<path id="path498" class="shp5" d="M225.27 88.41C227.07 91.46 228.7 94.6 230.16 97.81C228.68 94.56 227.05 91.42 225.27 88.41Z" />
					</g>
					<g id="g500">
						<path id="path502" class="shp5" d="M238.86 133.42C238.89 134.04 238.92 134.66 238.94 135.28C238.92 134.66 238.89 134.04 238.86 133.42Z" />
					</g>
					<g id="g504">
						<path id="path506" class="shp5" d="M235.88 162.89C235.86 162.96 235.84 163.04 235.82 163.12C235.84 163.04 235.86 162.96 235.88 162.89Z" />
					</g>
					<g id="g508">
						<path id="path510" class="shp5" d="M238.96 136.05C238.97 136.56 238.98 137.06 238.99 137.57C238.98 137.06 238.97 136.56 238.96 136.05Z" />
					</g>
					<g id="g512">
						<path id="path514" class="shp5" d="M238.7 130.85C238.75 131.56 238.8 132.27 238.84 132.98C238.8 132.27 238.75 131.56 238.7 130.85Z" />
					</g>
					<g id="g516">
						<path id="path518" class="shp5" d="M238.65 146.58C238.65 146.63 238.64 146.69 238.64 146.74C238.64 146.69 238.65 146.63 238.65 146.58Z" />
					</g>
					<g id="g520">
						<path id="path522" class="shp5" d="M238.95 141.38C238.94 141.63 238.93 141.89 238.92 142.15C238.93 141.89 238.94 141.63 238.95 141.38Z" />
					</g>
					<g id="g524">
						<path id="path526" class="shp5" d="M236.55 116.74C237.59 121.31 238.31 125.97 238.68 130.68C238.31 126.03 237.61 121.38 236.55 116.74Z" />
					</g>
					<g id="g528">
						<path id="path530" class="shp5" d="M236.43 160.68C236.42 160.69 236.42 160.71 236.41 160.73C236.42 160.71 236.42 160.69 236.43 160.68Z" />
					</g>
					<g id="g532">
						<path id="path534" class="shp5" d="M238.99 138.72C238.99 139.1 238.99 139.48 238.98 139.86C238.99 139.48 238.99 139.1 238.99 138.72Z" />
					</g>
					<g id="g536">
						<path id="path538" class="shp5" d="M235.28 165.09C235.24 165.24 235.2 165.38 235.16 165.52C235.2 165.38 235.24 165.24 235.28 165.09Z" />
					</g>
					<g id="g540">
						<path id="path542" class="shp5" d="M230.43 178.48C230.28 178.82 230.12 179.16 229.96 179.5C230.12 179.16 230.28 178.82 230.43 178.48Z" />
					</g>
					<g id="g544">
						<path id="path546" class="shp5" d="M234.09 107.89C234.26 108.41 234.43 108.93 234.59 109.46C234.43 108.93 234.26 108.41 234.09 107.89Z" />
					</g>
					<g id="g548">
						<path id="path550" class="shp5" d="M232.51 103.43C232.65 103.8 232.78 104.17 232.92 104.54C232.78 104.17 232.65 103.8 232.51 103.43Z" />
					</g>
					<g id="g552">
						<path id="path554" class="shp5" d="M233.33 105.67C233.49 106.11 233.64 106.56 233.79 107C233.64 106.56 233.49 106.11 233.33 105.67Z" />
					</g>
					<g id="g556">
						<path id="path558" class="shp5" d="M234.79 110.1C234.97 110.7 235.14 111.29 235.31 111.88C235.14 111.29 234.97 110.7 234.79 110.1Z" />
					</g>
					<g id="g560">
						<path id="path562" class="shp5" d="M233.92 169.51C233.82 169.8 233.72 170.1 233.62 170.39C233.72 170.1 233.82 169.8 233.92 169.51Z" />
					</g>
					<g id="g564">
						<path id="path566" class="shp5" d="M235.43 112.31C235.61 112.97 235.79 113.63 235.96 114.29C235.79 113.63 235.61 112.97 235.43 112.31Z" />
					</g>
					<g id="g568">
						<path id="path570" class="shp5" d="M234.63 167.3C234.57 167.51 234.5 167.73 234.43 167.94C234.5 167.73 234.57 167.51 234.63 167.3Z" />
					</g>
					<g id="g572">
						<path id="path574" class="shp7" d="M183.14 147.76C192.22 157.45 200.44 168.22 207.62 180.01C211.44 186.29 214.86 192.7 217.9 199.21C222.7 193.12 226.74 186.5 229.96 179.5C230.12 179.16 230.28 178.82 230.43 178.48C230.55 178.2 230.67 177.92 230.79 177.64C231 177.17 231.21 176.69 231.41 176.21C231.53 175.91 231.65 175.61 231.77 175.31C231.96 174.86 232.14 174.41 232.31 173.96C232.46 173.59 232.59 173.22 232.73 172.85C232.87 172.48 233.02 172.1 233.15 171.72C233.31 171.28 233.47 170.83 233.62 170.39C233.72 170.1 233.82 169.8 233.92 169.51C234.1 168.99 234.26 168.47 234.43 167.94C234.5 167.73 234.57 167.51 234.63 167.3C234.81 166.71 234.99 166.11 235.16 165.52C235.2 165.38 235.24 165.24 235.28 165.09C235.47 164.44 235.65 163.78 235.82 163.12C235.84 163.04 235.86 162.96 235.88 162.89C236.07 162.17 236.24 161.45 236.41 160.73C236.42 160.71 236.42 160.69 236.43 160.68C237.49 156.11 238.24 151.45 238.64 146.74C238.64 146.69 238.65 146.63 238.65 146.58C238.71 145.87 238.76 145.15 238.81 144.44C238.82 144.3 238.82 144.15 238.83 144.01C238.87 143.39 238.9 142.77 238.92 142.15C238.93 141.89 238.94 141.63 238.95 141.38C238.96 140.87 238.97 140.36 238.98 139.86C238.99 139.48 238.99 139.1 238.99 138.72C238.99 138.33 238.99 137.95 238.99 137.57C238.98 137.06 238.97 136.56 238.96 136.05C238.95 135.79 238.95 135.53 238.94 135.28C238.92 134.66 238.89 134.04 238.86 133.42C238.85 133.27 238.85 133.13 238.84 132.98C238.8 132.27 238.75 131.56 238.7 130.85C238.69 130.79 238.69 130.74 238.68 130.68C238.31 125.97 237.59 121.31 236.55 116.74C236.54 116.72 236.54 116.7 236.54 116.68C236.47 116.39 236.4 116.11 236.33 115.82C220.41 129.2 202.44 139.99 183.14 147.76Z" />
					</g>
					<g id="g576">
						<path id="path578" class="shp8" d="M98.79 94.87C93.28 72.48 88.67 57.29 88.22 55.8C88.19 55.73 88.18 55.67 88.18 55.67L88.18 55.67C87.73 56.02 70.58 65.41 57.7 86.67C57.7 86.67 57.7 86.68 57.69 86.69C57.62 86.8 57.55 86.91 57.48 87.03C57.55 86.91 57.62 86.8 57.69 86.69C57.7 86.69 57.72 86.69 57.73 86.69C71.68 87.95 85.45 90.7 98.79 94.87Z" />
					</g>
					<g id="g580">
						<path id="path582" fill-rule="evenodd" class="shp9" d="M348.5 153.59C361.59 153.59 372.49 157.94 381.2 166.66C389.9 175.37 394.26 186.21 394.26 199.17C394.26 212 389.9 222.81 381.2 231.59C372.49 240.37 361.59 244.75 348.5 244.75L315.91 244.75L315.91 295.4L297.08 295.4L297.08 153.59L348.5 153.59ZM348.5 227.13C356.33 227.13 362.81 224.46 367.94 219.13C373.07 213.79 375.63 207.14 375.63 199.17C375.63 191.07 373.07 184.38 367.94 179.12C362.81 173.85 356.33 171.21 348.5 171.21L315.91 171.21L315.91 227.13L348.5 227.13Z" />
					</g>
					<g id="g584">
						<path id="path586" class="shp9" d="M458.69 191.47C470.57 191.47 480.08 195.22 487.24 202.72C494.39 210.21 497.96 220.38 497.96 233.21L497.96 295.4L480.35 295.4L480.35 234.22C480.35 225.98 478.13 219.6 473.67 215.07C469.22 210.55 463.08 208.29 455.25 208.29C446.48 208.29 439.39 211.02 433.99 216.49C428.59 221.96 425.9 230.37 425.9 241.71L425.9 295.4L408.28 295.4L408.28 153.59L425.9 153.59L425.9 208.69C433.05 197.21 443.98 191.47 458.69 191.47Z" />
					</g>
					<g id="g588">
						<path id="path590" fill-rule="evenodd" class="shp9" d="M605.18 282.64C594.78 292.9 582.16 298.03 567.32 298.03C552.47 298.03 539.89 292.9 529.56 282.64C519.24 272.37 514.08 259.74 514.08 244.75C514.08 229.76 519.24 217.14 529.56 206.87C539.89 196.61 552.47 191.47 567.32 191.47C582.16 191.47 594.78 196.61 605.18 206.87C615.57 217.14 620.76 229.76 620.76 244.75C620.76 259.74 615.57 272.37 605.18 282.64ZM567.32 280.81C577.44 280.81 585.95 277.37 592.83 270.48C599.71 263.59 603.15 255.02 603.15 244.75C603.15 234.49 599.71 225.91 592.83 219.02C585.95 212.14 577.44 208.69 567.32 208.69C557.33 208.69 548.9 212.14 542.02 219.02C535.13 225.91 531.69 234.49 531.69 244.75C531.69 255.02 535.13 263.59 542.02 270.48C548.9 277.37 557.33 280.81 567.32 280.81Z" />
					</g>
					<g id="g592">
						<path id="path594" class="shp9" d="M655.78 211.12C661.59 198.56 672.11 192.28 687.37 192.28L687.37 210.72C678.73 210.31 671.3 212.61 665.1 217.61C658.89 222.61 655.78 230.64 655.78 241.71L655.78 295.4L638.17 295.4L638.17 194.11L655.78 194.11L655.78 211.12Z" />
					</g>
					<g id="g596">
						<path id="path598" fill-rule="evenodd" class="shp9" d="M710.72 252.86C712.48 261.91 716.63 268.93 723.17 273.93C729.72 278.92 737.78 281.42 747.37 281.42C760.73 281.42 770.44 276.49 776.52 266.63L791.5 275.14C781.65 290.41 766.8 298.03 746.96 298.03C730.9 298.03 717.84 293 707.79 282.94C697.73 272.88 692.71 260.15 692.71 244.75C692.71 229.49 697.63 216.8 707.49 206.67C717.34 196.54 730.09 191.47 745.75 191.47C760.59 191.47 772.7 196.71 782.08 207.17C791.46 217.64 796.15 230.24 796.15 244.96C796.15 247.52 795.95 250.16 795.55 252.86L710.72 252.86ZM745.75 208.08C736.3 208.08 728.47 210.75 722.26 216.09C716.05 221.42 712.21 228.55 710.72 237.46L778.34 237.46C776.85 227.87 773.08 220.58 767 215.58C760.93 210.59 753.84 208.08 745.75 208.08Z" />
					</g>
					<g id="g600">
						<path id="path602" class="shp9" d="M827 221.16C827 224.98 828.99 228.06 832.97 230.37C836.94 232.68 841.68 234.64 847.18 236.26C852.68 237.87 858.21 239.5 863.77 241.14C869.34 242.77 874.05 245.84 877.9 250.33C881.76 254.83 883.69 260.6 883.69 267.65C883.69 276.83 880.15 284.19 873.06 289.73C865.97 295.27 856.9 298.03 845.83 298.03C835.98 298.03 827.54 295.87 820.53 291.55C813.51 287.23 808.51 281.49 805.55 274.33L820.73 265.62C822.35 270.48 825.39 274.33 829.84 277.17C834.29 280 839.62 281.42 845.83 281.42C851.63 281.42 856.43 280.31 860.21 278.09C863.98 275.86 865.87 272.39 865.87 267.67C865.87 263.76 863.91 260.62 860 258.26C856.08 255.9 851.37 253.9 845.87 252.25C840.37 250.59 834.84 248.93 829.28 247.26C823.71 245.59 818.97 242.59 815.06 238.27C811.15 233.95 809.19 228.41 809.19 221.66C809.19 212.88 812.6 205.65 819.41 199.98C826.23 194.31 834.76 191.47 845.02 191.47C853.25 191.47 860.58 193.33 866.99 197.04C873.4 200.76 878.22 205.93 881.46 212.54L866.68 220.85C863.04 212.21 855.82 207.88 845.02 207.88C840.03 207.88 835.78 209.04 832.27 211.35C828.76 213.66 827 216.93 827 221.16Z" />
					</g>
					<g id="g604">
						<path id="path606" class="shp9" d="M957.09 211.12L930.17 211.12L930.17 266.02C930.17 271.02 931.14 274.57 933.1 276.66C935.06 278.76 938.06 279.84 942.11 279.9C946.16 279.97 951.15 279.87 957.09 279.6L957.09 295.4C941.71 297.43 930.44 296.17 923.28 291.65C916.13 287.13 912.55 278.59 912.55 266.02L912.55 211.12L892.51 211.12L892.51 194.11L912.55 194.11L912.55 171.01L930.17 165.74L930.17 194.11L957.09 194.11L957.09 211.12Z" />
					</g>
				</g>
			</g>
		</g>
	</g>
</svg>