<svg width="1em" height="1em" viewBox="0 0 25 24" fill="none" xmlns="http://www.w3.org/2000/svg" class="icon___LhMWvkB"><path fill-rule="evenodd" clip-rule="evenodd" d="M10.8835 6.72018L9.23645 11.1895C9.14381 11.4409 8.99771 11.6692 8.80826 11.8587C8.61881 12.0481 8.39051 12.1942 8.13912 12.2868L3.66979 13.9339L8.13907 15.5809C8.39046 15.6735 8.61882 15.8196 8.80826 16.0091C8.99771 16.1985 9.14379 16.4268 9.23643 16.6782L10.8835 21.1476L12.5305 16.6783C12.6231 16.4269 12.7693 16.1985 12.9587 16.0091C13.1481 15.8196 13.3764 15.6736 13.6278 15.5809L18.0972 13.9339L13.6279 12.2868C13.3765 12.1942 13.1481 12.0481 12.9587 11.8587C12.7692 11.6692 12.6232 11.4409 12.5305 11.1895L10.8835 6.72018ZM14.4654 17.5158L19.4968 15.6616L19.4991 15.6607C19.8516 15.5299 20.1557 15.2943 20.3704 14.9856C20.585 14.6769 20.7001 14.3099 20.7001 13.9339C20.7001 13.5579 20.585 13.1909 20.3704 12.8822C20.1557 12.5735 19.8516 12.3379 19.4991 12.207L14.4654 10.352L12.6112 5.32053L12.6103 5.31822C12.4795 4.96571 12.2439 4.66169 11.9352 4.44699C11.6265 4.2323 11.2595 4.11723 10.8835 4.11723C10.5075 4.11723 10.1405 4.2323 9.83177 4.44699C9.52308 4.66169 9.28748 4.96571 9.15663 5.31822L9.15578 5.32053L7.30158 10.352L2.27014 12.2062L2.26782 12.207C1.91531 12.3379 1.61129 12.5735 1.3966 12.8822C1.18191 13.1909 1.06683 13.5579 1.06683 13.9339C1.06683 14.3099 1.18191 14.6769 1.3966 14.9856C1.61129 15.2943 1.91531 15.5299 2.26782 15.6607L2.27014 15.6616L7.30158 17.5158L9.15578 22.5472L9.15663 22.5495C9.28748 22.902 9.52308 23.2061 9.83177 23.4208C10.1405 23.6354 10.5075 23.7505 10.8835 23.7505C11.2595 23.7505 11.6265 23.6354 11.9352 23.4208C12.2439 23.2061 12.4795 22.902 12.6103 22.5495L12.6112 22.5472L14.4654 17.5158Z" fill="currentColor"></path><path fill-rule="evenodd" clip-rule="evenodd" d="M17.199 0.25C17.7803 0.25 18.2516 0.721244 18.2516 1.30255V6.03904C18.2516 6.62035 17.7803 7.09159 17.199 7.09159C16.6177 7.09159 16.1465 6.62035 16.1465 6.03904V1.30255C16.1465 0.721244 16.6177 0.25 17.199 0.25Z" fill="currentColor"></path><path fill-rule="evenodd" clip-rule="evenodd" d="M13.778 3.67104C13.778 3.08973 14.2492 2.61848 14.8305 2.61848H19.567C20.1483 2.61848 20.6196 3.08973 20.6196 3.67104C20.6196 4.25235 20.1483 4.72359 19.567 4.72359H14.8305C14.2492 4.72359 13.778 4.25235 13.778 3.67104Z" fill="currentColor"></path><path fill-rule="evenodd" clip-rule="evenodd" d="M21.9355 5.77578C22.5168 5.77578 22.988 6.24703 22.988 6.82833V9.98599C22.988 10.5673 22.5168 11.0385 21.9355 11.0385C21.3542 11.0385 20.8829 10.5673 20.8829 9.98599V6.82833C20.8829 6.24703 21.3542 5.77578 21.9355 5.77578Z" fill="currentColor"></path><path fill-rule="evenodd" clip-rule="evenodd" d="M19.3043 8.40698C19.3043 7.82567 19.7755 7.35443 20.3568 7.35443H23.5145C24.0958 7.35443 24.567 7.82567 24.567 8.40698C24.567 8.98829 24.0958 9.45954 23.5145 9.45954H20.3568C19.7755 9.45954 19.3043 8.98829 19.3043 8.40698Z" fill="currentColor"></path></svg>