<svg width="71" height="72" viewBox="0 0 71 72" fill="none" xmlns="http://www.w3.org/2000/svg">
<g filter="url(#filter0_dd_2_307)">
<rect x="3.66733" y="3" width="64" height="64" rx="10.6667" fill="#2E90FA" shape-rendering="crispEdges"/>
<g filter="url(#filter1_dd_2_307)">
<g clip-path="url(#clip0_2_307)">
<rect x="6.33609" y="5.66675" width="58.6667" height="58.6667" rx="9.28" fill="#1570EF"/>
<rect opacity="0.8" x="18.3258" y="2.16602" width="0.75" height="63.0019" fill="url(#paint0_radial_2_307)"/>
<rect opacity="0.8" x="35.0758" y="2.16602" width="0.75" height="63.0019" fill="url(#paint1_radial_2_307)"/>
<rect opacity="0.8" x="51.8258" y="2.16602" width="0.75" height="63.0019" fill="url(#paint2_radial_2_307)"/>
<rect opacity="0.8" x="65.8383" y="17.8567" width="0.75" height="63.002" transform="rotate(90 65.8383 17.8567)" fill="url(#paint3_radial_2_307)"/>
<rect opacity="0.8" x="65.8383" y="34.6069" width="0.75" height="63.002" transform="rotate(90 65.8383 34.6069)" fill="url(#paint4_radial_2_307)"/>
<rect opacity="0.8" x="65.8383" y="51.3567" width="0.75" height="63.002" transform="rotate(90 65.8383 51.3567)" fill="url(#paint5_radial_2_307)"/>
</g>
<rect x="6.77359" y="6.10425" width="57.7917" height="57.7917" rx="8.8425" stroke="white" stroke-opacity="0.3" stroke-width="0.875"/>
</g>
<path d="M22.4132 30.9999L49.0798 30.9999L49.0798 28.5999C49.0798 27.1064 49.0798 26.3597 48.7892 25.7893C48.5335 25.2875 48.1256 24.8796 47.6238 24.6239C47.0534 24.3333 46.3067 24.3333 44.8132 24.3333L26.6798 24.3333C25.1864 24.3333 24.4396 24.3333 23.8692 24.6239C23.3674 24.8796 22.9595 25.2875 22.7038 25.7893C22.4132 26.3597 22.4132 27.1064 22.4132 28.5999L22.4132 30.9999Z" fill="white" fill-opacity="0.16"/>
<path d="M31.7465 40.3333L35.7465 36.3333M35.7465 36.3333L39.7465 40.3333M35.7465 36.3333L35.7465 45.6666M49.0798 30.9999L22.4132 30.9999M27.0798 42.9999L26.6798 42.9999C25.1864 42.9999 24.4396 42.9999 23.8692 42.7093C23.3674 42.4536 22.9595 42.0457 22.7038 41.5439C22.4132 40.9735 22.4132 40.2267 22.4132 38.7332L22.4132 28.5999C22.4132 27.1064 22.4132 26.3597 22.7038 25.7893C22.9595 25.2875 23.3674 24.8796 23.8692 24.6239C24.4396 24.3333 25.1864 24.3333 26.6798 24.3333L44.8132 24.3333C46.3067 24.3333 47.0534 24.3333 47.6238 24.6239C48.1256 24.8796 48.5335 25.2875 48.7892 25.7893C49.0798 26.3597 49.0798 27.1064 49.0798 28.5999L49.0798 38.7333C49.0798 40.2267 49.0798 40.9735 48.7892 41.5439C48.5335 42.0457 48.1256 42.4536 47.6238 42.7093C47.0534 42.9999 46.3066 42.9999 44.8132 42.9999L44.4132 42.9999" stroke="white" stroke-width="2.32727" stroke-linecap="round" stroke-linejoin="round"/>
<rect x="4.00066" y="3.33333" width="63.3333" height="63.3333" rx="10.3333" stroke="white" stroke-opacity="0.4" stroke-width="0.666667" shape-rendering="crispEdges"/>
</g>
<defs>
<filter id="filter0_dd_2_307" x="0.661621" y="0.996196" width="70.0114" height="70.0114" filterUnits="userSpaceOnUse" color-interpolation-filters="sRGB">
<feFlood flood-opacity="0" result="BackgroundImageFix"/>
<feColorMatrix in="SourceAlpha" type="matrix" values="0 0 0 0 0 0 0 0 0 0 0 0 0 0 0 0 0 0 127 0" result="hardAlpha"/>
<feMorphology radius="1.0019" operator="erode" in="SourceAlpha" result="effect1_dropShadow_2_307"/>
<feOffset dy="1.0019"/>
<feGaussianBlur stdDeviation="1.0019"/>
<feComposite in2="hardAlpha" operator="out"/>
<feColorMatrix type="matrix" values="0 0 0 0 0 0 0 0 0 0 0 0 0 0 0 0 0 0 0.1 0"/>
<feBlend mode="normal" in2="BackgroundImageFix" result="effect1_dropShadow_2_307"/>
<feColorMatrix in="SourceAlpha" type="matrix" values="0 0 0 0 0 0 0 0 0 0 0 0 0 0 0 0 0 0 127 0" result="hardAlpha"/>
<feOffset dy="1.0019"/>
<feGaussianBlur stdDeviation="1.50285"/>
<feComposite in2="hardAlpha" operator="out"/>
<feColorMatrix type="matrix" values="0 0 0 0 0 0 0 0 0 0 0 0 0 0 0 0 0 0 0.1 0"/>
<feBlend mode="normal" in2="effect1_dropShadow_2_307" result="effect2_dropShadow_2_307"/>
<feBlend mode="normal" in="SourceGraphic" in2="effect2_dropShadow_2_307" result="shape"/>
</filter>
<filter id="filter1_dd_2_307" x="2.90752" y="3.38103" width="65.5238" height="65.5239" filterUnits="userSpaceOnUse" color-interpolation-filters="sRGB">
<feFlood flood-opacity="0" result="BackgroundImageFix"/>
<feColorMatrix in="SourceAlpha" type="matrix" values="0 0 0 0 0 0 0 0 0 0 0 0 0 0 0 0 0 0 127 0" result="hardAlpha"/>
<feOffset dy="1.14286"/>
<feGaussianBlur stdDeviation="1.14286"/>
<feColorMatrix type="matrix" values="0 0 0 0 0.0627451 0 0 0 0 0.0941176 0 0 0 0 0.156863 0 0 0 0.06 0"/>
<feBlend mode="normal" in2="BackgroundImageFix" result="effect1_dropShadow_2_307"/>
<feColorMatrix in="SourceAlpha" type="matrix" values="0 0 0 0 0 0 0 0 0 0 0 0 0 0 0 0 0 0 127 0" result="hardAlpha"/>
<feOffset dy="1.14286"/>
<feGaussianBlur stdDeviation="1.71429"/>
<feColorMatrix type="matrix" values="0 0 0 0 0.0627451 0 0 0 0 0.0941176 0 0 0 0 0.156863 0 0 0 0.1 0"/>
<feBlend mode="normal" in2="effect1_dropShadow_2_307" result="effect2_dropShadow_2_307"/>
<feBlend mode="normal" in="SourceGraphic" in2="effect2_dropShadow_2_307" result="shape"/>
</filter>
<radialGradient id="paint0_radial_2_307" cx="0" cy="0" r="1" gradientUnits="userSpaceOnUse" gradientTransform="translate(18.7008 33.667) rotate(90.8254) scale(26.0331 3.74245)">
<stop stop-color="white"/>
<stop offset="0.9999" stop-color="#D9D9D9" stop-opacity="0.1"/>
<stop offset="1" stop-color="white" stop-opacity="0.1"/>
</radialGradient>
<radialGradient id="paint1_radial_2_307" cx="0" cy="0" r="1" gradientUnits="userSpaceOnUse" gradientTransform="translate(35.4508 33.667) rotate(90.8254) scale(26.0331 3.74245)">
<stop stop-color="white"/>
<stop offset="0.9999" stop-color="#D9D9D9" stop-opacity="0.1"/>
<stop offset="1" stop-color="white" stop-opacity="0.1"/>
</radialGradient>
<radialGradient id="paint2_radial_2_307" cx="0" cy="0" r="1" gradientUnits="userSpaceOnUse" gradientTransform="translate(52.2008 33.667) rotate(90.8254) scale(26.0331 3.74245)">
<stop stop-color="white"/>
<stop offset="0.9999" stop-color="#D9D9D9" stop-opacity="0.1"/>
<stop offset="1" stop-color="white" stop-opacity="0.1"/>
</radialGradient>
<radialGradient id="paint3_radial_2_307" cx="0" cy="0" r="1" gradientUnits="userSpaceOnUse" gradientTransform="translate(66.2133 49.3577) rotate(90.8254) scale(26.0331 3.74245)">
<stop stop-color="white"/>
<stop offset="0.9999" stop-color="#D9D9D9" stop-opacity="0.1"/>
<stop offset="1" stop-color="white" stop-opacity="0.1"/>
</radialGradient>
<radialGradient id="paint4_radial_2_307" cx="0" cy="0" r="1" gradientUnits="userSpaceOnUse" gradientTransform="translate(66.2133 66.1079) rotate(90.8254) scale(26.0331 3.74245)">
<stop stop-color="white"/>
<stop offset="0.9999" stop-color="#D9D9D9" stop-opacity="0.1"/>
<stop offset="1" stop-color="white" stop-opacity="0.1"/>
</radialGradient>
<radialGradient id="paint5_radial_2_307" cx="0" cy="0" r="1" gradientUnits="userSpaceOnUse" gradientTransform="translate(66.2133 82.8577) rotate(90.8254) scale(26.0331 3.74245)">
<stop stop-color="white"/>
<stop offset="0.9999" stop-color="#D9D9D9" stop-opacity="0.1"/>
<stop offset="1" stop-color="white" stop-opacity="0.1"/>
</radialGradient>
<clipPath id="clip0_2_307">
<rect x="6.33609" y="5.66675" width="58.6667" height="58.6667" rx="9.28" fill="white"/>
</clipPath>
</defs>
</svg>
