<svg width="71" height="72" viewBox="0 0 71 72" fill="none" xmlns="http://www.w3.org/2000/svg">
<g filter="url(#filter0_dd_2_305)">
<rect x="3.66733" y="3" width="64" height="64" rx="10.6667" fill="#2E90FA" shape-rendering="crispEdges"/>
<g filter="url(#filter1_dd_2_305)">
<g clip-path="url(#clip0_2_305)">
<rect x="6.33607" y="5.66699" width="58.6667" height="58.6667" rx="9.28" fill="#1570EF"/>
<rect opacity="0.8" x="18.3258" y="2.16626" width="0.75" height="63.0019" fill="url(#paint0_radial_2_305)"/>
<rect opacity="0.8" x="35.0758" y="2.16626" width="0.75" height="63.0019" fill="url(#paint1_radial_2_305)"/>
<rect opacity="0.8" x="51.8258" y="2.16626" width="0.75" height="63.0019" fill="url(#paint2_radial_2_305)"/>
<rect opacity="0.8" x="65.8383" y="17.8569" width="0.75" height="63.002" transform="rotate(90 65.8383 17.8569)" fill="url(#paint3_radial_2_305)"/>
<rect opacity="0.8" x="65.8383" y="34.6072" width="0.75" height="63.002" transform="rotate(90 65.8383 34.6072)" fill="url(#paint4_radial_2_305)"/>
<rect opacity="0.8" x="65.8383" y="51.3569" width="0.75" height="63.002" transform="rotate(90 65.8383 51.3569)" fill="url(#paint5_radial_2_305)"/>
</g>
<rect x="6.77357" y="6.10449" width="57.7917" height="57.7917" rx="8.8425" stroke="white" stroke-opacity="0.3" stroke-width="0.875"/>
</g>
<path d="M33.0007 24.3337L35.6673 24.3337L35.6673 35.0003L38.334 35.0003C41.2795 35.0003 43.6673 37.3881 43.6673 40.3337C43.6673 43.2792 41.2795 45.667 38.334 45.667L35.6673 45.667L35.6673 35.0003L33.0007 35.0003C30.0551 35.0003 27.6673 32.6125 27.6673 29.667C27.6673 26.7215 30.0551 24.3337 33.0007 24.3337Z" fill="white" fill-opacity="0.16"/>
<path d="M27.6673 40.3337C27.6673 43.2792 30.0551 45.667 33.0007 45.667L38.334 45.667C41.2795 45.667 43.6673 43.2792 43.6673 40.3337C43.6673 37.3881 41.2795 35.0003 38.334 35.0003L33.0007 35.0003C30.0551 35.0003 27.6673 32.6125 27.6673 29.667C27.6673 26.7215 30.0551 24.3337 33.0007 24.3337L38.334 24.3337C41.2795 24.3337 43.6673 26.7215 43.6673 29.667M35.6673 21.667L35.6673 48.3337" stroke="white" stroke-width="2.32727" stroke-linecap="round" stroke-linejoin="round"/>
<rect x="4.00066" y="3.33333" width="63.3333" height="63.3333" rx="10.3333" stroke="white" stroke-opacity="0.4" stroke-width="0.666667" shape-rendering="crispEdges"/>
</g>
<defs>
<filter id="filter0_dd_2_305" x="0.661621" y="0.996196" width="70.0114" height="70.0114" filterUnits="userSpaceOnUse" color-interpolation-filters="sRGB">
<feFlood flood-opacity="0" result="BackgroundImageFix"/>
<feColorMatrix in="SourceAlpha" type="matrix" values="0 0 0 0 0 0 0 0 0 0 0 0 0 0 0 0 0 0 127 0" result="hardAlpha"/>
<feMorphology radius="1.0019" operator="erode" in="SourceAlpha" result="effect1_dropShadow_2_305"/>
<feOffset dy="1.0019"/>
<feGaussianBlur stdDeviation="1.0019"/>
<feComposite in2="hardAlpha" operator="out"/>
<feColorMatrix type="matrix" values="0 0 0 0 0 0 0 0 0 0 0 0 0 0 0 0 0 0 0.1 0"/>
<feBlend mode="normal" in2="BackgroundImageFix" result="effect1_dropShadow_2_305"/>
<feColorMatrix in="SourceAlpha" type="matrix" values="0 0 0 0 0 0 0 0 0 0 0 0 0 0 0 0 0 0 127 0" result="hardAlpha"/>
<feOffset dy="1.0019"/>
<feGaussianBlur stdDeviation="1.50285"/>
<feComposite in2="hardAlpha" operator="out"/>
<feColorMatrix type="matrix" values="0 0 0 0 0 0 0 0 0 0 0 0 0 0 0 0 0 0 0.1 0"/>
<feBlend mode="normal" in2="effect1_dropShadow_2_305" result="effect2_dropShadow_2_305"/>
<feBlend mode="normal" in="SourceGraphic" in2="effect2_dropShadow_2_305" result="shape"/>
</filter>
<filter id="filter1_dd_2_305" x="2.9075" y="3.38128" width="65.5238" height="65.5239" filterUnits="userSpaceOnUse" color-interpolation-filters="sRGB">
<feFlood flood-opacity="0" result="BackgroundImageFix"/>
<feColorMatrix in="SourceAlpha" type="matrix" values="0 0 0 0 0 0 0 0 0 0 0 0 0 0 0 0 0 0 127 0" result="hardAlpha"/>
<feOffset dy="1.14286"/>
<feGaussianBlur stdDeviation="1.14286"/>
<feColorMatrix type="matrix" values="0 0 0 0 0.0627451 0 0 0 0 0.0941176 0 0 0 0 0.156863 0 0 0 0.06 0"/>
<feBlend mode="normal" in2="BackgroundImageFix" result="effect1_dropShadow_2_305"/>
<feColorMatrix in="SourceAlpha" type="matrix" values="0 0 0 0 0 0 0 0 0 0 0 0 0 0 0 0 0 0 127 0" result="hardAlpha"/>
<feOffset dy="1.14286"/>
<feGaussianBlur stdDeviation="1.71429"/>
<feColorMatrix type="matrix" values="0 0 0 0 0.0627451 0 0 0 0 0.0941176 0 0 0 0 0.156863 0 0 0 0.1 0"/>
<feBlend mode="normal" in2="effect1_dropShadow_2_305" result="effect2_dropShadow_2_305"/>
<feBlend mode="normal" in="SourceGraphic" in2="effect2_dropShadow_2_305" result="shape"/>
</filter>
<radialGradient id="paint0_radial_2_305" cx="0" cy="0" r="1" gradientUnits="userSpaceOnUse" gradientTransform="translate(18.7008 33.6672) rotate(90.8254) scale(26.0331 3.74245)">
<stop stop-color="white"/>
<stop offset="0.9999" stop-color="#D9D9D9" stop-opacity="0.1"/>
<stop offset="1" stop-color="white" stop-opacity="0.1"/>
</radialGradient>
<radialGradient id="paint1_radial_2_305" cx="0" cy="0" r="1" gradientUnits="userSpaceOnUse" gradientTransform="translate(35.4508 33.6672) rotate(90.8254) scale(26.0331 3.74245)">
<stop stop-color="white"/>
<stop offset="0.9999" stop-color="#D9D9D9" stop-opacity="0.1"/>
<stop offset="1" stop-color="white" stop-opacity="0.1"/>
</radialGradient>
<radialGradient id="paint2_radial_2_305" cx="0" cy="0" r="1" gradientUnits="userSpaceOnUse" gradientTransform="translate(52.2008 33.6672) rotate(90.8254) scale(26.0331 3.74245)">
<stop stop-color="white"/>
<stop offset="0.9999" stop-color="#D9D9D9" stop-opacity="0.1"/>
<stop offset="1" stop-color="white" stop-opacity="0.1"/>
</radialGradient>
<radialGradient id="paint3_radial_2_305" cx="0" cy="0" r="1" gradientUnits="userSpaceOnUse" gradientTransform="translate(66.2133 49.3579) rotate(90.8254) scale(26.0331 3.74245)">
<stop stop-color="white"/>
<stop offset="0.9999" stop-color="#D9D9D9" stop-opacity="0.1"/>
<stop offset="1" stop-color="white" stop-opacity="0.1"/>
</radialGradient>
<radialGradient id="paint4_radial_2_305" cx="0" cy="0" r="1" gradientUnits="userSpaceOnUse" gradientTransform="translate(66.2133 66.1082) rotate(90.8254) scale(26.0331 3.74245)">
<stop stop-color="white"/>
<stop offset="0.9999" stop-color="#D9D9D9" stop-opacity="0.1"/>
<stop offset="1" stop-color="white" stop-opacity="0.1"/>
</radialGradient>
<radialGradient id="paint5_radial_2_305" cx="0" cy="0" r="1" gradientUnits="userSpaceOnUse" gradientTransform="translate(66.2133 82.8579) rotate(90.8254) scale(26.0331 3.74245)">
<stop stop-color="white"/>
<stop offset="0.9999" stop-color="#D9D9D9" stop-opacity="0.1"/>
<stop offset="1" stop-color="white" stop-opacity="0.1"/>
</radialGradient>
<clipPath id="clip0_2_305">
<rect x="6.33607" y="5.66699" width="58.6667" height="58.6667" rx="9.28" fill="white"/>
</clipPath>
</defs>
</svg>
