<svg width="71" height="72" viewBox="0 0 71 72" fill="none" xmlns="http://www.w3.org/2000/svg">
<g filter="url(#filter0_dd_2_309)">
<rect x="3.66733" y="3" width="64" height="64" rx="10.6667" fill="#2E90FA" shape-rendering="crispEdges"/>
<g filter="url(#filter1_dd_2_309)">
<g clip-path="url(#clip0_2_309)">
<rect x="6.33296" y="5.66675" width="58.6667" height="58.6667" rx="9.28" fill="#1570EF"/>
<rect opacity="0.8" x="18.3227" y="2.16602" width="0.75" height="63.0019" fill="url(#paint0_radial_2_309)"/>
<rect opacity="0.8" x="35.0727" y="2.16602" width="0.75" height="63.0019" fill="url(#paint1_radial_2_309)"/>
<rect opacity="0.8" x="51.8227" y="2.16602" width="0.75" height="63.0019" fill="url(#paint2_radial_2_309)"/>
<rect opacity="0.8" x="65.8351" y="17.8567" width="0.75" height="63.002" transform="rotate(90 65.8351 17.8567)" fill="url(#paint3_radial_2_309)"/>
<rect opacity="0.8" x="65.8351" y="34.6069" width="0.75" height="63.002" transform="rotate(90 65.8351 34.6069)" fill="url(#paint4_radial_2_309)"/>
<rect opacity="0.8" x="65.8351" y="51.3567" width="0.75" height="63.002" transform="rotate(90 65.8351 51.3567)" fill="url(#paint5_radial_2_309)"/>
</g>
<rect x="6.77046" y="6.10425" width="57.7917" height="57.7917" rx="8.8425" stroke="white" stroke-opacity="0.3" stroke-width="0.875"/>
</g>
<path d="M32.334 33.6667C35.2795 33.6667 37.6673 31.2789 37.6673 28.3333C37.6673 25.3878 35.2795 23 32.334 23C29.3885 23 27.0007 25.3878 27.0007 28.3333C27.0007 31.2789 29.3885 33.6667 32.334 33.6667Z" fill="white" fill-opacity="0.16"/>
<path d="M49.0007 47L49.0007 44.3333C49.0007 41.8482 47.301 39.7601 45.0007 39.168M40.334 23.3877C42.2886 24.1789 43.6673 26.0951 43.6673 28.3333C43.6673 30.5716 42.2886 32.4878 40.334 33.279M42.334 47C42.334 44.515 42.334 43.2725 41.928 42.2924C41.3867 40.9855 40.3485 39.9473 39.0417 39.406C38.0615 39 36.819 39 34.334 39L30.334 39C27.849 39 26.6065 39 25.6264 39.406C24.3196 39.9473 23.2813 40.9855 22.74 42.2924C22.334 43.2725 22.334 44.515 22.334 47M37.6673 28.3333C37.6673 31.2789 35.2795 33.6667 32.334 33.6667C29.3885 33.6667 27.0007 31.2789 27.0007 28.3333C27.0007 25.3878 29.3885 23 32.334 23C35.2795 23 37.6673 25.3878 37.6673 28.3333Z" stroke="white" stroke-width="2.32727" stroke-linecap="round" stroke-linejoin="round"/>
<rect x="4.00066" y="3.33333" width="63.3333" height="63.3333" rx="10.3333" stroke="white" stroke-opacity="0.4" stroke-width="0.666667" shape-rendering="crispEdges"/>
</g>
<defs>
<filter id="filter0_dd_2_309" x="0.661621" y="0.996196" width="70.0114" height="70.0114" filterUnits="userSpaceOnUse" color-interpolation-filters="sRGB">
<feFlood flood-opacity="0" result="BackgroundImageFix"/>
<feColorMatrix in="SourceAlpha" type="matrix" values="0 0 0 0 0 0 0 0 0 0 0 0 0 0 0 0 0 0 127 0" result="hardAlpha"/>
<feMorphology radius="1.0019" operator="erode" in="SourceAlpha" result="effect1_dropShadow_2_309"/>
<feOffset dy="1.0019"/>
<feGaussianBlur stdDeviation="1.0019"/>
<feComposite in2="hardAlpha" operator="out"/>
<feColorMatrix type="matrix" values="0 0 0 0 0 0 0 0 0 0 0 0 0 0 0 0 0 0 0.1 0"/>
<feBlend mode="normal" in2="BackgroundImageFix" result="effect1_dropShadow_2_309"/>
<feColorMatrix in="SourceAlpha" type="matrix" values="0 0 0 0 0 0 0 0 0 0 0 0 0 0 0 0 0 0 127 0" result="hardAlpha"/>
<feOffset dy="1.0019"/>
<feGaussianBlur stdDeviation="1.50285"/>
<feComposite in2="hardAlpha" operator="out"/>
<feColorMatrix type="matrix" values="0 0 0 0 0 0 0 0 0 0 0 0 0 0 0 0 0 0 0.1 0"/>
<feBlend mode="normal" in2="effect1_dropShadow_2_309" result="effect2_dropShadow_2_309"/>
<feBlend mode="normal" in="SourceGraphic" in2="effect2_dropShadow_2_309" result="shape"/>
</filter>
<filter id="filter1_dd_2_309" x="2.90439" y="3.38103" width="65.5238" height="65.5239" filterUnits="userSpaceOnUse" color-interpolation-filters="sRGB">
<feFlood flood-opacity="0" result="BackgroundImageFix"/>
<feColorMatrix in="SourceAlpha" type="matrix" values="0 0 0 0 0 0 0 0 0 0 0 0 0 0 0 0 0 0 127 0" result="hardAlpha"/>
<feOffset dy="1.14286"/>
<feGaussianBlur stdDeviation="1.14286"/>
<feColorMatrix type="matrix" values="0 0 0 0 0.0627451 0 0 0 0 0.0941176 0 0 0 0 0.156863 0 0 0 0.06 0"/>
<feBlend mode="normal" in2="BackgroundImageFix" result="effect1_dropShadow_2_309"/>
<feColorMatrix in="SourceAlpha" type="matrix" values="0 0 0 0 0 0 0 0 0 0 0 0 0 0 0 0 0 0 127 0" result="hardAlpha"/>
<feOffset dy="1.14286"/>
<feGaussianBlur stdDeviation="1.71429"/>
<feColorMatrix type="matrix" values="0 0 0 0 0.0627451 0 0 0 0 0.0941176 0 0 0 0 0.156863 0 0 0 0.1 0"/>
<feBlend mode="normal" in2="effect1_dropShadow_2_309" result="effect2_dropShadow_2_309"/>
<feBlend mode="normal" in="SourceGraphic" in2="effect2_dropShadow_2_309" result="shape"/>
</filter>
<radialGradient id="paint0_radial_2_309" cx="0" cy="0" r="1" gradientUnits="userSpaceOnUse" gradientTransform="translate(18.6977 33.667) rotate(90.8254) scale(26.0331 3.74245)">
<stop stop-color="white"/>
<stop offset="0.9999" stop-color="#D9D9D9" stop-opacity="0.1"/>
<stop offset="1" stop-color="white" stop-opacity="0.1"/>
</radialGradient>
<radialGradient id="paint1_radial_2_309" cx="0" cy="0" r="1" gradientUnits="userSpaceOnUse" gradientTransform="translate(35.4477 33.667) rotate(90.8254) scale(26.0331 3.74245)">
<stop stop-color="white"/>
<stop offset="0.9999" stop-color="#D9D9D9" stop-opacity="0.1"/>
<stop offset="1" stop-color="white" stop-opacity="0.1"/>
</radialGradient>
<radialGradient id="paint2_radial_2_309" cx="0" cy="0" r="1" gradientUnits="userSpaceOnUse" gradientTransform="translate(52.1977 33.667) rotate(90.8254) scale(26.0331 3.74245)">
<stop stop-color="white"/>
<stop offset="0.9999" stop-color="#D9D9D9" stop-opacity="0.1"/>
<stop offset="1" stop-color="white" stop-opacity="0.1"/>
</radialGradient>
<radialGradient id="paint3_radial_2_309" cx="0" cy="0" r="1" gradientUnits="userSpaceOnUse" gradientTransform="translate(66.2101 49.3577) rotate(90.8254) scale(26.0331 3.74245)">
<stop stop-color="white"/>
<stop offset="0.9999" stop-color="#D9D9D9" stop-opacity="0.1"/>
<stop offset="1" stop-color="white" stop-opacity="0.1"/>
</radialGradient>
<radialGradient id="paint4_radial_2_309" cx="0" cy="0" r="1" gradientUnits="userSpaceOnUse" gradientTransform="translate(66.2101 66.1079) rotate(90.8254) scale(26.0331 3.74245)">
<stop stop-color="white"/>
<stop offset="0.9999" stop-color="#D9D9D9" stop-opacity="0.1"/>
<stop offset="1" stop-color="white" stop-opacity="0.1"/>
</radialGradient>
<radialGradient id="paint5_radial_2_309" cx="0" cy="0" r="1" gradientUnits="userSpaceOnUse" gradientTransform="translate(66.2101 82.8577) rotate(90.8254) scale(26.0331 3.74245)">
<stop stop-color="white"/>
<stop offset="0.9999" stop-color="#D9D9D9" stop-opacity="0.1"/>
<stop offset="1" stop-color="white" stop-opacity="0.1"/>
</radialGradient>
<clipPath id="clip0_2_309">
<rect x="6.33296" y="5.66675" width="58.6667" height="58.6667" rx="9.28" fill="white"/>
</clipPath>
</defs>
</svg>
