<svg width="71" height="72" viewBox="0 0 71 72" fill="none" xmlns="http://www.w3.org/2000/svg">
<g filter="url(#filter0_dd_1_154)">
<g clip-path="url(#clip0_1_154)">
<rect x="3.66733" y="3" width="64" height="64.0001" rx="10.6667" fill="#CCA4FF"/>
<rect x="46.5012" y="3.00269" width="63.9981" height="2.7332" transform="rotate(90 46.5012 3.00269)" fill="#3E1C96"/>
<rect x="51.235" y="3.00269" width="63.9981" height="2.7332" transform="rotate(90 51.235 3.00269)" fill="#3E1C96"/>
<rect x="41.7655" y="3.00269" width="63.9981" height="2.7332" transform="rotate(90 41.7655 3.00269)" fill="#3E1C96"/>
<rect x="32.302" y="3.00269" width="63.9981" height="2.7332" transform="rotate(90 32.302 3.00269)" fill="#3E1C96"/>
<rect x="27.5683" y="3.00269" width="63.9981" height="2.7332" transform="rotate(90 27.5683 3.00269)" fill="#3E1C96"/>
<rect x="22.8345" y="3.00269" width="63.9981" height="2.7332" transform="rotate(90 22.8345 3.00269)" fill="#3E1C96"/>
<rect x="67.6667" y="45.8352" width="63.998" height="2.7332" transform="rotate(-180 67.6667 45.8352)" fill="#3E1C96"/>
<rect x="67.6667" y="50.5684" width="63.998" height="2.7332" transform="rotate(-180 67.6667 50.5684)" fill="#3E1C96"/>
<rect x="67.6667" y="41.1023" width="63.998" height="2.7332" transform="rotate(-180 67.6667 41.1023)" fill="#3E1C96"/>
<rect x="67.6667" y="31.6348" width="63.998" height="2.7332" transform="rotate(-180 67.6667 31.6348)" fill="#3E1C96"/>
<rect x="67.6667" y="26.9016" width="63.998" height="2.7332" transform="rotate(-180 67.6667 26.9016)" fill="#3E1C96"/>
<rect x="67.6667" y="22.1672" width="63.998" height="2.7332" transform="rotate(-180 67.6667 22.1672)" fill="#3E1C96"/>
<g filter="url(#filter1_di_1_154)">
<rect x="9.0015" y="8.3335" width="53.3333" height="53.3335" rx="8" fill="#1A0044"/>
<rect x="9.33295" y="8.66495" width="52.6704" height="52.6705" rx="7.66855" stroke="black" stroke-opacity="0.2" stroke-width="0.662907"/>
</g>
<g filter="url(#filter2_i_1_154)">
<path d="M35.6674 42.778C35.6674 47.0736 39.1497 50.5558 43.4452 50.5558C47.7408 50.5558 51.223 47.0736 51.223 42.778C51.223 38.4825 47.7408 35.0003 43.4452 35.0003C39.1497 35.0003 35.6674 38.4825 35.6674 42.778ZM35.6674 42.778C35.6674 41.0267 36.2462 39.4107 37.223 38.1106V24.1114M35.6674 42.778C35.6674 44.0619 35.9785 45.2731 36.5294 46.3405C35.2189 47.4474 32.1921 48.2225 28.6674 48.2225C23.9423 48.2225 20.1119 46.8296 20.1119 45.1114V24.1114M37.223 24.1114C37.223 25.8296 33.3925 27.2225 28.6674 27.2225C23.9423 27.2225 20.1119 25.8296 20.1119 24.1114M37.223 24.1114C37.223 22.3931 33.3925 21.0002 28.6674 21.0002C23.9423 21.0002 20.1119 22.3931 20.1119 24.1114M20.1119 38.1114C20.1119 39.8296 23.9423 41.2225 28.6674 41.2225C32.0726 41.2225 35.0131 40.4991 36.3902 39.4519M37.223 31.1114C37.223 32.8296 33.3925 34.2225 28.6674 34.2225C23.9423 34.2225 20.1119 32.8296 20.1119 31.1114" stroke="white" stroke-width="2.37946" stroke-linecap="round" stroke-linejoin="round"/>
</g>
</g>
<rect x="3.95824" y="3.29091" width="63.4182" height="63.4183" rx="10.3758" stroke="black" stroke-opacity="0.2" stroke-width="0.581819"/>
</g>
<defs>
<filter id="filter0_dd_1_154" x="0.661618" y="0.996194" width="70.0114" height="70.0114" filterUnits="userSpaceOnUse" color-interpolation-filters="sRGB">
<feFlood flood-opacity="0" result="BackgroundImageFix"/>
<feColorMatrix in="SourceAlpha" type="matrix" values="0 0 0 0 0 0 0 0 0 0 0 0 0 0 0 0 0 0 127 0" result="hardAlpha"/>
<feMorphology radius="1.0019" operator="erode" in="SourceAlpha" result="effect1_dropShadow_1_154"/>
<feOffset dy="1.0019"/>
<feGaussianBlur stdDeviation="1.0019"/>
<feComposite in2="hardAlpha" operator="out"/>
<feColorMatrix type="matrix" values="0 0 0 0 0 0 0 0 0 0 0 0 0 0 0 0 0 0 0.1 0"/>
<feBlend mode="normal" in2="BackgroundImageFix" result="effect1_dropShadow_1_154"/>
<feColorMatrix in="SourceAlpha" type="matrix" values="0 0 0 0 0 0 0 0 0 0 0 0 0 0 0 0 0 0 127 0" result="hardAlpha"/>
<feOffset dy="1.0019"/>
<feGaussianBlur stdDeviation="1.50285"/>
<feComposite in2="hardAlpha" operator="out"/>
<feColorMatrix type="matrix" values="0 0 0 0 0 0 0 0 0 0 0 0 0 0 0 0 0 0 0.1 0"/>
<feBlend mode="normal" in2="effect1_dropShadow_1_154" result="effect2_dropShadow_1_154"/>
<feBlend mode="normal" in="SourceGraphic" in2="effect2_dropShadow_1_154" result="shape"/>
</filter>
<filter id="filter1_di_1_154" x="3.66816" y="4.33349" width="64" height="64.0002" filterUnits="userSpaceOnUse" color-interpolation-filters="sRGB">
<feFlood flood-opacity="0" result="BackgroundImageFix"/>
<feColorMatrix in="SourceAlpha" type="matrix" values="0 0 0 0 0 0 0 0 0 0 0 0 0 0 0 0 0 0 127 0" result="hardAlpha"/>
<feOffset dy="1.33333"/>
<feGaussianBlur stdDeviation="2.66667"/>
<feComposite in2="hardAlpha" operator="out"/>
<feColorMatrix type="matrix" values="0 0 0 0 0 0 0 0 0 0 0 0 0 0 0 0 0 0 0.25 0"/>
<feBlend mode="normal" in2="BackgroundImageFix" result="effect1_dropShadow_1_154"/>
<feBlend mode="normal" in="SourceGraphic" in2="effect1_dropShadow_1_154" result="shape"/>
<feColorMatrix in="SourceAlpha" type="matrix" values="0 0 0 0 0 0 0 0 0 0 0 0 0 0 0 0 0 0 127 0" result="hardAlpha"/>
<feOffset/>
<feGaussianBlur stdDeviation="1.32581"/>
<feComposite in2="hardAlpha" operator="arithmetic" k2="-1" k3="1"/>
<feColorMatrix type="matrix" values="0 0 0 0 0 0 0 0 0 0 0 0 0 0 0 0 0 0 0.25 0"/>
<feBlend mode="normal" in2="shape" result="effect2_innerShadow_1_154"/>
</filter>
<filter id="filter2_i_1_154" x="17.0007" y="16.3335" width="37.3333" height="37.3333" filterUnits="userSpaceOnUse" color-interpolation-filters="sRGB">
<feFlood flood-opacity="0" result="BackgroundImageFix"/>
<feBlend mode="normal" in="SourceGraphic" in2="BackgroundImageFix" result="shape"/>
<feColorMatrix in="SourceAlpha" type="matrix" values="0 0 0 0 0 0 0 0 0 0 0 0 0 0 0 0 0 0 127 0" result="hardAlpha"/>
<feOffset/>
<feGaussianBlur stdDeviation="0.0807576"/>
<feComposite in2="hardAlpha" operator="arithmetic" k2="-1" k3="1"/>
<feColorMatrix type="matrix" values="0 0 0 0 0 0 0 0 0 0 0 0 0 0 0 0 0 0 0.25 0"/>
<feBlend mode="normal" in2="shape" result="effect1_innerShadow_1_154"/>
</filter>
<clipPath id="clip0_1_154">
<rect x="3.66733" y="3" width="64" height="64.0001" rx="10.6667" fill="white"/>
</clipPath>
</defs>
</svg>
