<svg width="71" height="72" viewBox="0 0 71 72" fill="none" xmlns="http://www.w3.org/2000/svg">
<g filter="url(#filter0_dd_1_148)">
<g clip-path="url(#clip0_1_148)">
<rect x="3.66733" y="3" width="64" height="64.0001" rx="10.6667" fill="#FF9C66"/>
<rect x="46.5015" y="3.00269" width="63.9981" height="2.7332" transform="rotate(90 46.5015 3.00269)" fill="#771A0D"/>
<rect x="51.2352" y="3.00269" width="63.9981" height="2.7332" transform="rotate(90 51.2352 3.00269)" fill="#771A0D"/>
<rect x="41.7657" y="3.00269" width="63.9981" height="2.7332" transform="rotate(90 41.7657 3.00269)" fill="#771A0D"/>
<rect x="32.3022" y="3.00269" width="63.9981" height="2.7332" transform="rotate(90 32.3022 3.00269)" fill="#771A0D"/>
<rect x="27.5685" y="3.00269" width="63.9981" height="2.7332" transform="rotate(90 27.5685 3.00269)" fill="#771A0D"/>
<rect x="22.8348" y="3.00269" width="63.9981" height="2.7332" transform="rotate(90 22.8348 3.00269)" fill="#771A0D"/>
<rect x="67.6689" y="45.8352" width="63.998" height="2.7332" transform="rotate(-180 67.6689 45.8352)" fill="#771A0D"/>
<rect x="67.6689" y="50.5684" width="63.998" height="2.7332" transform="rotate(-180 67.6689 50.5684)" fill="#771A0D"/>
<rect x="67.6689" y="41.1023" width="63.998" height="2.7332" transform="rotate(-180 67.6689 41.1023)" fill="#771A0D"/>
<rect x="67.6689" y="31.6348" width="63.998" height="2.7332" transform="rotate(-180 67.6689 31.6348)" fill="#771A0D"/>
<rect x="67.6689" y="26.9016" width="63.998" height="2.7332" transform="rotate(-180 67.6689 26.9016)" fill="#771A0D"/>
<rect x="67.6689" y="22.1672" width="63.998" height="2.7332" transform="rotate(-180 67.6689 22.1672)" fill="#771A0D"/>
<g filter="url(#filter1_di_1_148)">
<rect x="9.00163" y="8.3335" width="53.3333" height="53.3335" rx="8" fill="#1A0044"/>
<rect x="9.33309" y="8.66495" width="52.6704" height="52.6705" rx="7.66855" stroke="black" stroke-opacity="0.2" stroke-width="0.662907"/>
</g>
<g filter="url(#filter2_i_1_148)">
<path d="M49.6673 49.0003H24.1562C23.285 49.0003 22.8494 49.0003 22.5166 48.8307C22.2239 48.6816 21.986 48.4436 21.8368 48.1509C21.6673 47.8182 21.6673 47.3826 21.6673 46.5114V21.0002M49.6673 27.2225L41.2139 35.6759C40.9059 35.9839 40.7519 36.1379 40.5743 36.1956C40.4181 36.2463 40.2498 36.2463 40.0936 36.1956C39.916 36.1379 39.762 35.9839 39.454 35.6759L36.5473 32.7691C36.2392 32.4611 36.0852 32.3071 35.9077 32.2494C35.7514 32.1986 35.5832 32.1986 35.427 32.2494C35.2494 32.3071 35.0954 32.4611 34.7873 32.7691L27.8895 39.6669M49.6673 27.2225H43.4451M49.6673 27.2225V33.4447" stroke="white" stroke-width="2.37946" stroke-linecap="round" stroke-linejoin="round"/>
</g>
</g>
<rect x="3.95824" y="3.29091" width="63.4182" height="63.4183" rx="10.3758" stroke="black" stroke-opacity="0.2" stroke-width="0.581819"/>
</g>
<defs>
<filter id="filter0_dd_1_148" x="0.661618" y="0.996194" width="70.0114" height="70.0114" filterUnits="userSpaceOnUse" color-interpolation-filters="sRGB">
<feFlood flood-opacity="0" result="BackgroundImageFix"/>
<feColorMatrix in="SourceAlpha" type="matrix" values="0 0 0 0 0 0 0 0 0 0 0 0 0 0 0 0 0 0 127 0" result="hardAlpha"/>
<feMorphology radius="1.0019" operator="erode" in="SourceAlpha" result="effect1_dropShadow_1_148"/>
<feOffset dy="1.0019"/>
<feGaussianBlur stdDeviation="1.0019"/>
<feComposite in2="hardAlpha" operator="out"/>
<feColorMatrix type="matrix" values="0 0 0 0 0 0 0 0 0 0 0 0 0 0 0 0 0 0 0.1 0"/>
<feBlend mode="normal" in2="BackgroundImageFix" result="effect1_dropShadow_1_148"/>
<feColorMatrix in="SourceAlpha" type="matrix" values="0 0 0 0 0 0 0 0 0 0 0 0 0 0 0 0 0 0 127 0" result="hardAlpha"/>
<feOffset dy="1.0019"/>
<feGaussianBlur stdDeviation="1.50285"/>
<feComposite in2="hardAlpha" operator="out"/>
<feColorMatrix type="matrix" values="0 0 0 0 0 0 0 0 0 0 0 0 0 0 0 0 0 0 0.1 0"/>
<feBlend mode="normal" in2="effect1_dropShadow_1_148" result="effect2_dropShadow_1_148"/>
<feBlend mode="normal" in="SourceGraphic" in2="effect2_dropShadow_1_148" result="shape"/>
</filter>
<filter id="filter1_di_1_148" x="3.6683" y="4.33349" width="64" height="64.0002" filterUnits="userSpaceOnUse" color-interpolation-filters="sRGB">
<feFlood flood-opacity="0" result="BackgroundImageFix"/>
<feColorMatrix in="SourceAlpha" type="matrix" values="0 0 0 0 0 0 0 0 0 0 0 0 0 0 0 0 0 0 127 0" result="hardAlpha"/>
<feOffset dy="1.33333"/>
<feGaussianBlur stdDeviation="2.66667"/>
<feComposite in2="hardAlpha" operator="out"/>
<feColorMatrix type="matrix" values="0 0 0 0 0 0 0 0 0 0 0 0 0 0 0 0 0 0 0.25 0"/>
<feBlend mode="normal" in2="BackgroundImageFix" result="effect1_dropShadow_1_148"/>
<feBlend mode="normal" in="SourceGraphic" in2="effect1_dropShadow_1_148" result="shape"/>
<feColorMatrix in="SourceAlpha" type="matrix" values="0 0 0 0 0 0 0 0 0 0 0 0 0 0 0 0 0 0 127 0" result="hardAlpha"/>
<feOffset/>
<feGaussianBlur stdDeviation="1.32581"/>
<feComposite in2="hardAlpha" operator="arithmetic" k2="-1" k3="1"/>
<feColorMatrix type="matrix" values="0 0 0 0 0 0 0 0 0 0 0 0 0 0 0 0 0 0 0.25 0"/>
<feBlend mode="normal" in2="shape" result="effect2_innerShadow_1_148"/>
</filter>
<filter id="filter2_i_1_148" x="17.0007" y="16.3335" width="37.3334" height="37.3333" filterUnits="userSpaceOnUse" color-interpolation-filters="sRGB">
<feFlood flood-opacity="0" result="BackgroundImageFix"/>
<feBlend mode="normal" in="SourceGraphic" in2="BackgroundImageFix" result="shape"/>
<feColorMatrix in="SourceAlpha" type="matrix" values="0 0 0 0 0 0 0 0 0 0 0 0 0 0 0 0 0 0 127 0" result="hardAlpha"/>
<feOffset/>
<feGaussianBlur stdDeviation="0.0807576"/>
<feComposite in2="hardAlpha" operator="arithmetic" k2="-1" k3="1"/>
<feColorMatrix type="matrix" values="0 0 0 0 0 0 0 0 0 0 0 0 0 0 0 0 0 0 0.25 0"/>
<feBlend mode="normal" in2="shape" result="effect1_innerShadow_1_148"/>
</filter>
<clipPath id="clip0_1_148">
<rect x="3.66733" y="3" width="64" height="64.0001" rx="10.6667" fill="white"/>
</clipPath>
</defs>
</svg>
