<svg width="71" height="72" viewBox="0 0 71 72" fill="none" xmlns="http://www.w3.org/2000/svg">
<g filter="url(#filter0_dd_1_149)">
<g clip-path="url(#clip0_1_149)">
<rect x="3.66733" y="3" width="64" height="64.0001" rx="10.6667" fill="#37F0D1"/>
<rect x="46.4998" y="3.00269" width="63.9981" height="2.7332" transform="rotate(90 46.4998 3.00269)" fill="#134E48"/>
<rect x="51.2336" y="3.00269" width="63.9981" height="2.7332" transform="rotate(90 51.2336 3.00269)" fill="#134E48"/>
<rect x="41.7641" y="3.00269" width="63.9981" height="2.7332" transform="rotate(90 41.7641 3.00269)" fill="#134E48"/>
<rect x="32.3006" y="3.00269" width="63.9981" height="2.7332" transform="rotate(90 32.3006 3.00269)" fill="#134E48"/>
<rect x="27.5669" y="3.00269" width="63.9981" height="2.7332" transform="rotate(90 27.5669 3.00269)" fill="#134E48"/>
<rect x="22.8331" y="3.00269" width="63.9981" height="2.7332" transform="rotate(90 22.8331 3.00269)" fill="#134E48"/>
<rect x="67.6672" y="45.8352" width="63.998" height="2.7332" transform="rotate(-180 67.6672 45.8352)" fill="#134E48"/>
<rect x="67.6672" y="50.5684" width="63.998" height="2.7332" transform="rotate(-180 67.6672 50.5684)" fill="#134E48"/>
<rect x="67.6672" y="41.1023" width="63.998" height="2.7332" transform="rotate(-180 67.6672 41.1023)" fill="#134E48"/>
<rect x="67.6672" y="31.6348" width="63.998" height="2.7332" transform="rotate(-180 67.6672 31.6348)" fill="#134E48"/>
<rect x="67.6672" y="26.9016" width="63.998" height="2.7332" transform="rotate(-180 67.6672 26.9016)" fill="#134E48"/>
<rect x="67.6672" y="22.1672" width="63.998" height="2.7332" transform="rotate(-180 67.6672 22.1672)" fill="#134E48"/>
<g filter="url(#filter1_di_1_149)">
<rect x="8.99976" y="8.3335" width="53.3333" height="53.3335" rx="8" fill="#1A0044"/>
<rect x="9.33121" y="8.66495" width="52.6704" height="52.6705" rx="7.66855" stroke="black" stroke-opacity="0.2" stroke-width="0.662907"/>
</g>
<g filter="url(#filter2_i_1_149)">
<path d="M26.3339 33.4443V39.6665M45.0006 30.3332V36.5554M43.445 22.5554C47.2541 22.5554 49.3144 23.1384 50.3394 23.5906C50.476 23.6508 50.5442 23.6809 50.7412 23.8689C50.8593 23.9816 51.0749 24.3123 51.1303 24.4658C51.2228 24.7219 51.2228 24.8619 51.2228 25.1419V41.8617C51.2228 43.2753 51.2228 43.9821 51.0108 44.3454C50.7952 44.715 50.5872 44.8868 50.1836 45.0288C49.7868 45.1685 48.9859 45.0146 47.384 44.7068C46.2627 44.4913 44.933 44.3332 43.445 44.3332C38.7784 44.3332 34.1117 47.4443 27.8895 47.4443C24.0804 47.4443 22.0202 46.8614 20.9951 46.4092C20.8586 46.349 20.7903 46.3189 20.5933 46.1309C20.4752 46.0182 20.2597 45.6875 20.2042 45.534C20.1117 45.2778 20.1117 45.1378 20.1117 44.8578L20.1117 28.1381C20.1117 26.7244 20.1117 26.0176 20.3237 25.6543C20.5393 25.2847 20.7473 25.1129 21.1509 24.9709C21.5477 24.8313 22.3486 24.9852 23.9505 25.293C25.0718 25.5084 26.4016 25.6665 27.8895 25.6665C32.5561 25.6665 37.2228 22.5554 43.445 22.5554ZM39.5561 34.9999C39.5561 37.1476 37.815 38.8888 35.6673 38.8888C33.5195 38.8888 31.7784 37.1476 31.7784 34.9999C31.7784 32.8521 33.5195 31.111 35.6673 31.111C37.815 31.111 39.5561 32.8521 39.5561 34.9999Z" stroke="white" stroke-width="2.37946" stroke-linecap="round" stroke-linejoin="round"/>
</g>
</g>
<rect x="3.95824" y="3.29091" width="63.4182" height="63.4183" rx="10.3758" stroke="black" stroke-opacity="0.2" stroke-width="0.581819"/>
</g>
<defs>
<filter id="filter0_dd_1_149" x="0.661618" y="0.996194" width="70.0114" height="70.0114" filterUnits="userSpaceOnUse" color-interpolation-filters="sRGB">
<feFlood flood-opacity="0" result="BackgroundImageFix"/>
<feColorMatrix in="SourceAlpha" type="matrix" values="0 0 0 0 0 0 0 0 0 0 0 0 0 0 0 0 0 0 127 0" result="hardAlpha"/>
<feMorphology radius="1.0019" operator="erode" in="SourceAlpha" result="effect1_dropShadow_1_149"/>
<feOffset dy="1.0019"/>
<feGaussianBlur stdDeviation="1.0019"/>
<feComposite in2="hardAlpha" operator="out"/>
<feColorMatrix type="matrix" values="0 0 0 0 0 0 0 0 0 0 0 0 0 0 0 0 0 0 0.1 0"/>
<feBlend mode="normal" in2="BackgroundImageFix" result="effect1_dropShadow_1_149"/>
<feColorMatrix in="SourceAlpha" type="matrix" values="0 0 0 0 0 0 0 0 0 0 0 0 0 0 0 0 0 0 127 0" result="hardAlpha"/>
<feOffset dy="1.0019"/>
<feGaussianBlur stdDeviation="1.50285"/>
<feComposite in2="hardAlpha" operator="out"/>
<feColorMatrix type="matrix" values="0 0 0 0 0 0 0 0 0 0 0 0 0 0 0 0 0 0 0.1 0"/>
<feBlend mode="normal" in2="effect1_dropShadow_1_149" result="effect2_dropShadow_1_149"/>
<feBlend mode="normal" in="SourceGraphic" in2="effect2_dropShadow_1_149" result="shape"/>
</filter>
<filter id="filter1_di_1_149" x="3.66642" y="4.33349" width="64" height="64.0002" filterUnits="userSpaceOnUse" color-interpolation-filters="sRGB">
<feFlood flood-opacity="0" result="BackgroundImageFix"/>
<feColorMatrix in="SourceAlpha" type="matrix" values="0 0 0 0 0 0 0 0 0 0 0 0 0 0 0 0 0 0 127 0" result="hardAlpha"/>
<feOffset dy="1.33333"/>
<feGaussianBlur stdDeviation="2.66667"/>
<feComposite in2="hardAlpha" operator="out"/>
<feColorMatrix type="matrix" values="0 0 0 0 0 0 0 0 0 0 0 0 0 0 0 0 0 0 0.25 0"/>
<feBlend mode="normal" in2="BackgroundImageFix" result="effect1_dropShadow_1_149"/>
<feBlend mode="normal" in="SourceGraphic" in2="effect1_dropShadow_1_149" result="shape"/>
<feColorMatrix in="SourceAlpha" type="matrix" values="0 0 0 0 0 0 0 0 0 0 0 0 0 0 0 0 0 0 127 0" result="hardAlpha"/>
<feOffset/>
<feGaussianBlur stdDeviation="1.32581"/>
<feComposite in2="hardAlpha" operator="arithmetic" k2="-1" k3="1"/>
<feColorMatrix type="matrix" values="0 0 0 0 0 0 0 0 0 0 0 0 0 0 0 0 0 0 0.25 0"/>
<feBlend mode="normal" in2="shape" result="effect2_innerShadow_1_149"/>
</filter>
<filter id="filter2_i_1_149" x="17.0007" y="16.3335" width="37.3333" height="37.3333" filterUnits="userSpaceOnUse" color-interpolation-filters="sRGB">
<feFlood flood-opacity="0" result="BackgroundImageFix"/>
<feBlend mode="normal" in="SourceGraphic" in2="BackgroundImageFix" result="shape"/>
<feColorMatrix in="SourceAlpha" type="matrix" values="0 0 0 0 0 0 0 0 0 0 0 0 0 0 0 0 0 0 127 0" result="hardAlpha"/>
<feOffset/>
<feGaussianBlur stdDeviation="0.0807576"/>
<feComposite in2="hardAlpha" operator="arithmetic" k2="-1" k3="1"/>
<feColorMatrix type="matrix" values="0 0 0 0 0 0 0 0 0 0 0 0 0 0 0 0 0 0 0.25 0"/>
<feBlend mode="normal" in2="shape" result="effect1_innerShadow_1_149"/>
</filter>
<clipPath id="clip0_1_149">
<rect x="3.66733" y="3" width="64" height="64.0001" rx="10.6667" fill="white"/>
</clipPath>
</defs>
</svg>
