<svg width="71" height="72" viewBox="0 0 71 72" fill="none" xmlns="http://www.w3.org/2000/svg">
<g filter="url(#filter0_dd_1_151)">
<g clip-path="url(#clip0_1_151)">
<rect x="3.66733" y="3" width="64" height="64.0001" rx="10.6667" fill="#FF99DF"/>
<rect x="46.4991" y="3.00269" width="63.9981" height="2.7332" transform="rotate(90 46.4991 3.00269)" fill="#851651"/>
<rect x="51.2328" y="3.00269" width="63.9981" height="2.7332" transform="rotate(90 51.2328 3.00269)" fill="#851651"/>
<rect x="41.7633" y="3.00269" width="63.9981" height="2.7332" transform="rotate(90 41.7633 3.00269)" fill="#851651"/>
<rect x="32.2998" y="3.00269" width="63.9981" height="2.7332" transform="rotate(90 32.2998 3.00269)" fill="#851651"/>
<rect x="27.5661" y="3.00269" width="63.9981" height="2.7332" transform="rotate(90 27.5661 3.00269)" fill="#851651"/>
<rect x="22.8324" y="3.00269" width="63.9981" height="2.7332" transform="rotate(90 22.8324 3.00269)" fill="#851651"/>
<rect x="67.6665" y="45.8352" width="63.998" height="2.7332" transform="rotate(-180 67.6665 45.8352)" fill="#851651"/>
<rect x="67.6664" y="50.5684" width="63.998" height="2.7332" transform="rotate(-180 67.6664 50.5684)" fill="#851651"/>
<rect x="67.6665" y="41.1023" width="63.998" height="2.7332" transform="rotate(-180 67.6665 41.1023)" fill="#851651"/>
<rect x="67.6665" y="31.6348" width="63.998" height="2.7332" transform="rotate(-180 67.6665 31.6348)" fill="#851651"/>
<rect x="67.6665" y="26.9016" width="63.998" height="2.7332" transform="rotate(-180 67.6665 26.9016)" fill="#851651"/>
<rect x="67.6665" y="22.1672" width="63.998" height="2.7332" transform="rotate(-180 67.6665 22.1672)" fill="#851651"/>
<g filter="url(#filter1_di_1_151)">
<rect x="8.99887" y="8.3335" width="53.3333" height="53.3335" rx="8" fill="#1A0044"/>
<rect x="9.33032" y="8.66495" width="52.6704" height="52.6705" rx="7.66855" stroke="black" stroke-opacity="0.2" stroke-width="0.662907"/>
</g>
<path d="M43.6634 48.9997C43.6634 49.8588 42.967 50.5552 42.1078 50.5552C41.2487 50.5552 40.5523 49.8588 40.5523 48.9997C40.5523 48.1406 41.2487 47.4441 42.1078 47.4441C42.967 47.4441 43.6634 48.1406 43.6634 48.9997Z" fill="white"/>
<path d="M31.219 48.9997C31.219 49.8588 30.5225 50.5552 29.6634 50.5552C28.8043 50.5552 28.1078 49.8588 28.1078 48.9997C28.1078 48.1406 28.8043 47.4441 29.6634 47.4441C30.5225 47.4441 31.219 48.1406 31.219 48.9997Z" fill="white"/>
<path d="M18.7745 19.4441H20.8063C21.189 19.4441 21.3804 19.4441 21.5343 19.5145C21.67 19.5765 21.785 19.6762 21.8656 19.8018C21.9571 19.9443 21.9841 20.1337 22.0383 20.5125L22.7745 25.6663M28.6572 41.9997C27.1169 41.9997 27.0327 41.9997 26.4144 41.7156C25.8695 41.4652 25.4086 41.0628 25.0871 40.5566C24.7222 39.9822 24.6184 39.2191 24.4108 37.693L22.7745 25.6663M42.6554 41.9997C44.1216 41.9997 44.8547 41.9997 45.4538 41.7359C45.982 41.5033 46.4352 41.1283 46.7625 40.6529C47.1337 40.1137 47.2709 39.3936 47.5453 37.9533L49.6042 27.1436C49.7008 26.6367 49.7491 26.3832 49.6791 26.1851C49.6177 26.0113 49.4966 25.8649 49.3374 25.7721C49.1558 25.6663 48.8978 25.6663 48.3818 25.6663H44.1146M22.7745 25.6663H29.3431M43.3277 41.9998L33.525 41.9998M33.525 41.9998L36.6362 38.4635M33.525 41.9998L36.6362 45.5361M26.9196 25.659L39.0529 25.659M39.0529 25.659L35.9418 22.1227M39.0529 25.659L35.9418 29.1953M31.219 48.9997C31.219 49.8588 30.5225 50.5552 29.6634 50.5552C28.8043 50.5552 28.1078 49.8588 28.1078 48.9997C28.1078 48.1406 28.8043 47.4441 29.6634 47.4441C30.5225 47.4441 31.219 48.1406 31.219 48.9997ZM43.6634 48.9997C43.6634 49.8588 42.967 50.5552 42.1078 50.5552C41.2487 50.5552 40.5523 49.8588 40.5523 48.9997C40.5523 48.1406 41.2487 47.4441 42.1078 47.4441C42.967 47.4441 43.6634 48.1406 43.6634 48.9997Z" stroke="white" stroke-width="2.28572" stroke-linecap="round" stroke-linejoin="round"/>
</g>
<rect x="3.95824" y="3.29091" width="63.4182" height="63.4183" rx="10.3758" stroke="black" stroke-opacity="0.2" stroke-width="0.581819"/>
</g>
<defs>
<filter id="filter0_dd_1_151" x="0.661618" y="0.996194" width="70.0114" height="70.0114" filterUnits="userSpaceOnUse" color-interpolation-filters="sRGB">
<feFlood flood-opacity="0" result="BackgroundImageFix"/>
<feColorMatrix in="SourceAlpha" type="matrix" values="0 0 0 0 0 0 0 0 0 0 0 0 0 0 0 0 0 0 127 0" result="hardAlpha"/>
<feMorphology radius="1.0019" operator="erode" in="SourceAlpha" result="effect1_dropShadow_1_151"/>
<feOffset dy="1.0019"/>
<feGaussianBlur stdDeviation="1.0019"/>
<feComposite in2="hardAlpha" operator="out"/>
<feColorMatrix type="matrix" values="0 0 0 0 0 0 0 0 0 0 0 0 0 0 0 0 0 0 0.1 0"/>
<feBlend mode="normal" in2="BackgroundImageFix" result="effect1_dropShadow_1_151"/>
<feColorMatrix in="SourceAlpha" type="matrix" values="0 0 0 0 0 0 0 0 0 0 0 0 0 0 0 0 0 0 127 0" result="hardAlpha"/>
<feOffset dy="1.0019"/>
<feGaussianBlur stdDeviation="1.50285"/>
<feComposite in2="hardAlpha" operator="out"/>
<feColorMatrix type="matrix" values="0 0 0 0 0 0 0 0 0 0 0 0 0 0 0 0 0 0 0.1 0"/>
<feBlend mode="normal" in2="effect1_dropShadow_1_151" result="effect2_dropShadow_1_151"/>
<feBlend mode="normal" in="SourceGraphic" in2="effect2_dropShadow_1_151" result="shape"/>
</filter>
<filter id="filter1_di_1_151" x="3.66553" y="4.33349" width="64" height="64.0002" filterUnits="userSpaceOnUse" color-interpolation-filters="sRGB">
<feFlood flood-opacity="0" result="BackgroundImageFix"/>
<feColorMatrix in="SourceAlpha" type="matrix" values="0 0 0 0 0 0 0 0 0 0 0 0 0 0 0 0 0 0 127 0" result="hardAlpha"/>
<feOffset dy="1.33333"/>
<feGaussianBlur stdDeviation="2.66667"/>
<feComposite in2="hardAlpha" operator="out"/>
<feColorMatrix type="matrix" values="0 0 0 0 0 0 0 0 0 0 0 0 0 0 0 0 0 0 0.25 0"/>
<feBlend mode="normal" in2="BackgroundImageFix" result="effect1_dropShadow_1_151"/>
<feBlend mode="normal" in="SourceGraphic" in2="effect1_dropShadow_1_151" result="shape"/>
<feColorMatrix in="SourceAlpha" type="matrix" values="0 0 0 0 0 0 0 0 0 0 0 0 0 0 0 0 0 0 127 0" result="hardAlpha"/>
<feOffset/>
<feGaussianBlur stdDeviation="1.32581"/>
<feComposite in2="hardAlpha" operator="arithmetic" k2="-1" k3="1"/>
<feColorMatrix type="matrix" values="0 0 0 0 0 0 0 0 0 0 0 0 0 0 0 0 0 0 0.25 0"/>
<feBlend mode="normal" in2="shape" result="effect2_innerShadow_1_151"/>
</filter>
<clipPath id="clip0_1_151">
<rect x="3.66733" y="3" width="64" height="64.0001" rx="10.6667" fill="white"/>
</clipPath>
</defs>
</svg>
