<svg width="71" height="72" viewBox="0 0 71 72" fill="none" xmlns="http://www.w3.org/2000/svg">
<g filter="url(#filter0_dd_1_150)">
<g clip-path="url(#clip0_1_150)">
<rect x="3.66733" y="3" width="64" height="64.0001" rx="10.6667" fill="#70C1FF"/>
<rect x="46.4983" y="3.00269" width="63.9981" height="2.7332" transform="rotate(90 46.4983 3.00269)" fill="#194185"/>
<rect x="51.232" y="3.00269" width="63.9981" height="2.7332" transform="rotate(90 51.232 3.00269)" fill="#194185"/>
<rect x="41.7625" y="3.00269" width="63.9981" height="2.7332" transform="rotate(90 41.7625 3.00269)" fill="#194185"/>
<rect x="32.2991" y="3.00269" width="63.9981" height="2.7332" transform="rotate(90 32.2991 3.00269)" fill="#194185"/>
<rect x="27.5654" y="3.00269" width="63.9981" height="2.7332" transform="rotate(90 27.5654 3.00269)" fill="#194185"/>
<rect x="22.8316" y="3.00269" width="63.9981" height="2.7332" transform="rotate(90 22.8316 3.00269)" fill="#194185"/>
<rect x="67.6667" y="45.8352" width="63.998" height="2.7332" transform="rotate(-180 67.6667 45.8352)" fill="#194185"/>
<rect x="67.6667" y="50.5684" width="63.998" height="2.7332" transform="rotate(-180 67.6667 50.5684)" fill="#194185"/>
<rect x="67.6667" y="41.1023" width="63.998" height="2.7332" transform="rotate(-180 67.6667 41.1023)" fill="#194185"/>
<rect x="67.6667" y="31.6348" width="63.998" height="2.7332" transform="rotate(-180 67.6667 31.6348)" fill="#194185"/>
<rect x="67.6667" y="26.9016" width="63.998" height="2.7332" transform="rotate(-180 67.6667 26.9016)" fill="#194185"/>
<rect x="67.6667" y="22.1672" width="63.998" height="2.7332" transform="rotate(-180 67.6667 22.1672)" fill="#194185"/>
<g filter="url(#filter1_di_1_150)">
<rect x="8.99899" y="8.3335" width="53.3333" height="53.3335" rx="8" fill="#1A0044"/>
<rect x="9.33045" y="8.66495" width="52.6704" height="52.6705" rx="7.66855" stroke="black" stroke-opacity="0.2" stroke-width="0.662907"/>
</g>
<g filter="url(#filter2_i_1_150)">
<path d="M51.2218 31.8891H20.1107M34.1107 45.8891L46.244 45.8891C47.9864 45.8891 48.8576 45.8891 49.5231 45.5501C50.1085 45.2518 50.5844 44.7758 50.8827 44.1904C51.2218 43.5249 51.2218 42.6538 51.2218 40.9114V29.0891C51.2218 27.3468 51.2218 26.4756 50.8827 25.8101C50.5844 25.2247 50.1085 24.7487 49.5231 24.4505C48.8576 24.1114 47.9864 24.1114 46.244 24.1114H43.444M34.1107 45.8891L37.2218 49.0003M34.1107 45.8891L37.2218 42.778M27.8884 45.8891H25.0884C23.3461 45.8891 22.4749 45.8891 21.8094 45.5501C21.224 45.2518 20.748 44.7758 20.4497 44.1904C20.1107 43.5249 20.1107 42.6537 20.1107 40.9114V29.0891C20.1107 27.3468 20.1107 26.4756 20.4497 25.8101C20.748 25.2247 21.224 24.7487 21.8094 24.4504C22.4749 24.1114 23.3461 24.1114 25.0884 24.1114H37.2218M37.2218 24.1114L34.1107 27.2225M37.2218 24.1114L34.1107 21.0002" stroke="white" stroke-width="2.37946" stroke-linecap="round" stroke-linejoin="round"/>
</g>
</g>
<rect x="3.95824" y="3.29091" width="63.4182" height="63.4183" rx="10.3758" stroke="black" stroke-opacity="0.2" stroke-width="0.581819"/>
</g>
<defs>
<filter id="filter0_dd_1_150" x="0.661618" y="0.996194" width="70.0114" height="70.0114" filterUnits="userSpaceOnUse" color-interpolation-filters="sRGB">
<feFlood flood-opacity="0" result="BackgroundImageFix"/>
<feColorMatrix in="SourceAlpha" type="matrix" values="0 0 0 0 0 0 0 0 0 0 0 0 0 0 0 0 0 0 127 0" result="hardAlpha"/>
<feMorphology radius="1.0019" operator="erode" in="SourceAlpha" result="effect1_dropShadow_1_150"/>
<feOffset dy="1.0019"/>
<feGaussianBlur stdDeviation="1.0019"/>
<feComposite in2="hardAlpha" operator="out"/>
<feColorMatrix type="matrix" values="0 0 0 0 0 0 0 0 0 0 0 0 0 0 0 0 0 0 0.1 0"/>
<feBlend mode="normal" in2="BackgroundImageFix" result="effect1_dropShadow_1_150"/>
<feColorMatrix in="SourceAlpha" type="matrix" values="0 0 0 0 0 0 0 0 0 0 0 0 0 0 0 0 0 0 127 0" result="hardAlpha"/>
<feOffset dy="1.0019"/>
<feGaussianBlur stdDeviation="1.50285"/>
<feComposite in2="hardAlpha" operator="out"/>
<feColorMatrix type="matrix" values="0 0 0 0 0 0 0 0 0 0 0 0 0 0 0 0 0 0 0.1 0"/>
<feBlend mode="normal" in2="effect1_dropShadow_1_150" result="effect2_dropShadow_1_150"/>
<feBlend mode="normal" in="SourceGraphic" in2="effect2_dropShadow_1_150" result="shape"/>
</filter>
<filter id="filter1_di_1_150" x="3.66566" y="4.33349" width="64" height="64.0002" filterUnits="userSpaceOnUse" color-interpolation-filters="sRGB">
<feFlood flood-opacity="0" result="BackgroundImageFix"/>
<feColorMatrix in="SourceAlpha" type="matrix" values="0 0 0 0 0 0 0 0 0 0 0 0 0 0 0 0 0 0 127 0" result="hardAlpha"/>
<feOffset dy="1.33333"/>
<feGaussianBlur stdDeviation="2.66667"/>
<feComposite in2="hardAlpha" operator="out"/>
<feColorMatrix type="matrix" values="0 0 0 0 0 0 0 0 0 0 0 0 0 0 0 0 0 0 0.25 0"/>
<feBlend mode="normal" in2="BackgroundImageFix" result="effect1_dropShadow_1_150"/>
<feBlend mode="normal" in="SourceGraphic" in2="effect1_dropShadow_1_150" result="shape"/>
<feColorMatrix in="SourceAlpha" type="matrix" values="0 0 0 0 0 0 0 0 0 0 0 0 0 0 0 0 0 0 127 0" result="hardAlpha"/>
<feOffset/>
<feGaussianBlur stdDeviation="1.32581"/>
<feComposite in2="hardAlpha" operator="arithmetic" k2="-1" k3="1"/>
<feColorMatrix type="matrix" values="0 0 0 0 0 0 0 0 0 0 0 0 0 0 0 0 0 0 0.25 0"/>
<feBlend mode="normal" in2="shape" result="effect2_innerShadow_1_150"/>
</filter>
<filter id="filter2_i_1_150" x="16.9996" y="16.3335" width="37.3333" height="37.3333" filterUnits="userSpaceOnUse" color-interpolation-filters="sRGB">
<feFlood flood-opacity="0" result="BackgroundImageFix"/>
<feBlend mode="normal" in="SourceGraphic" in2="BackgroundImageFix" result="shape"/>
<feColorMatrix in="SourceAlpha" type="matrix" values="0 0 0 0 0 0 0 0 0 0 0 0 0 0 0 0 0 0 127 0" result="hardAlpha"/>
<feOffset/>
<feGaussianBlur stdDeviation="0.0807576"/>
<feComposite in2="hardAlpha" operator="arithmetic" k2="-1" k3="1"/>
<feColorMatrix type="matrix" values="0 0 0 0 0 0 0 0 0 0 0 0 0 0 0 0 0 0 0.25 0"/>
<feBlend mode="normal" in2="shape" result="effect1_innerShadow_1_150"/>
</filter>
<clipPath id="clip0_1_150">
<rect x="3.66733" y="3" width="64" height="64.0001" rx="10.6667" fill="white"/>
</clipPath>
</defs>
</svg>
