<svg width="71" height="72" viewBox="0 0 71 72" fill="none" xmlns="http://www.w3.org/2000/svg">
<g filter="url(#filter0_dd_2_334)">
<rect x="3.66733" y="3" width="64" height="64" rx="10.6667" fill="#2E90FA" shape-rendering="crispEdges"/>
<g filter="url(#filter1_dd_2_334)">
<g clip-path="url(#clip0_2_334)">
<rect x="6.33292" y="5.6665" width="58.6667" height="58.6667" rx="9.28" fill="#1570EF"/>
<rect opacity="0.8" x="18.3205" y="2.16577" width="0.75" height="63.0019" fill="url(#paint0_radial_2_334)"/>
<rect opacity="0.8" x="35.0705" y="2.16577" width="0.75" height="63.0019" fill="url(#paint1_radial_2_334)"/>
<rect opacity="0.8" x="51.8205" y="2.16577" width="0.75" height="63.0019" fill="url(#paint2_radial_2_334)"/>
<rect opacity="0.8" x="65.833" y="17.8564" width="0.75" height="63.002" transform="rotate(90 65.833 17.8564)" fill="url(#paint3_radial_2_334)"/>
<rect opacity="0.8" x="65.833" y="34.6067" width="0.75" height="63.002" transform="rotate(90 65.833 34.6067)" fill="url(#paint4_radial_2_334)"/>
<rect opacity="0.8" x="65.833" y="51.3564" width="0.75" height="63.002" transform="rotate(90 65.833 51.3564)" fill="url(#paint5_radial_2_334)"/>
</g>
<rect x="6.77042" y="6.104" width="57.7917" height="57.7917" rx="8.8425" stroke="white" stroke-opacity="0.3" stroke-width="0.875"/>
</g>
<path d="M35.6673 21.6663C37.4183 21.6663 39.1521 22.0111 40.7698 22.6812C42.3875 23.3513 43.8573 24.3334 45.0954 25.5715C46.3336 26.8096 47.3157 28.2795 47.9857 29.8972C48.6558 31.5148 49.0007 33.2486 49.0007 34.9996L35.6673 34.9996L35.6673 21.6663Z" fill="white" fill-opacity="0.16"/>
<path d="M49.0007 34.9996C49.0007 37.1037 48.5027 39.178 47.5474 41.0528C46.5922 42.9276 45.2068 44.5497 43.5045 45.7865L35.6673 34.9996L49.0007 34.9996Z" fill="white" fill-opacity="0.16"/>
<path d="M49.0007 34.9996C49.0007 42.3634 43.0311 48.3329 35.6673 48.3329C28.3035 48.3329 22.334 42.3634 22.334 34.9996C22.334 27.6358 28.3036 21.6663 35.6673 21.6663C43.0311 21.6663 49.0007 27.6358 49.0007 34.9996Z" fill="white" fill-opacity="0.16"/>
<path d="M35.6673 21.6663C37.4183 21.6663 39.1521 22.0111 40.7698 22.6812C42.3875 23.3513 43.8573 24.3334 45.0954 25.5715C46.3336 26.8096 47.3157 28.2795 47.9857 29.8972C48.6558 31.5148 49.0007 33.2486 49.0007 34.9996M35.6673 21.6663L35.6673 34.9996M35.6673 21.6663C28.3036 21.6663 22.334 27.6358 22.334 34.9996C22.334 42.3634 28.3035 48.3329 35.6673 48.3329C43.0311 48.3329 49.0007 42.3634 49.0007 34.9996M35.6673 21.6663C43.0311 21.6663 49.0007 27.6358 49.0007 34.9996M49.0007 34.9996L35.6673 34.9996M49.0007 34.9996C49.0007 37.1037 48.5027 39.178 47.5474 41.0528C46.5922 42.9276 45.2068 44.5497 43.5045 45.7865L35.6673 34.9996" stroke="white" stroke-width="2.32727" stroke-linecap="round" stroke-linejoin="round"/>
<rect x="4.00066" y="3.33333" width="63.3333" height="63.3333" rx="10.3333" stroke="white" stroke-opacity="0.4" stroke-width="0.666667" shape-rendering="crispEdges"/>
</g>
<defs>
<filter id="filter0_dd_2_334" x="0.661621" y="0.996196" width="70.0114" height="70.0114" filterUnits="userSpaceOnUse" color-interpolation-filters="sRGB">
<feFlood flood-opacity="0" result="BackgroundImageFix"/>
<feColorMatrix in="SourceAlpha" type="matrix" values="0 0 0 0 0 0 0 0 0 0 0 0 0 0 0 0 0 0 127 0" result="hardAlpha"/>
<feMorphology radius="1.0019" operator="erode" in="SourceAlpha" result="effect1_dropShadow_2_334"/>
<feOffset dy="1.0019"/>
<feGaussianBlur stdDeviation="1.0019"/>
<feComposite in2="hardAlpha" operator="out"/>
<feColorMatrix type="matrix" values="0 0 0 0 0 0 0 0 0 0 0 0 0 0 0 0 0 0 0.1 0"/>
<feBlend mode="normal" in2="BackgroundImageFix" result="effect1_dropShadow_2_334"/>
<feColorMatrix in="SourceAlpha" type="matrix" values="0 0 0 0 0 0 0 0 0 0 0 0 0 0 0 0 0 0 127 0" result="hardAlpha"/>
<feOffset dy="1.0019"/>
<feGaussianBlur stdDeviation="1.50285"/>
<feComposite in2="hardAlpha" operator="out"/>
<feColorMatrix type="matrix" values="0 0 0 0 0 0 0 0 0 0 0 0 0 0 0 0 0 0 0.1 0"/>
<feBlend mode="normal" in2="effect1_dropShadow_2_334" result="effect2_dropShadow_2_334"/>
<feBlend mode="normal" in="SourceGraphic" in2="effect2_dropShadow_2_334" result="shape"/>
</filter>
<filter id="filter1_dd_2_334" x="2.90435" y="3.38079" width="65.5238" height="65.5239" filterUnits="userSpaceOnUse" color-interpolation-filters="sRGB">
<feFlood flood-opacity="0" result="BackgroundImageFix"/>
<feColorMatrix in="SourceAlpha" type="matrix" values="0 0 0 0 0 0 0 0 0 0 0 0 0 0 0 0 0 0 127 0" result="hardAlpha"/>
<feOffset dy="1.14286"/>
<feGaussianBlur stdDeviation="1.14286"/>
<feColorMatrix type="matrix" values="0 0 0 0 0.0627451 0 0 0 0 0.0941176 0 0 0 0 0.156863 0 0 0 0.06 0"/>
<feBlend mode="normal" in2="BackgroundImageFix" result="effect1_dropShadow_2_334"/>
<feColorMatrix in="SourceAlpha" type="matrix" values="0 0 0 0 0 0 0 0 0 0 0 0 0 0 0 0 0 0 127 0" result="hardAlpha"/>
<feOffset dy="1.14286"/>
<feGaussianBlur stdDeviation="1.71429"/>
<feColorMatrix type="matrix" values="0 0 0 0 0.0627451 0 0 0 0 0.0941176 0 0 0 0 0.156863 0 0 0 0.1 0"/>
<feBlend mode="normal" in2="effect1_dropShadow_2_334" result="effect2_dropShadow_2_334"/>
<feBlend mode="normal" in="SourceGraphic" in2="effect2_dropShadow_2_334" result="shape"/>
</filter>
<radialGradient id="paint0_radial_2_334" cx="0" cy="0" r="1" gradientUnits="userSpaceOnUse" gradientTransform="translate(18.6955 33.6667) rotate(90.8254) scale(26.0331 3.74245)">
<stop stop-color="white"/>
<stop offset="0.9999" stop-color="#D9D9D9" stop-opacity="0.1"/>
<stop offset="1" stop-color="white" stop-opacity="0.1"/>
</radialGradient>
<radialGradient id="paint1_radial_2_334" cx="0" cy="0" r="1" gradientUnits="userSpaceOnUse" gradientTransform="translate(35.4455 33.6667) rotate(90.8254) scale(26.0331 3.74245)">
<stop stop-color="white"/>
<stop offset="0.9999" stop-color="#D9D9D9" stop-opacity="0.1"/>
<stop offset="1" stop-color="white" stop-opacity="0.1"/>
</radialGradient>
<radialGradient id="paint2_radial_2_334" cx="0" cy="0" r="1" gradientUnits="userSpaceOnUse" gradientTransform="translate(52.1955 33.6667) rotate(90.8254) scale(26.0331 3.74245)">
<stop stop-color="white"/>
<stop offset="0.9999" stop-color="#D9D9D9" stop-opacity="0.1"/>
<stop offset="1" stop-color="white" stop-opacity="0.1"/>
</radialGradient>
<radialGradient id="paint3_radial_2_334" cx="0" cy="0" r="1" gradientUnits="userSpaceOnUse" gradientTransform="translate(66.208 49.3574) rotate(90.8254) scale(26.0331 3.74245)">
<stop stop-color="white"/>
<stop offset="0.9999" stop-color="#D9D9D9" stop-opacity="0.1"/>
<stop offset="1" stop-color="white" stop-opacity="0.1"/>
</radialGradient>
<radialGradient id="paint4_radial_2_334" cx="0" cy="0" r="1" gradientUnits="userSpaceOnUse" gradientTransform="translate(66.208 66.1077) rotate(90.8254) scale(26.0331 3.74245)">
<stop stop-color="white"/>
<stop offset="0.9999" stop-color="#D9D9D9" stop-opacity="0.1"/>
<stop offset="1" stop-color="white" stop-opacity="0.1"/>
</radialGradient>
<radialGradient id="paint5_radial_2_334" cx="0" cy="0" r="1" gradientUnits="userSpaceOnUse" gradientTransform="translate(66.208 82.8574) rotate(90.8254) scale(26.0331 3.74245)">
<stop stop-color="white"/>
<stop offset="0.9999" stop-color="#D9D9D9" stop-opacity="0.1"/>
<stop offset="1" stop-color="white" stop-opacity="0.1"/>
</radialGradient>
<clipPath id="clip0_2_334">
<rect x="6.33292" y="5.6665" width="58.6667" height="58.6667" rx="9.28" fill="white"/>
</clipPath>
</defs>
</svg>
