<svg width="71" height="72" viewBox="0 0 71 72" fill="none" xmlns="http://www.w3.org/2000/svg">
<g filter="url(#filter0_dd_2_345)">
<rect x="3.66733" y="3" width="64" height="64" rx="10.6667" fill="#16B364" shape-rendering="crispEdges"/>
<g filter="url(#filter1_dd_2_345)">
<g clip-path="url(#clip0_2_345)">
<rect x="6.33206" y="5.66675" width="58.6667" height="58.6641" rx="9.2798" fill="#099250"/>
<rect opacity="0.8" x="18.3205" y="2.16577" width="0.75" height="62.9992" fill="url(#paint0_radial_2_345)"/>
<rect opacity="0.8" x="35.0701" y="2.16577" width="0.75" height="62.9992" fill="url(#paint1_radial_2_345)"/>
<rect opacity="0.8" x="51.8195" y="2.16577" width="0.75" height="62.9992" fill="url(#paint2_radial_2_345)"/>
<rect opacity="0.8" x="65.8316" y="17.8557" width="0.749967" height="63.002" transform="rotate(90 65.8316 17.8557)" fill="url(#paint3_radial_2_345)"/>
<rect opacity="0.8" x="65.8316" y="34.6052" width="0.749967" height="63.002" transform="rotate(90 65.8316 34.6052)" fill="url(#paint4_radial_2_345)"/>
<rect opacity="0.8" x="65.8316" y="51.3542" width="0.749967" height="63.002" transform="rotate(90 65.8316 51.3542)" fill="url(#paint5_radial_2_345)"/>
</g>
<rect x="6.76955" y="6.10424" width="57.7917" height="57.7891" rx="8.84231" stroke="white" stroke-opacity="0.3" stroke-width="0.874981"/>
</g>
<path d="M43.471 46.9981C44.9644 46.9981 45.7111 46.9981 46.2815 46.7075C46.7833 46.4518 47.1912 46.0438 47.4469 45.5421C47.7375 44.9716 47.7375 44.2249 47.7375 42.7314L47.7375 33.9312C47.7375 32.4377 47.7375 31.6909 47.4469 31.1205C47.1912 30.6187 46.7833 30.2107 46.2815 29.9551C45.7111 29.6644 44.9644 29.6644 43.471 29.6644L28.0046 29.6644C26.5112 29.6644 25.7645 29.6644 25.1941 29.9551C24.6923 30.2107 24.2844 30.6187 24.0287 31.1205C23.7381 31.6909 23.7381 32.4377 23.7381 33.9312L23.7381 42.7314C23.7381 44.2249 23.7381 44.9716 24.0287 45.5421C24.2844 46.0438 24.6923 46.4518 25.1941 46.7075C25.7645 46.9981 26.5112 46.9981 28.0046 46.9981L43.471 46.9981Z" fill="white" fill-opacity="0.16"/>
<path d="M42.4043 38.3313C42.4043 38.6995 42.1059 38.9979 41.7377 38.9979C41.3695 38.9979 41.071 38.6995 41.071 38.3313C41.071 37.9631 41.3695 37.6646 41.7377 37.6646C42.1059 37.6646 42.4043 37.9631 42.4043 38.3313Z" fill="white" fill-opacity="0.16"/>
<path d="M41.071 29.6644L41.071 24.9985C41.071 23.8895 41.071 23.335 40.8374 22.9942C40.6333 22.6965 40.3172 22.4942 39.9614 22.4337C39.5541 22.3644 39.0507 22.5967 38.0438 23.0615L26.2167 28.5204C25.3187 28.9348 24.8697 29.1421 24.5409 29.4635C24.2501 29.7476 24.0282 30.0945 23.8921 30.4775C23.7381 30.9108 23.7381 31.4053 23.7381 32.3944L23.7381 38.9979M41.7377 38.3313L41.751 38.3313M23.7381 33.9312L23.7381 42.7314C23.7381 44.2249 23.7381 44.9716 24.0287 45.5421C24.2844 46.0438 24.6923 46.4518 25.1941 46.7075C25.7645 46.9981 26.5112 46.9981 28.0046 46.9981L43.471 46.9981C44.9644 46.9981 45.7111 46.9981 46.2815 46.7075C46.7833 46.4518 47.1912 46.0438 47.4469 45.5421C47.7375 44.9716 47.7375 44.2249 47.7375 42.7314L47.7375 33.9312C47.7375 32.4377 47.7375 31.6909 47.4469 31.1205C47.1912 30.6187 46.7833 30.2107 46.2815 29.9551C45.7111 29.6644 44.9644 29.6644 43.471 29.6644L28.0046 29.6644C26.5112 29.6644 25.7645 29.6644 25.1941 29.9551C24.6923 30.2107 24.2844 30.6187 24.0287 31.1205C23.7381 31.6909 23.7381 32.4377 23.7381 33.9312ZM42.4043 38.3313C42.4043 38.6995 42.1059 38.9979 41.7377 38.9979C41.3695 38.9979 41.071 38.6995 41.071 38.3313C41.071 37.9631 41.3695 37.6646 41.7377 37.6646C42.1059 37.6646 42.4043 37.9631 42.4043 38.3313Z" stroke="white" stroke-width="2.32722" stroke-linecap="round" stroke-linejoin="round"/>
<rect x="4.00065" y="3.33333" width="63.3333" height="63.3333" rx="10.3333" stroke="white" stroke-opacity="0.4" stroke-width="0.666652" shape-rendering="crispEdges"/>
</g>
<defs>
<filter id="filter0_dd_2_345" x="0.661621" y="0.996196" width="70.0114" height="70.0114" filterUnits="userSpaceOnUse" color-interpolation-filters="sRGB">
<feFlood flood-opacity="0" result="BackgroundImageFix"/>
<feColorMatrix in="SourceAlpha" type="matrix" values="0 0 0 0 0 0 0 0 0 0 0 0 0 0 0 0 0 0 127 0" result="hardAlpha"/>
<feMorphology radius="1.0019" operator="erode" in="SourceAlpha" result="effect1_dropShadow_2_345"/>
<feOffset dy="1.0019"/>
<feGaussianBlur stdDeviation="1.0019"/>
<feComposite in2="hardAlpha" operator="out"/>
<feColorMatrix type="matrix" values="0 0 0 0 0 0 0 0 0 0 0 0 0 0 0 0 0 0 0.1 0"/>
<feBlend mode="normal" in2="BackgroundImageFix" result="effect1_dropShadow_2_345"/>
<feColorMatrix in="SourceAlpha" type="matrix" values="0 0 0 0 0 0 0 0 0 0 0 0 0 0 0 0 0 0 127 0" result="hardAlpha"/>
<feOffset dy="1.0019"/>
<feGaussianBlur stdDeviation="1.50285"/>
<feComposite in2="hardAlpha" operator="out"/>
<feColorMatrix type="matrix" values="0 0 0 0 0 0 0 0 0 0 0 0 0 0 0 0 0 0 0.1 0"/>
<feBlend mode="normal" in2="effect1_dropShadow_2_345" result="effect2_dropShadow_2_345"/>
<feBlend mode="normal" in="SourceGraphic" in2="effect2_dropShadow_2_345" result="shape"/>
</filter>
<filter id="filter1_dd_2_345" x="2.90357" y="3.38108" width="65.5236" height="65.5211" filterUnits="userSpaceOnUse" color-interpolation-filters="sRGB">
<feFlood flood-opacity="0" result="BackgroundImageFix"/>
<feColorMatrix in="SourceAlpha" type="matrix" values="0 0 0 0 0 0 0 0 0 0 0 0 0 0 0 0 0 0 127 0" result="hardAlpha"/>
<feOffset dy="1.14283"/>
<feGaussianBlur stdDeviation="1.14283"/>
<feColorMatrix type="matrix" values="0 0 0 0 0.0627451 0 0 0 0 0.0941176 0 0 0 0 0.156863 0 0 0 0.06 0"/>
<feBlend mode="normal" in2="BackgroundImageFix" result="effect1_dropShadow_2_345"/>
<feColorMatrix in="SourceAlpha" type="matrix" values="0 0 0 0 0 0 0 0 0 0 0 0 0 0 0 0 0 0 127 0" result="hardAlpha"/>
<feOffset dy="1.14283"/>
<feGaussianBlur stdDeviation="1.71425"/>
<feColorMatrix type="matrix" values="0 0 0 0 0.0627451 0 0 0 0 0.0941176 0 0 0 0 0.156863 0 0 0 0.1 0"/>
<feBlend mode="normal" in2="effect1_dropShadow_2_345" result="effect2_dropShadow_2_345"/>
<feBlend mode="normal" in="SourceGraphic" in2="effect2_dropShadow_2_345" result="shape"/>
</filter>
<radialGradient id="paint0_radial_2_345" cx="0" cy="0" r="1" gradientUnits="userSpaceOnUse" gradientTransform="translate(18.6955 33.6654) rotate(90.8254) scale(26.0319 3.74245)">
<stop stop-color="white"/>
<stop offset="0.9999" stop-color="#D9D9D9" stop-opacity="0.1"/>
<stop offset="1" stop-color="white" stop-opacity="0.1"/>
</radialGradient>
<radialGradient id="paint1_radial_2_345" cx="0" cy="0" r="1" gradientUnits="userSpaceOnUse" gradientTransform="translate(35.4451 33.6654) rotate(90.8254) scale(26.0319 3.74245)">
<stop stop-color="white"/>
<stop offset="0.9999" stop-color="#D9D9D9" stop-opacity="0.1"/>
<stop offset="1" stop-color="white" stop-opacity="0.1"/>
</radialGradient>
<radialGradient id="paint2_radial_2_345" cx="0" cy="0" r="1" gradientUnits="userSpaceOnUse" gradientTransform="translate(52.1945 33.6654) rotate(90.8254) scale(26.0319 3.74245)">
<stop stop-color="white"/>
<stop offset="0.9999" stop-color="#D9D9D9" stop-opacity="0.1"/>
<stop offset="1" stop-color="white" stop-opacity="0.1"/>
</radialGradient>
<radialGradient id="paint3_radial_2_345" cx="0" cy="0" r="1" gradientUnits="userSpaceOnUse" gradientTransform="translate(66.2066 49.3567) rotate(90.8253) scale(26.0331 3.74229)">
<stop stop-color="white"/>
<stop offset="0.9999" stop-color="#D9D9D9" stop-opacity="0.1"/>
<stop offset="1" stop-color="white" stop-opacity="0.1"/>
</radialGradient>
<radialGradient id="paint4_radial_2_345" cx="0" cy="0" r="1" gradientUnits="userSpaceOnUse" gradientTransform="translate(66.2066 66.1062) rotate(90.8253) scale(26.0331 3.74229)">
<stop stop-color="white"/>
<stop offset="0.9999" stop-color="#D9D9D9" stop-opacity="0.1"/>
<stop offset="1" stop-color="white" stop-opacity="0.1"/>
</radialGradient>
<radialGradient id="paint5_radial_2_345" cx="0" cy="0" r="1" gradientUnits="userSpaceOnUse" gradientTransform="translate(66.2066 82.8552) rotate(90.8253) scale(26.0331 3.74229)">
<stop stop-color="white"/>
<stop offset="0.9999" stop-color="#D9D9D9" stop-opacity="0.1"/>
<stop offset="1" stop-color="white" stop-opacity="0.1"/>
</radialGradient>
<clipPath id="clip0_2_345">
<rect x="6.33206" y="5.66675" width="58.6667" height="58.6641" rx="9.2798" fill="white"/>
</clipPath>
</defs>
</svg>
