<svg width="38" height="38" viewBox="0 0 38 38" fill="none" xmlns="http://www.w3.org/2000/svg">
<g filter="url(#filter0_i_316_666)">
<path d="M3.11111 3.11111H5.14293C5.52562 3.11111 5.71697 3.11111 5.87096 3.18149C6.00666 3.2435 6.12165 3.34324 6.20224 3.46881C6.29368 3.61129 6.32074 3.80072 6.37486 4.17957L7.11112 9.33334M7.11112 9.33334L8.74739 21.36C8.95504 22.8862 9.05886 23.6493 9.42372 24.2237C9.74522 24.7298 10.2061 25.1323 10.751 25.3826C11.3693 25.6667 12.1395 25.6667 13.6797 25.6667H26.992C28.4582 25.6667 29.1913 25.6667 29.7904 25.4029C30.3186 25.1703 30.7718 24.7953 31.0991 24.3199C31.4704 23.7807 31.6075 23.0606 31.8819 21.6203L33.9409 10.8106C34.0374 10.3037 34.0857 10.0502 34.0157 9.85212C33.9543 9.67832 33.8332 9.53196 33.674 9.43915C33.4924 9.33334 33.2344 9.33334 32.7184 9.33334H7.11112ZM15.5556 32.6667C15.5556 33.5258 14.8591 34.2222 14 34.2222C13.1409 34.2222 12.4445 33.5258 12.4445 32.6667C12.4445 31.8076 13.1409 31.1111 14 31.1111C14.8591 31.1111 15.5556 31.8076 15.5556 32.6667ZM28 32.6667C28 33.5258 27.3036 34.2222 26.4445 34.2222C25.5853 34.2222 24.8889 33.5258 24.8889 32.6667C24.8889 31.8076 25.5853 31.1111 26.4445 31.1111C27.3036 31.1111 28 31.8076 28 32.6667Z" stroke="black" stroke-width="2.37946" stroke-linecap="round" stroke-linejoin="round"/>
</g>
<defs>
<filter id="filter0_i_316_666" x="0" y="0" width="37.3334" height="37.3334" filterUnits="userSpaceOnUse" color-interpolation-filters="sRGB">
<feFlood flood-opacity="0" result="BackgroundImageFix"/>
<feBlend mode="normal" in="SourceGraphic" in2="BackgroundImageFix" result="shape"/>
<feColorMatrix in="SourceAlpha" type="matrix" values="0 0 0 0 0 0 0 0 0 0 0 0 0 0 0 0 0 0 127 0" result="hardAlpha"/>
<feOffset/>
<feGaussianBlur stdDeviation="0.0807576"/>
<feComposite in2="hardAlpha" operator="arithmetic" k2="-1" k3="1"/>
<feColorMatrix type="matrix" values="0 0 0 0 0 0 0 0 0 0 0 0 0 0 0 0 0 0 0.25 0"/>
<feBlend mode="normal" in2="shape" result="effect1_innerShadow_316_666"/>
</filter>
</defs>
</svg>
