<svg width="25" height="24" viewBox="0 0 25 24" fill="none" xmlns="http://www.w3.org/2000/svg">
<g clip-path="url(#clip0_307_17882)">
<path d="M14.1942 21.0502C15.4463 21.0502 19.3626 21.0502 19.9079 20.885M7.96161 2.94975C6.44103 2.94975 5.68073 2.94975 5.09995 3.24568C4.58907 3.50598 4.17372 3.92133 3.91342 4.43221C3.61749 5.01299 3.61749 5.77329 3.61749 7.29387V16.7061C3.61749 18.2267 3.61749 18.987 3.91342 19.5678C4.17372 20.0787 4.58907 20.494 5.09995 20.7543C5.20249 20.8066 5.31063 20.8496 5.42756 20.885M5.42756 20.885C5.97291 21.0502 6.7095 21.0502 7.96161 21.0502H9.74342M5.42756 20.885C5.42786 20.1525 5.43225 19.765 5.4971 19.439C5.78275 18.0029 6.90533 16.8803 8.34139 16.5947C8.69109 16.5251 9.11161 16.5251 9.95266 16.5251H15.3828C16.2239 16.5251 16.6444 16.5251 16.9941 16.5947C18.4301 16.8803 19.5527 18.0029 19.8384 19.439C19.9032 19.765 19.9076 20.1525 19.9079 20.885M19.9079 20.885C20.0248 20.8496 20.133 20.8066 20.2355 20.7543C20.7464 20.494 21.1617 20.0787 21.4221 19.5678C21.718 18.987 21.718 18.2267 21.718 16.7061V7.29387C21.718 5.77329 21.718 5.01299 21.4221 4.43221C21.1617 3.92133 20.7464 3.50598 20.2355 3.24568C19.6547 2.94975 18.8944 2.94975 17.3739 2.94975H16.1844M16.2878 10.3192C16.2878 12.3186 14.6671 13.9393 12.6677 13.9393C10.6684 13.9393 9.04764 12.3186 9.04764 10.3192C9.04764 8.31991 10.6684 6.69914 12.6677 6.69914C14.6671 6.69914 16.2878 8.31991 16.2878 10.3192Z" stroke="black" stroke-width="1.8" stroke-linecap="round" stroke-linejoin="round"/>
<path d="M7.60352 2.94976H12.9173M12.9173 2.94976L11.1073 4.75981M12.9173 2.94976L11.1073 1.13971" stroke="black" stroke-width="1.8" stroke-linecap="round" stroke-linejoin="round"/>
<path d="M17.4652 21.0502L13.3285 21.0502M13.3285 21.0502L15.1386 19.2402M13.3285 21.0502L15.1386 22.8603" stroke="black" stroke-width="1.8" stroke-linecap="round" stroke-linejoin="round"/>
</g>
<defs>
<clipPath id="clip0_307_17882">
<rect width="24" height="24" fill="white" transform="translate(0.667725)"/>
</clipPath>
</defs>
</svg>
