<svg width="50" height="50" viewBox="0 0 50 50" fill="none" xmlns="http://www.w3.org/2000/svg">
<path d="M4.80392 26.0784C4.5098 26.1765 4.31373 26.3725 4.16667 26.6176C4.01961 26.8627 4.01961 27.1569 4.06863 27.451C4.21569 27.8922 4.60784 28.2353 5.09804 28.2353C5.58824 28.2353 5.29412 28.2353 5.39216 28.2353C12.3039 26.1275 18.1863 23.0882 23.3333 18.8725C28.1373 14.951 32.2549 10.049 35.8333 4.01961L36.0294 4.80392C36.1765 5.39216 36.7647 5.73529 37.3529 5.58824C37.9412 5.44118 38.2843 4.85294 38.1373 4.26471L37.2549 0.931373C37.1569 0.637255 37.0098 0.441176 36.7647 0.294118C36.5196 0.147059 36.2255 0.0980392 35.9314 0.196078L32.598 1.07843C32.3039 1.17647 32.1078 1.32353 31.9608 1.56863C31.8137 1.81373 31.7647 2.10784 31.8627 2.40196C31.9608 2.69608 32.1078 2.89216 32.3529 3.03922C32.598 3.18627 32.8922 3.23529 33.1863 3.13725L34.0196 2.89216C26.9118 14.902 17.598 22.3039 4.80392 26.1765V26.0784Z" fill="#18103A"/>
<path d="M48.9706 47.7941H48.4804V13.0392C48.4804 11.6176 47.3039 10.4412 45.8824 10.4412H40.8333C39.4118 10.4412 38.2353 11.6176 38.2353 13.0392V47.8431H36.2745V21.7157C36.2745 20.2941 35.098 19.1176 33.6765 19.1176H28.6274C27.2059 19.1176 26.0294 20.2941 26.0294 21.7157V47.8431H24.0196V30.3431C24.0196 28.9216 22.8431 27.7451 21.4216 27.7451H16.3725C14.951 27.7451 13.7745 28.9216 13.7745 30.3431V47.8431H11.8137V38.9706C11.8137 37.549 10.6373 36.3725 9.21569 36.3725H4.16667C2.7451 36.3725 1.56863 37.549 1.56863 38.9706V47.8431H1.07843C0.490196 47.8431 0 48.3333 0 48.9216C0 49.5098 0.490196 50 1.07843 50H48.9216C49.5098 50 50 49.5098 50 48.9216C50 48.3333 49.5098 47.8431 48.9216 47.8431L48.9706 47.7941ZM46.3235 13.0392V47.8431H40.4412V13.0392C40.4412 12.7941 40.6373 12.6471 40.8333 12.6471H45.8824C46.1274 12.6471 46.2745 12.8431 46.2745 13.0392H46.3235ZM34.0686 21.6667V47.7941H28.1863V21.6667C28.1863 21.4216 28.3824 21.2745 28.5784 21.2745H33.6274C33.8725 21.2745 34.0196 21.4706 34.0196 21.6667H34.0686ZM21.8627 30.2941V47.7941H15.9804V30.2941C15.9804 30.049 16.1765 29.902 16.3725 29.902H21.4216C21.6667 29.902 21.8137 30.098 21.8137 30.2941H21.8627ZM9.65686 38.9216V47.7941H3.77451V38.9216C3.77451 38.6765 3.97059 38.5294 4.16667 38.5294H9.21569C9.46078 38.5294 9.60784 38.7255 9.60784 38.9216H9.65686Z" fill="#18103A"/>
<path d="M10.098 9.41177C10.6863 10 11.4216 10.2941 12.2059 10.2941C12.9902 10.2941 12.598 10.3922 12.7941 10.5392C12.9902 10.6863 13.0882 10.9804 13.0882 11.2255C13.0882 11.7647 12.6471 12.1569 12.1569 12.1569C11.6667 12.1569 11.4706 11.9608 11.2745 11.6176C11.0294 11.0784 10.3922 10.8333 9.85294 11.0784C9.60784 11.1765 9.36275 11.4216 9.26471 11.7157C9.16667 12.0098 9.16667 12.3039 9.26471 12.549C9.65686 13.3333 10.3431 13.9706 11.1765 14.2157V14.5588C11.1765 15.1471 11.6667 15.6373 12.2549 15.6373C12.8431 15.6373 13.3333 15.1471 13.3333 14.5588V14.1176C14.4608 13.6275 15.2451 12.5 15.2451 11.2255C15.2451 9.95098 14.902 9.55882 14.3137 8.97059C13.7255 8.38235 12.9902 8.08823 12.1569 8.08823C11.3235 8.08823 11.7647 7.9902 11.5686 7.84314C11.3725 7.64706 11.2745 7.40196 11.2745 7.15686C11.2745 6.61765 11.7157 6.22549 12.2059 6.22549C12.6961 6.22549 12.8922 6.42157 13.0882 6.76471C13.1863 7.0098 13.4314 7.2549 13.7255 7.35294C14.0196 7.45098 14.3137 7.45098 14.5588 7.35294C15.098 7.10784 15.3431 6.47059 15.098 5.93137C14.7549 5.19608 14.1176 4.60784 13.3333 4.31373V3.92157C13.3333 3.33333 12.8431 2.84314 12.2549 2.84314C11.6667 2.84314 11.1765 3.33333 11.1765 3.92157V4.31373C9.95098 4.7549 9.11765 5.93137 9.11765 7.2549C9.11765 8.57843 9.46078 8.92157 10.049 9.5098L10.098 9.41177Z" fill="#18103A"/>
<path d="M12.2549 18.3824C17.3039 18.3824 21.4706 14.2647 21.4706 9.16667C21.4706 4.06863 17.3039 0 12.2549 0C7.20588 0 3.03922 4.11765 3.03922 9.21569C3.03922 14.3137 7.15686 18.4314 12.2549 18.4314V18.3824ZM5.19608 9.21569C5.19608 5.34314 8.33333 2.20588 12.2059 2.20588C16.0784 2.20588 19.2157 5.34314 19.2157 9.21569C19.2157 13.0882 16.0784 16.2255 12.2059 16.2255C8.33333 16.2255 5.19608 13.0882 5.19608 9.21569Z" fill="#18103A"/>
</svg>
