<svg width="64" height="64" viewBox="0 0 64 64" fill="none" xmlns="http://www.w3.org/2000/svg">
<g clip-path="url(#clip0_32_17519)">
<rect width="64" height="64" rx="10.6667" fill="#16B364"/>
<g filter="url(#filter0_dd_32_17519)">
<g clip-path="url(#clip1_32_17519)">
<rect x="2.67102" y="2.66626" width="58.6667" height="58.6641" rx="9.2798" fill="#099250"/>
<rect opacity="0.8" x="14.6594" y="-0.834229" width="0.75" height="62.9992" fill="url(#paint0_radial_32_17519)"/>
<rect opacity="0.8" x="31.4091" y="-0.834229" width="0.75" height="62.9992" fill="url(#paint1_radial_32_17519)"/>
<rect opacity="0.8" x="48.1586" y="-0.834229" width="0.75" height="62.9992" fill="url(#paint2_radial_32_17519)"/>
<rect opacity="0.8" x="62.1705" y="14.8557" width="0.749967" height="63.002" transform="rotate(90 62.1705 14.8557)" fill="url(#paint3_radial_32_17519)"/>
<rect opacity="0.8" x="62.1705" y="31.6052" width="0.749967" height="63.002" transform="rotate(90 62.1705 31.6052)" fill="url(#paint4_radial_32_17519)"/>
<rect opacity="0.8" x="62.1705" y="48.3542" width="0.749967" height="63.002" transform="rotate(90 62.1705 48.3542)" fill="url(#paint5_radial_32_17519)"/>
</g>
<rect x="3.10851" y="3.10375" width="57.7917" height="57.7891" rx="8.84231" stroke="white" stroke-opacity="0.3" stroke-width="0.874981"/>
</g>
<path d="M37.4886 45.3318C39.9255 45.3318 41.1439 45.3318 42.0392 44.8435C42.8258 44.4145 43.4455 43.7339 43.7992 42.9108C44.2017 41.9738 44.088 40.7606 43.8606 38.3343L43.0606 29.8008C42.8685 27.7519 42.7725 26.7274 42.3117 25.9529C41.9059 25.2708 41.3064 24.7248 40.5894 24.3845C39.7753 23.998 38.7464 23.998 36.6887 23.998L27.0117 23.998C24.9539 23.998 23.925 23.998 23.1109 24.3845C22.3939 24.7248 21.7944 25.2708 21.3886 25.9529C20.9279 26.7274 20.8318 27.7519 20.6397 29.8007L19.8398 38.3343C19.6123 40.7606 19.4986 41.9737 19.9012 42.9108C20.2548 43.7339 20.8746 44.4145 21.6611 44.8435C22.5564 45.3318 23.7748 45.3318 26.2117 45.3318L37.4886 45.3318Z" fill="white" fill-opacity="0.16"/>
<path d="M37.1834 27.9981L37.1834 23.998C37.1834 21.0524 34.7956 18.6646 31.8502 18.6646C28.9047 18.6646 26.5169 21.0524 26.5169 23.998L26.5169 27.9981M20.6397 29.8007L19.8398 38.3343C19.6123 40.7606 19.4986 41.9737 19.9012 42.9108C20.2548 43.7339 20.8746 44.4145 21.6611 44.8435C22.5564 45.3318 23.7748 45.3318 26.2117 45.3318L37.4886 45.3318C39.9255 45.3318 41.1439 45.3318 42.0392 44.8435C42.8258 44.4145 43.4455 43.7339 43.7992 42.9108C44.2017 41.9738 44.088 40.7606 43.8606 38.3343L43.0606 29.8008C42.8685 27.7519 42.7725 26.7274 42.3117 25.9529C41.9059 25.2708 41.3064 24.7248 40.5894 24.3845C39.7753 23.998 38.7464 23.998 36.6887 23.998L27.0117 23.998C24.9539 23.998 23.925 23.998 23.1109 24.3845C22.3939 24.7248 21.7944 25.2708 21.3886 25.9529C20.9279 26.7274 20.8318 27.7519 20.6397 29.8007Z" stroke="white" stroke-width="2.32722" stroke-linecap="round" stroke-linejoin="round"/>
</g>
<rect x="0.333326" y="0.333326" width="63.3333" height="63.3333" rx="10.3333" stroke="white" stroke-opacity="0.4" stroke-width="0.666652"/>
<defs>
<filter id="filter0_dd_32_17519" x="-0.757475" y="0.380596" width="65.5236" height="65.5211" filterUnits="userSpaceOnUse" color-interpolation-filters="sRGB">
<feFlood flood-opacity="0" result="BackgroundImageFix"/>
<feColorMatrix in="SourceAlpha" type="matrix" values="0 0 0 0 0 0 0 0 0 0 0 0 0 0 0 0 0 0 127 0" result="hardAlpha"/>
<feOffset dy="1.14283"/>
<feGaussianBlur stdDeviation="1.14283"/>
<feColorMatrix type="matrix" values="0 0 0 0 0.0627451 0 0 0 0 0.0941176 0 0 0 0 0.156863 0 0 0 0.06 0"/>
<feBlend mode="normal" in2="BackgroundImageFix" result="effect1_dropShadow_32_17519"/>
<feColorMatrix in="SourceAlpha" type="matrix" values="0 0 0 0 0 0 0 0 0 0 0 0 0 0 0 0 0 0 127 0" result="hardAlpha"/>
<feOffset dy="1.14283"/>
<feGaussianBlur stdDeviation="1.71425"/>
<feColorMatrix type="matrix" values="0 0 0 0 0.0627451 0 0 0 0 0.0941176 0 0 0 0 0.156863 0 0 0 0.1 0"/>
<feBlend mode="normal" in2="effect1_dropShadow_32_17519" result="effect2_dropShadow_32_17519"/>
<feBlend mode="normal" in="SourceGraphic" in2="effect2_dropShadow_32_17519" result="shape"/>
</filter>
<radialGradient id="paint0_radial_32_17519" cx="0" cy="0" r="1" gradientUnits="userSpaceOnUse" gradientTransform="translate(15.0344 30.6654) rotate(90.8254) scale(26.0319 3.74245)">
<stop stop-color="white"/>
<stop offset="0.9999" stop-color="#D9D9D9" stop-opacity="0.1"/>
<stop offset="1" stop-color="white" stop-opacity="0.1"/>
</radialGradient>
<radialGradient id="paint1_radial_32_17519" cx="0" cy="0" r="1" gradientUnits="userSpaceOnUse" gradientTransform="translate(31.7841 30.6654) rotate(90.8254) scale(26.0319 3.74245)">
<stop stop-color="white"/>
<stop offset="0.9999" stop-color="#D9D9D9" stop-opacity="0.1"/>
<stop offset="1" stop-color="white" stop-opacity="0.1"/>
</radialGradient>
<radialGradient id="paint2_radial_32_17519" cx="0" cy="0" r="1" gradientUnits="userSpaceOnUse" gradientTransform="translate(48.5336 30.6654) rotate(90.8254) scale(26.0319 3.74245)">
<stop stop-color="white"/>
<stop offset="0.9999" stop-color="#D9D9D9" stop-opacity="0.1"/>
<stop offset="1" stop-color="white" stop-opacity="0.1"/>
</radialGradient>
<radialGradient id="paint3_radial_32_17519" cx="0" cy="0" r="1" gradientUnits="userSpaceOnUse" gradientTransform="translate(62.5455 46.3567) rotate(90.8253) scale(26.0331 3.74229)">
<stop stop-color="white"/>
<stop offset="0.9999" stop-color="#D9D9D9" stop-opacity="0.1"/>
<stop offset="1" stop-color="white" stop-opacity="0.1"/>
</radialGradient>
<radialGradient id="paint4_radial_32_17519" cx="0" cy="0" r="1" gradientUnits="userSpaceOnUse" gradientTransform="translate(62.5455 63.1062) rotate(90.8253) scale(26.0331 3.74229)">
<stop stop-color="white"/>
<stop offset="0.9999" stop-color="#D9D9D9" stop-opacity="0.1"/>
<stop offset="1" stop-color="white" stop-opacity="0.1"/>
</radialGradient>
<radialGradient id="paint5_radial_32_17519" cx="0" cy="0" r="1" gradientUnits="userSpaceOnUse" gradientTransform="translate(62.5455 79.8552) rotate(90.8253) scale(26.0331 3.74229)">
<stop stop-color="white"/>
<stop offset="0.9999" stop-color="#D9D9D9" stop-opacity="0.1"/>
<stop offset="1" stop-color="white" stop-opacity="0.1"/>
</radialGradient>
<clipPath id="clip0_32_17519">
<rect width="64" height="64" rx="10.6667" fill="white"/>
</clipPath>
<clipPath id="clip1_32_17519">
<rect x="2.67102" y="2.66626" width="58.6667" height="58.6641" rx="9.2798" fill="white"/>
</clipPath>
</defs>
</svg>
