<svg width="64" height="64" viewBox="0 0 64 64" fill="none" xmlns="http://www.w3.org/2000/svg">
<g clip-path="url(#clip0_32_17517)">
<rect width="64" height="64" rx="10.6667" fill="#16B364"/>
<g filter="url(#filter0_dd_32_17517)">
<g clip-path="url(#clip1_32_17517)">
<rect x="2.66479" y="2.66675" width="58.6667" height="58.6641" rx="9.2798" fill="#099250"/>
<rect opacity="0.8" x="14.6532" y="-0.834229" width="0.75" height="62.9992" fill="url(#paint0_radial_32_17517)"/>
<rect opacity="0.8" x="31.4028" y="-0.834229" width="0.75" height="62.9992" fill="url(#paint1_radial_32_17517)"/>
<rect opacity="0.8" x="48.1523" y="-0.834229" width="0.75" height="62.9992" fill="url(#paint2_radial_32_17517)"/>
<rect opacity="0.8" x="62.1643" y="14.8557" width="0.749967" height="63.002" transform="rotate(90 62.1643 14.8557)" fill="url(#paint3_radial_32_17517)"/>
<rect opacity="0.8" x="62.1643" y="31.6052" width="0.749967" height="63.002" transform="rotate(90 62.1643 31.6052)" fill="url(#paint4_radial_32_17517)"/>
<rect opacity="0.8" x="62.1643" y="48.3542" width="0.749967" height="63.002" transform="rotate(90 62.1643 48.3542)" fill="url(#paint5_radial_32_17517)"/>
</g>
<rect x="3.10229" y="3.10424" width="57.7917" height="57.7891" rx="8.84231" stroke="white" stroke-opacity="0.3" stroke-width="0.874981"/>
</g>
<path d="M20.7283 40.0861L21.7043 36.4433L25.347 37.4193" fill="white" fill-opacity="0.16"/>
<path d="M38.7935 26.5764L42.4362 27.5525L43.4122 23.9096" fill="white" fill-opacity="0.16"/>
<path d="M43.3409 33.1886C42.9705 36.6685 40.9988 39.9295 37.7362 41.8133C32.3157 44.943 25.3845 43.0857 22.2549 37.6649L21.9216 37.0875M20.7989 30.8071C21.1693 27.3272 23.141 24.0661 26.4035 22.1824C31.8241 19.0527 38.7553 20.91 41.8848 26.3308L42.2181 26.9082M20.7283 40.0861L21.7043 36.4433L25.347 37.4193M38.7935 26.5764L42.4362 27.5525L43.4122 23.9096" stroke="white" stroke-width="2.32722" stroke-linecap="round" stroke-linejoin="round"/>
</g>
<rect x="0.333326" y="0.333326" width="63.3333" height="63.3333" rx="10.3333" stroke="white" stroke-opacity="0.4" stroke-width="0.666652"/>
<defs>
<filter id="filter0_dd_32_17517" x="-0.763701" y="0.381084" width="65.5236" height="65.5211" filterUnits="userSpaceOnUse" color-interpolation-filters="sRGB">
<feFlood flood-opacity="0" result="BackgroundImageFix"/>
<feColorMatrix in="SourceAlpha" type="matrix" values="0 0 0 0 0 0 0 0 0 0 0 0 0 0 0 0 0 0 127 0" result="hardAlpha"/>
<feOffset dy="1.14283"/>
<feGaussianBlur stdDeviation="1.14283"/>
<feColorMatrix type="matrix" values="0 0 0 0 0.0627451 0 0 0 0 0.0941176 0 0 0 0 0.156863 0 0 0 0.06 0"/>
<feBlend mode="normal" in2="BackgroundImageFix" result="effect1_dropShadow_32_17517"/>
<feColorMatrix in="SourceAlpha" type="matrix" values="0 0 0 0 0 0 0 0 0 0 0 0 0 0 0 0 0 0 127 0" result="hardAlpha"/>
<feOffset dy="1.14283"/>
<feGaussianBlur stdDeviation="1.71425"/>
<feColorMatrix type="matrix" values="0 0 0 0 0.0627451 0 0 0 0 0.0941176 0 0 0 0 0.156863 0 0 0 0.1 0"/>
<feBlend mode="normal" in2="effect1_dropShadow_32_17517" result="effect2_dropShadow_32_17517"/>
<feBlend mode="normal" in="SourceGraphic" in2="effect2_dropShadow_32_17517" result="shape"/>
</filter>
<radialGradient id="paint0_radial_32_17517" cx="0" cy="0" r="1" gradientUnits="userSpaceOnUse" gradientTransform="translate(15.0282 30.6654) rotate(90.8254) scale(26.0319 3.74245)">
<stop stop-color="white"/>
<stop offset="0.9999" stop-color="#D9D9D9" stop-opacity="0.1"/>
<stop offset="1" stop-color="white" stop-opacity="0.1"/>
</radialGradient>
<radialGradient id="paint1_radial_32_17517" cx="0" cy="0" r="1" gradientUnits="userSpaceOnUse" gradientTransform="translate(31.7778 30.6654) rotate(90.8254) scale(26.0319 3.74245)">
<stop stop-color="white"/>
<stop offset="0.9999" stop-color="#D9D9D9" stop-opacity="0.1"/>
<stop offset="1" stop-color="white" stop-opacity="0.1"/>
</radialGradient>
<radialGradient id="paint2_radial_32_17517" cx="0" cy="0" r="1" gradientUnits="userSpaceOnUse" gradientTransform="translate(48.5273 30.6654) rotate(90.8254) scale(26.0319 3.74245)">
<stop stop-color="white"/>
<stop offset="0.9999" stop-color="#D9D9D9" stop-opacity="0.1"/>
<stop offset="1" stop-color="white" stop-opacity="0.1"/>
</radialGradient>
<radialGradient id="paint3_radial_32_17517" cx="0" cy="0" r="1" gradientUnits="userSpaceOnUse" gradientTransform="translate(62.5393 46.3567) rotate(90.8253) scale(26.0331 3.74229)">
<stop stop-color="white"/>
<stop offset="0.9999" stop-color="#D9D9D9" stop-opacity="0.1"/>
<stop offset="1" stop-color="white" stop-opacity="0.1"/>
</radialGradient>
<radialGradient id="paint4_radial_32_17517" cx="0" cy="0" r="1" gradientUnits="userSpaceOnUse" gradientTransform="translate(62.5393 63.1062) rotate(90.8253) scale(26.0331 3.74229)">
<stop stop-color="white"/>
<stop offset="0.9999" stop-color="#D9D9D9" stop-opacity="0.1"/>
<stop offset="1" stop-color="white" stop-opacity="0.1"/>
</radialGradient>
<radialGradient id="paint5_radial_32_17517" cx="0" cy="0" r="1" gradientUnits="userSpaceOnUse" gradientTransform="translate(62.5393 79.8552) rotate(90.8253) scale(26.0331 3.74229)">
<stop stop-color="white"/>
<stop offset="0.9999" stop-color="#D9D9D9" stop-opacity="0.1"/>
<stop offset="1" stop-color="white" stop-opacity="0.1"/>
</radialGradient>
<clipPath id="clip0_32_17517">
<rect width="64" height="64" rx="10.6667" fill="white"/>
</clipPath>
<clipPath id="clip1_32_17517">
<rect x="2.66479" y="2.66675" width="58.6667" height="58.6641" rx="9.2798" fill="white"/>
</clipPath>
</defs>
</svg>
