<svg width="50" height="50" viewBox="0 0 50 50" fill="none" xmlns="http://www.w3.org/2000/svg">
<path d="M27.9921 38.3531H34.3719C35.0148 38.3531 35.5094 37.8585 35.5094 37.2651V32.7151C35.5094 32.0722 35.0148 31.5776 34.3719 31.5776H27.9921C27.3492 31.5776 26.8546 32.0722 26.8546 32.7151V37.2651C26.8546 37.908 27.3492 38.3531 27.9921 38.3531ZM29.1296 36.1276V33.8526H33.2344V36.1276H29.1296Z" fill="currentColor"/>
<path d="M7.61622 38.5015H11.6222C12.2651 38.5015 12.7596 38.0069 12.7596 37.4134C12.7596 36.82 12.2651 36.2759 11.6222 36.2759H7.61622C6.97329 36.2759 6.47873 36.7705 6.47873 37.364C6.47873 37.9574 6.97329 38.5015 7.61622 38.5015Z" fill="currentColor"/>
<path d="M11.1771 5.7616C9.39664 5.7616 7.91296 7.24528 7.91296 8.97624V13.6251H3.26409C1.48368 13.6251 0 15.1088 0 16.8397V41.0237C0 42.8041 1.43422 44.2384 3.26409 44.2384H38.7735C40.5539 44.2384 42.0376 42.7547 42.0376 41.0237V36.3749H46.7359C48.5163 36.3749 50 34.9406 50 33.1602V8.97624C50 7.19582 48.5658 5.7616 46.7854 5.7616H11.1771ZM2.27498 28.3135H39.7626V41.0732C39.7626 41.6172 39.3175 42.0623 38.7735 42.0623H3.26409C2.72008 42.0623 2.27498 41.6666 2.27498 41.0732V28.3135ZM39.7626 23.2196V26.088H2.27498V23.2196H39.7626ZM3.26409 15.8506H38.7735C39.3175 15.8506 39.7626 16.2463 39.7626 16.8397V20.9446H2.27498V16.8397C2.27498 16.2957 2.72008 15.8506 3.26409 15.8506ZM41.9387 16.2463C41.6914 15.0099 40.6528 14.0207 39.4164 13.724C39.2186 13.724 39.0208 13.6746 38.7735 13.6746H10.1879V8.97624C10.1879 8.43222 10.633 7.98712 11.1771 7.98712H46.6865C47.2305 7.98712 47.6756 8.38276 47.6756 8.97624V33.1602C47.6756 33.7042 47.2305 34.1493 46.6865 34.1493H41.9881V16.8892C41.9881 16.6914 41.9881 16.4441 41.9387 16.2463Z" fill="currentColor"/>
<path d="M7.66568 34.545H16.9139C17.5569 34.545 18.0514 34.0504 18.0514 33.4075C18.0514 32.7646 17.5569 32.3195 16.9139 32.3195H7.66568C7.02275 32.3195 6.52819 32.814 6.52819 33.4569C6.52819 34.0999 7.02275 34.545 7.66568 34.545Z" fill="currentColor"/>
</svg>
