<svg width="50" height="50" viewBox="0 0 50 50" fill="none" xmlns="http://www.w3.org/2000/svg">
<path d="M5.68001 5C4.24721 5 2.88833 5.40368 1.82511 6.17125C0.767569 6.93882 0 8.14987 0 9.54856V20.3457C0 21.7728 0.767569 23.0237 1.81374 23.9334C2.85422 24.8431 4.21879 25.4628 5.68569 25.4628H7.3914V33.4228C7.40277 34.0482 7.91449 34.5542 8.5456 34.5429C8.88674 34.5429 9.20514 34.3837 9.41551 34.1164C9.41551 34.1108 9.42688 34.1051 9.43257 34.0994C9.43257 34.0937 9.44394 34.0766 9.44963 34.0653C9.45531 34.0596 9.461 34.0539 9.46668 34.0482C9.46668 34.0425 9.48374 34.0539 9.48374 34.0482C9.5406 33.9857 9.62588 33.889 9.73391 33.7639C9.94997 33.5138 10.2513 33.1612 10.6209 32.7348C11.3657 31.882 12.3607 30.7448 13.3557 29.6077C15.1751 27.5324 16.6989 25.8096 16.9945 25.4685H17.0457V30.5856C17.0457 33.383 19.6782 35.7028 22.7257 35.7028H33.0055C33.3011 36.0439 34.8249 37.7667 36.6443 39.8419C37.6393 40.9791 38.6343 42.1162 39.3791 42.9691C39.7544 43.3955 40.05 43.748 40.2661 43.9982C40.3741 44.1233 40.4594 44.2199 40.5163 44.2825C40.5163 44.2882 40.5333 44.2768 40.5333 44.2825C40.539 44.2882 40.5447 44.2938 40.5504 44.2995C40.5617 44.3109 40.5617 44.3279 40.5674 44.3336C40.5674 44.3393 40.5845 44.3507 40.5845 44.3507C40.6186 44.3905 40.6527 44.4246 40.6925 44.4587C40.7209 44.4815 40.7494 44.5099 40.7835 44.5269C40.846 44.5724 40.9086 44.6179 40.9768 44.652C41.0109 44.6691 41.045 44.6918 41.0848 44.7032C41.227 44.7544 41.3748 44.7828 41.5283 44.7714C41.9149 44.7487 42.2618 44.5383 42.4494 44.2029C42.4665 44.1688 42.4892 44.1346 42.5006 44.0948C42.5176 44.0607 42.5404 44.0266 42.5517 43.9868C42.5688 43.9186 42.5802 43.8447 42.5859 43.7764C42.5915 43.7366 42.5972 43.6912 42.6029 43.6514V35.6914H44.3086C45.7755 35.6914 47.1401 35.0773 48.1806 34.1619C49.2211 33.2465 49.9943 32.0014 49.9943 30.5743V19.7771C49.9943 18.3784 49.2267 17.1674 48.1635 16.3998C47.1003 15.6322 45.7471 15.2286 44.3086 15.2286H32.9429V9.54856C32.9429 8.14987 32.1753 6.93882 31.1121 6.17125C30.0489 5.40368 28.7071 5 27.2743 5H5.68001ZM5.68001 7.27428H27.2686C28.2636 7.27428 29.1847 7.56425 29.7874 8.00205C30.39 8.43985 30.6743 8.95724 30.6743 9.54856V15.2343H22.72C21.2872 15.2343 19.9284 15.6379 18.8651 16.4055C17.8019 17.1731 17.0343 18.3841 17.0343 19.7828V23.1942H16.4658C16.1417 23.1942 15.829 23.325 15.6129 23.5695C15.6129 23.5695 13.6229 25.8438 11.6386 28.118C10.9165 28.9425 10.2797 29.6759 9.64862 30.3923V24.337C9.64862 23.7116 9.1426 23.1999 8.51149 23.1999H5.66864C4.86127 23.1999 3.95156 22.8019 3.29202 22.222C2.62679 21.642 2.26291 20.9199 2.26291 20.3571V9.54856C2.26291 8.95724 2.54151 8.44553 3.14987 8.00205C3.75824 7.55856 4.67933 7.27428 5.66864 7.27428H5.68001ZM22.7257 17.5028H44.3143C45.3093 17.5028 46.2304 17.7928 46.8331 18.2306C47.4358 18.6684 47.72 19.1858 47.72 19.7771V30.5743C47.72 31.1371 47.3562 31.8592 46.6909 32.4392C46.0257 33.0191 45.116 33.4171 44.3143 33.4171H41.4715C40.846 33.4171 40.3343 33.9288 40.3343 34.5542V40.6095C39.7089 39.8931 39.0664 39.1597 38.3443 38.3352C36.3543 36.0666 34.37 33.7867 34.37 33.7867C34.154 33.5479 33.8413 33.4114 33.5172 33.4114H22.72C20.912 33.4114 19.3086 31.7512 19.3086 30.5686V19.7714C19.3086 19.1801 19.5872 18.6684 20.1956 18.2249C20.804 17.7814 21.725 17.4972 22.7144 17.4972L22.7257 17.5028ZM26.0291 21.4828C25.4037 21.5113 24.9147 22.04 24.9431 22.6655C24.9716 23.2909 25.5003 23.7799 26.1258 23.7571C26.1258 23.7571 26.1315 23.7571 26.1371 23.7571H40.9086C41.534 23.7685 42.0514 23.2625 42.0628 22.637C42.0741 22.0116 41.5738 21.4942 40.9427 21.4828C40.9313 21.4828 40.9199 21.4828 40.9086 21.4828H26.1371C26.103 21.4828 26.0689 21.4828 26.0291 21.4828ZM26.0291 27.1685C25.4037 27.197 24.9147 27.7314 24.9488 28.3568C24.9829 28.9823 25.5117 29.4712 26.1371 29.4428H40.9086C41.534 29.4542 42.0514 28.9481 42.0628 28.3227C42.0741 27.6973 41.5681 27.1799 40.9427 27.1685C40.9313 27.1685 40.9199 27.1685 40.9086 27.1685H26.1371C26.103 27.1685 26.0689 27.1685 26.0291 27.1685Z" fill="currentColor"/>
</svg>
