<svg width="50" height="50" viewBox="0 0 50 50" fill="none" xmlns="http://www.w3.org/2000/svg">
<path d="M26.3885 24.4328V8.369C26.3885 7.6038 25.7625 6.97775 24.9974 6.97775C24.2322 6.97775 23.6062 7.6038 23.6062 8.369V25.0053C23.6062 25.3745 23.756 25.7224 24.0182 25.9846L31.8512 33.8185C32.3917 34.359 33.2745 34.359 33.8149 33.8185C34.3553 33.278 34.3553 32.3951 33.8149 31.8546L26.3885 24.4328Z" fill="currentColor"/>
<path d="M24.9973 0C11.2145 0 0 11.2157 0 25.0054C0 38.795 11.2145 50 24.9973 50C38.7801 50 50 38.7842 50 25.0054C50 11.2264 38.7801 0 24.9973 0ZM24.9973 47.2228C12.7501 47.2228 2.78223 37.2538 2.78223 25.0054C2.78223 12.7569 12.7501 2.78788 24.9973 2.78788C37.2445 2.78788 47.2178 12.7569 47.2178 25.0054C47.2178 37.2538 37.2498 47.2228 24.9973 47.2228Z" fill="currentColor"/>
</svg>
