<svg width="50" height="50" viewBox="0 0 50 50" fill="none" xmlns="http://www.w3.org/2000/svg">
<path d="M47.9853 18.023C47.9853 18.023 47.9606 17.9933 47.9507 17.9834C46.8369 16.5182 45.3668 15.3945 43.6788 14.7263C43.5501 13.1522 42.867 11.6721 41.7483 10.5435C40.4861 9.27137 38.813 8.57341 37.031 8.57341C36.3132 8.57341 35.6004 8.69221 34.9074 8.92486C34.7094 8.98921 34.5114 9.06841 34.3184 9.15751C33.3383 7.30126 31.9028 5.69251 30.1604 4.49956C28.0121 3.02941 25.5024 2.25226 22.8987 2.25226C19.4436 2.25226 16.1964 3.60856 13.7462 6.07366C11.6276 8.21701 10.3059 11.0385 10.0188 14.0333H9.94456C7.30126 14.0333 4.80645 15.0777 2.9205 16.9785C1.03455 18.8793 0 21.3939 0 24.062C0 26.73 1.0395 29.2496 2.9205 31.1454C4.80645 33.0462 7.30126 34.0956 9.94456 34.0956H10.1327L10.1624 35.1945C10.1624 35.1945 10.1624 35.2341 10.1723 35.2539C10.2812 35.6598 10.598 35.9964 10.9989 36.1202L13.0334 36.7785C13.1225 37.0508 13.2215 37.3131 13.3205 37.5606L13.3452 37.62C13.4591 37.8972 13.5828 38.1695 13.7165 38.4417L12.7809 40.2782C12.479 40.7831 12.5582 41.4216 12.969 41.8325L16.0281 44.9164L16.2756 45.0995C16.6518 45.3123 17.1023 45.3173 17.4735 45.1193L19.3694 44.1342C19.6466 44.2728 19.9188 44.4015 20.1812 44.5055C20.4534 44.6193 20.7306 44.7233 21.0177 44.8173L21.6365 46.7677C21.7701 47.3468 22.275 47.7478 22.8641 47.7478L27.4181 47.7082C27.4181 47.7082 27.4626 47.7081 27.4874 47.6982C27.8982 47.5794 28.22 47.2627 28.3437 46.8617L28.9971 44.8074C29.2991 44.7035 29.5812 44.5995 29.8287 44.4956L30.002 44.4213C30.2148 44.3273 30.4326 44.2283 30.6405 44.1243L32.4621 45.0698C32.9621 45.3717 33.5957 45.2926 34.0065 44.8768L37.0607 41.7929L37.2389 41.5404C37.4418 41.1692 37.4517 40.7187 37.2587 40.3376L36.2835 38.4219C36.4221 38.1398 36.5459 37.8675 36.6548 37.6052C36.7637 37.3478 36.8676 37.0656 36.9666 36.7587L38.8971 36.135C39.4713 36.0014 39.8723 35.4915 39.8723 34.8975V34.0857H40.0554C42.6987 34.0857 45.1935 33.0363 47.0795 31.1355C48.9654 29.2347 50 26.7201 50 24.0521C50 21.8592 49.307 19.7802 47.9903 18.0279L47.9853 18.023ZM33.759 37.7933C33.5363 38.1893 33.5363 38.6694 33.759 39.0407L34.5956 40.689L32.8631 42.4364L31.1999 41.5701C30.9771 41.4513 30.7346 41.4068 30.492 41.4315C30.4673 41.4315 30.4425 41.4414 30.4178 41.4513C30.4178 41.4513 29.309 41.9612 28.9377 42.1196L28.8536 42.1542C28.4526 42.3225 28.0517 42.4611 27.6507 42.57C27.2349 42.6888 26.9132 43.0007 26.7845 43.4016L26.2152 45.1985H23.7699L23.2007 43.4016C23.067 42.9759 22.7156 42.6542 22.2998 42.5552C21.9236 42.4512 21.5325 42.3176 21.1316 42.1493C20.7801 42.0057 20.399 41.8176 20.003 41.5899C19.6119 41.3622 19.1268 41.3672 18.7605 41.585L17.132 42.4314L15.3995 40.6841L16.2558 39.0011C16.3647 38.7932 16.4142 38.5506 16.3944 38.2982C16.3944 38.2685 16.3845 38.2437 16.3746 38.214C16.3746 38.214 15.84 37.0359 15.6816 36.6548L15.6569 36.5954C15.5084 36.234 15.3747 35.838 15.2609 35.4272C15.152 35.0114 14.8451 34.6797 14.4342 34.551L12.6522 33.9768V31.5068L14.4342 30.9326C14.855 30.794 15.1767 30.4425 15.2708 30.0267C15.3747 29.6406 15.5133 29.2446 15.6767 28.8437C15.8202 28.4922 16.0083 28.1061 16.236 27.7052C16.4588 27.3092 16.4588 26.829 16.236 26.4578L15.3995 24.8193L17.132 23.072L18.7952 23.9382C19.0031 24.0521 19.2456 24.0966 19.4931 24.0768C19.5228 24.0768 19.5476 24.0669 19.5773 24.057C19.5773 24.057 20.691 23.5472 21.0573 23.3888L21.1415 23.3541C21.5424 23.1858 21.9434 23.0472 22.3394 22.9383C22.7552 22.8294 23.0769 22.5176 23.2056 22.1067L23.7749 20.3099H26.2202L26.7894 22.1117C26.928 22.5374 27.2745 22.8591 27.6903 22.9532C28.0715 23.0571 28.4675 23.1957 28.8635 23.3591C29.2149 23.5026 29.5961 23.6907 29.9921 23.9184C30.3831 24.1461 30.8633 24.1412 31.2345 23.9234L32.8631 23.0819L34.5956 24.8292L33.7392 26.5122C33.6303 26.7201 33.5808 26.9627 33.6006 27.2151C33.6006 27.2448 33.6105 27.2696 33.6204 27.2993C33.6254 27.3092 34.16 28.4823 34.3184 28.8783C34.4768 29.2595 34.6154 29.6654 34.7342 30.0861C34.848 30.5019 35.1599 30.8286 35.5608 30.9573L37.3428 31.5315V34.0016L35.5608 34.5758C35.1648 34.7045 34.8579 35.0213 34.7441 35.4173C34.7342 35.4371 34.7243 35.4519 34.7193 35.4767C34.6203 35.8479 34.4867 36.2439 34.3134 36.6597C34.1699 37.0161 33.9818 37.3973 33.7541 37.7982L33.759 37.7933ZM37.2191 25.2252C37.521 24.7203 37.4418 24.0818 37.031 23.6709L33.9719 20.5871L33.7244 20.4039C33.3531 20.196 32.9076 20.1861 32.5265 20.3841L30.6306 21.3692C30.3584 21.2306 30.0812 21.1068 29.8188 20.9979C29.5466 20.8841 29.2694 20.7801 28.9922 20.6861L28.3734 18.7358C28.2398 18.1566 27.7349 17.7557 27.1409 17.7557L22.5869 17.7953C22.5869 17.7953 22.5423 17.7953 22.5225 17.8052C22.1166 17.9141 21.7899 18.2358 21.6612 18.6368L21.0078 20.6861C20.7158 20.7851 20.4386 20.894 20.1713 21.0029L19.998 21.0771C19.7802 21.1761 19.5674 21.2751 19.3644 21.3741L17.5527 20.4336C17.0478 20.1267 16.4093 20.2059 16.0034 20.6217L12.9492 23.7056L12.771 23.958C12.5681 24.3293 12.5582 24.7797 12.7512 25.1609L13.7264 27.0765C13.5878 27.3587 13.464 27.6309 13.3551 27.8982C13.2413 28.1804 13.1373 28.4576 13.0433 28.7397L11.1078 29.3634C10.5336 29.4971 10.1327 30.0069 10.1327 30.596V31.5662H9.94951C7.97941 31.5662 6.11821 30.7841 4.70745 29.3684C3.30165 27.9477 2.52945 26.0717 2.52945 24.0768C2.52945 22.082 3.30165 20.2109 4.70745 18.7853C6.11326 17.3696 7.97446 16.5875 9.94951 16.5875H11.2217C11.9147 16.5875 12.479 16.0182 12.479 15.3203C12.479 12.5136 13.563 9.87527 15.5282 7.88536C17.4933 5.90041 20.1119 4.80646 22.8987 4.80646C25.0025 4.80646 27.027 5.43016 28.7447 6.61321C30.4871 7.81111 31.8186 9.47926 32.5859 11.4395C32.6255 11.5335 32.675 11.6276 32.7542 11.7414C32.9571 12.0137 33.2541 12.1869 33.5907 12.2315C33.9224 12.276 34.254 12.1869 34.5213 11.984C34.8728 11.7117 35.2688 11.4989 35.7044 11.3553C36.1202 11.2118 36.5657 11.1375 37.026 11.1375C38.1348 11.1375 39.1793 11.5731 39.9614 12.3651C40.7484 13.1571 41.1791 14.2115 41.1791 15.3302V15.5282C41.1147 16.1469 41.4959 16.7211 42.0849 16.8894C43.6293 17.3349 45.0104 18.3002 45.9756 19.5971C46.9557 20.9039 47.4705 22.4582 47.4705 24.0917C47.4705 26.0816 46.6983 27.9576 45.2876 29.3832C43.8818 30.7989 42.0206 31.581 40.0455 31.581H39.8525L39.8228 30.3237C39.8228 30.3237 39.8228 30.2841 39.8129 30.2643C39.6941 29.8485 39.3822 29.5268 38.9813 29.3981L36.9468 28.7397C36.8478 28.4427 36.7439 28.1606 36.635 27.8982C36.5261 27.6309 36.4023 27.3587 36.2637 27.0765L37.2092 25.2252H37.2191Z" fill="currentColor"/>
<path d="M25.0025 25.8539C23.171 25.8539 21.4583 26.5716 20.1713 27.8735C18.8793 29.1753 18.1665 30.9078 18.1665 32.7443C18.1665 34.5807 18.8793 36.3182 20.1713 37.6151C21.4632 38.9169 23.1809 39.6347 25.0025 39.6347C26.8241 39.6347 28.5467 38.9169 29.8337 37.6151C31.1256 36.3083 31.8335 34.5758 31.8335 32.7443C31.8335 30.9128 31.1207 29.1704 29.8287 27.8735C28.5318 26.5716 26.8142 25.8539 24.9975 25.8539H25.0025ZM29.3139 32.7492C29.3139 33.9125 28.8635 35.0064 28.0467 35.8281C27.23 36.6498 26.1459 37.1052 24.9975 37.1052C23.8491 37.1052 22.7651 36.6498 21.9483 35.8281C21.1316 35.0015 20.6811 33.9075 20.6811 32.7492C20.6811 31.5909 21.1316 30.492 21.9483 29.6703C22.7651 28.8486 23.8491 28.3932 24.9975 28.3932C26.1459 28.3932 27.2349 28.8486 28.0467 29.6703C28.8635 30.5019 29.3139 31.5959 29.3139 32.7492Z" fill="currentColor"/>
</svg>
