<?xml version="1.0" encoding="UTF-8"?>
<svg width="26px" height="26px" viewBox="0 0 26 26" version="1.1" xmlns="http://www.w3.org/2000/svg" xmlns:xlink="http://www.w3.org/1999/xlink">
    <title>C0C649FC-7981-4377-9734-36B9D122C5D4</title>
    <g id="V4a-2022" stroke="none" stroke-width="1" fill="none" fill-rule="evenodd">
        <g id="SFC---Dev" transform="translate(-343.000000, -2535.000000)">
            <g id="Comp-/-v4a-/-IMG-+-Copy-Extended-Copy" transform="translate(0.000000, 2158.000000)">
                <g id="Group-29" transform="translate(340.000000, 80.000000)">
                    <g id="Comp-v4a-/-Copy-cluster-MAIN" transform="translate(0.000000, 67.000000)">
                        <g id="Group" transform="translate(0.000000, 227.000000)">
                            <g id="CheckCircle" transform="translate(4.000000, 4.000000)">
                                <path d="M12,23.99995 C18.6274,23.99995 24,18.62745 24,11.99995 C24,5.37255 18.6274,0 12,0 C5.37258,0 0,5.37255 0,11.99995 C0,18.62745 5.37258,23.99995 12,23.99995 Z" id="Path" fill="#482DEB" fill-rule="nonzero" opacity="0.2"></path>
                                <path d="M12,23.99995 C18.6274,23.99995 24,18.62745 24,11.99995 C24,5.37255 18.6274,0 12,0 C5.37258,0 0,5.37255 0,11.99995 C0,18.62745 5.37258,23.99995 12,23.99995 Z M17.5,8.99995 L10.1625,15.99995 L6.5,12.49995" id="Path-2" stroke="#482DEB" stroke-width="2" stroke-linecap="round" stroke-linejoin="round"></path>
                            </g>
                        </g>
                    </g>
                </g>
            </g>
        </g>
    </g>
</svg>