<svg width="50" height="50" viewBox="0 0 50 50" fill="none" xmlns="http://www.w3.org/2000/svg">
<path d="M48.8166 0H13.5602C12.8698 0 12.3274 0.542406 12.3274 1.23274V26.3807H1.23274C0.542406 26.3807 0 26.9231 0 27.6134V48.7673C0 49.4576 0.542406 50 1.23274 50H22.3866C23.0769 50 23.6193 49.4576 23.6193 48.7673V37.6726H48.7673C49.4576 37.6726 50 37.1302 50 36.4398V1.23274C50 0.542406 49.4576 0 48.7673 0H48.8166ZM13.5602 37.7219H21.1045V47.5345H2.51479V28.8955H12.3274V36.4398C12.3274 37.1302 12.8698 37.6726 13.5602 37.6726V37.7219ZM47.5345 2.51479V35.2564H14.8422V2.51479H47.5838H47.5345Z" fill="currentColor"/>
<path d="M17.5049 33.2347C17.6529 33.284 17.8008 33.3333 17.998 33.3333H25.4931C26.1834 33.3333 26.7258 32.7909 26.7258 32.1006C26.7258 31.4103 26.1834 30.8678 25.4931 30.8678H21.0552L28.8955 23.0276C29.142 22.7811 29.2406 22.4852 29.2406 22.14C29.2406 21.7949 29.0927 21.499 28.8955 21.2525C28.4024 20.7594 27.6134 20.7594 27.1203 21.2525L19.2801 29.0927V24.6548C19.2801 24.2604 19.1322 23.9645 18.8856 23.718C18.6391 23.5207 18.3432 23.4221 18.0473 23.4221C17.7515 23.4221 17.4556 23.5207 17.2091 23.718C16.9625 23.9645 16.8146 24.2604 16.8146 24.6548V32.1499C16.8146 32.643 17.1105 33.1361 17.6035 33.284L17.5049 33.2347Z" fill="currentColor"/>
<path d="M34.4675 16.8639H34.7633C35.0099 16.7653 35.2071 16.6667 35.355 16.5187L43.1953 8.6785V13.1164C43.1953 13.8067 43.7377 14.3491 44.428 14.3491C45.1183 14.3491 45.6607 13.8067 45.6607 13.1164V5.67061C45.6607 5.32544 45.5128 5.02959 45.3156 4.78304C45.1183 4.53649 44.7732 4.43787 44.4773 4.43787H36.9822C36.2919 4.43787 35.7495 4.98028 35.7495 5.67061C35.7495 6.36095 36.2919 6.90335 36.9822 6.90335H41.4201L33.5799 14.7436C33.2347 15.0888 33.0868 15.6312 33.3333 16.1243C33.5306 16.6174 33.9744 16.9132 34.4675 16.9132V16.8639Z" fill="currentColor"/>
</svg>
