<svg width="50" height="50" viewBox="0 0 50 50" fill="none" xmlns="http://www.w3.org/2000/svg">
<g clip-path="url(#clip0_18312_9548)">
<path d="M13.2709 24.3179C12.6158 24.3179 12.0837 24.8547 12.0837 25.5146C12.0837 26.1745 12.6158 26.7113 13.2709 26.7113H31.5665C32.2217 26.7113 32.7537 26.1745 32.7537 25.5146C32.7537 24.8547 32.2217 24.3179 31.5665 24.3179H13.2709Z" fill="currentColor"/>
<path d="M12.0837 18.8417C12.0837 19.5016 12.6158 20.0384 13.2709 20.0384H31.5665C32.2217 20.0384 32.7537 19.5016 32.7537 18.8417C32.7537 18.1818 32.2217 17.65 31.5665 17.65H13.2709C12.6158 17.65 12.0837 18.1867 12.0837 18.8417Z" fill="currentColor"/>
<path d="M13.266 13.3704H25.1921C25.8473 13.3704 26.3793 12.8336 26.3793 12.1737C26.3793 11.5138 25.8473 10.9771 25.1921 10.9771H13.2709C12.7488 10.9771 12.3005 11.3119 12.1429 11.8044H12.0788V12.1737C12.0788 12.8336 12.6108 13.3704 13.266 13.3704Z" fill="currentColor"/>
<path d="M47.2512 30.986H39.1626V7.8352C39.1626 5.88997 37.5911 4.30915 35.6552 4.30915H33.4926V3.53106C33.4926 1.64984 32.0296 0.103498 30.1626 0.00500488H3.50246C1.57143 0.00500488 0 1.59074 0 3.53598V42.165C0 44.1102 1.57143 45.6959 3.50739 45.6959H5.66995V46.474C5.66995 48.4193 7.24138 50.005 9.17734 50.005H35.665C37.5961 50.005 39.1724 48.4242 39.1724 46.474V44.8243H47.2512C48.7685 44.8243 50.0049 43.5833 50.0049 42.0517V33.7635C50.0049 32.2369 48.7734 30.9909 47.2562 30.9909L47.2512 30.986ZM8.04434 7.8352C8.04434 7.20977 8.5468 6.70253 9.16749 6.70253H35.6601C36.2808 6.70253 36.7832 7.20977 36.7832 7.8352V30.9909H18.7783C17.2611 30.9909 16.0246 32.2319 16.0246 33.7635V42.0517C16.0246 43.5783 17.2611 44.8243 18.7783 44.8243H36.7832V46.5873C36.7192 47.1684 36.2365 47.6018 35.6552 47.6018H9.16749C8.5468 47.6018 8.04434 47.0945 8.04434 46.4691V7.8352ZM18.4089 33.7586C18.4089 33.5517 18.5764 33.3843 18.7783 33.3843H47.2463C47.4483 33.3843 47.6158 33.5567 47.6158 33.7586V42.0468C47.6158 42.2536 47.4483 42.421 47.2463 42.421H18.7783C18.5764 42.421 18.4089 42.2536 18.4089 42.0468V33.7586ZM31.1182 3.53106V4.30915H9.17241C7.24138 4.30915 5.66502 5.88997 5.66502 7.8352V43.2927H3.50246C2.88177 43.2927 2.37931 42.7855 2.37931 42.16V3.53106C2.37931 2.90563 2.88177 2.39839 3.50246 2.39839H29.9901C30.6108 2.39839 31.1182 2.90563 31.1182 3.53106Z" fill="currentColor"/>
</g>
<defs>
<clipPath id="clip0_18312_9548">
<rect width="50" height="50" fill="white"/>
</clipPath>
</defs>
</svg>
