<svg width="50" height="50" viewBox="0 0 50 50" fill="none" xmlns="http://www.w3.org/2000/svg">
<path d="M12.8073 29.7259L11.4368 31.0964L11.1532 30.8129C10.6806 30.3403 9.92448 30.3403 9.45189 30.8129C8.9793 31.2854 8.9793 32.0416 9.45189 32.5142L10.5388 33.6011C10.7751 33.8374 11.0587 33.9319 11.3895 33.9319C11.7203 33.9319 12.0039 33.7902 12.2402 33.6011L14.4613 31.38C14.9339 30.9074 14.9339 30.1512 14.4613 29.6786C13.9888 29.206 13.2326 29.206 12.76 29.6786L12.8073 29.7259Z" fill="currentColor"/>
<path d="M22.07 17.5331C22.7317 17.5331 23.2515 17.0132 23.2515 16.3516V11.8147C23.2515 11.1531 22.7317 10.6333 22.07 10.6333C21.4084 10.6333 20.8886 11.1531 20.8886 11.8147V16.3516C20.8886 17.0132 21.4084 17.5331 22.07 17.5331Z" fill="currentColor"/>
<path d="M12.8073 23.0151L11.4368 24.3856L11.1532 24.1021C10.6806 23.6295 9.92448 23.6295 9.45189 24.1021C8.9793 24.5747 8.9793 25.3308 9.45189 25.8034L10.5388 26.9376C10.7751 27.1739 11.0587 27.2684 11.3895 27.2684C11.7203 27.2684 12.0039 27.1267 12.2402 26.9376L14.4613 24.7164C14.6976 24.4802 14.7922 24.1966 14.7922 23.8658C14.7922 23.535 14.6504 23.2514 14.4613 23.0151C13.9888 22.5425 13.2326 22.5425 12.76 23.0151H12.8073Z" fill="currentColor"/>
<path d="M27.7411 17.5331C28.4027 17.5331 28.9226 17.0132 28.9226 16.3516V7.79773C28.9226 7.13611 28.4027 6.61626 27.7411 6.61626C27.0795 6.61626 26.5596 7.13611 26.5596 7.79773V16.3516C26.5596 17.0132 27.0795 17.5331 27.7411 17.5331Z" fill="currentColor"/>
<path d="M10.6806 17.5331C11.3423 17.5331 11.8621 17.0132 11.8621 16.3516V13.138C11.8621 12.4764 11.3423 11.9565 10.6806 11.9565C10.019 11.9565 9.49915 12.4764 9.49915 13.138V16.3516C9.49915 17.0132 10.019 17.5331 10.6806 17.5331Z" fill="currentColor"/>
<path d="M37.6182 24.9527V1.18147C37.6182 0.519849 37.0984 0 36.4368 0H2.22127C1.55964 0 1.03979 0.519849 1.03979 1.18147V39.8393C1.03979 40.5009 1.55964 41.0208 2.22127 41.0208H24.3385C25.898 46.3138 30.8602 50 36.3895 50C41.9188 50 48.9604 44.3762 48.9604 37.4291C48.9604 30.482 43.9982 25.5198 37.571 24.9055L37.6182 24.9527ZM16.399 31.6163C16.399 32.2779 16.9188 32.7977 17.5804 32.7977H24.7165C24.1022 34.2628 23.8186 35.8696 23.8186 37.4764C23.8186 39.0832 23.8186 38.2325 23.8659 38.6578H3.45V2.41021H35.2553V24.9527C31.5218 25.3308 28.1665 27.2684 26.0398 30.3875H17.6277C16.9661 30.3875 16.4462 30.9074 16.4462 31.569L16.399 31.6163ZM46.5975 37.4764C46.5975 43.1002 42.0133 47.6371 36.4368 47.6371C30.8602 47.6371 26.2761 43.0529 26.2761 37.4764C26.2761 31.8998 30.8602 27.3157 36.4368 27.3157C42.0133 27.3157 46.5975 31.8998 46.5975 37.4764Z" fill="currentColor"/>
<path d="M17.5804 16.3516V10.9168C17.5804 10.2552 17.0606 9.73535 16.399 9.73535C15.7373 9.73535 15.2175 10.2552 15.2175 10.9168V16.3516C15.2175 17.0132 15.7373 17.5331 16.399 17.5331C17.0606 17.5331 17.5804 17.0132 17.5804 16.3516Z" fill="currentColor"/>
<path d="M39.9812 33.6957L34.9717 38.7051L32.8923 36.6257C32.4198 36.1531 31.6636 36.1531 31.191 36.6257C30.7184 37.0983 30.7184 37.8544 31.191 38.327L34.1211 41.2571C34.3574 41.4934 34.6409 41.5879 34.9717 41.5879C35.3026 41.5879 35.5861 41.4461 35.8224 41.2098L41.6825 35.3497C42.1551 34.8771 42.1551 34.121 41.6825 33.6484C41.2099 33.1758 40.4538 33.1758 39.9812 33.6484V33.6957Z" fill="currentColor"/>
<path d="M28.9699 26.1815C29.6315 26.1815 30.1513 25.6616 30.1513 25C30.1513 24.3384 29.6315 23.8185 28.9699 23.8185H17.6277C16.9661 23.8185 16.4462 24.3384 16.4462 25C16.4462 25.6616 16.9661 26.1815 17.6277 26.1815H28.9699Z" fill="currentColor"/>
</svg>
