<svg width="50" height="50" viewBox="0 0 50 50" fill="none" xmlns="http://www.w3.org/2000/svg">
<g clip-path="url(#clip0_18312_9543)">
<path d="M25.1386 17.5169C28.3269 17.5169 30.9197 14.9053 30.9197 11.6982C30.9197 8.49116 28.3269 5.87957 25.1386 5.87957C21.9503 5.87957 19.3575 8.49116 19.3575 11.6982C19.3575 14.9053 21.9503 17.5169 25.1386 17.5169ZM21.6877 11.6982C21.6877 9.78055 23.235 8.22391 25.1386 8.22391C27.0422 8.22391 28.5895 9.78524 28.5895 11.6982C28.5895 13.6112 27.0422 15.1725 25.1386 15.1725C23.235 15.1725 21.6877 13.6112 21.6877 11.6982Z" fill="currentColor"/>
<path d="M47.5083 31.7986L43.5416 29.0182L44.4841 28.3571C44.9623 28.0195 45.2389 27.485 45.2389 26.8989C45.2389 26.3128 44.9623 25.7783 44.4841 25.4407L40.4237 22.5853L41.4833 21.8445C41.9334 21.5257 42.1913 21.024 42.1913 20.466C42.1913 19.9081 41.9287 19.4064 41.4739 19.0876L35.0739 14.5864C36.0585 14.4036 36.7712 13.5456 36.7712 12.5422V10.8683C36.7712 9.86026 36.0538 8.99754 35.0739 8.82406L34.4222 8.69278C34.2581 8.1864 34.0565 7.6894 33.8173 7.20178L34.183 6.66727C34.7504 5.84206 34.6519 4.72616 33.9486 4.00879L32.7764 2.83194C32.0638 2.11457 30.9526 2.01611 30.1367 2.59281L29.5881 2.96791C29.1427 2.73816 28.6598 2.53186 28.1206 2.349L28.0081 1.70665C27.8299 0.712656 26.9719 -0.00939941 25.9685 -0.00939941H24.3087C23.3053 -0.00939941 22.4473 0.707968 22.2738 1.69728L22.1472 2.35369C21.6502 2.51311 21.1673 2.71472 20.6703 2.96322L20.1405 2.59281C19.32 2.0208 18.2087 2.11926 17.4961 2.82725L16.3239 4.0041C15.6159 4.71678 15.5174 5.83738 16.0895 6.65789L16.4599 7.21116C16.2348 7.65189 16.0285 8.13951 15.841 8.68809L15.2033 8.80531C14.2187 8.98816 13.506 9.84619 13.506 10.8496V12.5234C13.506 13.5315 14.2234 14.3942 15.2033 14.5677L8.79857 19.0688C8.34846 19.3876 8.09059 19.8893 8.09059 20.4473C8.09059 21.0052 8.35315 21.5069 8.80795 21.8257L9.8629 22.5666L5.80251 25.4267C5.32427 25.7642 5.04764 26.2987 5.04764 26.8848C5.04764 27.4709 5.32427 28.0054 5.80251 28.343L6.74494 29.0041L2.79707 31.7845C2.2907 32.1408 2 32.7035 2 33.3224C2 33.9413 2.2907 34.5039 2.79707 34.8603L23.6195 49.4983C24.0743 49.8171 24.6041 49.9859 25.1527 49.9859C25.7012 49.9859 26.2311 49.8171 26.6859 49.4983L47.5129 34.8603C48.0193 34.5039 48.31 33.9413 48.31 33.3224C48.31 32.7035 48.0193 32.1455 47.5129 31.7892L47.5083 31.7986ZM18.0775 9.37263C18.2087 8.96472 18.3822 8.56149 18.5885 8.17702C18.9636 7.47841 18.9167 6.66727 18.4713 6.01555L18.1384 5.50917L19.0011 4.65583L19.4747 4.98404C20.1311 5.44353 20.9375 5.48573 21.6315 5.10594C22.0581 4.8762 22.5129 4.68865 22.9818 4.53861C23.7414 4.30418 24.2806 3.69934 24.4165 2.92571L24.5384 2.33494L25.7481 2.349L25.8513 2.92102C25.9919 3.70403 26.5264 4.30887 27.2907 4.5433C27.7549 4.68396 28.2097 4.87151 28.641 5.10594C29.3396 5.48573 30.1461 5.43884 30.7931 4.98873L31.2948 4.65583L32.1435 5.52323L31.8153 6.00148C31.3605 6.66258 31.3183 7.47372 31.6934 8.16765C31.9278 8.60369 32.1153 9.06318 32.256 9.52736C32.4904 10.2916 33.0906 10.8308 33.8642 10.9715L34.455 11.0934L34.4409 12.3124L33.8736 12.4156C33.0906 12.5562 32.4857 13.1001 32.2607 13.8644C32.1247 14.3192 31.9372 14.7787 31.7074 15.2241C31.3323 15.9227 31.3792 16.7339 31.8246 17.3856L32.1575 17.892L31.2948 18.7453L30.8213 18.4171C30.1695 17.9623 29.3631 17.9154 28.6645 18.2952C28.2519 18.5202 27.8018 18.7078 27.3141 18.8531C26.5546 19.0876 26.0154 19.6924 25.8794 20.466L25.7575 21.0568L24.5525 21.0427L24.4494 20.4707C24.3087 19.6924 23.7742 19.0829 23.0099 18.8484C22.5645 18.7125 22.1097 18.5249 21.6596 18.2905C20.9516 17.9107 20.1264 17.9717 19.5028 18.4077L19.0011 18.7406L18.1525 17.8732L18.4807 17.395C18.9355 16.7339 18.9824 15.9227 18.6026 15.2288C18.3822 14.8256 18.1947 14.3661 18.0399 13.8691C17.8055 13.1095 17.2054 12.5703 16.4364 12.4296L15.8503 12.3077L15.8644 11.0887L16.4317 10.9855C17.2101 10.8449 17.8102 10.3057 18.0446 9.54143L18.0962 9.37732H18.0915L18.0775 9.37263ZM15.9441 16.9167L15.7613 17.1793H15.8503C15.569 17.9295 15.7378 18.7969 16.3192 19.3876L17.4914 20.5645C18.2041 21.2819 19.3153 21.3803 20.1311 20.8036L20.6797 20.4285C21.1438 20.6676 21.6362 20.8786 22.1472 21.0521L22.2598 21.6945C22.4426 22.6838 23.2959 23.4011 24.2946 23.4011H25.9544C26.9578 23.4011 27.8158 22.6838 27.9893 21.6945L28.1159 21.0381C28.6129 20.8786 29.0958 20.677 29.5928 20.4285L30.1227 20.7989C30.9432 21.3709 32.0544 21.2725 32.7671 20.5645L33.9392 19.3876C34.6003 18.7218 34.7316 17.6997 34.2815 16.9026L39.3547 20.466L25.1292 30.467L10.8991 20.466L15.9441 16.9214V16.9167ZM11.8884 24.0154L23.8492 32.4221C24.6228 32.966 25.659 32.966 26.4327 32.4221L38.3935 24.0154L42.5008 26.8989L25.2183 39.0472C25.1714 39.0801 25.1339 39.0894 25.073 39.0472L24.9979 38.9957H24.9932L7.78113 26.8989L11.8884 24.0154ZM8.77044 30.4529L23.732 40.9696C24.5806 41.5651 25.7153 41.5651 26.5546 40.9696L41.5208 30.4482L45.6187 33.3317L25.3308 47.59C25.2042 47.6791 25.0683 47.6791 24.9417 47.59L4.66317 33.3364L8.77044 30.4482V30.4529Z" fill="currentColor"/>
</g>
<defs>
<clipPath id="clip0_18312_9543">
<rect width="50" height="50" fill="white"/>
</clipPath>
</defs>
</svg>
