<svg width="50" height="50" viewBox="0 0 50 50" fill="none" xmlns="http://www.w3.org/2000/svg">
<path d="M7.67717 24.6309H23.3268C23.9665 24.6309 24.4587 24.1388 24.4587 23.499C24.4587 22.8593 23.9665 22.3671 23.3268 22.3671H7.67717C7.0374 22.3671 6.54528 22.8593 6.54528 23.499C6.54528 24.1388 7.0374 24.6309 7.67717 24.6309Z" fill="currentColor"/>
<path d="M50 33.44C49.8524 32.062 48.7697 30.9301 47.3917 30.6841V29.2077C47.3917 24.6801 43.7008 20.94 39.124 20.94H38.7795C38.4842 20.94 38.1398 20.94 37.7953 20.94V19.2668C37.7953 17.3967 36.3189 15.9203 34.4488 15.8219V4.84746C34.4488 3.0758 32.9724 1.59943 31.1516 1.59943H10.187C8.36614 1.59943 6.88976 3.0758 6.88976 4.84746V10.0148H3.44488C1.52559 10.0148 0 11.5404 0 13.4597V38.4597C0 40.3297 1.52559 41.9045 3.44488 41.9045H26.9193V45.2018C26.9193 46.9734 28.3465 48.4006 30.1181 48.4006H46.752C48.5236 48.4006 49.9508 46.9734 49.9508 45.2018V33.44H50ZM35.7776 29.749C35.7776 28.3219 36.9587 27.1408 38.3858 27.1408H38.4842C39.9114 27.1408 41.0925 28.3219 41.0925 29.749V30.6349H35.7283V29.749H35.7776ZM43.4055 30.6349V29.749C43.4055 27.0423 41.1909 24.877 38.5335 24.877H38.435C35.7283 24.877 33.563 27.0423 33.563 29.749V30.6349H31.8898V29.2077C31.8898 25.9104 34.5965 23.2038 37.8937 23.2038H39.124C42.4213 23.2038 45.1279 25.9104 45.1279 29.2077V30.6349H43.4055ZM2.31299 13.5089C2.31299 12.8691 2.85433 12.3278 3.49409 12.3278H11.565C11.9094 12.3278 12.1555 12.4262 12.4016 12.6723L16.8307 17.1014C17.4705 17.7412 18.3071 18.0856 19.2421 18.0856H34.3012C34.9409 18.0856 35.4823 18.627 35.4823 19.2668V21.2845C31.9882 22.3179 29.5768 25.566 29.5768 29.2077V30.6841C28.0512 30.9301 26.9193 32.2589 26.9193 33.8337V39.69H3.49409C2.85433 39.69 2.31299 39.1486 2.31299 38.5089V13.5089ZM19.2421 15.8219C18.8976 15.8219 18.6516 15.7234 18.4055 15.4774L13.9764 11.0482C13.3366 10.4085 12.4508 10.064 11.5157 10.064H9.15354V4.84746C9.15354 4.30612 9.59646 3.86321 10.187 3.86321H31.1516C31.6929 3.86321 32.185 4.30612 32.185 4.84746V15.8219H19.2421ZM29.2323 33.8337C29.2323 33.3416 29.626 32.8986 30.1673 32.8986H46.8012C47.2933 32.8986 47.7362 33.2923 47.7362 33.8337V45.251C47.7362 45.7431 47.3425 46.186 46.8012 46.186H30.1673C29.6752 46.186 29.2323 45.7923 29.2323 45.251V33.8337Z" fill="currentColor"/>
<path d="M7.67717 35.8022H17.5197C18.1594 35.8022 18.6516 35.3101 18.6516 34.6703C18.6516 34.0305 18.1594 33.5384 17.5197 33.5384H7.67717C7.0374 33.5384 6.54528 34.0305 6.54528 34.6703C6.54528 35.3101 7.0374 35.8022 7.67717 35.8022Z" fill="currentColor"/>
<path d="M23.3268 30.2412C23.9665 30.2412 24.4587 29.749 24.4587 29.1093C24.4587 28.4695 24.1634 28.1742 23.6713 28.0266C23.6713 27.9774 7.62795 27.9774 7.62795 27.9774C6.98819 27.9774 6.49606 28.4695 6.49606 29.1093C6.49606 29.749 6.98819 30.2412 7.62795 30.2412H23.3268Z" fill="currentColor"/>
</svg>
