<svg width="50" height="50" viewBox="0 0 50 50" fill="none" xmlns="http://www.w3.org/2000/svg">
<path d="M7.90432 35.2766C7.90432 35.2766 7.86003 35.2717 7.83542 35.2717C4.0752 35.2717 1.01388 38.333 1.01388 42.0932C1.01388 45.8534 4.0752 48.9147 7.83542 48.9147C11.5956 48.9147 14.657 45.8583 14.657 42.0981C14.657 38.3379 11.635 35.311 7.90432 35.2766ZM7.83542 37.4569C10.3898 37.4569 12.4717 39.5388 12.4717 42.0932C12.4717 44.6476 10.3898 46.7295 7.83542 46.7295C5.28103 46.7295 3.19913 44.6476 3.19913 42.0932C3.19913 39.5388 5.28103 37.4569 7.83542 37.4569Z" fill="currentColor"/>
<path d="M42.4648 15.1762C46.225 15.1762 49.2863 12.1149 49.2863 8.35465C49.2863 4.59444 46.225 1.53311 42.4648 1.53311C38.7046 1.53311 35.6433 4.59444 35.6433 8.35465C35.6433 12.1149 38.7046 15.1762 42.4648 15.1762ZM37.8285 8.35465C37.8285 5.80026 39.9104 3.71837 42.4648 3.71837C45.0192 3.71837 47.1011 5.80026 47.1011 8.35465C47.1011 10.909 45.0192 12.9909 42.4648 12.9909C39.9104 12.9909 37.8285 10.909 37.8285 8.35465Z" fill="currentColor"/>
<path d="M47.864 14.8612C47.7458 14.5905 47.5293 14.3887 47.2537 14.2804C46.983 14.1771 46.6877 14.1869 46.4219 14.305C46.1561 14.4232 45.9494 14.6397 45.8411 14.9104C45.7378 15.1811 45.7476 15.4764 45.8657 15.7422C47.1651 18.6608 47.8246 21.7713 47.8246 24.9901C47.8246 37.575 37.5874 47.8123 25.0025 47.8123C21.5671 47.8123 18.2695 47.0691 15.1934 45.6024C14.9326 45.4744 14.6323 45.4597 14.3567 45.5581C14.086 45.6565 13.8646 45.8534 13.7317 46.1192C13.4807 46.6655 13.712 47.3152 14.2485 47.5711C17.6198 49.1805 21.2324 49.9975 24.9975 49.9975C38.7833 49.9975 50 38.7809 50 24.9951C50 21.4613 49.2814 18.0505 47.859 14.8563L47.864 14.8612Z" fill="currentColor"/>
<path d="M41.8102 11.2289C42.1006 11.2289 42.3762 11.1157 42.5829 10.909L45.7673 7.72466C46.1906 7.30139 46.1906 6.61235 45.7673 6.18416C45.5655 5.97745 45.2899 5.86425 44.9995 5.85932H44.9946C44.7042 5.85932 44.4286 5.97252 44.2219 6.17924L41.8053 8.59581L40.7077 7.49826C40.2943 7.08484 39.5807 7.08484 39.1672 7.49826C38.744 7.92153 38.744 8.6155 39.1672 9.03877L41.0326 10.9041C41.2344 11.1108 41.51 11.224 41.8004 11.2289H41.8102Z" fill="currentColor"/>
<path d="M4.53785 42.7773L6.40319 44.6427C6.60498 44.8494 6.8806 44.9626 7.17098 44.9675H7.1759C7.46629 44.9675 7.7419 44.8543 7.94862 44.6476L11.133 41.4632C11.3397 41.2614 11.4578 40.9858 11.4578 40.6954C11.4578 40.4001 11.3446 40.1245 11.1379 39.9227C10.9361 39.716 10.6605 39.5979 10.3701 39.5979H10.3652C10.0748 39.5979 9.79919 39.7111 9.59248 39.9178L7.1759 42.3344L6.07835 41.2368C5.87656 41.0301 5.60095 40.912 5.31056 40.912H5.30564C5.01526 40.912 4.73964 41.0252 4.53785 41.2319C4.33114 41.4337 4.21301 41.7093 4.21301 41.9997C4.21301 42.295 4.32621 42.5706 4.53293 42.7773H4.53785Z" fill="currentColor"/>
<path d="M38.9605 28.5633C40.1024 28.5633 41.0326 27.6331 41.0326 26.4913V23.5038C41.0326 22.3619 40.1024 21.4317 38.9605 21.4317C37.8187 21.4317 37.1887 20.723 36.918 20.0635C36.6424 19.399 36.6276 18.4196 37.3954 17.6469C38.2026 16.8397 38.2026 15.5256 37.3954 14.7185L35.284 12.607C34.4768 11.7999 33.1627 11.7999 32.3555 12.607C31.5828 13.3797 30.6034 13.3601 29.939 13.0844C29.2795 12.8088 28.5707 12.1296 28.5707 11.0419C28.5707 9.95422 27.6405 8.96987 26.4987 8.96987H23.5112C22.3693 8.96987 21.4391 9.90008 21.4391 11.0419C21.4391 12.1838 20.7304 12.8137 20.0709 13.0844C19.4064 13.3601 18.427 13.3797 17.6543 12.607C16.8471 11.7999 15.5281 11.7999 14.7209 12.607L12.6095 14.7234C11.8023 15.5306 11.8023 16.8447 12.6095 17.6518C13.3822 18.4245 13.3625 19.404 13.0869 20.0684C12.8113 20.7279 12.1321 21.4366 11.0444 21.4366C9.95669 21.4366 8.97234 22.3669 8.97234 23.5087V26.4962C8.97234 27.638 9.90255 28.5683 11.0444 28.5683C12.1862 28.5683 12.8162 29.277 13.0869 29.9365C13.3625 30.6009 13.3773 31.5804 12.6095 32.3531C11.8023 33.1602 11.8023 34.4793 12.6095 35.2864L14.7209 37.3979C15.1147 37.7916 15.6315 38.0032 16.1876 38.0032C16.7438 38.0032 17.2655 37.7867 17.6543 37.3979C18.427 36.6251 19.4064 36.6448 20.0709 36.9205C20.7304 37.1961 21.4391 37.8753 21.4391 38.963C21.4391 40.0507 22.3693 41.035 23.5112 41.035H26.4987C27.6405 41.035 28.5707 40.1048 28.5707 38.963C28.5707 37.8211 29.2795 37.1911 29.939 36.9205C30.5985 36.6448 31.5828 36.6301 32.3555 37.3979C32.7444 37.7916 33.2661 38.0032 33.8222 38.0032C34.3784 38.0032 34.8952 37.7867 35.2889 37.3979L37.4003 35.2864C38.2075 34.4793 38.2075 33.1602 37.4003 32.3531C36.6276 31.5804 36.6473 30.6009 36.9229 29.9365C37.1985 29.277 37.8777 28.5683 38.9655 28.5683L38.9605 28.5633ZM15.0999 29.0949C14.4207 27.451 12.9147 26.4224 11.1478 26.3781V23.6071C12.9097 23.5678 14.4158 22.5342 15.0999 20.8903C15.7791 19.2465 15.4444 17.45 14.2238 16.1753L16.1827 14.2164C17.4623 15.437 19.2588 15.7717 20.9026 15.0925C22.5416 14.4133 23.5752 12.9073 23.6145 11.1404H26.3855C26.4248 12.9023 27.4584 14.4084 29.1023 15.0925C30.7412 15.7717 32.5426 15.437 33.8173 14.2164L35.7762 16.1753C34.5556 17.455 34.2209 19.2514 34.9001 20.8953C35.5793 22.5342 37.0853 23.5678 38.8523 23.6071V26.3781C37.0903 26.4175 35.5842 27.451 34.9001 29.0949C34.2209 30.7387 34.5556 32.5352 35.7762 33.8099L33.8173 35.7688C32.5377 34.5482 30.7412 34.2135 29.1023 34.8927C27.4633 35.5719 26.4298 37.0829 26.3855 38.8498H23.6145C23.5752 37.0878 22.5416 35.5817 20.8977 34.8976C19.2539 34.2184 17.4574 34.5531 16.1827 35.7737L14.2238 33.8148C15.4444 32.5401 15.7791 30.7437 15.0999 29.0998V29.0949Z" fill="currentColor"/>
<path d="M25.0025 33.5343C29.7126 33.5343 33.5417 29.7052 33.5417 24.9951C33.5417 20.285 29.7126 16.4558 25.0025 16.4558C20.2924 16.4558 16.4632 20.285 16.4632 24.9951C16.4632 29.7052 20.2924 33.5343 25.0025 33.5343ZM18.6485 24.9951C18.6485 21.4908 21.4982 18.6411 25.0025 18.6411C28.5067 18.6411 31.3564 21.4908 31.3564 24.9951C31.3564 28.4993 28.5067 31.349 25.0025 31.349C21.4982 31.349 18.6485 28.4993 18.6485 24.9951Z" fill="currentColor"/>
<path d="M3.37139 36.2905C3.52889 36.2905 3.69131 36.256 3.84388 36.1871C4.38035 35.9263 4.61167 35.2766 4.36067 34.7352C2.91367 31.6689 2.18033 28.3911 2.18033 25C2.18033 18.9069 4.55754 13.178 8.86898 8.86651C13.1804 4.55506 18.9093 2.18278 24.9975 2.18278H25.0074C28.615 2.18278 32.0602 2.99979 35.2545 4.6092C35.5153 4.74209 35.8106 4.76177 36.0862 4.67318C36.3618 4.57967 36.5882 4.38772 36.7211 4.12687C36.854 3.86602 36.8737 3.57071 36.7802 3.2951C36.6867 3.01948 36.4947 2.79308 36.2339 2.66511C32.7296 0.898206 28.9497 0.00244788 24.9975 0.00244788C11.2167 -0.00739561 0 11.2093 0 24.9951C0 28.7208 0.802244 32.3088 2.38705 35.6654C2.57899 36.0591 2.96289 36.2905 3.37139 36.2905Z" fill="currentColor"/>
</svg>
