<svg width="50" height="50" viewBox="0 0 50 50" fill="none" xmlns="http://www.w3.org/2000/svg">
<path d="M43.2843 22.6777C43.0392 22.4816 42.7451 22.3345 42.451 22.3836C42.1569 22.3836 41.8627 22.5306 41.6176 22.7757L41.1275 23.3149C40.6863 19.1973 38.6765 15.3738 35.4902 12.6777C32.2059 9.88357 27.9902 8.56004 23.6765 8.90318C19.3627 9.24631 15.4412 11.3051 12.6471 14.5895C8.13725 19.9326 7.54902 27.5796 11.1765 33.56C11.1765 33.6091 11.2255 33.6581 11.2745 33.7071C12.1569 35.1287 13.2353 36.4032 14.5588 37.4816C17.5 39.9326 21.2255 41.3051 25.049 41.3051C28.8725 41.3051 34.3627 39.1973 37.451 35.5698C37.6471 35.3247 37.7451 35.0306 37.7451 34.6875C37.7451 34.3934 37.549 34.0993 37.3039 33.8542C36.8137 33.413 36.0294 33.511 35.6373 34.0012C33.2353 36.8444 29.902 38.56 26.2255 38.8542C22.549 39.1483 18.9706 38.0208 16.1275 35.6189C15.2451 34.8836 14.4608 34.0502 13.8235 33.1189L18.5784 28.2169C19.0686 27.6777 20 27.6777 20.4902 28.2169H20.5392C21.2255 28.9522 22.1569 29.2953 23.1373 29.2953C24.1176 29.2953 25.098 28.9032 25.7843 28.2169L30.2451 23.7071C31.0294 22.9228 31.0294 21.5993 30.2451 20.8149L29.4118 19.9326H32.1078C32.1569 19.9326 32.2059 19.9326 32.2059 19.9816C32.2059 19.9816 32.2059 19.9816 32.2059 20.0796V23.1679C31.8627 23.1679 31.5196 23.2659 31.2745 23.511C31.0294 23.7561 30.9314 24.0502 30.9314 24.3444C30.9314 24.6385 31.0294 24.9816 31.2745 25.1777L31.5686 25.4718C32.0588 26.011 32.8431 26.1581 33.5294 25.864C34.2157 25.5698 34.6569 24.9326 34.6569 24.1973V20.1287C34.6569 19.4424 34.4118 18.8051 33.9216 18.3149C33.4314 17.8247 32.7941 17.5796 32.1078 17.5796H28.0392C27.3039 17.5796 26.6667 18.0208 26.3725 18.7071C26.0784 19.3934 26.2255 20.1287 26.7647 20.6679L28.3333 22.2855L24.0686 26.5502C23.5784 27.0404 22.6471 27.0404 22.1569 26.5502H22.1078C21.4216 25.8149 20.4902 25.4718 19.5098 25.4718C18.4804 25.4718 17.549 25.864 16.8627 26.5993L12.549 31.011C10.1961 26.1091 10.9314 20.3247 14.5098 16.1091C19.4608 10.2757 28.2353 9.54043 34.0196 14.4914C36.7157 16.7953 38.4314 20.0306 38.8235 23.56L38.3824 23.1189C38.1373 22.9228 37.8431 22.7757 37.549 22.7757C37.2059 22.7757 36.9118 22.9228 36.7157 23.1679C36.5196 23.413 36.3725 23.7071 36.3725 24.0012C36.3725 24.3444 36.5196 24.6385 36.7647 24.8345L39.1667 27.0895L39.3137 27.2855H39.4118C39.5588 27.3836 39.7549 27.4326 39.951 27.4816C40.2941 27.4816 40.5882 27.4326 40.8824 27.1875L43.4314 24.3934C43.8726 23.9032 43.8235 23.1679 43.3824 22.7267L43.2843 22.6777Z" fill="currentColor"/>
<path d="M49.7549 21.4522C49.7059 20.962 49.3627 20.6189 48.8725 20.4718L46.1765 19.7855C45.6373 17.6777 44.8039 15.6679 43.6765 13.8051L45.098 11.4032C45.3431 11.011 45.2941 10.4718 45 10.0796C44.2647 9.09925 43.4804 8.2169 42.6471 7.38357C41.8137 6.55023 40.8824 5.76592 39.951 5.03063C39.5588 4.73651 39.0686 4.73651 38.6275 4.93259L36.2255 6.35416C34.3627 5.2267 32.3529 4.39337 30.2451 3.85416L29.5588 1.15808C29.4608 0.716901 29.0686 0.373764 28.5784 0.275725C26.2745 -0.0674127 23.7745 -0.0674127 21.4216 0.275725C20.9314 0.324744 20.5392 0.667881 20.4412 1.15808L19.7549 3.85416C17.6471 4.39337 15.6373 5.2267 13.7745 6.35416L11.3725 4.93259C10.9804 4.68749 10.4412 4.73651 10.049 5.03063C9.11765 5.76592 8.18627 6.55023 7.35294 7.38357C6.51961 8.2169 5.73529 9.14827 5 10.0796C4.70588 10.4718 4.70588 10.962 4.90196 11.4032L6.32353 13.8051C5.19608 15.6679 4.36275 17.6777 3.82353 19.7855L1.12745 20.4718C0.686274 20.5698 0.343137 20.962 0.245098 21.4522C0.0980392 22.6287 0 23.8051 0 25.0306C0 26.2561 0.0980392 27.4326 0.245098 28.6091C0.294118 29.0993 0.637255 29.4914 1.12745 29.5895L3.82353 30.2757C4.36275 32.3836 5.19608 34.3934 6.32353 36.2561L4.90196 38.6581C4.65686 39.0502 4.70588 39.5895 5 39.9816C5.73529 40.962 6.51961 41.8444 7.35294 42.6777C8.18627 43.511 9.11765 44.2953 10.049 45.0306C10.4412 45.3247 10.9314 45.3247 11.3725 45.0796L13.7745 43.6581C15.6373 44.7855 17.6471 45.6189 19.7549 46.1581L20.4412 48.8542C20.5392 49.2953 20.9314 49.6385 21.4216 49.7365C22.598 49.8836 23.7745 49.9816 25 49.9816C26.2255 49.9816 27.402 49.8836 28.5784 49.7365C29.0686 49.6875 29.4608 49.3444 29.5588 48.8542L30.2451 46.1581C32.3529 45.6189 34.3627 44.7855 36.2255 43.6581L38.6275 45.0796C39.0196 45.3247 39.5588 45.2757 39.951 44.9816C40.9314 44.2463 41.8137 43.462 42.6471 42.6287C43.4804 41.7953 44.2647 40.864 45 39.9326C45.2941 39.5404 45.2941 39.0502 45.098 38.6091L43.6765 36.2071C44.8039 34.3444 45.6373 32.3345 46.1765 30.2267L48.8725 29.5404C49.3137 29.4424 49.6569 29.0502 49.7549 28.56C49.902 27.3836 50 26.2071 50 24.9816C50 23.7561 49.902 22.5796 49.7549 21.4032V21.4522ZM44.0196 29.0993C43.5294 31.4032 42.598 33.6091 41.3235 35.6189C41.0784 36.011 41.0784 36.4522 41.3235 36.8444L42.6961 39.1483C42.1569 39.7855 41.6176 40.4228 41.0784 40.962C40.5392 41.5012 39.902 42.0895 39.2647 42.6287L36.9608 41.2561C36.5686 41.011 36.0784 41.06 35.7353 41.2561C33.7255 42.5796 31.5196 43.462 29.2157 43.9522C28.7745 44.0502 28.4314 44.3934 28.3333 44.8345L27.6471 47.4326C25.9314 47.6287 24.3137 47.6287 22.7451 47.4326L22.0588 44.8345C21.9608 44.3934 21.5686 44.0502 21.1765 43.9522C18.8726 43.462 16.6667 42.5306 14.6569 41.2561C14.2647 41.011 13.8235 41.011 13.4314 41.2561L11.1275 42.6287C10.4902 42.0895 9.85294 41.5502 9.31373 41.011C8.72549 40.4228 8.18627 39.8346 7.64706 39.1973L9.01961 36.8934C9.26471 36.5012 9.21569 36.011 9.01961 35.6679C7.69608 33.6581 6.81373 31.4522 6.32353 29.1483C6.22549 28.7071 5.88235 28.364 5.44118 28.2659L2.84314 27.5796C2.7451 26.7953 2.69608 25.962 2.69608 25.1287C2.69608 24.2953 2.69608 23.462 2.84314 22.6777L5.44118 21.9914C5.88235 21.8934 6.22549 21.5012 6.32353 21.1091C6.81373 18.8051 7.7451 16.5993 9.01961 14.5894C9.26471 14.1973 9.26471 13.7561 9.01961 13.364L7.64706 11.06C8.13725 10.4228 8.72549 9.78553 9.31373 9.24631C9.90196 8.65808 10.4902 8.11886 11.1275 7.57965L13.4314 8.9522C13.8235 9.19729 14.3137 9.14827 14.6569 8.9522C16.6667 7.62867 18.8726 6.74631 21.1765 6.25612C21.6176 6.15808 21.9608 5.81494 22.0588 5.37376L22.7451 2.77572C24.4608 2.57965 26.0784 2.57965 27.6471 2.77572L28.3333 5.37376C28.4314 5.81494 28.8235 6.15808 29.2157 6.25612C31.5196 6.74631 33.7255 7.67769 35.7353 8.9522C36.1275 9.19729 36.5686 9.19729 36.9608 8.9522L39.2647 7.57965C39.902 8.06984 40.5392 8.65808 41.0784 9.24631C41.6667 9.83455 42.2059 10.4228 42.7451 11.06L41.3726 13.364C41.1275 13.7561 41.1765 14.2463 41.3726 14.5894C42.6961 16.5993 43.5784 18.8051 44.0686 21.1091C44.1667 21.5502 44.5098 21.8934 44.951 21.9914L47.549 22.6777C47.6471 23.462 47.6961 24.2953 47.6961 25.1287C47.6961 25.962 47.6961 26.7953 47.549 27.5796L44.951 28.2659C44.5098 28.364 44.1667 28.7561 44.0686 29.1483L44.0196 29.0993Z" fill="currentColor"/>
</svg>
