<svg width="50" height="50" viewBox="0 0 50 50" fill="none" xmlns="http://www.w3.org/2000/svg">
<path d="M48.951 42.2917H46.3824V13.5025C46.3824 12.924 45.9118 12.4534 45.3333 12.4534H40.7353C40.1569 12.4534 39.6863 12.924 39.6863 13.5025V42.2966H39.1618V19.6299C39.1618 19.0515 38.6912 18.5809 38.1127 18.5809H33.5147C32.9363 18.5809 32.4657 19.0515 32.4657 19.6299V42.2966H31.9363V27.0564C31.9363 26.4779 31.4657 26.0074 30.8873 26.0074H26.2892C25.7108 26.0074 25.2402 26.4779 25.2402 27.0564V42.2966H24.7157V24.826C24.7157 24.2476 24.2451 23.777 23.6667 23.777H19.0686C18.4902 23.777 18.0196 24.2476 18.0196 24.826V42.2966H17.5833V29.3799C17.5833 28.8015 17.1127 28.3309 16.5343 28.3309H11.9363C11.3578 28.3309 10.8873 28.8015 10.8873 29.3799V42.2966H10.2696V29.3799C10.2696 28.8015 9.79902 28.3309 9.22059 28.3309H4.62255C4.04412 28.3309 3.57353 28.8015 3.57353 29.3799V42.2966H1.04902C0.470588 42.2966 0 42.7672 0 43.3456C0 45.4878 1.7451 47.2279 3.88725 47.2279H46.1176C48.2598 47.2279 50 45.4878 50 43.3456C50 42.7672 49.5294 42.2966 48.951 42.2966V42.2917ZM5.71078 42.2917V30.4191H8.21078V42.2917H5.71078ZM13.0196 42.2917V30.4191H15.5196V42.2917H13.0196ZM20.1422 42.2917V25.8701H22.6422V42.2917H20.1422ZM27.3578 42.2917V28.1005H29.8578V42.2917H27.3578ZM34.5735 42.2917V20.674H37.0735V42.2917H34.5735ZM41.7892 42.2917V14.5466H44.2892V42.2917H41.7892ZM47.5686 44.3897C47.2402 44.8456 46.7059 45.1299 46.1176 45.1299H3.88725C3.29902 45.1299 2.76471 44.8456 2.43627 44.3897H47.5686ZM43.0245 2.77206C41.5343 2.77206 40.3186 3.98775 40.3186 5.47795C40.3186 5.81618 40.3824 6.14952 40.5049 6.46324L36.8824 9.97795C36.549 9.83579 36.1863 9.75736 35.8137 9.75736C34.3235 9.75736 33.1078 10.973 33.1078 12.4632C33.1078 12.8015 33.1716 13.1348 33.2941 13.4485L29.6667 16.9632C29.3333 16.8211 28.9706 16.7476 28.6029 16.7476C27.8039 16.7476 27.0343 17.1103 26.5245 17.7181L24.0784 16.9632C23.9461 15.5956 22.7892 14.5221 21.3824 14.5221C19.8922 14.5221 18.6765 15.7378 18.6765 17.2279C18.6765 17.5074 18.7206 17.7819 18.8088 18.0515L15.4804 21.4779C15.1078 21.2917 14.6961 21.1887 14.2696 21.1887C13.1618 21.1887 12.1814 21.8554 11.7696 22.8554H9.46569C9.04902 21.8603 8.07353 21.1887 6.96569 21.1887C5.47059 21.1887 4.2598 22.4044 4.2598 23.8995C4.2598 25.3946 5.46078 26.5907 6.93627 26.6054H6.97549C8.06863 26.5956 9.03431 25.9289 9.44608 24.9436H11.7598C12.1765 25.9387 13.1569 26.6054 14.2598 26.6054C15.7549 26.6054 16.9657 25.3897 16.9657 23.8995C16.9657 23.6201 16.9216 23.3407 16.8333 23.076L20.1716 19.6495C20.549 19.8407 20.9608 19.9387 21.3824 19.9387C22.201 19.9387 22.951 19.5809 23.4608 18.9681L25.9069 19.723C26.0392 21.0907 27.1961 22.1642 28.6029 22.1642C30.0931 22.1642 31.3088 20.9485 31.3088 19.4583C31.3088 19.1201 31.2451 18.7868 31.1225 18.473L34.75 14.9583C35.0833 15.1005 35.4461 15.174 35.8137 15.174C37.3039 15.174 38.5196 13.9583 38.5196 12.4681C38.5196 12.1299 38.4559 11.7966 38.3333 11.4828L41.9608 7.96814C42.2941 8.1103 42.6569 8.18383 43.0245 8.18383C44.5147 8.18383 45.7304 6.96814 45.7304 5.47795C45.7304 3.98775 44.5147 2.77206 43.0245 2.77206ZM6.95588 24.5172C6.61765 24.5172 6.34314 24.2427 6.34314 23.9044C6.34314 23.5662 6.61765 23.2868 6.95588 23.2868C7.29412 23.2868 7.57353 23.5662 7.57353 23.9044C7.57353 24.2427 7.28922 24.5172 6.95588 24.5172ZM14.2647 24.527C13.9314 24.527 13.6569 24.2574 13.652 23.924C13.6569 23.5907 13.9314 23.2966 14.2647 23.2966C14.4314 23.2966 14.5882 23.3652 14.701 23.4828C14.7255 23.5172 14.75 23.5564 14.7843 23.5907C14.8431 23.6838 14.8775 23.8015 14.8775 23.9191C14.8775 24.2525 14.598 24.5319 14.2647 24.5319V24.527ZM21.3971 17.8407C21.2353 17.8407 21.0784 17.777 20.9706 17.6691C20.9608 17.6544 20.951 17.6397 20.9412 17.625C20.9216 17.6005 20.902 17.576 20.8824 17.5515C20.8186 17.4583 20.7892 17.3456 20.7892 17.2279C20.7892 16.8897 21.0637 16.6152 21.402 16.6152C21.7402 16.6152 22.0147 16.8897 22.0147 17.2279C22.0147 17.5662 21.7402 17.8407 21.402 17.8407H21.3971ZM28.6029 20.076C28.2647 20.076 27.9902 19.8015 27.9902 19.4632C27.9902 19.4191 27.9951 19.375 28.0098 19.326C28.0196 19.2966 28.0294 19.2721 28.0343 19.2427C28.1275 19.0074 28.3529 18.8505 28.6029 18.8505C28.9412 18.8505 29.2157 19.125 29.2157 19.4632C29.2157 19.8015 28.9412 20.076 28.6029 20.076ZM35.8235 13.0809C35.6814 13.0809 35.549 13.0319 35.4363 12.9436C35.4167 12.9191 35.3922 12.8946 35.3676 12.875C35.3676 12.875 35.3627 12.875 35.3578 12.8701C35.2647 12.7574 35.2108 12.6152 35.2108 12.473C35.2108 12.1348 35.4853 11.8603 35.8235 11.8603C36.0049 11.8603 36.1373 11.9387 36.2255 12.0074C36.2353 12.0172 36.2402 12.027 36.2549 12.0417C36.2647 12.0515 36.2794 12.0662 36.2941 12.0809C36.3824 12.1936 36.4314 12.326 36.4314 12.4681C36.4314 12.8064 36.1569 13.0809 35.8186 13.0809H35.8235ZM43.0441 6.09069C42.8873 6.09069 42.7059 6.00246 42.5931 5.89461C42.5196 5.81128 42.4314 5.66912 42.4314 5.47795C42.4314 5.13971 42.7059 4.8652 43.0441 4.8652C43.3824 4.8652 43.6569 5.13971 43.6569 5.47795C43.6569 5.81618 43.3824 6.09069 43.0441 6.09069Z" fill="currentColor"/>
</svg>
