<svg width="50" height="50" viewBox="0 0 50 50" fill="none" xmlns="http://www.w3.org/2000/svg">
<path d="M1.02941 47.7941H1.51961V13.0392C1.51961 11.6176 2.69608 10.4412 4.11765 10.4412H9.16667C10.5882 10.4412 11.7647 11.6176 11.7647 13.0392V47.8431H13.7255V21.7157C13.7255 20.2941 14.902 19.1176 16.3235 19.1176H21.3726C22.7941 19.1176 23.9706 20.2941 23.9706 21.7157V47.8431H25.9804V30.3431C25.9804 28.9216 27.1569 27.7451 28.5784 27.7451H33.6275C35.049 27.7451 36.2255 28.9216 36.2255 30.3431V47.8431H38.1863V38.9706C38.1863 37.549 39.3627 36.3725 40.7843 36.3725H45.8333C47.2549 36.3725 48.4314 37.549 48.4314 38.9706V47.8431H48.9216C49.5098 47.8431 50 48.3333 50 48.9216C50 49.5098 49.5098 50 48.9216 50H1.07843C0.490199 50 0 49.5098 0 48.9216C0 48.3333 0.490199 47.8431 1.07843 47.8431L1.02941 47.7941ZM3.67647 13.0392V47.8431H9.55882V13.0392C9.55882 12.7941 9.36275 12.6471 9.16667 12.6471H4.11765C3.87255 12.6471 3.72549 12.8431 3.72549 13.0392H3.67647ZM15.9314 21.6667V47.7941H21.8137V21.6667C21.8137 21.4216 21.6176 21.2745 21.4216 21.2745H16.3726C16.1275 21.2745 15.9804 21.4706 15.9804 21.6667H15.9314ZM28.1373 30.2941V47.7941H34.0196V30.2941C34.0196 30.049 33.8235 29.902 33.6275 29.902H28.5784C28.3333 29.902 28.1863 30.098 28.1863 30.2941H28.1373ZM40.3431 38.9216V47.7941H46.2255V38.9216C46.2255 38.6765 46.0294 38.5294 45.8333 38.5294H40.7843C40.5392 38.5294 40.3922 38.7255 40.3922 38.9216H40.3431Z" fill="currentColor"/>
<path d="M16.3142 3.25023C16.1434 2.99151 15.9032 2.85286 15.6284 2.77425C15.3536 2.69564 15.0695 2.77176 14.7981 2.89523C14.41 3.15146 14.1801 3.61907 14.307 4.09256C14.4338 4.56605 14.3577 4.28196 14.3831 4.37666C18.208 10.5074 22.6661 15.4027 28.0703 19.2832C33.1016 22.9085 38.9023 25.6171 45.6524 27.5131L44.9456 27.9055C44.4154 28.1998 44.2362 28.8568 44.5305 29.3869C44.8248 29.917 45.4818 30.0962 46.012 29.8019L49.0033 28.0869C49.2621 27.9161 49.4134 27.7233 49.492 27.4485C49.5706 27.1737 49.5418 26.8769 49.371 26.6182L47.656 23.6268C47.4852 23.3681 47.2924 23.2167 47.0176 23.1381C46.7428 23.0595 46.446 23.0883 46.1873 23.2591C45.9285 23.4299 45.7772 23.6227 45.6986 23.8975C45.62 24.1724 45.6488 24.4691 45.8196 24.7279L46.272 25.4694C32.8318 21.7121 23.2715 14.6315 16.2195 3.2756L16.3142 3.25023Z" fill="currentColor"/>
</svg>
