<svg width="50" height="50" viewBox="0 0 50 50" fill="none" xmlns="http://www.w3.org/2000/svg">
<path d="M5.99941 22.7526C5.71022 22.8898 5.48966 23.13 5.37692 23.4437C5.27399 23.7427 5.2936 24.0662 5.42594 24.3553C6.48466 26.5904 8.15606 28.4873 10.249 29.845C12.3958 31.2321 14.8907 31.9624 17.4542 31.9624C18.1159 31.9624 18.655 31.4233 18.655 30.7616C18.655 30.443 18.5276 30.1391 18.3021 29.9136C18.1894 29.8009 18.0571 29.7127 17.8708 29.644L17.5081 29.5656C17.5081 29.5656 17.4738 29.5607 17.4542 29.5607C13.4301 29.5607 9.62651 27.2521 7.76885 23.6838L7.59239 23.3309C7.30811 22.7329 6.59249 22.4781 5.98961 22.7624L5.99941 22.7526Z" fill="currentColor"/>
<path d="M48.5001 41.6381C48.5001 41.6381 48.4707 41.6135 48.456 41.6037L39.6383 32.786C39.2314 32.3792 38.6923 32.1586 38.1139 32.1586C37.7512 32.1586 37.3983 32.2468 37.0846 32.4184L32.9183 28.2521C34.9279 25.3308 36.021 21.9292 36.0896 18.4001V18.0472C36.1141 8.3472 28.2276 0.254858 18.5227 0.00488281H18.0571C8.10215 0.00488281 0 8.10703 0 18.057C0 28.007 8.10215 36.1141 18.0571 36.1141C21.7234 36.1141 25.2475 35.0162 28.2668 32.9379L32.4331 37.1042C31.9822 37.9325 32.1243 38.9766 32.8007 39.6579L41.7214 48.5785C42.638 49.4902 43.8584 49.9951 45.1524 49.9951C46.4464 49.9951 47.6718 49.4902 48.5835 48.5785C49.4951 47.6669 50 46.4464 50 45.1475C50 43.8486 49.4951 42.6331 48.5786 41.7165L48.5001 41.6381ZM47.5542 45.1524C47.5542 45.8043 47.3091 46.4072 46.8532 46.8581C45.9416 47.7698 44.4711 47.809 43.5153 46.9464L34.6878 38.1237L38.1188 34.6927L46.8484 43.4222C47.3042 43.878 47.5542 44.4907 47.5542 45.1475V45.1524ZM18.0522 2.42621C26.669 2.42621 33.683 9.44023 33.683 18.057C33.683 26.6738 26.669 33.6879 18.0522 33.6879C9.43535 33.6879 2.42133 26.6738 2.42133 18.057C2.42133 9.44023 9.43045 2.42621 18.0522 2.42621ZM31.4185 30.1833L35.3201 34.0849L34.0751 35.3298L30.1735 31.4283C30.6146 31.0264 31.0313 30.6097 31.4185 30.1833Z" fill="currentColor"/>
<path d="M4.38192 21.1302C4.49466 21.6938 4.98971 22.1056 5.56808 22.1056C5.6171 22.1056 5.71022 22.1056 5.79845 22.0761C6.10724 22.0124 6.37683 21.8409 6.55818 21.5762C6.73954 21.3115 6.80326 20.988 6.74444 20.6743L6.70522 20.4734C6.70522 20.4734 6.70522 20.4538 6.69542 20.444C6.59739 19.8509 6.54838 19.248 6.54838 18.6402C6.54838 17.9785 6.00921 17.4394 5.34751 17.4394C4.68581 17.4394 4.14665 17.9785 4.14665 18.6402C4.14665 19.4686 4.22508 20.3018 4.38192 21.1253V21.1302Z" fill="currentColor"/>
</svg>
