<svg width="50" height="50" viewBox="0 0 50 50" fill="none" xmlns="http://www.w3.org/2000/svg">
<path d="M15.6451 14.9842L15.5808 14.8901C15.2292 14.4198 14.5707 14.2762 14.0509 14.5534H14.0459C13.4667 14.8802 13.2587 15.5981 13.5707 16.1873L14.348 17.5537L14.3826 17.6181C14.546 17.8953 14.8133 18.0884 15.1253 18.1676C15.2193 18.1924 15.3183 18.2023 15.4124 18.2023C15.6303 18.2023 15.8382 18.1429 16.0263 18.029C16.566 17.7072 16.764 17.0042 16.4719 16.4497L15.6451 14.9792V14.9842Z" fill="currentColor"/>
<path d="M8.99099 23.0642L7.51064 22.1928C6.93633 21.8561 6.20359 22.0542 5.86692 22.6235C5.70354 22.9008 5.65898 23.2226 5.74314 23.5345C5.82236 23.8415 6.0204 24.1039 6.29765 24.2673L7.67898 25.0743C7.86712 25.1832 8.07506 25.2377 8.283 25.2377C8.69888 25.2377 9.09991 25.0248 9.32271 24.6435C9.63462 24.1088 9.49104 23.4305 8.99099 23.0642Z" fill="currentColor"/>
<path d="M25.0025 15.6327C25.6659 15.6327 26.2006 15.0931 26.2006 14.4346V12.8354C26.2006 12.172 25.661 11.6373 25.0025 11.6373C24.344 11.6373 23.8043 12.177 23.8043 12.8354V14.4346C23.8043 15.098 24.344 15.6327 25.0025 15.6327Z" fill="currentColor"/>
<path d="M5.65403 32.5007H4.05486C3.39142 32.5007 2.85672 33.0404 2.85672 33.6989C2.85672 34.3574 3.39638 34.897 4.05486 34.897H5.65403C6.31746 34.897 6.85216 34.3574 6.85216 33.6989C6.85216 33.0404 6.31251 32.5007 5.65403 32.5007Z" fill="currentColor"/>
<path d="M40.5981 23.8068C40.5139 24.1187 40.5585 24.4405 40.7169 24.7178C40.9446 25.104 41.3457 25.3218 41.7616 25.3218C41.9348 25.3218 42.1081 25.2822 42.2715 25.2079L43.742 24.3663L43.7568 24.3564C44.0291 24.193 44.2222 23.9405 44.3064 23.6335C44.3905 23.3216 44.346 22.9998 44.1875 22.7226C43.8509 22.1482 43.1132 21.9502 42.5438 22.2819L41.1526 23.079L41.1377 23.0889C40.8654 23.2523 40.6724 23.5048 40.5882 23.8118L40.5981 23.8068Z" fill="currentColor"/>
<path d="M42.7765 16.217C38.1275 11.5135 31.9339 8.87465 25.3243 8.78058H25.0025C18.383 8.78553 12.1497 11.3501 7.44133 15.9991C2.73789 20.6481 0.0940687 26.8418 0 33.4464V33.7682C0 36.0209 0.297059 38.234 0.881275 40.3431C1.02485 40.858 1.50015 41.2194 2.03485 41.2194H47.9651C48.4999 41.2194 48.9751 40.858 49.1187 40.3431V40.3233C49.6683 38.3182 49.9653 36.2536 50 34.1791V33.7633C49.995 27.1487 47.4255 20.9154 42.7765 16.212V16.217ZM47.0344 38.8182H2.96564C2.57946 37.1596 2.38638 35.4614 2.39628 33.7633C2.40123 21.3115 12.5408 11.1769 25.0025 11.1769C37.4641 11.1769 47.6037 21.3115 47.6037 33.7633C47.6037 35.4565 47.4106 37.1547 47.0344 38.8182Z" fill="currentColor"/>
<path d="M28.0226 31.367C27.6265 30.862 27.0868 30.456 26.4432 30.1886L26.4036 30.1787C25.8491 29.9708 25.2599 29.8866 24.6906 29.9312L20.0515 18.8905C19.9426 18.5934 19.7198 18.3558 19.4277 18.2221C19.1356 18.0884 18.8088 18.0785 18.5068 18.1974C18.2097 18.3063 17.9721 18.5241 17.8384 18.8113C17.7047 19.1034 17.6899 19.4252 17.7938 19.7074L17.8037 19.7569C17.8037 19.7569 17.8186 19.7916 17.8384 19.8262L22.4775 30.8719C20.9575 32.2037 20.7397 34.5455 22.0022 36.1397C22.7547 37.0903 23.8786 37.5904 25.0124 37.5904C25.8491 37.5904 26.6908 37.3181 27.3988 36.7635C29.0029 35.4961 29.3247 33.1988 28.1364 31.5254L28.0176 31.3719L28.0226 31.367ZM25.6164 35.0951L25.5619 35.1099C24.8242 35.4169 23.9677 35.0703 23.6558 34.3277C23.5073 33.9712 23.5073 33.5751 23.6558 33.2137C23.8043 32.8523 24.0816 32.575 24.4381 32.4215C24.6213 32.3473 24.8094 32.3077 24.9975 32.3077C25.5669 32.3077 26.1115 32.6443 26.3442 33.1988C26.6561 33.9266 26.3343 34.7485 25.6164 35.0852V35.0951Z" fill="currentColor"/>
<path d="M43.1379 33.788C43.1379 34.4465 43.6776 34.9861 44.3361 34.9861H45.9352C46.5987 34.9861 47.1334 34.4465 47.1334 33.788C47.1334 33.1295 46.5937 32.5899 45.9352 32.5899H44.3361C43.6726 32.5899 43.1379 33.1295 43.1379 33.788Z" fill="currentColor"/>
<path d="M36.1125 14.6376L35.9788 14.5633C35.4243 14.3108 34.7708 14.5138 34.4539 15.0386L33.6617 16.415L33.6419 16.4447C33.6419 16.4447 33.6073 16.4942 33.6023 16.519C33.3102 17.0883 33.533 17.8062 34.1024 18.1132C34.2757 18.2073 34.4688 18.2568 34.6668 18.2568C34.7856 18.2568 34.8995 18.2419 35.0134 18.2073C35.3203 18.1132 35.5728 17.9052 35.7214 17.628L36.058 17.0438V17.0735L36.5234 16.2516C36.8502 15.6773 36.6571 14.9594 36.1125 14.6425V14.6376Z" fill="currentColor"/>
</svg>
