<svg width="50" height="50" viewBox="0 0 50 50" fill="none" xmlns="http://www.w3.org/2000/svg">
<path d="M25 0C11.2119 0 0 11.2119 0 25C0 38.7882 11.2119 50 25 50C38.7882 50 50 38.7882 50 25C50 11.2119 38.7882 0 25 0ZM6.65255 12.0678C10.0848 7.2034 15.4068 3.84746 21.2627 2.85593L23.7288 2.44068V22.8983L5.2034 14.1356L6.65255 12.0678ZM8.22035 39.9068C4.55932 35.7882 2.54238 30.5 2.54238 25C2.54238 22.9153 2.83898 20.8305 3.41526 18.8136L4.1017 16.4153L23.0593 25.3899L9.9322 41.8135L8.2288 39.9068H8.22035ZM25 47.4576C21.1949 47.4576 17.4237 46.4746 14.0932 44.6186L11.9152 43.3983L24.7034 27.4153C25.7204 26.1441 26.2796 24.5424 26.2796 22.9153V2.44916L28.7458 2.8644C39.5932 4.69491 47.4661 14.0084 47.4661 25C47.4661 37.3813 37.3898 47.4576 25.0085 47.4576H25Z" fill="currentColor"/>
</svg>
