<svg width="50" height="57" viewBox="0 0 50 57" fill="none" xmlns="http://www.w3.org/2000/svg">
<path d="M22.7984 34.0895C23.0237 34.3147 23.3256 34.4409 23.6455 34.4409C23.9654 34.4409 24.2537 34.3147 24.4835 34.0895L28.6738 29.8991C29.156 29.4531 29.192 28.7006 28.755 28.2185C28.3179 27.7364 27.5654 27.7048 27.0788 28.1419L27.0608 28.1599C27.0473 28.1689 27.0338 28.1825 27.0157 28.205L23.6365 31.5843L22.5416 30.4804L22.4605 30.4083C22.0009 30.0343 21.298 30.0704 20.8699 30.4849C20.6447 30.7057 20.5185 31.003 20.5185 31.3184C20.5185 31.6338 20.6447 31.9312 20.8699 32.152L22.8119 34.0805L22.7984 34.0895Z" fill="currentColor"/>
<path d="M46.2507 12.2006L46.0704 12.115C46.0704 12.115 46.0254 12.097 46.0209 12.097L44.7142 11.741L42.2316 10.9796L39.01 9.87114C35.3919 8.48789 31.8594 6.82528 28.5161 4.92837L25.3802 3.14861L25.3171 3.11707C24.9611 2.95036 24.5691 2.95937 24.2042 3.15311L21.0547 4.92837C17.7024 6.82077 14.1744 8.47888 10.5744 9.86213L8.70448 10.5515L6.8346 11.1688L3.27508 12.2006C2.8155 12.3583 2.5001 12.7999 2.5001 13.2955V26.1999C2.47757 33.9948 6.37502 41.1994 12.9218 45.4709L24.114 52.8197C24.3078 52.9368 24.5286 52.9954 24.7539 52.9954C24.9791 52.9954 25.2089 52.9323 25.4207 52.8107L36.5949 45.4664C43.011 41.285 46.904 34.2156 47.0121 26.5603V13.2775C46.9986 12.7999 46.6832 12.3628 46.2507 12.2006ZM44.6376 26.2044C44.6601 33.2063 41.1727 39.6675 35.3153 43.4883L24.7719 50.3686L14.2375 43.4883C8.37556 39.663 4.88362 33.2018 4.89264 26.2044V14.1966L8.05565 13.2234C8.54227 13.0702 9.01087 12.908 9.44342 12.7458L11.3629 12.0204C15.1071 10.6056 18.7567 8.89791 22.2216 6.94242L24.7674 5.51862L27.3131 6.96495C30.769 8.91593 34.4231 10.6281 38.1764 12.0429L40.0958 12.7458C40.5599 12.917 41.024 13.0747 41.4791 13.2189L44.6376 14.1921V26.2044Z" fill="currentColor"/>
<path d="M34.2204 23.2712H32.0396V19.6982C32.0396 15.6926 28.782 12.435 24.7764 12.435C20.7708 12.435 17.5132 15.6926 17.5132 19.6982V23.2712H15.3324C14.6791 23.2712 14.1429 23.8029 14.1429 24.4607V37.7526C14.1429 38.4059 14.6746 38.9421 15.3324 38.9421H34.2204C34.8737 38.9421 35.4099 38.4104 35.4099 37.7526V24.4607C35.4099 23.8074 34.8782 23.2712 34.2204 23.2712ZM19.8922 23.2712V19.6982C19.8922 17.0038 22.082 14.814 24.7764 14.814C27.4708 14.814 29.6651 17.0038 29.6651 19.6982V23.2712H19.8922ZM32.9993 25.6502V36.5676H16.5535V25.6502H32.9993Z" fill="currentColor"/>
</svg>
