<svg width="51" height="51" viewBox="0 0 51 51" fill="none" xmlns="http://www.w3.org/2000/svg">
<path d="M48.1465 37.1768C48.1465 36.8131 48.0051 36.4697 47.7475 36.2121C47.2626 35.7273 46.4798 35.6818 45.9394 36.096L45.8131 36.2222L35.2677 46.7121L35.0909 46.5354L29.5707 41.0455C29.303 40.7778 28.9495 40.6465 28.601 40.6465C28.2525 40.6465 27.899 40.7778 27.6313 41.0455C27.3737 41.303 27.2323 41.6465 27.2323 42.0101C27.2323 42.3737 27.3737 42.7172 27.6313 42.9748L34.298 49.6061C34.5606 49.8636 34.904 50.0101 35.2626 50.0101C35.6212 50.0101 35.9697 49.8687 36.2273 49.6061L47.7475 38.1465C48.0051 37.8889 48.1465 37.5455 48.1465 37.1818V37.1768Z" fill="currentColor"/>
<path d="M26.3788 11.7677C26.3788 11.0152 25.7626 10.404 25.0101 10.404C24.2525 10.404 23.6414 11.0152 23.6414 11.7677V24.3081L23.5657 24.3838L19.0707 28.8586C18.8131 29.1162 18.6717 29.4596 18.6717 29.8232C18.6717 30.1869 18.8131 30.5303 19.0707 30.7879C19.596 31.3081 20.4798 31.3081 21.0051 30.7879L25.9798 25.8384C26.2424 25.5808 26.3838 25.2374 26.3838 24.8788V11.7727L26.3788 11.7677Z" fill="currentColor"/>
<path d="M49.3232 30.6616C49.7727 28.7828 50 26.8333 50 24.8687C50 11.1566 38.7828 0 25 0C11.2172 0 0 11.1566 0 24.8687C0 38.5808 11.2172 49.7374 25 49.7374C25.7626 49.7374 26.3788 49.1263 26.3788 48.3737C26.3788 47.6212 25.7626 47.0101 25.0101 47.0101C12.7374 47.0101 2.75253 37.0758 2.75253 24.8687C2.75253 12.6616 12.7374 2.72222 25.0101 2.72222C37.2828 2.72222 47.2677 12.6566 47.2677 24.8636C47.2677 26.7323 47.0354 28.5808 46.5758 30.3586C46.4849 30.7121 46.5404 31.0808 46.7273 31.3939C46.9141 31.7071 47.2121 31.9242 47.5606 32.0152C48.2929 32.197 49.0455 31.7626 49.2273 31.0354L49.3182 30.6566L49.3232 30.6616Z" fill="currentColor"/>
</svg>
