<svg width="50" height="50" viewBox="0 0 50 50" fill="none" xmlns="http://www.w3.org/2000/svg">
<path d="M32.3645 18.7369L22.4138 28.7369L17.6355 23.9586C17.1921 23.5152 16.4532 23.5152 16.0099 23.9586C15.5665 24.4019 15.5665 25.1409 16.0099 25.5842L21.6256 31.2C21.8719 31.4463 22.1182 31.5448 22.4631 31.5448C22.8079 31.5448 23.1034 31.397 23.3005 31.1507L34.0394 20.3625C34.4828 19.9192 34.4828 19.1803 34.0394 18.7369C33.5961 18.2936 32.8571 18.2936 32.4138 18.7369H32.3645Z" fill="currentColor"/>
<path d="M25.0246 6.32313C14.7783 6.32313 6.40394 14.6975 6.40394 24.9931C6.40394 35.2887 14.7291 43.663 25.0246 43.663C35.3202 43.663 43.6453 35.2887 43.6453 24.9931C43.6453 14.6975 35.2709 6.32313 25.0246 6.32313ZM25.0246 41.2985C16.0591 41.2985 8.76847 34.0079 8.76847 24.9931C8.76847 15.9783 16.0591 8.68766 25.0246 8.68766C33.9901 8.68766 41.2808 15.9783 41.2808 24.9931C41.2808 34.0079 33.9901 41.2985 25.0246 41.2985Z" fill="currentColor"/>
<path d="M48.67 21.6926L48.5714 21.5448C48.0788 20.9044 47.6847 20.3133 47.5862 19.8207C47.4877 19.3281 47.5862 18.6384 47.6847 17.8995V17.7024C47.8818 16.5202 48.0788 15.2394 47.5369 14.0571C47.0443 12.9241 46.0098 12.333 45.0246 11.7911L44.7291 11.5941C43.9409 11.1507 43.399 10.7566 43.1035 10.4611C42.7586 10.0177 42.5123 9.2788 42.3153 8.58914L42.2167 8.24431C41.8719 7.20983 41.5271 6.12609 40.5911 5.38717C39.6552 4.64825 38.5222 4.54973 37.3892 4.40195H37.0443C36.3054 4.30343 35.5172 4.25416 35.0246 4.00786C34.532 3.81081 34.0887 3.3182 33.5961 2.72707L33.4483 2.57929C32.6601 1.69259 31.8227 0.805888 30.5419 0.559583C29.2118 0.264016 27.9803 0.805888 26.9951 1.19998L26.6502 1.34776C26.0099 1.59407 25.468 1.79111 24.9261 1.79111C24.3842 1.79111 23.7931 1.5448 23.1034 1.2985L22.9064 1.19998C21.7734 0.756627 20.5911 0.313277 19.3596 0.559583C18.0788 0.855149 17.1429 1.84037 16.3547 2.72707C15.8128 3.36746 15.3695 3.86008 14.9261 4.05712C14.4335 4.25416 13.6453 4.35269 12.9064 4.40195C11.6749 4.45121 10.3941 4.59899 9.35961 5.38717C8.37438 6.17535 7.9803 7.40687 7.63547 8.58914L7.53695 8.83545C7.3399 9.47584 7.14286 10.067 6.84729 10.4118C6.50246 10.9044 5.86207 11.2492 5.22167 11.5941C4.13793 12.1852 3.00493 12.8256 2.41379 14.0571C1.87192 15.2394 2.06897 16.5694 2.26601 17.7517C2.36453 18.4906 2.51232 19.2788 2.41379 19.8207C2.31527 20.3133 1.92118 20.8552 1.42857 21.5448L1.33005 21.6926C0.689655 22.6285 0 23.7123 0 24.9931C0 26.2739 0.689655 27.3576 1.33005 28.2936L1.62562 28.7369C1.97044 29.2788 2.26601 29.7714 2.41379 30.1162C2.51232 30.6088 2.41379 31.2985 2.31527 32.0374V32.2345C2.11823 33.466 1.92118 34.6975 2.46305 35.8798C2.95566 37.0128 3.99015 37.6039 4.97537 38.1458L5.27094 38.3428C6.05911 38.7862 6.60099 39.1803 6.89655 39.4758C7.24138 39.9192 7.48768 40.6581 7.68473 41.3478L7.78325 41.6926C8.12808 42.7271 8.47291 43.8108 9.40887 44.5497C10.3448 45.2887 11.4778 45.3872 12.6108 45.535H12.9064C13.6453 45.6335 14.4335 45.6827 14.9261 45.929C15.4187 46.1261 15.8621 46.6187 16.4039 47.2591L16.5025 47.4069C17.2906 48.2936 18.1281 49.1803 19.4089 49.4266C19.6552 49.4758 19.9507 49.5251 20.197 49.5251C21.2315 49.5251 22.1675 49.131 22.9557 48.7862L23.3005 48.6384C23.9409 48.3921 24.4828 48.1951 25.0246 48.1951C25.5665 48.1951 26.1576 48.4414 26.8473 48.6877H27.0443C27.8818 49.131 28.8177 49.4758 29.8522 49.4758C30.8867 49.4758 30.3941 49.4758 30.5911 49.4266C31.8719 49.131 32.8079 48.1458 33.6453 47.2591C34.1872 46.668 34.6305 46.1754 35.0739 45.9783C35.5665 45.7813 36.3547 45.6827 37.0936 45.6335C38.3251 45.5842 39.6059 45.4364 40.6404 44.6483C41.6256 43.8601 42.0197 42.6286 42.3645 41.4463L42.4631 41.2C42.6601 40.5596 42.8571 39.9685 43.1527 39.6236C43.4975 39.131 44.1379 38.7862 44.7783 38.4414C45.8621 37.8502 46.9951 37.2098 47.5862 35.9783C48.1281 34.796 47.931 33.466 47.734 32.2837C47.6355 31.5448 47.4877 30.7566 47.5862 30.2148C47.6847 29.7221 48.0788 29.1803 48.5714 28.4906L48.67 28.3428C49.3103 27.4069 50 26.3231 50 25.0423C50 23.7616 49.3103 22.6778 48.67 21.7418V21.6926ZM45.3695 32.53V32.9734C45.5172 33.7123 45.6158 34.4019 45.3695 34.796C45.1231 35.3379 44.335 35.7813 43.5468 36.2246C42.7094 36.668 41.8227 37.2098 41.2315 37.998C40.6404 38.7862 40.3448 39.7221 40.0493 40.6581L39.9507 41.0029C39.7044 41.7419 39.4581 42.4808 39.064 42.7763C38.5714 43.1212 37.6847 43.2197 36.798 43.2689C35.8621 43.3182 34.8276 43.4167 33.9901 43.8601C33.1034 44.2542 32.4138 45.0423 31.7734 45.7813C31.133 46.4709 30.5419 47.1113 30.0493 47.2591C29.4581 47.3576 28.6207 47.062 27.8818 46.7172C27.0936 46.3231 26.0591 45.8798 25.0246 45.8798C23.9901 45.8798 23.0542 46.2739 22.1675 46.668C21.3793 46.9635 20.5419 47.3084 20 47.2098C19.3596 47.0128 18.67 46.2739 18.2266 45.732C17.5862 45.0423 16.8966 44.3034 16.0099 43.8601C15.0739 43.4167 14.0887 43.3182 13.1527 43.2689C12.266 43.2197 11.3793 43.1704 10.8867 42.7763C10.4433 42.4315 10.197 41.6926 9.95074 40.8059V40.6581C9.65517 39.7221 9.31034 38.7862 8.71921 37.998C8.2266 37.3084 7.48768 36.9143 6.79803 36.4709C6.65025 36.3724 6.55172 36.3231 6.40394 36.2246H6.25616C5.46798 35.732 4.82759 35.3379 4.58128 34.796C4.33498 34.2542 4.4335 33.3675 4.58128 32.53V32.2345C4.72906 31.3478 4.87685 30.4611 4.63054 29.6236C4.4335 28.7369 3.89163 27.8995 3.39901 27.2098L3.30049 27.1113C2.80788 26.3724 2.26601 25.5842 2.26601 24.9931C2.26601 24.4019 2.6601 23.8601 3.10345 23.1704L3.39901 22.7271C3.89163 21.9882 4.4335 21.2 4.63054 20.3133C4.82759 19.3281 4.6798 18.3428 4.58128 17.4069V16.9635C4.4335 16.2246 4.33498 15.535 4.58128 15.1409C4.82759 14.599 5.61576 14.1556 6.40394 13.7123C7.24138 13.2689 8.12808 12.7271 8.71921 11.9389C9.31034 11.1507 9.60591 10.2148 9.90148 9.2788L10 8.93397C10.2463 8.19505 10.4926 7.45613 10.8867 7.16057C11.3793 6.81574 12.266 6.71722 13.1527 6.66796C14.0887 6.6187 15.1232 6.52017 15.9606 6.07682C16.8473 5.68274 17.5369 4.89456 18.1773 4.15564C18.8177 3.46599 19.4089 2.82559 19.9015 2.67781C20.4926 2.57929 21.33 2.87485 22.069 3.21968C23.0049 3.61377 23.9409 4.00786 24.9261 4.00786C25.9113 4.00786 26.8473 3.66303 27.7833 3.21968C28.5714 2.92411 29.4089 2.57929 29.9507 2.67781C30.5911 2.87485 31.2808 3.61377 31.7241 4.15564C32.3645 4.8453 33.0542 5.58421 33.9409 6.02756C34.8768 6.47091 35.8621 6.56944 36.798 6.6187C37.6847 6.66796 38.5714 6.71722 39.064 7.11131C39.5074 7.45613 39.7537 8.19505 40 9.08175V9.22954C40.2956 10.1655 40.6404 11.1015 41.2315 11.8896C41.7241 12.5793 42.4631 12.9734 43.1527 13.4167C43.3005 13.5153 43.399 13.5645 43.5468 13.663H43.6946C44.4828 14.1556 45.1231 14.5497 45.4187 15.0916C45.665 15.6335 45.5665 16.5202 45.4187 17.3576V17.6532C45.2709 18.5399 45.1231 19.4266 45.3695 20.264C45.5665 21.1507 46.1084 21.9882 46.601 22.6778L46.6995 22.7763C47.1921 23.5152 47.734 24.3034 47.734 24.8946C47.734 25.4857 47.2906 26.2246 46.6995 27.1113L46.601 27.2098C46.1084 27.9487 45.5665 28.7369 45.3695 29.6236C45.1724 30.6088 45.3202 31.5941 45.4187 32.53H45.3695Z" fill="currentColor"/>
</svg>
