<svg width="57" height="50" viewBox="0 0 57 50" fill="none" xmlns="http://www.w3.org/2000/svg">
<path d="M51.8726 29.9679H44.9468V15.8811C44.9468 15.2586 44.442 14.7488 43.8146 14.7488H27.7034C27.081 14.7488 26.5712 15.2537 26.5712 15.8811V18.9445C26.2477 18.9004 25.9242 18.8808 25.6056 18.8808H22.9147C24.738 17.6456 26.0418 15.7536 26.5271 13.5333C27.1594 10.6316 26.2869 7.6515 24.1891 5.55366C22.5471 3.91167 20.3659 3.0098 18.0475 3.0098C15.7291 3.0098 13.548 3.91167 11.906 5.55366C9.81304 7.6515 8.94058 10.6414 9.57287 13.5382C10.0581 15.7585 11.3619 17.6603 13.1853 18.8955H10.4894C6.3624 18.8955 3.00488 22.253 3.00488 26.3801V39.0945C3.00488 39.717 3.50974 40.2267 4.13712 40.2267H18.523V46.3046C18.523 46.9271 19.0278 47.4368 19.6552 47.4368H51.8775C52.5 47.4368 53.0098 46.932 53.0098 46.3046V31.11C53.0098 30.4875 52.5049 29.9777 51.8775 29.9777L51.8726 29.9679ZM24.4832 11.6805C24.4832 13.4009 23.8166 15.0233 22.601 16.2389C21.3854 17.4545 19.7728 18.1211 18.0524 18.1211C16.332 18.1211 14.7194 17.4496 13.5039 16.2389C12.2883 15.0282 11.6217 13.4107 11.6217 11.6903C11.6217 9.9699 12.2932 8.35731 13.5039 7.14174C14.7194 5.92618 16.332 5.25958 18.0524 5.25958C19.7728 5.25958 21.3854 5.93108 22.601 7.14174C23.8166 8.35241 24.4832 9.96009 24.4832 11.6805ZM29.7817 36.8643L28.223 36.0703C28.0711 35.987 27.8995 35.9477 27.7181 35.9477C27.5368 35.9477 27.3652 35.9919 27.2084 36.0703L25.6105 36.8741V32.2226H29.7817V36.8692V36.8643ZM20.7875 32.2128H23.3705V38.6877C23.3705 39.3102 23.8754 39.8199 24.493 39.8199C24.6645 39.8199 24.8312 39.7807 24.9929 39.7023L27.723 38.3299L30.3698 39.6729C30.5365 39.766 30.7277 39.815 30.9237 39.815C31.5413 39.815 32.0413 39.3102 32.0413 38.6926V32.2079H34.6243V45.1674H20.7826V32.2079L20.7875 32.2128ZM26.5712 21.2237V29.9532H19.6454C19.0229 29.9532 18.5132 30.4581 18.5132 31.0855V37.9672H5.24976V26.3751C5.24976 23.4882 7.59757 21.1355 10.4894 21.1355H25.6105C25.9291 21.1355 26.2526 21.1649 26.5761 21.2286L26.5712 21.2237ZM45.9075 36.8692L44.3097 36.0654C44.1479 35.987 43.9715 35.9428 43.7999 35.9428C43.6283 35.9428 43.447 35.987 43.2901 36.0703L41.7266 36.8643V32.2177H45.9124V36.8692H45.9075ZM36.8888 32.2128H39.4719V38.7073C39.4719 39.3249 39.9718 39.8297 40.5894 39.8297C40.7855 39.8297 40.9815 39.7758 41.1629 39.6778L43.8048 38.3397L46.53 39.7072C46.6869 39.7856 46.8535 39.8248 47.0251 39.8248C47.6476 39.8248 48.1573 39.32 48.1573 38.6975V32.2128H50.7404V45.1723H36.8888V32.2128ZM32.5461 24.6057C32.7226 24.6057 32.8941 24.5616 33.0559 24.4783L35.7762 23.1108L38.4132 24.4489C38.5945 24.5518 38.7906 24.6057 38.9866 24.6057C39.5993 24.6057 40.0944 24.1009 40.0944 23.4784V17.0035H42.6775V29.963H35.8546C35.8203 29.9581 35.786 29.9532 35.7517 29.9532H28.8357V16.9937H31.4188V23.4686C31.4188 24.096 31.9187 24.6057 32.5363 24.6057H32.5461ZM37.8495 21.655L36.2761 20.8561C36.1242 20.7777 35.9526 20.7335 35.7713 20.7335C35.5899 20.7335 35.4184 20.7777 35.2615 20.8561L33.6636 21.6599V17.0084H37.8495V21.655Z" fill="currentColor"/>
</svg>
