<svg width="50" height="51" viewBox="0 0 50 51" fill="none" xmlns="http://www.w3.org/2000/svg">
<path fill-rule="evenodd" clip-rule="evenodd" d="M33.5913 20.6621C38.8447 20.693 43.1357 24.828 43.2759 29.9629L43.2798 30.209V39.7559C43.2717 41.124 42.1373 42.2289 40.7583 42.229H32.1836L33.6182 49.1626C33.7059 49.5922 33.5351 50.0333 33.1777 50.2886C33.1665 50.2966 33.1543 50.3031 33.1421 50.3091C32.9547 50.4337 32.7364 50.5 32.5049 50.5C32.3325 50.5 32.1646 50.4584 32.0176 50.3916C32.0148 50.3904 32.012 50.389 32.0093 50.3877L31.959 50.3623C31.9559 50.3608 31.9527 50.3591 31.9497 50.3574L24.998 46.5132L18.0464 50.3574C17.8709 50.4544 17.6781 50.5 17.4878 50.5C17.2518 50.5 17.0176 50.4277 16.8228 50.2852C16.4588 50.027 16.2848 49.585 16.3828 49.1509L17.8125 42.2256H9.23828C7.85186 42.2255 6.72025 41.1162 6.72021 39.7471V29.958L6.72949 29.7241C6.85616 27.3131 7.89142 25.0667 9.66113 23.3755C11.4913 21.6264 13.9072 20.6583 16.4648 20.6582H33.5493C33.5635 20.6582 33.5776 20.6598 33.5913 20.6621ZM31.252 47.6875L31.2529 47.688L29.9214 41.2148L31.252 47.6875ZM22.4526 34.8638C22.45 34.8717 22.4483 34.88 22.4448 34.8877C22.2823 35.2452 21.9398 35.4901 21.5513 35.5317C21.5497 35.5319 21.5479 35.5316 21.5464 35.5317L15.4663 36.2153L19.9639 40.27C20.2427 40.5163 20.3769 40.8836 20.3262 41.2524C20.3255 41.2573 20.3247 41.2622 20.3237 41.2671L20.313 41.3213L20.3125 41.3223L19.1016 47.2031L24.4395 44.2539L24.4678 44.2407C24.469 44.2402 24.4704 44.2397 24.4717 44.2393C24.766 44.0894 25.1146 44.0713 25.4224 44.1943L25.4854 44.2217L25.4902 44.2241L25.5132 44.2358C25.5281 44.2407 25.5428 44.2463 25.5566 44.2539L30.8984 47.2065L29.6763 41.2651C29.6752 41.26 29.6746 41.2547 29.6738 41.2495C29.6257 40.9081 29.7418 40.566 29.9819 40.3179C29.9947 40.2959 30.0105 40.2751 30.0303 40.2573L34.5259 36.2046L28.4438 35.521L28.4429 35.5205C28.0484 35.475 27.7093 35.2376 27.5454 34.8794L24.9976 29.415L22.4526 34.8638ZM42.9253 40.4102C42.9916 40.2027 43.0284 39.9826 43.0298 39.7544L43.0259 39.8687C43.0151 40.0562 42.9805 40.2376 42.9253 40.4102ZM16.3052 22.8955C14.3475 22.9362 12.5199 23.7093 11.1436 25.0752C9.75813 26.4537 8.99268 28.2746 8.99268 30.2056V39.7505C8.99268 39.878 9.09271 39.9848 9.2417 39.9849H16.2729L12.0884 36.2153C11.8825 36.0352 11.749 35.7855 11.7168 35.5093C11.6803 35.2154 11.7653 34.9262 11.9492 34.6963L11.9497 34.6958C12.1394 34.4598 12.4125 34.3127 12.7178 34.2808L20.6431 33.3887L23.957 26.2817L23.9575 26.2808C24.0722 26.0378 24.2704 25.8391 24.5249 25.728L24.5337 25.7241L24.6162 25.6919L24.6284 25.6875C25.1776 25.5045 25.7759 25.7598 26.0171 26.2817L29.3311 33.3887L37.2588 34.2812C37.5361 34.3131 37.7899 34.441 37.9751 34.6445L38.0435 34.7266C38.3623 35.1497 38.3394 35.7416 37.9751 36.1406C37.9726 36.1434 37.9699 36.1463 37.9673 36.1489L37.9062 36.21C37.9033 36.213 37.9001 36.2159 37.897 36.2188L33.7119 39.9888H40.751C40.8987 39.9888 41.0033 39.876 41.0034 39.7544V30.2095L41.001 30.021C40.8953 26.0804 37.5894 22.8985 33.5386 22.8984H16.3428C16.3315 22.8984 16.3205 22.8978 16.3101 22.8965C16.3084 22.8963 16.3067 22.8957 16.3052 22.8955ZM12.7437 34.5298L12.6553 34.543C12.6266 34.5488 12.5984 34.556 12.5708 34.5645C12.6264 34.5475 12.684 34.536 12.7437 34.5298ZM42.9185 28.7964C42.979 29.1804 43.0155 29.572 43.0264 29.9697L43.0171 29.7319C43.0003 29.4157 42.9669 29.1036 42.9185 28.7964ZM41.7671 25.5894C41.9958 25.9784 42.1968 26.385 42.3672 26.8066C42.282 26.5958 42.1895 26.3886 42.0894 26.1855C42.056 26.1179 42.0218 26.0506 41.9868 25.9839C41.9169 25.8504 41.8433 25.719 41.7671 25.5894ZM9.8335 23.5562C9.55542 23.8219 9.2962 24.1018 9.05615 24.394L9.20264 24.2202C9.40086 23.9905 9.61104 23.7687 9.8335 23.5562ZM13.4204 23.2534C13.3638 23.2773 13.3075 23.302 13.2515 23.3271C13.3636 23.2768 13.4769 23.2291 13.5913 23.1841L13.4204 23.2534ZM15.9458 22.6606C15.6943 22.677 15.4452 22.705 15.1992 22.7446C15.5069 22.6951 15.8193 22.6634 16.1353 22.6504L15.9458 22.6606Z" fill="currentColor"/>
<path fill-rule="evenodd" clip-rule="evenodd" d="M15.1694 9.63721L14.9199 9.63086C14.9862 7.04138 16.0658 4.62142 17.957 2.81104C19.852 0.996994 22.3509 3.06886e-05 24.9946 0C30.5499 5.9318e-05 35.0732 4.42772 35.0732 9.88477C35.0732 15.3417 30.5464 19.7729 24.9946 19.7729H24.9517C24.9245 19.7729 24.9016 19.768 24.8877 19.7646C19.3949 19.7029 14.9195 15.2886 14.9194 9.88477L14.9199 9.63086L15.1694 9.63721V9.88477L15.1729 10.1313C15.176 10.2545 15.1825 10.377 15.1904 10.499C15.1772 10.2959 15.1694 10.0911 15.1694 9.88477V9.63721ZM24.9297 19.5161L24.9517 19.5229C24.945 19.5229 24.9314 19.517 24.9297 19.5161ZM25.0762 2.23828C25.0667 2.23932 25.0584 2.24003 25.0532 2.24023H24.998C20.6817 2.24033 17.1817 5.67506 17.1816 9.88818V9.89209C17.1817 14.1054 20.6747 17.5399 24.9907 17.54C29.3066 17.54 32.8075 14.0806 32.8076 9.89209C32.8076 5.71062 29.3475 2.28067 25.0811 2.23682C25.0793 2.23708 25.0775 2.23813 25.0762 2.23828ZM18.6978 14.8228C18.7226 14.8531 18.7472 14.8836 18.7725 14.9136L18.7881 14.9316C18.7576 14.8957 18.7276 14.8593 18.6978 14.8228ZM16.9419 10.2979C16.9432 10.3228 16.9452 10.3477 16.9468 10.3726C16.9411 10.2807 16.9365 10.1884 16.9341 10.0957L16.9419 10.2979ZM17.4917 6.99463C17.4676 7.05431 17.4445 7.11443 17.4219 7.1748C17.4671 7.05393 17.5154 6.93444 17.5664 6.81641L17.4917 6.99463ZM18.5356 5.16504C18.3419 5.41852 18.1635 5.68383 18.0015 5.95947C18.0663 5.84916 18.1341 5.74068 18.2041 5.63379C18.3091 5.47351 18.4194 5.31715 18.5356 5.16504ZM17.6602 3.47363C17.7042 3.42537 17.7484 3.37711 17.7935 3.32959L17.7988 3.32373C17.7519 3.37314 17.706 3.42341 17.6602 3.47363ZM19.8188 1.69189C19.6317 1.80599 19.4483 1.92684 19.2686 2.05371C19.5128 1.88136 19.7639 1.72047 20.0215 1.57178L19.8188 1.69189ZM25.5 0.262695C26.0003 0.287624 26.4908 0.349014 26.9688 0.444824C26.4109 0.332979 25.8357 0.267571 25.248 0.25293L25.5 0.262695Z" fill="currentColor"/>
</svg>
