<svg width="50" height="50" viewBox="0 0 50 50" fill="none" xmlns="http://www.w3.org/2000/svg">
<path d="M24.9975 38.2881C24.3063 38.2881 23.7425 38.8519 23.7425 39.5431V41.6266C23.7425 42.3179 24.3063 42.8817 24.9975 42.8817C25.6888 42.8817 26.2526 42.3179 26.2526 41.6266V39.5431C26.2526 38.8519 25.6888 38.2881 24.9975 38.2881Z" fill="currentColor"/>
<path d="M24.1445 43.9651C23.8847 44.1955 23.7425 44.5289 23.7425 44.9064C23.7425 45.2839 23.8847 45.6172 24.1445 45.8476C24.3749 46.0486 24.674 46.1614 24.9975 46.1614C25.3211 46.1614 25.6202 46.0486 25.8506 45.8476C26.1104 45.6172 26.2526 45.2839 26.2526 44.9064C26.2526 44.5289 26.1104 44.1955 25.8506 43.9651C25.3946 43.5582 24.6054 43.5582 24.1494 43.9651H24.1445Z" fill="currentColor"/>
<path d="M35.8368 14.1484C35.4054 13.717 34.7093 13.6631 34.2141 14.021L24.9632 20.6834C22.5954 20.6981 20.6736 22.6297 20.6736 25.0025C20.6736 27.3752 22.6101 29.3215 24.9926 29.3215C27.3752 29.3215 29.2676 27.4243 29.3117 25.0319L35.9692 15.7712C36.332 15.2711 36.2781 14.5848 35.8417 14.1484H35.8368ZM26.8311 24.3063C26.7869 24.4632 26.7722 24.625 26.7918 24.7867C26.8016 24.8554 26.8016 24.9289 26.8016 24.9926C26.8016 25.9878 25.9927 26.8016 24.9926 26.8016C23.9925 26.8016 23.1836 25.9927 23.1836 24.9926C23.1836 23.9925 23.9974 23.1836 24.9926 23.1836H25.0123C25.0711 23.1836 25.125 23.1836 25.1887 23.1935C25.5025 23.2327 25.8163 23.1493 26.0712 22.963L29.4294 20.5461L26.8899 24.0759L26.7869 24.2671L26.8262 24.3063H26.8311Z" fill="currentColor"/>
<path d="M28.4636 34.5573H28.4734L27.9831 33.8023C27.3262 32.7826 26.2085 32.1698 24.9926 32.1698C23.8504 32.1698 22.8062 32.6944 22.1247 33.6209L15.1093 44.5289C14.4083 45.6221 14.3593 47.0095 14.977 48.1567C15.5996 49.299 16.7909 50.0098 18.0949 50.0098H31.8757C33.1797 50.0098 34.371 49.299 34.9936 48.1567C35.6162 47.0144 35.5623 45.6221 34.8613 44.5289L28.4538 34.5622L28.4636 34.5573ZM31.8904 47.4801H18.1096C17.7272 47.4801 17.3792 47.2742 17.2027 46.9458L17.1684 46.8772C17.0213 46.5585 17.0458 46.1761 17.237 45.8771L24.1249 35.1603L24.1641 35.1015C24.3651 34.8318 24.6691 34.675 25.0024 34.675C25.3554 34.675 25.6839 34.8564 25.88 35.1554L32.7728 45.882C32.9787 46.2006 32.9934 46.6075 32.8071 46.9458C32.6257 47.2791 32.2728 47.4851 31.8953 47.4851L31.8904 47.4801Z" fill="currentColor"/>
<path d="M42.6806 7.31935L42.4208 7.07913C37.7341 2.51005 31.5521 0 24.9975 0C18.443 0 12.0404 2.6032 7.32425 7.32425C2.6032 12.0404 0 18.3204 0 24.9976C0 31.6747 2.6032 37.9547 7.33405 42.6807L7.4223 42.7591C7.65271 42.9503 7.93705 43.0434 8.21649 43.0434C8.54005 43.0434 8.85871 42.9209 9.10383 42.6758L13.4376 38.342C13.6729 38.1067 13.8053 37.7831 13.8053 37.4498C13.8053 37.1164 13.6729 36.7977 13.4376 36.5575C10.3491 33.469 8.643 29.3607 8.643 24.9877C8.643 15.9673 15.982 8.6283 25.0024 8.6283C34.0229 8.6283 41.3619 15.9673 41.3619 24.9877C41.3619 29.3558 39.6607 33.4641 36.5673 36.5575C36.332 36.7928 36.1996 37.1115 36.1996 37.4449C36.1996 37.7782 36.332 38.0969 36.5673 38.3322L40.9011 42.666C41.3766 43.1415 42.2051 43.1415 42.6806 42.666C47.4017 37.9449 50 31.6698 50 24.9926C50 18.3155 47.3968 12.0355 42.6758 7.31935H42.6806ZM26.2526 2.54927C31.3217 2.83361 36.1751 4.84851 39.9696 8.241L37.4105 10.8001C34.3024 8.07922 30.3559 6.44181 26.2477 6.16727V2.54927H26.2526ZM43.8229 23.7425C43.5484 19.6343 41.911 15.6878 39.1901 12.5797L41.7492 10.0206C45.1466 13.8151 47.1615 18.6685 47.4409 23.7425H43.8229ZM47.4458 26.2526C47.1664 31.405 45.2054 36.1408 41.759 39.9843L39.1999 37.4252C41.9551 34.2926 43.5533 30.4393 43.8278 26.2526H47.4507H47.4458ZM23.7425 2.55417V6.17217C19.6343 6.44671 15.6878 8.08413 12.5797 10.805L10.0206 8.24591C13.8151 4.84851 18.6685 2.83361 23.7425 2.55417ZM6.17217 26.2526C6.44181 30.4246 8.04 34.2779 10.7952 37.4203L8.2361 39.9794C4.79459 36.1359 2.83361 31.4001 2.55417 26.2477H6.17217V26.2526ZM10.8001 12.5797C8.07922 15.6878 6.44181 19.6343 6.16727 23.7425H2.54927C2.83361 18.6734 4.84851 13.82 8.241 10.0206L10.8001 12.5797Z" fill="currentColor"/>
</svg>
