<svg width="38" height="38" viewBox="0 0 38 38" fill="none" xmlns="http://www.w3.org/2000/svg">
<g filter="url(#filter0_i_316_708)">
<path d="M9.33335 17.1111V23.3334M28 14V20.2222M26.4445 6.22224C30.2536 6.22224 32.3138 6.80521 33.3389 7.25738C33.4754 7.31759 33.5437 7.3477 33.7407 7.53571C33.8587 7.64841 34.0743 7.97908 34.1297 8.13261C34.2223 8.38873 34.2223 8.52873 34.2223 8.80873V25.5285C34.2223 26.9421 34.2222 27.6489 34.0103 28.0123C33.7946 28.3818 33.5867 28.5536 33.183 28.6957C32.7863 28.8353 31.9853 28.6814 30.3834 28.3736C29.2622 28.1582 27.9324 28 26.4445 28C21.7778 28 17.1111 31.1111 10.8889 31.1111C7.0798 31.1111 5.01958 30.5282 3.9945 30.076C3.85798 30.0158 3.78972 29.9857 3.59272 29.7977C3.47463 29.685 3.25908 29.3543 3.20363 29.2008C3.11112 28.9447 3.11112 28.8047 3.11112 28.5247L3.11112 11.8049C3.11112 10.3913 3.11112 9.68445 3.32311 9.32114C3.53875 8.95157 3.74671 8.77976 4.15033 8.63773C4.54711 8.4981 5.34806 8.652 6.94997 8.95979C8.0712 9.17522 9.40098 9.33336 10.8889 9.33336C15.5556 9.33336 20.2222 6.22224 26.4445 6.22224ZM22.5556 18.6667C22.5556 20.8145 20.8145 22.5556 18.6667 22.5556C16.5189 22.5556 14.7778 20.8145 14.7778 18.6667C14.7778 16.5189 16.5189 14.7778 18.6667 14.7778C20.8145 14.7778 22.5556 16.5189 22.5556 18.6667Z" stroke="black" stroke-width="2.37946" stroke-linecap="round" stroke-linejoin="round"/>
</g>
<defs>
<filter id="filter0_i_316_708" x="0" y="0" width="37.3334" height="37.3334" filterUnits="userSpaceOnUse" color-interpolation-filters="sRGB">
<feFlood flood-opacity="0" result="BackgroundImageFix"/>
<feBlend mode="normal" in="SourceGraphic" in2="BackgroundImageFix" result="shape"/>
<feColorMatrix in="SourceAlpha" type="matrix" values="0 0 0 0 0 0 0 0 0 0 0 0 0 0 0 0 0 0 127 0" result="hardAlpha"/>
<feOffset/>
<feGaussianBlur stdDeviation="0.0807576"/>
<feComposite in2="hardAlpha" operator="arithmetic" k2="-1" k3="1"/>
<feColorMatrix type="matrix" values="0 0 0 0 0 0 0 0 0 0 0 0 0 0 0 0 0 0 0.25 0"/>
<feBlend mode="normal" in2="shape" result="effect1_innerShadow_316_708"/>
</filter>
</defs>
</svg>
