<svg width="25" height="24" viewBox="0 0 25 24" fill="none" xmlns="http://www.w3.org/2000/svg">
<path d="M22.6677 10H2.66772M11.6677 19L19.4677 19C20.5878 19 21.1479 19 21.5757 18.782C21.952 18.5903 22.258 18.2843 22.4497 17.908C22.6677 17.4802 22.6677 16.9201 22.6677 15.8V8.2C22.6677 7.0799 22.6677 6.51984 22.4497 6.09202C22.258 5.7157 21.952 5.40974 21.5757 5.21799C21.1479 5 20.5878 5 19.4677 5H17.6677M11.6677 19L13.6677 21M11.6677 19L13.6677 17M7.66772 19H5.86772C4.74762 19 4.18757 19 3.75974 18.782C3.38342 18.5903 3.07746 18.2843 2.88571 17.908C2.66772 17.4802 2.66772 16.9201 2.66772 15.8V8.2C2.66772 7.0799 2.66772 6.51984 2.88571 6.09202C3.07746 5.71569 3.38342 5.40973 3.75974 5.21799C4.18757 5 4.74762 5 5.86773 5H13.6677M13.6677 5L11.6677 7M13.6677 5L11.6677 3" stroke="#556680" stroke-width="1.8" stroke-linecap="round" stroke-linejoin="round"/>
</svg>
