<svg width="25" height="24" viewBox="0 0 25 24" fill="none" xmlns="http://www.w3.org/2000/svg">
<path d="M21.6677 21H5.26772C4.70767 21 4.42765 21 4.21373 20.891C4.02557 20.7951 3.87259 20.6422 3.77672 20.454C3.66772 20.2401 3.66772 19.9601 3.66772 19.4V3M21.6677 7L16.2334 12.4343C16.0354 12.6323 15.9364 12.7313 15.8222 12.7684C15.7218 12.8011 15.6136 12.8011 15.5132 12.7684C15.3991 12.7313 15.3 12.6323 15.102 12.4343L13.2334 10.5657C13.0354 10.3677 12.9364 10.2687 12.8222 10.2316C12.7218 10.1989 12.6136 10.1989 12.5132 10.2316C12.3991 10.2687 12.3 10.3677 12.102 10.5657L7.66772 15M21.6677 7H17.6677M21.6677 7V11" stroke="white" stroke-width="1.8" stroke-linecap="round" stroke-linejoin="round"/>
</svg>
