<svg width="25" height="24" viewBox="0 0 25 24" fill="none" xmlns="http://www.w3.org/2000/svg">
<path d="M16.6677 18L19.6677 21M19.6677 21L22.6677 18M19.6677 21V15M22.6677 10H2.66771M22.6677 12V8.2C22.6677 7.0799 22.6677 6.51984 22.4497 6.09202C22.258 5.7157 21.952 5.40974 21.5757 5.21799C21.1479 5 20.5878 5 19.4677 5H5.86771C4.7476 5 4.18755 5 3.75973 5.21799C3.3834 5.40973 3.07744 5.71569 2.8857 6.09202C2.66771 6.51984 2.66771 7.0799 2.66771 8.2V15.8C2.66771 16.9201 2.66771 17.4802 2.8857 17.908C3.07744 18.2843 3.3834 18.5903 3.75973 18.782C4.18755 19 4.7476 19 5.86771 19H12.6677" stroke="#556680" stroke-width="1.8" stroke-linecap="round" stroke-linejoin="round"/>
</svg>
