<svg width="71" height="72" viewBox="0 0 71 72" fill="none" xmlns="http://www.w3.org/2000/svg">
<g filter="url(#filter0_dd_2_302)">
<rect x="3.66736" y="3" width="64" height="64" rx="10.6667" fill="#7586A3" shape-rendering="crispEdges"/>
<g filter="url(#filter1_dd_2_302)">
<g clip-path="url(#clip0_2_302)">
<rect x="6.33612" y="5.6665" width="58.6667" height="58.6667" rx="9.28" fill="#556680"/>
<rect opacity="0.8" x="18.3259" y="2.16577" width="0.75" height="63.0019" fill="url(#paint0_radial_2_302)"/>
<rect opacity="0.8" x="35.0758" y="2.16577" width="0.75" height="63.0019" fill="url(#paint1_radial_2_302)"/>
<rect opacity="0.8" x="51.8258" y="2.16577" width="0.75" height="63.0019" fill="url(#paint2_radial_2_302)"/>
<rect opacity="0.8" x="65.8383" y="17.8564" width="0.75" height="63.002" transform="rotate(90 65.8383 17.8564)" fill="url(#paint3_radial_2_302)"/>
<rect opacity="0.8" x="65.8383" y="34.6067" width="0.75" height="63.002" transform="rotate(90 65.8383 34.6067)" fill="url(#paint4_radial_2_302)"/>
<rect opacity="0.8" x="65.8383" y="51.3564" width="0.75" height="63.002" transform="rotate(90 65.8383 51.3564)" fill="url(#paint5_radial_2_302)"/>
</g>
<rect x="6.77362" y="6.104" width="57.7917" height="57.7917" rx="8.8425" stroke="white" stroke-opacity="0.3" stroke-width="0.875"/>
</g>
<path d="M42.334 23.4529C36.5831 20.1326 29.3869 21.5834 25.3287 26.5771C24.9326 27.0645 24.7346 27.3082 24.677 27.6574C24.6311 27.9352 24.699 28.3034 24.841 28.5466C25.0193 28.8522 25.3355 29.0348 25.9679 29.3999L45.3669 40.5999C45.9992 40.965 46.3154 41.1475 46.6693 41.1492C46.9509 41.1505 47.3037 41.0252 47.5213 40.8466C47.7949 40.6221 47.907 40.3288 48.131 39.742C50.4267 33.7307 48.085 26.7731 42.334 23.4529Z" fill="white" fill-opacity="0.16"/>
<path d="M28.0007 48.2789L35.6674 34.9999M42.334 23.4529C36.5831 20.1326 29.3869 21.5834 25.3287 26.5771C24.9326 27.0645 24.7346 27.3082 24.677 27.6574C24.6311 27.9352 24.699 28.3034 24.841 28.5466C25.0193 28.8522 25.3355 29.0348 25.9679 29.3999L45.3669 40.5999C45.9992 40.965 46.3154 41.1475 46.6693 41.1492C46.9509 41.1505 47.3037 41.0252 47.5213 40.8466C47.7949 40.6221 47.907 40.3288 48.131 39.742C50.4267 33.7307 48.085 26.7731 42.334 23.4529ZM42.334 23.4529C39.7832 21.9801 34.7305 25.956 31.0486 32.3332M42.334 23.4529C44.8849 24.9256 43.9681 31.2893 40.2862 37.6665M49.0007 48.3332L22.334 48.3332" stroke="white" stroke-width="2.32727" stroke-linecap="round" stroke-linejoin="round"/>
<rect x="4.00069" y="3.33333" width="63.3333" height="63.3333" rx="10.3333" stroke="white" stroke-opacity="0.4" stroke-width="0.666667" shape-rendering="crispEdges"/>
</g>
<defs>
<filter id="filter0_dd_2_302" x="0.661652" y="0.996196" width="70.0114" height="70.0114" filterUnits="userSpaceOnUse" color-interpolation-filters="sRGB">
<feFlood flood-opacity="0" result="BackgroundImageFix"/>
<feColorMatrix in="SourceAlpha" type="matrix" values="0 0 0 0 0 0 0 0 0 0 0 0 0 0 0 0 0 0 127 0" result="hardAlpha"/>
<feMorphology radius="1.0019" operator="erode" in="SourceAlpha" result="effect1_dropShadow_2_302"/>
<feOffset dy="1.0019"/>
<feGaussianBlur stdDeviation="1.0019"/>
<feComposite in2="hardAlpha" operator="out"/>
<feColorMatrix type="matrix" values="0 0 0 0 0 0 0 0 0 0 0 0 0 0 0 0 0 0 0.1 0"/>
<feBlend mode="normal" in2="BackgroundImageFix" result="effect1_dropShadow_2_302"/>
<feColorMatrix in="SourceAlpha" type="matrix" values="0 0 0 0 0 0 0 0 0 0 0 0 0 0 0 0 0 0 127 0" result="hardAlpha"/>
<feOffset dy="1.0019"/>
<feGaussianBlur stdDeviation="1.50285"/>
<feComposite in2="hardAlpha" operator="out"/>
<feColorMatrix type="matrix" values="0 0 0 0 0 0 0 0 0 0 0 0 0 0 0 0 0 0 0.1 0"/>
<feBlend mode="normal" in2="effect1_dropShadow_2_302" result="effect2_dropShadow_2_302"/>
<feBlend mode="normal" in="SourceGraphic" in2="effect2_dropShadow_2_302" result="shape"/>
</filter>
<filter id="filter1_dd_2_302" x="2.90755" y="3.38079" width="65.5238" height="65.5239" filterUnits="userSpaceOnUse" color-interpolation-filters="sRGB">
<feFlood flood-opacity="0" result="BackgroundImageFix"/>
<feColorMatrix in="SourceAlpha" type="matrix" values="0 0 0 0 0 0 0 0 0 0 0 0 0 0 0 0 0 0 127 0" result="hardAlpha"/>
<feOffset dy="1.14286"/>
<feGaussianBlur stdDeviation="1.14286"/>
<feColorMatrix type="matrix" values="0 0 0 0 0.0627451 0 0 0 0 0.0941176 0 0 0 0 0.156863 0 0 0 0.06 0"/>
<feBlend mode="normal" in2="BackgroundImageFix" result="effect1_dropShadow_2_302"/>
<feColorMatrix in="SourceAlpha" type="matrix" values="0 0 0 0 0 0 0 0 0 0 0 0 0 0 0 0 0 0 127 0" result="hardAlpha"/>
<feOffset dy="1.14286"/>
<feGaussianBlur stdDeviation="1.71429"/>
<feColorMatrix type="matrix" values="0 0 0 0 0.0627451 0 0 0 0 0.0941176 0 0 0 0 0.156863 0 0 0 0.1 0"/>
<feBlend mode="normal" in2="effect1_dropShadow_2_302" result="effect2_dropShadow_2_302"/>
<feBlend mode="normal" in="SourceGraphic" in2="effect2_dropShadow_2_302" result="shape"/>
</filter>
<radialGradient id="paint0_radial_2_302" cx="0" cy="0" r="1" gradientUnits="userSpaceOnUse" gradientTransform="translate(18.7009 33.6667) rotate(90.8254) scale(26.0331 3.74245)">
<stop stop-color="white"/>
<stop offset="0.9999" stop-color="#D9D9D9" stop-opacity="0.1"/>
<stop offset="1" stop-color="white" stop-opacity="0.1"/>
</radialGradient>
<radialGradient id="paint1_radial_2_302" cx="0" cy="0" r="1" gradientUnits="userSpaceOnUse" gradientTransform="translate(35.4508 33.6667) rotate(90.8254) scale(26.0331 3.74245)">
<stop stop-color="white"/>
<stop offset="0.9999" stop-color="#D9D9D9" stop-opacity="0.1"/>
<stop offset="1" stop-color="white" stop-opacity="0.1"/>
</radialGradient>
<radialGradient id="paint2_radial_2_302" cx="0" cy="0" r="1" gradientUnits="userSpaceOnUse" gradientTransform="translate(52.2008 33.6667) rotate(90.8254) scale(26.0331 3.74245)">
<stop stop-color="white"/>
<stop offset="0.9999" stop-color="#D9D9D9" stop-opacity="0.1"/>
<stop offset="1" stop-color="white" stop-opacity="0.1"/>
</radialGradient>
<radialGradient id="paint3_radial_2_302" cx="0" cy="0" r="1" gradientUnits="userSpaceOnUse" gradientTransform="translate(66.2133 49.3574) rotate(90.8254) scale(26.0331 3.74245)">
<stop stop-color="white"/>
<stop offset="0.9999" stop-color="#D9D9D9" stop-opacity="0.1"/>
<stop offset="1" stop-color="white" stop-opacity="0.1"/>
</radialGradient>
<radialGradient id="paint4_radial_2_302" cx="0" cy="0" r="1" gradientUnits="userSpaceOnUse" gradientTransform="translate(66.2133 66.1077) rotate(90.8254) scale(26.0331 3.74245)">
<stop stop-color="white"/>
<stop offset="0.9999" stop-color="#D9D9D9" stop-opacity="0.1"/>
<stop offset="1" stop-color="white" stop-opacity="0.1"/>
</radialGradient>
<radialGradient id="paint5_radial_2_302" cx="0" cy="0" r="1" gradientUnits="userSpaceOnUse" gradientTransform="translate(66.2133 82.8574) rotate(90.8254) scale(26.0331 3.74245)">
<stop stop-color="white"/>
<stop offset="0.9999" stop-color="#D9D9D9" stop-opacity="0.1"/>
<stop offset="1" stop-color="white" stop-opacity="0.1"/>
</radialGradient>
<clipPath id="clip0_2_302">
<rect x="6.33612" y="5.6665" width="58.6667" height="58.6667" rx="9.28" fill="white"/>
</clipPath>
</defs>
</svg>
