<svg width="64" height="64" viewBox="0 0 64 64" fill="none" xmlns="http://www.w3.org/2000/svg">
<g clip-path="url(#clip0_202_17606)">
<rect x="42.8325" y="0.00268555" width="63.9981" height="2.7332" transform="rotate(90 42.8325 0.00268555)" fill="#134E48"/>
<rect x="47.5662" y="0.00268555" width="63.9981" height="2.7332" transform="rotate(90 47.5662 0.00268555)" fill="#134E48"/>
<rect x="38.0967" y="0.00268555" width="63.9981" height="2.7332" transform="rotate(90 38.0967 0.00268555)" fill="#134E48"/>
<rect x="28.6333" y="0.00268555" width="63.9981" height="2.7332" transform="rotate(90 28.6333 0.00268555)" fill="#134E48"/>
<rect x="23.8995" y="0.00268555" width="63.9981" height="2.7332" transform="rotate(90 23.8995 0.00268555)" fill="#134E48"/>
<rect x="19.1658" y="0.00268555" width="63.9981" height="2.7332" transform="rotate(90 19.1658 0.00268555)" fill="#134E48"/>
<rect x="63.9999" y="42.8352" width="63.998" height="2.7332" transform="rotate(-180 63.9999 42.8352)" fill="#134E48"/>
<rect x="63.9999" y="47.5684" width="63.998" height="2.7332" transform="rotate(-180 63.9999 47.5684)" fill="#134E48"/>
<rect x="63.9999" y="38.1023" width="63.998" height="2.7332" transform="rotate(-180 63.9999 38.1023)" fill="#134E48"/>
<rect x="63.9999" y="28.6348" width="63.998" height="2.7332" transform="rotate(-180 63.9999 28.6348)" fill="#134E48"/>
<rect x="63.9999" y="23.9016" width="63.998" height="2.7332" transform="rotate(-180 63.9999 23.9016)" fill="#134E48"/>
<rect x="63.9999" y="19.1672" width="63.998" height="2.7332" transform="rotate(-180 63.9999 19.1672)" fill="#134E48"/>
<g filter="url(#filter0_di_202_17606)">
<rect x="5.33243" y="5.3335" width="53.3333" height="53.3335" rx="8" fill="#1A0044"/>
<rect x="5.66388" y="5.66495" width="52.6704" height="52.6705" rx="7.66855" stroke="black" stroke-opacity="0.2" stroke-width="0.662907"/>
</g>
<g filter="url(#filter1_i_202_17606)">
<path d="M22.6666 30.4443V36.6665M41.3333 27.3332V33.5554M39.7777 19.5554C43.5868 19.5554 45.647 20.1384 46.6721 20.5906C46.8086 20.6508 46.8769 20.6809 47.0739 20.8689C47.192 20.9816 47.4075 21.3123 47.463 21.4658C47.5555 21.7219 47.5555 21.8619 47.5555 22.1419V38.8617C47.5555 40.2753 47.5555 40.9821 47.3435 41.3454C47.1279 41.715 46.9199 41.8868 46.5163 42.0288C46.1195 42.1685 45.3186 42.0146 43.7166 41.7068C42.5954 41.4913 41.2656 41.3332 39.7777 41.3332C35.111 41.3332 30.4444 44.4443 24.2221 44.4443C20.413 44.4443 18.3528 43.8614 17.3277 43.4092C17.1912 43.349 17.123 43.3189 16.926 43.1309C16.8079 43.0182 16.5923 42.6875 16.5369 42.534C16.4444 42.2778 16.4444 42.1378 16.4444 41.8578L16.4444 25.1381C16.4444 23.7244 16.4444 23.0176 16.6564 22.6543C16.872 22.2847 17.08 22.1129 17.4836 21.9709C17.8804 21.8313 18.6813 21.9852 20.2832 22.293C21.4044 22.5084 22.7342 22.6665 24.2221 22.6665C28.8888 22.6665 33.5555 19.5554 39.7777 19.5554ZM35.8888 31.9999C35.8888 34.1476 34.1477 35.8888 31.9999 35.8888C29.8522 35.8888 28.111 34.1476 28.111 31.9999C28.111 29.8521 29.8522 28.111 31.9999 28.111C34.1477 28.111 35.8888 29.8521 35.8888 31.9999Z" stroke="white" stroke-width="2.37946" stroke-linecap="round" stroke-linejoin="round"/>
</g>
</g>
<defs>
<filter id="filter0_di_202_17606" x="-0.000908375" y="1.33349" width="64" height="64.0002" filterUnits="userSpaceOnUse" color-interpolation-filters="sRGB">
<feFlood flood-opacity="0" result="BackgroundImageFix"/>
<feColorMatrix in="SourceAlpha" type="matrix" values="0 0 0 0 0 0 0 0 0 0 0 0 0 0 0 0 0 0 127 0" result="hardAlpha"/>
<feOffset dy="1.33333"/>
<feGaussianBlur stdDeviation="2.66667"/>
<feComposite in2="hardAlpha" operator="out"/>
<feColorMatrix type="matrix" values="0 0 0 0 0 0 0 0 0 0 0 0 0 0 0 0 0 0 0.25 0"/>
<feBlend mode="normal" in2="BackgroundImageFix" result="effect1_dropShadow_202_17606"/>
<feBlend mode="normal" in="SourceGraphic" in2="effect1_dropShadow_202_17606" result="shape"/>
<feColorMatrix in="SourceAlpha" type="matrix" values="0 0 0 0 0 0 0 0 0 0 0 0 0 0 0 0 0 0 127 0" result="hardAlpha"/>
<feOffset/>
<feGaussianBlur stdDeviation="1.32581"/>
<feComposite in2="hardAlpha" operator="arithmetic" k2="-1" k3="1"/>
<feColorMatrix type="matrix" values="0 0 0 0 0 0 0 0 0 0 0 0 0 0 0 0 0 0 0.25 0"/>
<feBlend mode="normal" in2="shape" result="effect2_innerShadow_202_17606"/>
</filter>
<filter id="filter1_i_202_17606" x="13.3333" y="13.3335" width="37.3333" height="37.3333" filterUnits="userSpaceOnUse" color-interpolation-filters="sRGB">
<feFlood flood-opacity="0" result="BackgroundImageFix"/>
<feBlend mode="normal" in="SourceGraphic" in2="BackgroundImageFix" result="shape"/>
<feColorMatrix in="SourceAlpha" type="matrix" values="0 0 0 0 0 0 0 0 0 0 0 0 0 0 0 0 0 0 127 0" result="hardAlpha"/>
<feOffset/>
<feGaussianBlur stdDeviation="0.0807576"/>
<feComposite in2="hardAlpha" operator="arithmetic" k2="-1" k3="1"/>
<feColorMatrix type="matrix" values="0 0 0 0 0 0 0 0 0 0 0 0 0 0 0 0 0 0 0.25 0"/>
<feBlend mode="normal" in2="shape" result="effect1_innerShadow_202_17606"/>
</filter>
<clipPath id="clip0_202_17606">
<rect width="64" height="64.0001" rx="10.6667" fill="white"/>
</clipPath>
</defs>
</svg>
