<svg width="71" height="72" viewBox="0 0 71 72" fill="none" xmlns="http://www.w3.org/2000/svg">
<g filter="url(#filter0_dd_2_303)">
<rect x="3.66733" y="3" width="64" height="64" rx="10.6667" fill="#EF6820" shape-rendering="crispEdges"/>
<g filter="url(#filter1_dd_2_303)">
<g clip-path="url(#clip0_2_303)">
<rect x="6.33295" y="5.6665" width="58.6667" height="58.6667" rx="9.28" fill="#E04F16"/>
<rect opacity="0.8" x="18.3225" y="2.16553" width="0.75" height="63.0019" fill="url(#paint0_radial_2_303)"/>
<rect opacity="0.8" x="35.0725" y="2.16553" width="0.75" height="63.0019" fill="url(#paint1_radial_2_303)"/>
<rect opacity="0.8" x="51.8225" y="2.16553" width="0.75" height="63.0019" fill="url(#paint2_radial_2_303)"/>
<rect opacity="0.8" x="65.835" y="17.8562" width="0.75" height="63.002" transform="rotate(90 65.835 17.8562)" fill="url(#paint3_radial_2_303)"/>
<rect opacity="0.8" x="65.835" y="34.6064" width="0.75" height="63.002" transform="rotate(90 65.835 34.6064)" fill="url(#paint4_radial_2_303)"/>
<rect opacity="0.8" x="65.835" y="51.3562" width="0.75" height="63.002" transform="rotate(90 65.835 51.3562)" fill="url(#paint5_radial_2_303)"/>
</g>
<rect x="6.77045" y="6.104" width="57.7917" height="57.7917" rx="8.8425" stroke="white" stroke-opacity="0.3" stroke-width="0.875"/>
</g>
<path d="M25.8464 40.2672C26.0284 39.794 26.1195 39.5574 26.2383 39.336C26.3438 39.1393 26.4657 38.9519 26.6025 38.7755C26.7565 38.577 26.9358 38.3978 27.2944 38.0392L42.334 22.9996C43.8068 21.5268 46.1946 21.5268 47.6673 22.9996C49.1401 24.4723 49.1401 26.8602 47.6673 28.3329L32.6277 43.3726C32.2691 43.7311 32.0899 43.9104 31.8914 44.0644C31.715 44.2012 31.5276 44.3231 31.3309 44.4286C31.1095 44.5474 30.8729 44.6385 30.3997 44.8205L23.0006 47.6663L25.8464 40.2672Z" fill="white" fill-opacity="0.16"/>
<path d="M25.7448 40.5315C25.9412 40.021 26.0394 39.7657 26.2078 39.6488C26.3549 39.5466 26.537 39.5079 26.713 39.5415C26.9144 39.58 27.1078 39.7734 27.4946 40.1602L30.5067 43.1723C30.8935 43.5591 31.0869 43.7525 31.1254 43.9539C31.159 44.1299 31.1204 44.312 31.0182 44.4592C30.9012 44.6276 30.646 44.7258 30.1354 44.9221L23.0006 47.6663L25.7448 40.5315Z" fill="white" fill-opacity="0.16"/>
<path d="M47.6673 46.9996L37.0007 46.9996M23.0006 47.6663L30.3997 44.8205C30.8729 44.6385 31.1095 44.5474 31.3309 44.4286C31.5276 44.3231 31.715 44.2012 31.8914 44.0644C32.0899 43.9104 32.2691 43.7311 32.6277 43.3726L47.6673 28.3329C49.1401 26.8602 49.1401 24.4723 47.6673 22.9996C46.1946 21.5268 43.8068 21.5268 42.334 22.9996L27.2944 38.0392C26.9358 38.3978 26.7565 38.577 26.6025 38.7755C26.4657 38.9519 26.3438 39.1393 26.2383 39.336C26.1195 39.5574 26.0284 39.794 25.8464 40.2672L23.0006 47.6663ZM23.0006 47.6663L25.7448 40.5315C25.9412 40.021 26.0394 39.7657 26.2078 39.6488C26.3549 39.5466 26.537 39.5079 26.713 39.5415C26.9144 39.58 27.1078 39.7734 27.4946 40.1602L30.5067 43.1723C30.8935 43.5591 31.0869 43.7525 31.1254 43.9539C31.159 44.1299 31.1204 44.312 31.0182 44.4592C30.9012 44.6276 30.646 44.7258 30.1354 44.9221L23.0006 47.6663Z" stroke="white" stroke-width="2.32727" stroke-linecap="round" stroke-linejoin="round"/>
<rect x="4.00066" y="3.33333" width="63.3333" height="63.3333" rx="10.3333" stroke="white" stroke-opacity="0.4" stroke-width="0.666667" shape-rendering="crispEdges"/>
</g>
<defs>
<filter id="filter0_dd_2_303" x="0.661621" y="0.996196" width="70.0114" height="70.0114" filterUnits="userSpaceOnUse" color-interpolation-filters="sRGB">
<feFlood flood-opacity="0" result="BackgroundImageFix"/>
<feColorMatrix in="SourceAlpha" type="matrix" values="0 0 0 0 0 0 0 0 0 0 0 0 0 0 0 0 0 0 127 0" result="hardAlpha"/>
<feMorphology radius="1.0019" operator="erode" in="SourceAlpha" result="effect1_dropShadow_2_303"/>
<feOffset dy="1.0019"/>
<feGaussianBlur stdDeviation="1.0019"/>
<feComposite in2="hardAlpha" operator="out"/>
<feColorMatrix type="matrix" values="0 0 0 0 0 0 0 0 0 0 0 0 0 0 0 0 0 0 0.1 0"/>
<feBlend mode="normal" in2="BackgroundImageFix" result="effect1_dropShadow_2_303"/>
<feColorMatrix in="SourceAlpha" type="matrix" values="0 0 0 0 0 0 0 0 0 0 0 0 0 0 0 0 0 0 127 0" result="hardAlpha"/>
<feOffset dy="1.0019"/>
<feGaussianBlur stdDeviation="1.50285"/>
<feComposite in2="hardAlpha" operator="out"/>
<feColorMatrix type="matrix" values="0 0 0 0 0 0 0 0 0 0 0 0 0 0 0 0 0 0 0.1 0"/>
<feBlend mode="normal" in2="effect1_dropShadow_2_303" result="effect2_dropShadow_2_303"/>
<feBlend mode="normal" in="SourceGraphic" in2="effect2_dropShadow_2_303" result="shape"/>
</filter>
<filter id="filter1_dd_2_303" x="2.90438" y="3.38079" width="65.5238" height="65.5239" filterUnits="userSpaceOnUse" color-interpolation-filters="sRGB">
<feFlood flood-opacity="0" result="BackgroundImageFix"/>
<feColorMatrix in="SourceAlpha" type="matrix" values="0 0 0 0 0 0 0 0 0 0 0 0 0 0 0 0 0 0 127 0" result="hardAlpha"/>
<feOffset dy="1.14286"/>
<feGaussianBlur stdDeviation="1.14286"/>
<feColorMatrix type="matrix" values="0 0 0 0 0.0627451 0 0 0 0 0.0941176 0 0 0 0 0.156863 0 0 0 0.06 0"/>
<feBlend mode="normal" in2="BackgroundImageFix" result="effect1_dropShadow_2_303"/>
<feColorMatrix in="SourceAlpha" type="matrix" values="0 0 0 0 0 0 0 0 0 0 0 0 0 0 0 0 0 0 127 0" result="hardAlpha"/>
<feOffset dy="1.14286"/>
<feGaussianBlur stdDeviation="1.71429"/>
<feColorMatrix type="matrix" values="0 0 0 0 0.0627451 0 0 0 0 0.0941176 0 0 0 0 0.156863 0 0 0 0.1 0"/>
<feBlend mode="normal" in2="effect1_dropShadow_2_303" result="effect2_dropShadow_2_303"/>
<feBlend mode="normal" in="SourceGraphic" in2="effect2_dropShadow_2_303" result="shape"/>
</filter>
<radialGradient id="paint0_radial_2_303" cx="0" cy="0" r="1" gradientUnits="userSpaceOnUse" gradientTransform="translate(18.6975 33.6665) rotate(90.8254) scale(26.0331 3.74245)">
<stop stop-color="white"/>
<stop offset="0.9999" stop-color="#D9D9D9" stop-opacity="0.1"/>
<stop offset="1" stop-color="white" stop-opacity="0.1"/>
</radialGradient>
<radialGradient id="paint1_radial_2_303" cx="0" cy="0" r="1" gradientUnits="userSpaceOnUse" gradientTransform="translate(35.4475 33.6665) rotate(90.8254) scale(26.0331 3.74245)">
<stop stop-color="white"/>
<stop offset="0.9999" stop-color="#D9D9D9" stop-opacity="0.1"/>
<stop offset="1" stop-color="white" stop-opacity="0.1"/>
</radialGradient>
<radialGradient id="paint2_radial_2_303" cx="0" cy="0" r="1" gradientUnits="userSpaceOnUse" gradientTransform="translate(52.1975 33.6665) rotate(90.8254) scale(26.0331 3.74245)">
<stop stop-color="white"/>
<stop offset="0.9999" stop-color="#D9D9D9" stop-opacity="0.1"/>
<stop offset="1" stop-color="white" stop-opacity="0.1"/>
</radialGradient>
<radialGradient id="paint3_radial_2_303" cx="0" cy="0" r="1" gradientUnits="userSpaceOnUse" gradientTransform="translate(66.21 49.3572) rotate(90.8254) scale(26.0331 3.74245)">
<stop stop-color="white"/>
<stop offset="0.9999" stop-color="#D9D9D9" stop-opacity="0.1"/>
<stop offset="1" stop-color="white" stop-opacity="0.1"/>
</radialGradient>
<radialGradient id="paint4_radial_2_303" cx="0" cy="0" r="1" gradientUnits="userSpaceOnUse" gradientTransform="translate(66.21 66.1074) rotate(90.8254) scale(26.0331 3.74245)">
<stop stop-color="white"/>
<stop offset="0.9999" stop-color="#D9D9D9" stop-opacity="0.1"/>
<stop offset="1" stop-color="white" stop-opacity="0.1"/>
</radialGradient>
<radialGradient id="paint5_radial_2_303" cx="0" cy="0" r="1" gradientUnits="userSpaceOnUse" gradientTransform="translate(66.21 82.8572) rotate(90.8254) scale(26.0331 3.74245)">
<stop stop-color="white"/>
<stop offset="0.9999" stop-color="#D9D9D9" stop-opacity="0.1"/>
<stop offset="1" stop-color="white" stop-opacity="0.1"/>
</radialGradient>
<clipPath id="clip0_2_303">
<rect x="6.33295" y="5.6665" width="58.6667" height="58.6667" rx="9.28" fill="white"/>
</clipPath>
</defs>
</svg>
