<svg width="64" height="64" viewBox="0 0 64 64" fill="none" xmlns="http://www.w3.org/2000/svg">
<g clip-path="url(#clip0_32_17514)">
<rect width="64" height="64" rx="10.6667" fill="#2E90FA"/>
<g filter="url(#filter0_dd_32_17514)">
<g clip-path="url(#clip1_32_17514)">
<rect x="2.66876" y="2.66675" width="58.6667" height="58.6667" rx="9.28" fill="#1570EF"/>
<rect opacity="0.8" x="14.6584" y="-0.833984" width="0.75" height="63.0019" fill="url(#paint0_radial_32_17514)"/>
<rect opacity="0.8" x="31.4084" y="-0.833984" width="0.75" height="63.0019" fill="url(#paint1_radial_32_17514)"/>
<rect opacity="0.8" x="48.1584" y="-0.833984" width="0.75" height="63.0019" fill="url(#paint2_radial_32_17514)"/>
<rect opacity="0.8" x="62.1709" y="14.8567" width="0.75" height="63.002" transform="rotate(90 62.1709 14.8567)" fill="url(#paint3_radial_32_17514)"/>
<rect opacity="0.8" x="62.1709" y="31.6069" width="0.75" height="63.002" transform="rotate(90 62.1709 31.6069)" fill="url(#paint4_radial_32_17514)"/>
<rect opacity="0.8" x="62.1709" y="48.3567" width="0.75" height="63.002" transform="rotate(90 62.1709 48.3567)" fill="url(#paint5_radial_32_17514)"/>
</g>
<rect x="3.10626" y="3.10425" width="57.7917" height="57.7917" rx="8.8425" stroke="white" stroke-opacity="0.3" stroke-width="0.875"/>
</g>
<path d="M18.7458 27.9999L45.4125 27.9999L45.4125 25.5999C45.4125 24.1064 45.4125 23.3597 45.1219 22.7893C44.8662 22.2875 44.4583 21.8796 43.9565 21.6239C43.3861 21.3333 42.6393 21.3333 41.1459 21.3333L23.0125 21.3333C21.519 21.3333 20.7723 21.3333 20.2019 21.6239C19.7001 21.8796 19.2922 22.2875 19.0365 22.7893C18.7458 23.3597 18.7458 24.1064 18.7458 25.5999L18.7458 27.9999Z" fill="white" fill-opacity="0.16"/>
<path d="M28.0792 37.3333L32.0792 33.3333M32.0792 33.3333L36.0792 37.3333M32.0792 33.3333L32.0792 42.6666M45.4125 27.9999L18.7458 27.9999M23.4125 39.9999L23.0125 39.9999C21.519 39.9999 20.7723 39.9999 20.2019 39.7093C19.7001 39.4536 19.2922 39.0457 19.0365 38.5439C18.7458 37.9735 18.7458 37.2267 18.7458 35.7332L18.7458 25.5999C18.7458 24.1064 18.7458 23.3597 19.0365 22.7893C19.2922 22.2875 19.7001 21.8796 20.2019 21.6239C20.7723 21.3333 21.519 21.3333 23.0125 21.3333L41.1459 21.3333C42.6393 21.3333 43.3861 21.3333 43.9565 21.6239C44.4583 21.8796 44.8662 22.2875 45.1219 22.7893C45.4125 23.3597 45.4125 24.1064 45.4125 25.5999L45.4125 35.7333C45.4125 37.2267 45.4125 37.9735 45.1219 38.5439C44.8662 39.0457 44.4583 39.4536 43.9565 39.7093C43.3861 39.9999 42.6393 39.9999 41.1458 39.9999L40.7458 39.9999" stroke="white" stroke-width="2.32727" stroke-linecap="round" stroke-linejoin="round"/>
</g>
<rect x="0.333333" y="0.333333" width="63.3333" height="63.3333" rx="10.3333" stroke="white" stroke-opacity="0.4" stroke-width="0.666667"/>
<defs>
<filter id="filter0_dd_32_17514" x="-0.759809" y="0.381034" width="65.5238" height="65.5239" filterUnits="userSpaceOnUse" color-interpolation-filters="sRGB">
<feFlood flood-opacity="0" result="BackgroundImageFix"/>
<feColorMatrix in="SourceAlpha" type="matrix" values="0 0 0 0 0 0 0 0 0 0 0 0 0 0 0 0 0 0 127 0" result="hardAlpha"/>
<feOffset dy="1.14286"/>
<feGaussianBlur stdDeviation="1.14286"/>
<feColorMatrix type="matrix" values="0 0 0 0 0.0627451 0 0 0 0 0.0941176 0 0 0 0 0.156863 0 0 0 0.06 0"/>
<feBlend mode="normal" in2="BackgroundImageFix" result="effect1_dropShadow_32_17514"/>
<feColorMatrix in="SourceAlpha" type="matrix" values="0 0 0 0 0 0 0 0 0 0 0 0 0 0 0 0 0 0 127 0" result="hardAlpha"/>
<feOffset dy="1.14286"/>
<feGaussianBlur stdDeviation="1.71429"/>
<feColorMatrix type="matrix" values="0 0 0 0 0.0627451 0 0 0 0 0.0941176 0 0 0 0 0.156863 0 0 0 0.1 0"/>
<feBlend mode="normal" in2="effect1_dropShadow_32_17514" result="effect2_dropShadow_32_17514"/>
<feBlend mode="normal" in="SourceGraphic" in2="effect2_dropShadow_32_17514" result="shape"/>
</filter>
<radialGradient id="paint0_radial_32_17514" cx="0" cy="0" r="1" gradientUnits="userSpaceOnUse" gradientTransform="translate(15.0334 30.667) rotate(90.8254) scale(26.0331 3.74245)">
<stop stop-color="white"/>
<stop offset="0.9999" stop-color="#D9D9D9" stop-opacity="0.1"/>
<stop offset="1" stop-color="white" stop-opacity="0.1"/>
</radialGradient>
<radialGradient id="paint1_radial_32_17514" cx="0" cy="0" r="1" gradientUnits="userSpaceOnUse" gradientTransform="translate(31.7834 30.667) rotate(90.8254) scale(26.0331 3.74245)">
<stop stop-color="white"/>
<stop offset="0.9999" stop-color="#D9D9D9" stop-opacity="0.1"/>
<stop offset="1" stop-color="white" stop-opacity="0.1"/>
</radialGradient>
<radialGradient id="paint2_radial_32_17514" cx="0" cy="0" r="1" gradientUnits="userSpaceOnUse" gradientTransform="translate(48.5334 30.667) rotate(90.8254) scale(26.0331 3.74245)">
<stop stop-color="white"/>
<stop offset="0.9999" stop-color="#D9D9D9" stop-opacity="0.1"/>
<stop offset="1" stop-color="white" stop-opacity="0.1"/>
</radialGradient>
<radialGradient id="paint3_radial_32_17514" cx="0" cy="0" r="1" gradientUnits="userSpaceOnUse" gradientTransform="translate(62.5459 46.3577) rotate(90.8254) scale(26.0331 3.74245)">
<stop stop-color="white"/>
<stop offset="0.9999" stop-color="#D9D9D9" stop-opacity="0.1"/>
<stop offset="1" stop-color="white" stop-opacity="0.1"/>
</radialGradient>
<radialGradient id="paint4_radial_32_17514" cx="0" cy="0" r="1" gradientUnits="userSpaceOnUse" gradientTransform="translate(62.5459 63.1079) rotate(90.8254) scale(26.0331 3.74245)">
<stop stop-color="white"/>
<stop offset="0.9999" stop-color="#D9D9D9" stop-opacity="0.1"/>
<stop offset="1" stop-color="white" stop-opacity="0.1"/>
</radialGradient>
<radialGradient id="paint5_radial_32_17514" cx="0" cy="0" r="1" gradientUnits="userSpaceOnUse" gradientTransform="translate(62.5459 79.8577) rotate(90.8254) scale(26.0331 3.74245)">
<stop stop-color="white"/>
<stop offset="0.9999" stop-color="#D9D9D9" stop-opacity="0.1"/>
<stop offset="1" stop-color="white" stop-opacity="0.1"/>
</radialGradient>
<clipPath id="clip0_32_17514">
<rect width="64" height="64" rx="10.6667" fill="white"/>
</clipPath>
<clipPath id="clip1_32_17514">
<rect x="2.66876" y="2.66675" width="58.6667" height="58.6667" rx="9.28" fill="white"/>
</clipPath>
</defs>
</svg>
