<svg width="64" height="64" viewBox="0 0 64 64" fill="none" xmlns="http://www.w3.org/2000/svg">
<g clip-path="url(#clip0_32_17516)">
<rect width="64" height="64" rx="10.6667" fill="#2E90FA"/>
<g filter="url(#filter0_dd_32_17516)">
<g clip-path="url(#clip1_32_17516)">
<rect x="2.66876" y="2.66699" width="58.6667" height="58.6667" rx="9.28" fill="#1570EF"/>
<rect opacity="0.8" x="14.6585" y="-0.83374" width="0.75" height="63.0019" fill="url(#paint0_radial_32_17516)"/>
<rect opacity="0.8" x="31.4085" y="-0.83374" width="0.75" height="63.0019" fill="url(#paint1_radial_32_17516)"/>
<rect opacity="0.8" x="48.1584" y="-0.83374" width="0.75" height="63.0019" fill="url(#paint2_radial_32_17516)"/>
<rect opacity="0.8" x="62.1709" y="14.8569" width="0.75" height="63.002" transform="rotate(90 62.1709 14.8569)" fill="url(#paint3_radial_32_17516)"/>
<rect opacity="0.8" x="62.1709" y="31.6072" width="0.75" height="63.002" transform="rotate(90 62.1709 31.6072)" fill="url(#paint4_radial_32_17516)"/>
<rect opacity="0.8" x="62.1709" y="48.3569" width="0.75" height="63.002" transform="rotate(90 62.1709 48.3569)" fill="url(#paint5_radial_32_17516)"/>
</g>
<rect x="3.10626" y="3.10449" width="57.7917" height="57.7917" rx="8.8425" stroke="white" stroke-opacity="0.3" stroke-width="0.875"/>
</g>
<path d="M33.3334 30.6669L39.7334 30.6669C41.2268 30.6669 41.9736 30.6669 42.544 30.9576C43.0458 31.2132 43.4537 31.6212 43.7094 32.1229C44 32.6934 44 33.4401 44 34.9336L44 44.0002L33.3334 44.0002L20 44.0002L20 24.2669C20 22.7734 20 22.0267 20.2907 21.4563C20.5463 20.9545 20.9543 20.5466 21.456 20.2909C22.0265 20.0002 22.7732 20.0002 24.2667 20.0002L29.0667 20.0002C30.5602 20.0002 31.3069 20.0002 31.8773 20.2909C32.3791 20.5466 32.787 20.9545 33.0427 21.4563C33.3334 22.0267 33.3334 22.7734 33.3334 24.2669L33.3334 30.6669Z" fill="white" fill-opacity="0.16"/>
<path d="M33.3334 30.6669L39.7334 30.6669C41.2268 30.6669 41.9736 30.6669 42.544 30.9576C43.0458 31.2132 43.4537 31.6212 43.7094 32.1229C44 32.6934 44 33.4401 44 34.9336L44 44.0002M33.3334 44.0002L33.3334 24.2669C33.3334 22.7734 33.3334 22.0267 33.0427 21.4563C32.787 20.9545 32.3791 20.5466 31.8773 20.2909C31.3069 20.0002 30.5602 20.0002 29.0667 20.0002L24.2667 20.0002C22.7732 20.0002 22.0265 20.0002 21.456 20.2909C20.9543 20.5466 20.5463 20.9545 20.2907 21.4563C20 22.0267 20 22.7734 20 24.2669L20 44.0002M45.3334 44.0002L18.6667 44.0002M24.6667 25.3336L28.6667 25.3336M24.6667 30.6669L28.6667 30.6669M24.6667 36.0002L28.6667 36.0002" stroke="white" stroke-width="2.32727" stroke-linecap="round" stroke-linejoin="round"/>
</g>
<rect x="0.333333" y="0.333333" width="63.3333" height="63.3333" rx="10.3333" stroke="white" stroke-opacity="0.4" stroke-width="0.666667"/>
<defs>
<filter id="filter0_dd_32_17516" x="-0.759809" y="0.381278" width="65.5238" height="65.5239" filterUnits="userSpaceOnUse" color-interpolation-filters="sRGB">
<feFlood flood-opacity="0" result="BackgroundImageFix"/>
<feColorMatrix in="SourceAlpha" type="matrix" values="0 0 0 0 0 0 0 0 0 0 0 0 0 0 0 0 0 0 127 0" result="hardAlpha"/>
<feOffset dy="1.14286"/>
<feGaussianBlur stdDeviation="1.14286"/>
<feColorMatrix type="matrix" values="0 0 0 0 0.0627451 0 0 0 0 0.0941176 0 0 0 0 0.156863 0 0 0 0.06 0"/>
<feBlend mode="normal" in2="BackgroundImageFix" result="effect1_dropShadow_32_17516"/>
<feColorMatrix in="SourceAlpha" type="matrix" values="0 0 0 0 0 0 0 0 0 0 0 0 0 0 0 0 0 0 127 0" result="hardAlpha"/>
<feOffset dy="1.14286"/>
<feGaussianBlur stdDeviation="1.71429"/>
<feColorMatrix type="matrix" values="0 0 0 0 0.0627451 0 0 0 0 0.0941176 0 0 0 0 0.156863 0 0 0 0.1 0"/>
<feBlend mode="normal" in2="effect1_dropShadow_32_17516" result="effect2_dropShadow_32_17516"/>
<feBlend mode="normal" in="SourceGraphic" in2="effect2_dropShadow_32_17516" result="shape"/>
</filter>
<radialGradient id="paint0_radial_32_17516" cx="0" cy="0" r="1" gradientUnits="userSpaceOnUse" gradientTransform="translate(15.0335 30.6672) rotate(90.8254) scale(26.0331 3.74245)">
<stop stop-color="white"/>
<stop offset="0.9999" stop-color="#D9D9D9" stop-opacity="0.1"/>
<stop offset="1" stop-color="white" stop-opacity="0.1"/>
</radialGradient>
<radialGradient id="paint1_radial_32_17516" cx="0" cy="0" r="1" gradientUnits="userSpaceOnUse" gradientTransform="translate(31.7835 30.6672) rotate(90.8254) scale(26.0331 3.74245)">
<stop stop-color="white"/>
<stop offset="0.9999" stop-color="#D9D9D9" stop-opacity="0.1"/>
<stop offset="1" stop-color="white" stop-opacity="0.1"/>
</radialGradient>
<radialGradient id="paint2_radial_32_17516" cx="0" cy="0" r="1" gradientUnits="userSpaceOnUse" gradientTransform="translate(48.5334 30.6672) rotate(90.8254) scale(26.0331 3.74245)">
<stop stop-color="white"/>
<stop offset="0.9999" stop-color="#D9D9D9" stop-opacity="0.1"/>
<stop offset="1" stop-color="white" stop-opacity="0.1"/>
</radialGradient>
<radialGradient id="paint3_radial_32_17516" cx="0" cy="0" r="1" gradientUnits="userSpaceOnUse" gradientTransform="translate(62.5459 46.3579) rotate(90.8254) scale(26.0331 3.74245)">
<stop stop-color="white"/>
<stop offset="0.9999" stop-color="#D9D9D9" stop-opacity="0.1"/>
<stop offset="1" stop-color="white" stop-opacity="0.1"/>
</radialGradient>
<radialGradient id="paint4_radial_32_17516" cx="0" cy="0" r="1" gradientUnits="userSpaceOnUse" gradientTransform="translate(62.5459 63.1082) rotate(90.8254) scale(26.0331 3.74245)">
<stop stop-color="white"/>
<stop offset="0.9999" stop-color="#D9D9D9" stop-opacity="0.1"/>
<stop offset="1" stop-color="white" stop-opacity="0.1"/>
</radialGradient>
<radialGradient id="paint5_radial_32_17516" cx="0" cy="0" r="1" gradientUnits="userSpaceOnUse" gradientTransform="translate(62.5459 79.8579) rotate(90.8254) scale(26.0331 3.74245)">
<stop stop-color="white"/>
<stop offset="0.9999" stop-color="#D9D9D9" stop-opacity="0.1"/>
<stop offset="1" stop-color="white" stop-opacity="0.1"/>
</radialGradient>
<clipPath id="clip0_32_17516">
<rect width="64" height="64" rx="10.6667" fill="white"/>
</clipPath>
<clipPath id="clip1_32_17516">
<rect x="2.66876" y="2.66699" width="58.6667" height="58.6667" rx="9.28" fill="white"/>
</clipPath>
</defs>
</svg>
