<svg width="64" height="64" viewBox="0 0 64 64" fill="none" xmlns="http://www.w3.org/2000/svg">
<g clip-path="url(#clip0_32_17520)">
<rect width="64" height="64" rx="10.6667" fill="#EF6820"/>
<g filter="url(#filter0_dd_32_17520)">
<g clip-path="url(#clip1_32_17520)">
<rect x="2.66565" y="2.6665" width="58.6667" height="58.6667" rx="9.28" fill="#E04F16"/>
<rect opacity="0.8" x="14.6553" y="-0.834473" width="0.75" height="63.0019" fill="url(#paint0_radial_32_17520)"/>
<rect opacity="0.8" x="31.4053" y="-0.834473" width="0.75" height="63.0019" fill="url(#paint1_radial_32_17520)"/>
<rect opacity="0.8" x="48.1553" y="-0.834473" width="0.75" height="63.0019" fill="url(#paint2_radial_32_17520)"/>
<rect opacity="0.8" x="62.1677" y="14.8562" width="0.75" height="63.002" transform="rotate(90 62.1677 14.8562)" fill="url(#paint3_radial_32_17520)"/>
<rect opacity="0.8" x="62.1677" y="31.6064" width="0.75" height="63.002" transform="rotate(90 62.1677 31.6064)" fill="url(#paint4_radial_32_17520)"/>
<rect opacity="0.8" x="62.1677" y="48.3562" width="0.75" height="63.002" transform="rotate(90 62.1677 48.3562)" fill="url(#paint5_radial_32_17520)"/>
</g>
<rect x="3.10315" y="3.104" width="57.7917" height="57.7917" rx="8.8425" stroke="white" stroke-opacity="0.3" stroke-width="0.875"/>
</g>
<path d="M22.179 37.2672C22.3611 36.794 22.4521 36.5574 22.5709 36.336C22.6765 36.1393 22.7983 35.9519 22.9351 35.7755C23.0891 35.577 23.2684 35.3978 23.627 35.0392L38.6666 19.9996C40.1394 18.5268 42.5272 18.5268 44 19.9996C45.4727 21.4723 45.4727 23.8602 43.9999 25.3329L28.9603 40.3726C28.6018 40.7311 28.4225 40.9104 28.224 41.0644C28.0477 41.2012 27.8602 41.3231 27.6635 41.4286C27.4422 41.5474 27.2055 41.6385 26.7323 41.8205L19.3333 44.6663L22.179 37.2672Z" fill="white" fill-opacity="0.16"/>
<path d="M22.0774 37.5315C22.2738 37.021 22.372 36.7657 22.5404 36.6488C22.6875 36.5466 22.8697 36.5079 23.0456 36.5415C23.247 36.58 23.4404 36.7734 23.8272 37.1602L26.8393 40.1723C27.2261 40.5591 27.4195 40.7525 27.458 40.9539C27.4916 41.1299 27.453 41.312 27.3508 41.4592C27.2338 41.6276 26.9786 41.7258 26.468 41.9221L19.3333 44.6663L22.0774 37.5315Z" fill="white" fill-opacity="0.16"/>
<path d="M44 43.9996L33.3333 43.9996M19.3333 44.6663L26.7323 41.8205C27.2055 41.6385 27.4422 41.5474 27.6635 41.4286C27.8602 41.3231 28.0477 41.2012 28.224 41.0644C28.4225 40.9104 28.6018 40.7311 28.9603 40.3726L43.9999 25.3329C45.4727 23.8602 45.4727 21.4723 44 19.9996C42.5272 18.5268 40.1394 18.5268 38.6666 19.9996L23.627 35.0392C23.2684 35.3978 23.0891 35.577 22.9351 35.7755C22.7983 35.9519 22.6765 36.1393 22.5709 36.336C22.4521 36.5574 22.3611 36.794 22.179 37.2672L19.3333 44.6663ZM19.3333 44.6663L22.0774 37.5315C22.2738 37.021 22.372 36.7657 22.5404 36.6488C22.6875 36.5466 22.8697 36.5079 23.0456 36.5415C23.247 36.58 23.4404 36.7734 23.8272 37.1602L26.8393 40.1723C27.2261 40.5591 27.4195 40.7525 27.458 40.9539C27.4916 41.1299 27.453 41.312 27.3508 41.4592C27.2338 41.6276 26.9786 41.7258 26.468 41.9221L19.3333 44.6663Z" stroke="white" stroke-width="2.32727" stroke-linecap="round" stroke-linejoin="round"/>
</g>
<rect x="0.333333" y="0.333333" width="63.3333" height="63.3333" rx="10.3333" stroke="white" stroke-opacity="0.4" stroke-width="0.666667"/>
<defs>
<filter id="filter0_dd_32_17520" x="-0.762922" y="0.38079" width="65.5238" height="65.5239" filterUnits="userSpaceOnUse" color-interpolation-filters="sRGB">
<feFlood flood-opacity="0" result="BackgroundImageFix"/>
<feColorMatrix in="SourceAlpha" type="matrix" values="0 0 0 0 0 0 0 0 0 0 0 0 0 0 0 0 0 0 127 0" result="hardAlpha"/>
<feOffset dy="1.14286"/>
<feGaussianBlur stdDeviation="1.14286"/>
<feColorMatrix type="matrix" values="0 0 0 0 0.0627451 0 0 0 0 0.0941176 0 0 0 0 0.156863 0 0 0 0.06 0"/>
<feBlend mode="normal" in2="BackgroundImageFix" result="effect1_dropShadow_32_17520"/>
<feColorMatrix in="SourceAlpha" type="matrix" values="0 0 0 0 0 0 0 0 0 0 0 0 0 0 0 0 0 0 127 0" result="hardAlpha"/>
<feOffset dy="1.14286"/>
<feGaussianBlur stdDeviation="1.71429"/>
<feColorMatrix type="matrix" values="0 0 0 0 0.0627451 0 0 0 0 0.0941176 0 0 0 0 0.156863 0 0 0 0.1 0"/>
<feBlend mode="normal" in2="effect1_dropShadow_32_17520" result="effect2_dropShadow_32_17520"/>
<feBlend mode="normal" in="SourceGraphic" in2="effect2_dropShadow_32_17520" result="shape"/>
</filter>
<radialGradient id="paint0_radial_32_17520" cx="0" cy="0" r="1" gradientUnits="userSpaceOnUse" gradientTransform="translate(15.0303 30.6665) rotate(90.8254) scale(26.0331 3.74245)">
<stop stop-color="white"/>
<stop offset="0.9999" stop-color="#D9D9D9" stop-opacity="0.1"/>
<stop offset="1" stop-color="white" stop-opacity="0.1"/>
</radialGradient>
<radialGradient id="paint1_radial_32_17520" cx="0" cy="0" r="1" gradientUnits="userSpaceOnUse" gradientTransform="translate(31.7803 30.6665) rotate(90.8254) scale(26.0331 3.74245)">
<stop stop-color="white"/>
<stop offset="0.9999" stop-color="#D9D9D9" stop-opacity="0.1"/>
<stop offset="1" stop-color="white" stop-opacity="0.1"/>
</radialGradient>
<radialGradient id="paint2_radial_32_17520" cx="0" cy="0" r="1" gradientUnits="userSpaceOnUse" gradientTransform="translate(48.5303 30.6665) rotate(90.8254) scale(26.0331 3.74245)">
<stop stop-color="white"/>
<stop offset="0.9999" stop-color="#D9D9D9" stop-opacity="0.1"/>
<stop offset="1" stop-color="white" stop-opacity="0.1"/>
</radialGradient>
<radialGradient id="paint3_radial_32_17520" cx="0" cy="0" r="1" gradientUnits="userSpaceOnUse" gradientTransform="translate(62.5427 46.3572) rotate(90.8254) scale(26.0331 3.74245)">
<stop stop-color="white"/>
<stop offset="0.9999" stop-color="#D9D9D9" stop-opacity="0.1"/>
<stop offset="1" stop-color="white" stop-opacity="0.1"/>
</radialGradient>
<radialGradient id="paint4_radial_32_17520" cx="0" cy="0" r="1" gradientUnits="userSpaceOnUse" gradientTransform="translate(62.5427 63.1074) rotate(90.8254) scale(26.0331 3.74245)">
<stop stop-color="white"/>
<stop offset="0.9999" stop-color="#D9D9D9" stop-opacity="0.1"/>
<stop offset="1" stop-color="white" stop-opacity="0.1"/>
</radialGradient>
<radialGradient id="paint5_radial_32_17520" cx="0" cy="0" r="1" gradientUnits="userSpaceOnUse" gradientTransform="translate(62.5427 79.8572) rotate(90.8254) scale(26.0331 3.74245)">
<stop stop-color="white"/>
<stop offset="0.9999" stop-color="#D9D9D9" stop-opacity="0.1"/>
<stop offset="1" stop-color="white" stop-opacity="0.1"/>
</radialGradient>
<clipPath id="clip0_32_17520">
<rect width="64" height="64" rx="10.6667" fill="white"/>
</clipPath>
<clipPath id="clip1_32_17520">
<rect x="2.66565" y="2.6665" width="58.6667" height="58.6667" rx="9.28" fill="white"/>
</clipPath>
</defs>
</svg>
