<svg width="64" height="64" viewBox="0 0 64 64" fill="none" xmlns="http://www.w3.org/2000/svg">
<g clip-path="url(#clip0_32_17515)">
<rect width="64" height="64" rx="10.6667" fill="#2E90FA"/>
<g filter="url(#filter0_dd_32_17515)">
<g clip-path="url(#clip1_32_17515)">
<rect x="2.66876" y="2.66699" width="58.6667" height="58.6667" rx="9.28" fill="#1570EF"/>
<rect opacity="0.8" x="14.6585" y="-0.83374" width="0.75" height="63.0019" fill="url(#paint0_radial_32_17515)"/>
<rect opacity="0.8" x="31.4085" y="-0.83374" width="0.75" height="63.0019" fill="url(#paint1_radial_32_17515)"/>
<rect opacity="0.8" x="48.1584" y="-0.83374" width="0.75" height="63.0019" fill="url(#paint2_radial_32_17515)"/>
<rect opacity="0.8" x="62.1709" y="14.8569" width="0.75" height="63.002" transform="rotate(90 62.1709 14.8569)" fill="url(#paint3_radial_32_17515)"/>
<rect opacity="0.8" x="62.1709" y="31.6072" width="0.75" height="63.002" transform="rotate(90 62.1709 31.6072)" fill="url(#paint4_radial_32_17515)"/>
<rect opacity="0.8" x="62.1709" y="48.3569" width="0.75" height="63.002" transform="rotate(90 62.1709 48.3569)" fill="url(#paint5_radial_32_17515)"/>
</g>
<rect x="3.10626" y="3.10449" width="57.7917" height="57.7917" rx="8.8425" stroke="white" stroke-opacity="0.3" stroke-width="0.875"/>
</g>
<path d="M29.3333 21.3337L32 21.3337L32 32.0003L34.6667 32.0003C37.6122 32.0003 40 34.3881 40 37.3337C40 40.2792 37.6122 42.667 34.6667 42.667L32 42.667L32 32.0003L29.3333 32.0003C26.3878 32.0003 24 29.6125 24 26.667C24 23.7215 26.3878 21.3337 29.3333 21.3337Z" fill="white" fill-opacity="0.16"/>
<path d="M24 37.3337C24 40.2792 26.3878 42.667 29.3333 42.667L34.6667 42.667C37.6122 42.667 40 40.2792 40 37.3337C40 34.3881 37.6122 32.0003 34.6667 32.0003L29.3333 32.0003C26.3878 32.0003 24 29.6125 24 26.667C24 23.7215 26.3878 21.3337 29.3333 21.3337L34.6667 21.3337C37.6122 21.3337 40 23.7215 40 26.667M32 18.667L32 45.3337" stroke="white" stroke-width="2.32727" stroke-linecap="round" stroke-linejoin="round"/>
</g>
<rect x="0.333333" y="0.333333" width="63.3333" height="63.3333" rx="10.3333" stroke="white" stroke-opacity="0.4" stroke-width="0.666667"/>
<defs>
<filter id="filter0_dd_32_17515" x="-0.759809" y="0.381278" width="65.5238" height="65.5239" filterUnits="userSpaceOnUse" color-interpolation-filters="sRGB">
<feFlood flood-opacity="0" result="BackgroundImageFix"/>
<feColorMatrix in="SourceAlpha" type="matrix" values="0 0 0 0 0 0 0 0 0 0 0 0 0 0 0 0 0 0 127 0" result="hardAlpha"/>
<feOffset dy="1.14286"/>
<feGaussianBlur stdDeviation="1.14286"/>
<feColorMatrix type="matrix" values="0 0 0 0 0.0627451 0 0 0 0 0.0941176 0 0 0 0 0.156863 0 0 0 0.06 0"/>
<feBlend mode="normal" in2="BackgroundImageFix" result="effect1_dropShadow_32_17515"/>
<feColorMatrix in="SourceAlpha" type="matrix" values="0 0 0 0 0 0 0 0 0 0 0 0 0 0 0 0 0 0 127 0" result="hardAlpha"/>
<feOffset dy="1.14286"/>
<feGaussianBlur stdDeviation="1.71429"/>
<feColorMatrix type="matrix" values="0 0 0 0 0.0627451 0 0 0 0 0.0941176 0 0 0 0 0.156863 0 0 0 0.1 0"/>
<feBlend mode="normal" in2="effect1_dropShadow_32_17515" result="effect2_dropShadow_32_17515"/>
<feBlend mode="normal" in="SourceGraphic" in2="effect2_dropShadow_32_17515" result="shape"/>
</filter>
<radialGradient id="paint0_radial_32_17515" cx="0" cy="0" r="1" gradientUnits="userSpaceOnUse" gradientTransform="translate(15.0335 30.6672) rotate(90.8254) scale(26.0331 3.74245)">
<stop stop-color="white"/>
<stop offset="0.9999" stop-color="#D9D9D9" stop-opacity="0.1"/>
<stop offset="1" stop-color="white" stop-opacity="0.1"/>
</radialGradient>
<radialGradient id="paint1_radial_32_17515" cx="0" cy="0" r="1" gradientUnits="userSpaceOnUse" gradientTransform="translate(31.7835 30.6672) rotate(90.8254) scale(26.0331 3.74245)">
<stop stop-color="white"/>
<stop offset="0.9999" stop-color="#D9D9D9" stop-opacity="0.1"/>
<stop offset="1" stop-color="white" stop-opacity="0.1"/>
</radialGradient>
<radialGradient id="paint2_radial_32_17515" cx="0" cy="0" r="1" gradientUnits="userSpaceOnUse" gradientTransform="translate(48.5334 30.6672) rotate(90.8254) scale(26.0331 3.74245)">
<stop stop-color="white"/>
<stop offset="0.9999" stop-color="#D9D9D9" stop-opacity="0.1"/>
<stop offset="1" stop-color="white" stop-opacity="0.1"/>
</radialGradient>
<radialGradient id="paint3_radial_32_17515" cx="0" cy="0" r="1" gradientUnits="userSpaceOnUse" gradientTransform="translate(62.5459 46.3579) rotate(90.8254) scale(26.0331 3.74245)">
<stop stop-color="white"/>
<stop offset="0.9999" stop-color="#D9D9D9" stop-opacity="0.1"/>
<stop offset="1" stop-color="white" stop-opacity="0.1"/>
</radialGradient>
<radialGradient id="paint4_radial_32_17515" cx="0" cy="0" r="1" gradientUnits="userSpaceOnUse" gradientTransform="translate(62.5459 63.1082) rotate(90.8254) scale(26.0331 3.74245)">
<stop stop-color="white"/>
<stop offset="0.9999" stop-color="#D9D9D9" stop-opacity="0.1"/>
<stop offset="1" stop-color="white" stop-opacity="0.1"/>
</radialGradient>
<radialGradient id="paint5_radial_32_17515" cx="0" cy="0" r="1" gradientUnits="userSpaceOnUse" gradientTransform="translate(62.5459 79.8579) rotate(90.8254) scale(26.0331 3.74245)">
<stop stop-color="white"/>
<stop offset="0.9999" stop-color="#D9D9D9" stop-opacity="0.1"/>
<stop offset="1" stop-color="white" stop-opacity="0.1"/>
</radialGradient>
<clipPath id="clip0_32_17515">
<rect width="64" height="64" rx="10.6667" fill="white"/>
</clipPath>
<clipPath id="clip1_32_17515">
<rect x="2.66876" y="2.66699" width="58.6667" height="58.6667" rx="9.28" fill="white"/>
</clipPath>
</defs>
</svg>
