<svg width="64" height="64" viewBox="0 0 64 64" fill="none" xmlns="http://www.w3.org/2000/svg">
<g clip-path="url(#clip0_202_17603)">
<rect x="42.8333" y="0.00268555" width="63.9981" height="2.7332" transform="rotate(90 42.8333 0.00268555)" fill="#713B12"/>
<rect x="47.5671" y="0.00268555" width="63.9981" height="2.7332" transform="rotate(90 47.5671 0.00268555)" fill="#713B12"/>
<rect x="38.0976" y="0.00268555" width="63.9981" height="2.7332" transform="rotate(90 38.0976 0.00268555)" fill="#713B12"/>
<rect x="28.6341" y="0.00268555" width="63.9981" height="2.7332" transform="rotate(90 28.6341 0.00268555)" fill="#713B12"/>
<rect x="23.9004" y="0.00268555" width="63.9981" height="2.7332" transform="rotate(90 23.9004 0.00268555)" fill="#713B12"/>
<rect x="19.1667" y="0.00268555" width="63.9981" height="2.7332" transform="rotate(90 19.1667 0.00268555)" fill="#713B12"/>
<rect x="63.9999" y="42.8352" width="63.998" height="2.7332" transform="rotate(-180 63.9999 42.8352)" fill="#713B12"/>
<rect x="63.9999" y="47.5684" width="63.998" height="2.7332" transform="rotate(-180 63.9999 47.5684)" fill="#713B12"/>
<rect x="63.9999" y="38.1023" width="63.998" height="2.7332" transform="rotate(-180 63.9999 38.1023)" fill="#713B12"/>
<rect x="63.9999" y="28.6348" width="63.998" height="2.7332" transform="rotate(-180 63.9999 28.6348)" fill="#713B12"/>
<rect x="63.9999" y="23.9016" width="63.998" height="2.7332" transform="rotate(-180 63.9999 23.9016)" fill="#713B12"/>
<rect x="63.9999" y="19.1672" width="63.998" height="2.7332" transform="rotate(-180 63.9999 19.1672)" fill="#713B12"/>
<g filter="url(#filter0_di_202_17603)">
<rect x="5.33389" y="5.3335" width="53.3333" height="53.3335" rx="8" fill="#1A0044"/>
<rect x="5.66535" y="5.66495" width="52.6704" height="52.6705" rx="7.66855" stroke="black" stroke-opacity="0.2" stroke-width="0.662907"/>
</g>
<g filter="url(#filter1_i_202_17603)">
<path d="M15.1112 16.4448H17.143C17.5257 16.4448 17.7171 16.4448 17.871 16.5152C18.0067 16.5772 18.1217 16.677 18.2023 16.8025C18.2938 16.945 18.3208 17.1344 18.375 17.5133L19.1112 22.667M19.1112 22.667L20.7475 34.6937C20.9551 36.2199 21.059 36.983 21.4238 37.5574C21.7453 38.0635 22.2062 38.466 22.7511 38.7163C23.3694 39.0004 24.1396 39.0004 25.6798 39.0004H38.9921C40.4583 39.0004 41.1914 39.0004 41.7905 38.7366C42.3187 38.504 42.7719 38.129 43.0992 37.6536C43.4704 37.1145 43.6076 36.3943 43.882 34.954L45.9409 24.1443C46.0375 23.6374 46.0858 23.384 46.0158 23.1858C45.9544 23.012 45.8333 22.8657 45.6741 22.7729C45.4925 22.667 45.2345 22.667 44.7185 22.667H19.1112ZM27.5557 46.0004C27.5557 46.8595 26.8592 47.556 26.0001 47.556C25.141 47.556 24.4445 46.8595 24.4445 46.0004C24.4445 45.1413 25.141 44.4448 26.0001 44.4448C26.8592 44.4448 27.5557 45.1413 27.5557 46.0004ZM40.0001 46.0004C40.0001 46.8595 39.3037 47.556 38.4446 47.556C37.5854 47.556 36.889 46.8595 36.889 46.0004C36.889 45.1413 37.5854 44.4448 38.4446 44.4448C39.3037 44.4448 40.0001 45.1413 40.0001 46.0004Z" stroke="white" stroke-width="2.37946" stroke-linecap="round" stroke-linejoin="round"/>
</g>
</g>
<defs>
<filter id="filter0_di_202_17603" x="0.000556469" y="1.33349" width="64" height="64.0002" filterUnits="userSpaceOnUse" color-interpolation-filters="sRGB">
<feFlood flood-opacity="0" result="BackgroundImageFix"/>
<feColorMatrix in="SourceAlpha" type="matrix" values="0 0 0 0 0 0 0 0 0 0 0 0 0 0 0 0 0 0 127 0" result="hardAlpha"/>
<feOffset dy="1.33333"/>
<feGaussianBlur stdDeviation="2.66667"/>
<feComposite in2="hardAlpha" operator="out"/>
<feColorMatrix type="matrix" values="0 0 0 0 0 0 0 0 0 0 0 0 0 0 0 0 0 0 0.25 0"/>
<feBlend mode="normal" in2="BackgroundImageFix" result="effect1_dropShadow_202_17603"/>
<feBlend mode="normal" in="SourceGraphic" in2="effect1_dropShadow_202_17603" result="shape"/>
<feColorMatrix in="SourceAlpha" type="matrix" values="0 0 0 0 0 0 0 0 0 0 0 0 0 0 0 0 0 0 127 0" result="hardAlpha"/>
<feOffset/>
<feGaussianBlur stdDeviation="1.32581"/>
<feComposite in2="hardAlpha" operator="arithmetic" k2="-1" k3="1"/>
<feColorMatrix type="matrix" values="0 0 0 0 0 0 0 0 0 0 0 0 0 0 0 0 0 0 0.25 0"/>
<feBlend mode="normal" in2="shape" result="effect2_innerShadow_202_17603"/>
</filter>
<filter id="filter1_i_202_17603" x="12" y="13.3335" width="37.3333" height="37.3333" filterUnits="userSpaceOnUse" color-interpolation-filters="sRGB">
<feFlood flood-opacity="0" result="BackgroundImageFix"/>
<feBlend mode="normal" in="SourceGraphic" in2="BackgroundImageFix" result="shape"/>
<feColorMatrix in="SourceAlpha" type="matrix" values="0 0 0 0 0 0 0 0 0 0 0 0 0 0 0 0 0 0 127 0" result="hardAlpha"/>
<feOffset/>
<feGaussianBlur stdDeviation="0.0807576"/>
<feComposite in2="hardAlpha" operator="arithmetic" k2="-1" k3="1"/>
<feColorMatrix type="matrix" values="0 0 0 0 0 0 0 0 0 0 0 0 0 0 0 0 0 0 0.25 0"/>
<feBlend mode="normal" in2="shape" result="effect1_innerShadow_202_17603"/>
</filter>
<clipPath id="clip0_202_17603">
<rect width="64" height="64.0001" rx="10.6667" fill="white"/>
</clipPath>
</defs>
</svg>
