<svg width="50" height="50" viewBox="0 0 50 50" fill="none" xmlns="http://www.w3.org/2000/svg">
<path d="M28.3596 36.9409C28.3596 37.5665 28.8522 38.0591 29.4778 38.0591H42.9113C43.5369 38.0591 44.0296 37.5665 44.0296 36.9409C44.0296 36.3153 43.5369 35.8227 42.9113 35.8227H29.4778C28.8522 35.8227 28.3596 36.3153 28.3596 36.9409Z" fill="#D1E100"/>
<path d="M42.9064 41.7931H29.4729C28.8473 41.7931 28.3547 42.2857 28.3547 42.9113C28.3547 43.5369 28.8473 44.0296 29.4729 44.0296H42.9064C43.532 44.0296 44.0246 43.5369 44.0246 42.9113C44.0246 42.2857 43.532 41.7931 42.9064 41.7931Z" fill="#D1E100"/>
<path d="M26.4877 26.1182H35.4433C36.069 26.1182 36.5616 25.6256 36.5616 25C36.5616 19.4433 32.0443 14.9261 26.4877 14.9261C25.8621 14.9261 25.3695 15.4187 25.3695 16.0443V25C25.3695 25.6256 25.8621 26.1182 26.4877 26.1182ZM27.6059 23.8818V17.2365C31.0148 17.7291 33.7635 20.4778 34.2512 23.8818H27.6059Z" fill="#D1E100"/>
<path d="M45.8966 0H4.10345C1.84236 0 0 1.84236 0 4.10345V45.8966C0 48.1576 1.84236 50 4.10345 50H45.8966C48.1576 50 50 48.1576 50 45.8966V4.10345C50 1.84236 48.1576 0 45.8966 0ZM16.4187 7.46305H2.23153V4.09852C2.23153 3.12315 2.99507 2.30049 3.96552 2.23153H16.4187V7.46305ZM47.7635 45.8966C47.7635 46.8769 46.9951 47.6995 46.0296 47.7635H4.10345C3.07389 47.7635 2.23153 46.9261 2.23153 45.8916V9.69458H47.7586V45.8966H47.7635ZM18.6453 7.46798V2.23153H45.8867C46.9163 2.23153 47.7586 3.06897 47.7586 4.10345V7.46798H18.6453Z" fill="#D1E100"/>
<path d="M16.0443 44.0246C21.601 44.0246 26.1182 39.5074 26.1182 33.9507C26.1182 33.3251 25.6256 32.8325 25 32.8325H17.1576V24.9901C17.1576 24.3645 16.665 23.8719 16.0394 23.8719C10.4828 23.8719 5.96552 28.3892 5.96552 33.9458C5.96552 39.5025 10.4828 44.0197 16.0394 44.0197L16.0443 44.0246ZM14.9261 26.1872V33.9507C14.9261 34.5764 15.4187 35.069 16.0443 35.069H23.8079C23.2611 38.9163 19.9606 41.7931 16.0443 41.7931C11.7192 41.7931 8.20197 38.2759 8.20197 33.9507C8.20197 30.0443 11.0788 26.7438 14.9261 26.1872Z" fill="#D1E100"/>
</svg>
