<svg width="51" height="51" viewBox="0 0 51 51" fill="none" xmlns="http://www.w3.org/2000/svg">
<path d="M25.619 0.178572C25.2381 -0.0595239 24.7619 -0.0595239 24.4048 0.178572L0.57143 14.4643C0.214286 14.6785 0 15.0595 0 15.4881V20.25C0 20.9167 0.52381 21.4405 1.19047 21.4405H48.8095C49.4762 21.4405 50 20.9167 50 20.25V15.4881C50 15.0595 49.7857 14.6785 49.4286 14.4643L25.619 0.178572ZM47.619 19.0595H2.38095V16.1548L25 2.58334L47.619 16.1548V19.0595ZM48.8095 47.631H47.619V44.0595C47.619 41.2262 45.619 38.7976 42.8572 38.2262V25.0119H40.4762V38.1072H33.3334V25.0119H30.9524V38.1072H19.0476V25.0119H16.6667V38.1072H9.5238V25.0119H7.14285V38.2262C4.38095 38.7976 2.38095 41.2262 2.38095 44.0595V47.631H1.19047C0.52381 47.631 0 48.1548 0 48.8214C0 49.4881 0.52381 50.012 1.19047 50.012H48.8095C49.4762 50.012 50 49.4881 50 48.8214C50 48.1548 49.4762 47.631 48.8095 47.631ZM45.2381 47.631H4.76191V44.0595C4.76191 42.0834 6.35715 40.4881 8.33335 40.4881H41.6666C43.6428 40.4881 45.2381 42.0834 45.2381 44.0595V47.631ZM20.2381 11.9166H29.7619C30.4286 11.9166 30.9524 12.4405 30.9524 13.1072C30.9524 13.7738 30.4286 14.2976 29.7619 14.2976H20.2381C19.5714 14.2976 19.0476 13.7738 19.0476 13.1072C19.0476 12.4405 19.5714 11.9166 20.2381 11.9166Z" fill="#21524F"/>
</svg>
